<?xml version="1.0" encoding="utf-8"?>
<!-- Generator: Adobe Illustrator 28.2.0, SVG Export Plug-In . SVG Version: 6.00 Build 0)  -->
<svg version="1.1" id="레이어_1" xmlns="http://www.w3.org/2000/svg" xmlns:xlink="http://www.w3.org/1999/xlink" x="0px"
	 y="0px" viewBox="0 0 96 50" style="enable-background:new 0 0 96 50;" xml:space="preserve">
<style type="text/css">
	.st0{fill:#0A4129;}
	.st1{fill:#FFFFFF;}
</style>
<g>
	<path class="st0" d="M85.2,15.6c-0.6-0.8-1.2-1.6-1.9-2.4c-1.3-1.5-1.9-3.5-2.2-5.4c-0.1-0.7-0.8-1.2-1.5-1
		c-1.4,0.5-3.3,0.9-5.5,1.5c-3.8,0.8-7.4,1.2-10.6,1.2c-3.3,0-6.2-0.5-8.8-1.3c-4.6-1.4-9.4-3.1-14-5.7c-0.4-0.2-0.8-0.2-1.2,0
		c-0.8,0.4-1.6,1-2.1,1.2c-0.6,0.4-0.8,0.5-1,0.6c-2.3,1.1-4.7,1.6-7.1,2c-0.4,0.1-0.7,0.1-1.1,0.2c-2.6,0.5-4.9,0.7-7,0.7
		c-3.6,0-7-0.7-10.7-2.2c0,0-1.1-0.4-1.1-0.4C9.1,4.5,8.9,4.4,8.7,4.3c-0.3-0.1-0.5,0-0.7,0c0,0-0.1,0-0.1,0c-0.1,0-0.1,0.1,0,0.2
		c0,0.1,0.1,0.2,0.1,0.2C7.9,5,8,5.2,8,5.4c0.1,0.5,0.2,0.9,0.3,1.4c0.1,0.5,0.2,0.8,0.2,1c1.6,6.9,3,19-3.9,28.2h0.1
		c0.4,0,1,0.1,1.2,0.1c3.1,0,6.1,0.5,10,1.6c4.6,1.3,9.6,5,13,9.2c0.3,0.4,0.8,0.6,1.3,0.4c5.8-2,12-3.3,18.8-3.9
		c3.2-0.3,6.1-0.4,8.7-0.4c6.6,0,12.7,0.8,19.7,2.7c0.7,0.2,1.5-0.3,1.5-1c0.1-0.9,0.2-2,0.4-3.2c0.6-3.2,1.8-6.8,2.6-8.2
		c1.9-3.7,5-7,8.9-9.6c0.6-0.4,0.7-1.4,0.1-1.9C88.7,19.9,87,17.8,85.2,15.6z"/>
	<path class="st1" d="M84.9,11.9c-1.5-1.8-2-4.4-1.9-6.8c0-0.9-0.9-1.5-1.7-1.1c-2.6,1.2-6.7,2.2-7.6,2.4C70.5,7,67,7.5,63.5,7.5
		c-2.8,0-5.6-0.3-8.2-1.2c-5.1-1.6-9.9-3.2-14.5-6c-0.3-0.2-0.8-0.2-1.1-0.1c-1.3,0.6-3.7,2.1-4.1,2.3c-2.4,1.2-5.1,1.6-7.7,2.1
		c-2.3,0.5-4.5,0.7-6.6,0.7c-3.3,0-6.5-0.6-10-2.1C9.8,2.6,8.4,2,7,1.4C6,1,5.1,1.9,5.3,2.8c0.6,2.1,1,4.6,1.2,5.4
		c0.7,2.9,1.1,5.9,1.2,9c0.1,3-0.1,6.1-0.8,9c-0.7,2.9-1.9,5.7-3.6,8.1c-0.3,0.4-0.6,0.9-1,1.3C2,36,1.5,36.3,1.4,36.8
		c-0.1,0.2-0.1,0.4,0,0.5c0.1,0.1,0.1,0.1,0.2,0.2c0.7,0.3,1.5,0.3,2.3,0.4c0.7,0.1,1.3,0.2,2,0.2c3.2,0,6.2,0.6,9.3,1.5
		C19.9,41,25,45.1,28,49.2c0.3,0.5,0.9,0.6,1.4,0.4c6.4-2.5,12.9-3.8,19.7-4.3c3-0.3,5.8-0.4,8.6-0.4c6.8,0,13.3,0.9,21.6,3.4
		c0.8,0.3,1.7-0.5,1.5-1.3c-0.5-3.8,1.8-11,2.8-12.8c2.3-4.3,6.2-7.9,10.5-10.2c0.8-0.4,0.9-1.5,0.1-2C90.4,19.2,88,15.7,84.9,11.9z
		 M79.3,41.5c-0.2,1.2-0.3,2.2-0.4,3.2c-0.1,0.7-0.8,1.2-1.5,1c-7-1.9-13.1-2.7-19.7-2.7c-2.6,0-5.5,0.1-8.7,0.4
		c-6.8,0.6-13,1.9-18.8,3.9c-0.5,0.2-1,0-1.3-0.4c-3.4-4.2-8.4-7.9-13-9.2c-0.4-0.1-0.8-0.2-1.3-0.3c-1.6-0.4-3.3-0.8-4.9-1
		c-0.8-0.1-1.5-0.2-2.3-0.2c-0.7,0-1.5,0.1-2.1-0.2c0,0-0.1,0-0.1-0.1c0,0,0-0.1-0.1-0.1c-0.1-0.6,0.4-1.1,0.7-1.6
		c0.3-0.6,0.7-1.1,1-1.7c1.4-2.8,2.3-5.8,2.7-8.9c0.4-2.9,0.4-5.8,0.2-8.7c-0.1-1.3-0.3-2.6-0.5-3.9C9.1,10.5,9,9.9,8.8,9.4
		C8.7,8.9,8.5,8.3,8.5,7.8c0-1-0.5-2-0.3-3.1c0.1-0.7,0.7-0.3,1.2-0.1c0,0,1.1,0.4,1.1,0.4c3.7,1.5,7.1,2.2,10.7,2.2
		c2.1,0,4.4-0.2,7-0.7c0.4-0.1,0.7-0.1,1.1-0.2c2.4-0.4,4.8-0.9,7.1-2c0.2-0.1,0.4-0.2,1-0.6c0.5-0.2,1.4-0.8,2.1-1.2
		c0.4-0.2,0.8-0.2,1.2,0c4.6,2.6,9.4,4.2,14,5.7c2.6,0.8,5.5,1.3,8.8,1.3c3.2,0,6.8-0.4,10.6-1.2c2.2-0.5,4-1,5.5-1.5
		c0.7-0.2,1.5,0.2,1.5,1c0.3,1.9,0.9,3.9,2.2,5.4c0.7,0.8,1.3,1.6,1.9,2.4c1.8,2.2,3.5,4.3,5.6,6.2c0.6,0.5,0.5,1.4-0.1,1.9
		c-3.8,2.6-7,6-8.9,9.6C81.1,34.7,79.9,38.3,79.3,41.5z"/>
</g>
</svg>
