<svg width="24" height="24" viewBox="0 0 24 24" fill="none" xmlns="http://www.w3.org/2000/svg">
<path d="M10.3631 1.59803C11.3087 0.800654 12.6914 0.800654 13.6369 1.59804L21.2543 8.0216C21.8264 8.50406 22.1566 9.21431 22.1566 9.96269V21.0251C22.1566 22.1158 21.2724 23 20.1817 23H16.2319C15.1412 23 14.257 22.1158 14.257 21.0251V14.8184C14.257 14.6626 14.1308 14.5362 13.9749 14.5362H10.0252C9.86931 14.5362 9.74302 14.6626 9.74302 14.8184V21.0251C9.74302 22.1158 8.85885 23 7.76815 23H3.81839C2.72769 23 1.84351 22.1158 1.84351 21.0251V9.96269C1.84351 9.21431 2.17365 8.50406 2.74577 8.0216L10.3631 1.59803ZM12.5457 2.8921C12.2305 2.6263 11.7696 2.6263 11.4544 2.8921L3.83702 9.31567C3.64631 9.47648 3.53626 9.71324 3.53626 9.96269V21.0251C3.53626 21.181 3.66257 21.3072 3.81839 21.3072H7.76815C7.92396 21.3072 8.05026 21.181 8.05026 21.0251V14.8184C8.05026 13.7277 8.93446 12.8435 10.0252 12.8435H13.9749C15.0656 12.8435 15.9498 13.7277 15.9498 14.8184V21.0251C15.9498 21.181 16.0761 21.3072 16.2319 21.3072H20.1817C20.3375 21.3072 20.4638 21.181 20.4638 21.0251V9.96269C20.4638 9.71324 20.3538 9.47648 20.1631 9.31567L12.5457 2.8921Z" fill="white"/>
</svg>
