<svg width="26" height="26" viewBox="0 0 26 26" fill="none" xmlns="http://www.w3.org/2000/svg">
<g clip-path="url(#clip0_4123_1946)">
<path d="M20.6865 15.5034V23.4504C20.6865 24.2313 20.0734 24.8515 19.3013 24.8515H16.145C15.3729 24.8515 14.7598 24.2313 14.7598 23.4504V15.5034" stroke="#004125" stroke-width="2" stroke-miterlimit="10"/>
<path d="M23.5022 6.56878H15.6908C10.6498 6.47691 7.44804 4.22603 5.29083 1.63062C4.45066 0.620021 2.95197 1.30907 2.95197 2.71013V19.4769C2.95197 20.878 4.45066 21.59 5.29083 20.5564C7.44804 17.961 10.6725 15.7101 15.6908 15.6183H23.5022C24.2515 15.6183 24.8646 14.9751 24.8646 14.1713V7.99281C24.8646 7.18893 24.2515 6.54582 23.5022 6.54582V6.56878Z" stroke="#004125" stroke-width="2" stroke-miterlimit="10"/>
<path d="M2.47511 14.263C1.11266 14.263 0 12.862 0 11.1164C0 9.37079 1.11266 7.96973 2.47511 7.96973V14.263Z" fill="#004125"/>
<path d="M20.6865 15.5033V7.02808" stroke="#004125" stroke-width="2" stroke-miterlimit="10"/>
</g>
<defs>
<clipPath id="clip0_4123_1946">
<rect width="26" height="26" fill="white"/>
</clipPath>
</defs>
</svg>
