<?xml version="1.0"?>
<svg width="119.99977" height="49.999992" xmlns="http://www.w3.org/2000/svg" xmlns:svg="http://www.w3.org/2000/svg" preserveAspectRatio="none" version="1.1">

 <g class="layer">
  <title>Layer 1</title>
  <path d="m60.12,49.86c11.51,0.25 23.04,0.12 34.55,-0.01c6.72,-0.17 13.96,-0.01 20,-2.02c1.85,-0.76 2.98,-2 3.88,-3.2c0.66,-1.26 0.53,-2.61 0.62,-3.92c0.21,-3.05 -0.61,-6.08 -0.46,-9.13c0.2,-2.88 0.33,-5.77 0.34,-8.65c0.43,-3.07 1.01,-6.13 0.88,-9.21c0.18,-2.65 0.05,-5.3 -0.95,-7.88c-0.76,-1.6 -2.62,-3.06 -5.04,-3.87c-2.05,-0.65 -4.47,-0.62 -6.72,-0.81c-6.65,-0.42 -13.18,-0.16 -19.82,-0.48c-15.17,-0.7 -30.31,-0.89 -45.49,-0.43c-5.54,0.3 -11.15,0 -16.69,0.3c-3.49,0.22 -6.96,0.54 -10.46,0.71c-5.31,0.22 -11.6,1.29 -13.08,4.78c-1.27,2.22 -0.82,4.62 -1.06,6.92c-0.18,2.33 0.29,4.64 0.34,6.97c-0.02,1.57 -0.03,3.14 0.06,4.71c-0.23,4.69 -0.75,9.38 -0.92,14.07c-0.6,3.59 1.44,6.88 6.72,8.8c3.8,1.18 8.19,1.26 12.37,1.56c13.58,0.86 27.28,0.55 40.93,0.79z" fill="#ffffff" id="path1" stroke-width="2"/>
 </g>
</svg>