<?xml version="1.0" encoding="UTF-8" standalone="no"?>
<svg
   width="119.99976"
   height="49.999992"
   viewBox="0 0 119.99977 49.999992"
   fill="none"
   version="1.1"
   id="svg1"
   sodipodi:docname="primary-submit-btn-bg.svg"
   inkscape:version="1.3.2 (091e20e, 2023-11-25, custom)"
   xmlns:inkscape="http://www.inkscape.org/namespaces/inkscape"
   xmlns:sodipodi="http://sodipodi.sourceforge.net/DTD/sodipodi-0.dtd"
   xmlns="http://www.w3.org/2000/svg"
   xmlns:svg="http://www.w3.org/2000/svg"
   preserveAspectRatio="none">
  <defs
     id="defs1" />
  <sodipodi:namedview
     id="namedview1"
     pagecolor="#ffffff"
     bordercolor="#000000"
     borderopacity="0.25"
     inkscape:showpageshadow="2"
     inkscape:pageopacity="0.0"
     inkscape:pagecheckerboard="0"
     inkscape:deskcolor="#d1d1d1"
     inkscape:zoom="9.975"
     inkscape:cx="59.899749"
     inkscape:cy="25.112782"
     inkscape:window-width="1920"
     inkscape:window-height="1001"
     inkscape:window-x="-9"
     inkscape:window-y="-9"
     inkscape:window-maximized="1"
     inkscape:current-layer="svg1" />
  <path
     d="m 60.115101,49.861 c 11.5191,0.2442 23.0402,0.1189 34.5593,-0.0139 C 101.385,49.6763 108.631,49.8446 114.669,47.8252 c 1.852,-0.7554 2.982,-1.9915 3.877,-3.1948 0.663,-1.2576 0.533,-2.6127 0.623,-3.9185 0.215,-3.0492 -0.61,-6.0808 -0.463,-9.1288 0.202,-2.8848 0.333,-5.7708 0.339,-8.6569 0.436,-3.067 1.013,-6.1226 0.886,-9.2073 0.181,-2.6444 0.051,-5.2950701 -0.955,-7.8837901 -0.752,-1.59423 -2.615,-3.05813 -5.036,-3.8603 -2.05,-0.65161 -4.467,-0.62124 -6.717,-0.81483 -6.65,-0.42259297 -13.184299,-0.16448097 -19.821699,-0.48205997 -15.1756,-0.69842226 -30.3091,-0.88441496 -45.489,-0.430188 -5.5385,0.303662 -11.157,0.0038 -16.6912,0.303662 -3.4924,0.213829 -6.9616,0.53393597 -10.4602,0.70474597 -5.3133003,0.22016 -11.6012207,1.29436 -13.0811007,4.78521 C 0.41464329,8.2593399 0.86302829,10.6557 0.61673229,12.9623 c -0.181038,2.3268 0.296818,4.6422 0.33892,6.9652 -0.016841,1.5715 -0.027366,3.1417 0.061048,4.7119 -0.23156101,4.6915 -0.74520301,9.3793 -0.91361101,14.0747 -0.60626697,3.5845 1.43988101,6.8767 6.71314101,8.7948 3.8038707,1.1805 8.1951707,1.2627 12.3695707,1.5563 13.5862,0.8629 27.2883,0.5592 40.9314,0.7958 z"
     fill="#ab7100"
     id="path1"
     style="stroke:none;stroke-width:2;stroke-dasharray:none;stroke-opacity:1" />
</svg>
