<?xml version="1.0" encoding="utf-8"?>
<!-- Generator: Adobe Illustrator 28.3.0, SVG Export Plug-In . SVG Version: 6.00 Build 0)  -->
<svg version="1.1" id="레이어_1" xmlns="http://www.w3.org/2000/svg" xmlns:xlink="http://www.w3.org/1999/xlink" x="0px"
	 y="0px" viewBox="0 0 55 46" style="enable-background:new 0 0 55 46;" xml:space="preserve">
<style type="text/css">
	.st0{opacity:0.28;}
	.st1{opacity:1.000000e-02;fill:url(#SVGID_1_);enable-background:new    ;}
	.st2{opacity:3.000000e-02;fill:url(#SVGID_00000170253701620303667740000003329957782825620126_);enable-background:new    ;}
	.st3{opacity:4.000000e-02;fill:url(#SVGID_00000033348539168677483500000015171314605744806074_);enable-background:new    ;}
	.st4{opacity:5.000000e-02;fill:url(#SVGID_00000081607384379410945440000013945911454240321705_);enable-background:new    ;}
	.st5{opacity:6.000000e-02;fill:url(#SVGID_00000002352405091747166120000013763391557872176041_);enable-background:new    ;}
	.st6{opacity:8.000000e-02;fill:url(#SVGID_00000056404598163799889400000012133459521598370970_);enable-background:new    ;}
	.st7{opacity:9.000000e-02;fill:url(#SVGID_00000173157163725763703520000002851920790331824782_);enable-background:new    ;}
	.st8{opacity:0.1;fill:url(#SVGID_00000172399196499651770690000006731198179993898653_);enable-background:new    ;}
	.st9{opacity:0.11;fill:url(#SVGID_00000013186937413584107090000010242774017142294689_);enable-background:new    ;}
	.st10{opacity:0.13;fill:url(#SVGID_00000042004985883149044480000009832362041315159987_);enable-background:new    ;}
	.st11{opacity:0.14;fill:url(#SVGID_00000103957760420231391170000000961700935591709097_);enable-background:new    ;}
	.st12{opacity:0.15;fill:url(#SVGID_00000033331005214544742030000012292441107335356306_);enable-background:new    ;}
	.st13{opacity:0.16;fill:url(#SVGID_00000010302169538496433060000003715995837750394271_);enable-background:new    ;}
	.st14{opacity:0.18;fill:url(#SVGID_00000011007941737053672650000017439897802783635600_);enable-background:new    ;}
	.st15{opacity:0.19;fill:url(#SVGID_00000120544306248662231350000010046391659070488250_);enable-background:new    ;}
	.st16{opacity:0.2;fill:url(#SVGID_00000072238135809932165700000004952402499869596602_);enable-background:new    ;}
	.st17{opacity:0.22;fill:url(#SVGID_00000137827979051578278090000000106923457944740496_);enable-background:new    ;}
	.st18{opacity:0.23;fill:url(#SVGID_00000086692128196903238120000001441641452267708308_);enable-background:new    ;}
	.st19{opacity:0.24;fill:url(#SVGID_00000178176549149561619280000006247432659246421647_);enable-background:new    ;}
	.st20{opacity:0.25;fill:url(#SVGID_00000054962857335718066620000013368916795786386081_);enable-background:new    ;}
	.st21{opacity:0.27;fill:url(#SVGID_00000120540143284155185890000010668005813612816007_);enable-background:new    ;}
	.st22{opacity:0.28;fill:url(#SVGID_00000108307860133115367970000000601750267350507169_);enable-background:new    ;}
	.st23{opacity:0.29;fill:url(#SVGID_00000122694617815573573110000010568575921004583561_);enable-background:new    ;}
	.st24{opacity:0.3;fill:url(#SVGID_00000080166990265925717230000014546905283119861686_);enable-background:new    ;}
	.st25{opacity:0.32;fill:url(#SVGID_00000016040896603973595910000005141416323544526256_);enable-background:new    ;}
	.st26{opacity:0.33;fill:url(#SVGID_00000020381550106517580510000005832232073739238549_);enable-background:new    ;}
	.st27{opacity:0.34;fill:url(#SVGID_00000078742652772478252170000013165759668824704924_);enable-background:new    ;}
	.st28{opacity:0.35;fill:url(#SVGID_00000147917781903871945170000005347327642725272975_);enable-background:new    ;}
	.st29{opacity:0.37;fill:url(#SVGID_00000038414573233392274480000010967571710361545904_);enable-background:new    ;}
	.st30{opacity:0.38;fill:url(#SVGID_00000177473123610973064580000011896437482929966012_);enable-background:new    ;}
	.st31{opacity:0.39;fill:url(#SVGID_00000149349975676477393960000017304249127784229549_);enable-background:new    ;}
	.st32{opacity:0.41;fill:url(#SVGID_00000066494494100860906450000004944294927486027649_);enable-background:new    ;}
	.st33{opacity:0.42;fill:url(#SVGID_00000002367136676516323690000013301245893747527607_);enable-background:new    ;}
	.st34{opacity:0.43;fill:url(#SVGID_00000094584979925785091910000007022303113946380962_);enable-background:new    ;}
	.st35{opacity:0.44;fill:url(#SVGID_00000089534351385441832000000004374577849568865726_);enable-background:new    ;}
	.st36{opacity:0.46;fill:url(#SVGID_00000008131503644959605350000005618841693856276925_);enable-background:new    ;}
	.st37{opacity:0.47;fill:url(#SVGID_00000163789270928914970830000011243274583266368937_);enable-background:new    ;}
	.st38{opacity:0.48;fill:url(#SVGID_00000139996740960594009040000005856760427978673815_);enable-background:new    ;}
	.st39{opacity:0.49;fill:url(#SVGID_00000160872325886095466020000013989243198012850349_);enable-background:new    ;}
	.st40{opacity:0.51;fill:url(#SVGID_00000036227800480453943900000001843824218204105147_);enable-background:new    ;}
	.st41{opacity:0.52;fill:url(#SVGID_00000167397742840633291500000003137927491765832122_);enable-background:new    ;}
	.st42{opacity:0.53;fill:url(#SVGID_00000140710793216518825740000008004379754350552995_);enable-background:new    ;}
	.st43{opacity:0.54;fill:url(#SVGID_00000028306296321183767350000010565231046552662697_);enable-background:new    ;}
	.st44{opacity:0.56;fill:url(#SVGID_00000130623279132167056330000012403791441040021671_);enable-background:new    ;}
	.st45{opacity:0.57;fill:url(#SVGID_00000105425962377960261000000004393193333480590476_);enable-background:new    ;}
	.st46{opacity:0.58;fill:url(#SVGID_00000149368890615633248000000003500157907360172168_);enable-background:new    ;}
	.st47{opacity:0.59;fill:url(#SVGID_00000024718009472226115130000010892038843561404602_);enable-background:new    ;}
	.st48{opacity:0.61;fill:url(#SVGID_00000087408751492858971520000009401616103597853103_);enable-background:new    ;}
	.st49{opacity:0.62;fill:url(#SVGID_00000090989362036634723830000014742655696987778691_);enable-background:new    ;}
	.st50{opacity:0.63;fill:url(#SVGID_00000019656510815382544660000017595206032332744589_);enable-background:new    ;}
	.st51{opacity:0.65;fill:url(#SVGID_00000063628898202271711140000017723360231113603746_);enable-background:new    ;}
	.st52{opacity:0.66;fill:url(#SVGID_00000048493494653208753420000002845963438113458355_);enable-background:new    ;}
	.st53{opacity:0.67;fill:url(#SVGID_00000089556528437276257840000017621517349583877006_);enable-background:new    ;}
	.st54{opacity:0.68;fill:url(#SVGID_00000144297649902580251650000000447936503519352484_);enable-background:new    ;}
	.st55{opacity:0.7;fill:url(#SVGID_00000133501822314587162310000017101645118192691854_);enable-background:new    ;}
	.st56{opacity:0.71;fill:url(#SVGID_00000160879886241097861480000008869293710327639692_);enable-background:new    ;}
	.st57{opacity:0.72;fill:url(#SVGID_00000047030239358309793090000016821574604689867687_);enable-background:new    ;}
	.st58{opacity:0.73;fill:url(#SVGID_00000086686379869769655400000005642197841469389968_);enable-background:new    ;}
	.st59{opacity:0.75;fill:url(#SVGID_00000007400313036713936440000017644620009854510778_);enable-background:new    ;}
	.st60{opacity:0.76;fill:url(#SVGID_00000151524950128657131690000001385700491465766838_);enable-background:new    ;}
	.st61{opacity:0.77;fill:url(#SVGID_00000144323125417479314100000004712172792916949673_);enable-background:new    ;}
	.st62{opacity:0.78;fill:url(#SVGID_00000066511582885783236280000015005845601010042806_);enable-background:new    ;}
	.st63{opacity:0.8;fill:url(#SVGID_00000149363916143755600610000003247893398767770297_);enable-background:new    ;}
	.st64{opacity:0.81;fill:url(#SVGID_00000156557406346069828210000008687668194179630229_);enable-background:new    ;}
	.st65{opacity:0.82;fill:url(#SVGID_00000008109694865011879050000003927962329606072508_);enable-background:new    ;}
	.st66{opacity:0.84;fill:url(#SVGID_00000002373040146868362320000013405946790897064113_);enable-background:new    ;}
	.st67{opacity:0.85;fill:url(#SVGID_00000148656789905190379890000009981252746383688127_);enable-background:new    ;}
	.st68{opacity:0.86;fill:url(#SVGID_00000144328527696839306560000014551000194162548878_);enable-background:new    ;}
	.st69{opacity:0.87;fill:url(#SVGID_00000013183242743250441370000014253292350947562372_);enable-background:new    ;}
	.st70{opacity:0.89;fill:url(#SVGID_00000010302500200321803190000005743367842148185773_);enable-background:new    ;}
	.st71{opacity:0.9;fill:url(#SVGID_00000064315064426441036530000003820277412118871430_);enable-background:new    ;}
	.st72{opacity:0.91;fill:url(#SVGID_00000061464958764624231950000005974470277217687949_);enable-background:new    ;}
	.st73{opacity:0.92;fill:url(#SVGID_00000022527202580071437240000000943271270309760403_);enable-background:new    ;}
	.st74{opacity:0.94;fill:url(#SVGID_00000182499417068037086560000014493224014025468314_);enable-background:new    ;}
	.st75{opacity:0.95;fill:url(#SVGID_00000058561925102240300250000005681525016269025166_);enable-background:new    ;}
	.st76{opacity:0.96;fill:url(#SVGID_00000169517331038517099650000006493631038786087073_);enable-background:new    ;}
	.st77{opacity:0.97;fill:url(#SVGID_00000096033359460171554670000012019261364860816299_);enable-background:new    ;}
	.st78{opacity:0.99;fill:url(#SVGID_00000021816883372326329780000000965482015645145489_);enable-background:new    ;}
	.st79{fill:url(#SVGID_00000042014620676557921500000011058610409323524753_);}
	.st80{fill:#E80000;}
	.st81{opacity:0.2;}
	.st82{fill:#181716;}
	.st83{fill:#191817;}
	.st84{fill:#1A1918;}
	.st85{fill:#1B1A19;}
	.st86{fill:#1C1B1A;}
	.st87{fill:#1D1C1B;}
	.st88{fill:#1E1D1C;}
	.st89{fill:#1F1E1D;}
	.st90{fill:#201F1E;}
	.st91{fill:#21201F;}
	.st92{fill:#222120;}
	.st93{fill:#232221;}
	.st94{fill:#242322;}
	.st95{fill:#252423;}
	.st96{fill:#262524;}
	.st97{fill:#272625;}
	.st98{fill:#282726;}
	.st99{fill:#292827;}
	.st100{fill:#2A2928;}
	.st101{fill:#2B2A29;}
	.st102{fill:#2C2B2A;}
	.st103{fill:#2D2C2B;}
	.st104{fill:#2E2D2C;}
	.st105{fill:#2F2E2D;}
	.st106{fill:#302F2E;}
	.st107{fill:#31302F;}
	.st108{fill:#323130;}
	.st109{fill:#333231;}
	.st110{fill:#343332;}
	.st111{fill:#353433;}
	.st112{fill:#363534;}
	.st113{fill:#373635;}
	.st114{fill:#383736;}
	.st115{fill:#383837;}
	.st116{fill:#393938;}
	.st117{fill:#3A3A39;}
	.st118{fill:#3B3B3A;}
	.st119{fill:#3C3C3B;}
	.st120{fill:#3D3D3C;}
	.st121{fill:#3E3E3D;}
	.st122{fill:#3F3F3E;}
	.st123{fill:#40403F;}
	.st124{fill:#414140;}
	.st125{fill:#424241;}
	.st126{fill:#434342;}
	.st127{fill:#444443;}
	.st128{fill:#454544;}
	.st129{fill:#464645;}
	.st130{fill:#474746;}
	.st131{fill:#484847;}
	.st132{fill:#494948;}
	.st133{fill:#4A4A49;}
	.st134{fill:#4B4B4A;}
	.st135{fill:#4C4C4B;}
	.st136{fill:#4D4D4C;}
	.st137{fill:#4E4E4D;}
	.st138{fill:#4F4F4E;}
	.st139{fill:#50504F;}
	.st140{fill:#515150;}
	.st141{fill:#525251;}
	.st142{fill:#535352;}
	.st143{fill:#545453;}
	.st144{fill:#555554;}
	.st145{fill:#565655;}
	.st146{fill:#575756;}
	.st147{fill:#585857;}
	.st148{fill:#595958;}
	.st149{fill:#5A5A59;}
	.st150{fill:#5B5B5A;}
	.st151{fill:#5C5C5B;}
	.st152{fill:#5D5D5C;}
	.st153{fill:#5E5E5D;}
	.st154{fill:#5F5F5E;}
	.st155{fill:#60605F;}
	.st156{fill:#616160;}
	.st157{fill:#626261;}
	.st158{fill:#636362;}
	.st159{fill:#646463;}
	.st160{fill:#656564;}
	.st161{fill:#666665;}
	.st162{fill:#676766;}
	.st163{fill:#686867;}
	.st164{fill:#696968;}
	.st165{fill:#6A6A69;}
	.st166{fill:#6B6B6A;}
	.st167{fill:#6C6C6B;}
	.st168{fill:#6D6D6C;}
	.st169{fill:#6E6E6D;}
	.st170{fill:#6F6F6E;}
	.st171{fill:#70706F;}
	.st172{fill:#717170;}
	.st173{fill:#727271;}
	.st174{fill:#737372;}
	.st175{fill:#747473;}
	.st176{fill:#757574;}
	.st177{fill:#767675;}
	.st178{fill:#777776;}
	.st179{fill:#787877;}
	.st180{fill:#797978;}
	.st181{fill:#797979;}
	.st182{fill:#7A7A7A;}
	.st183{fill:#7B7B7B;}
	.st184{fill:#7C7C7C;}
	.st185{fill:#7D7D7D;}
	.st186{fill:#7E7E7E;}
	.st187{fill:#7F7F7F;}
	.st188{fill:#808080;}
	.st189{fill:#818181;}
	.st190{fill:#828282;}
	.st191{fill:#838383;}
	.st192{fill:#848484;}
	.st193{fill:#858585;}
	.st194{fill:#868686;}
	.st195{fill:#878787;}
	.st196{fill:#888888;}
	.st197{fill:#898989;}
	.st198{fill:#8A8A8A;}
	.st199{fill:#8B8B8B;}
	.st200{fill:#8C8C8C;}
	.st201{fill:#8D8D8D;}
	.st202{fill:#8E8E8E;}
	.st203{fill:#8F8F8F;}
	.st204{fill:#909090;}
	.st205{fill:#919191;}
	.st206{fill:#929292;}
	.st207{fill:#939393;}
	.st208{fill:#949494;}
	.st209{fill:#959595;}
	.st210{fill:#969696;}
	.st211{fill:#979797;}
	.st212{fill:#989898;}
	.st213{fill:#999999;}
	.st214{fill:#9A9A9A;}
	.st215{fill:#9B9B9B;}
	.st216{fill:#9C9C9C;}
	.st217{fill:#9D9D9D;}
	.st218{fill:#9E9E9E;}
	.st219{fill:#9F9F9F;}
	.st220{fill:#A0A0A0;}
	.st221{fill:#A1A1A1;}
	.st222{fill:#A2A2A2;}
	.st223{fill:#A3A3A3;}
	.st224{fill:#A4A4A4;}
	.st225{fill:#A5A5A5;}
	.st226{fill:#A6A6A6;}
	.st227{fill:#A7A7A7;}
	.st228{fill:#A8A8A8;}
	.st229{fill:#A9A9A9;}
	.st230{fill:#AAAAAA;}
	.st231{fill:#ABABAB;}
	.st232{fill:#ACACAC;}
	.st233{fill:#ADADAD;}
	.st234{fill:#AEAEAE;}
	.st235{fill:#AFAFAF;}
	.st236{fill:#B0B0B0;}
	.st237{fill:#B1B1B1;}
	.st238{fill:#B2B2B2;}
	.st239{fill:#B3B3B3;}
	.st240{fill:#B4B4B4;}
	.st241{fill:#B5B5B5;}
	.st242{fill:#B6B6B6;}
	.st243{fill:#B7B7B7;}
	.st244{fill:#B8B8B8;}
	.st245{fill:#B9B9B9;}
	.st246{fill:#B9BABA;}
	.st247{fill:#BABBBB;}
	.st248{fill:#BBBCBC;}
	.st249{fill:#BCBDBD;}
	.st250{fill:#BDBEBE;}
	.st251{fill:#BEBFBF;}
	.st252{fill:#BFC0C0;}
	.st253{fill:#C0C1C1;}
	.st254{fill:#C1C2C2;}
	.st255{fill:#C2C3C3;}
	.st256{fill:#C3C4C4;}
	.st257{fill:#C4C5C5;}
	.st258{fill:#C5C6C6;}
	.st259{fill:#C6C7C7;}
	.st260{fill:#C7C8C8;}
	.st261{fill:#C8C9C9;}
	.st262{fill:#C9CACA;}
	.st263{fill:#CACBCB;}
	.st264{fill:#CBCCCC;}
	.st265{fill:#CCCDCD;}
	.st266{fill:#CDCECE;}
	.st267{fill:#CECFCF;}
	.st268{fill:#CFD0D0;}
	.st269{fill:#D0D1D1;}
	.st270{fill:#D1D2D2;}
	.st271{fill:#D2D3D3;}
	.st272{fill:#D3D4D4;}
	.st273{fill:#D4D5D5;}
	.st274{fill:#D5D6D6;}
	.st275{fill:#D6D7D7;}
	.st276{fill:#D7D8D8;}
	.st277{fill:#D8D9D9;}
	.st278{fill:#D9DADA;}
	.st279{fill:url(#SVGID_00000003077442738989269550000002250296371703753122_);}
	.st280{fill:#2B2B2A;}
	.st281{fill:#2C2C2B;}
	.st282{fill:#2D2D2C;}
	.st283{fill:#2E2E2D;}
	.st284{fill:#2F2F2E;}
	.st285{fill:#30302F;}
	.st286{fill:#313130;}
	.st287{fill:#323231;}
	.st288{fill:#333332;}
	.st289{fill:#343433;}
	.st290{fill:#353534;}
	.st291{fill:#363635;}
	.st292{fill:#373736;}
	.st293{fill:#3F3E3E;}
	.st294{fill:#403F3F;}
	.st295{fill:#414040;}
	.st296{fill:#424141;}
	.st297{fill:#434242;}
	.st298{fill:#444343;}
	.st299{fill:#454444;}
	.st300{fill:#464545;}
	.st301{fill:#474646;}
	.st302{fill:#484747;}
	.st303{fill:#494848;}
	.st304{fill:#4A4949;}
	.st305{fill:#4B4A4A;}
	.st306{fill:#4C4B4B;}
	.st307{fill:#4D4C4C;}
	.st308{fill:#4E4D4D;}
	.st309{fill:#4F4E4E;}
	.st310{fill:#504F4F;}
	.st311{fill:#515050;}
	.st312{fill:#515151;}
	.st313{fill:#525252;}
	.st314{fill:#535353;}
	.st315{fill:#545454;}
	.st316{fill:#555555;}
	.st317{fill:#565656;}
	.st318{fill:#575757;}
	.st319{fill:#585858;}
	.st320{fill:#595959;}
	.st321{fill:#5A5A5A;}
	.st322{fill:#5B5B5B;}
	.st323{fill:#5C5C5C;}
	.st324{fill:#5D5D5D;}
	.st325{fill:#5E5E5E;}
	.st326{fill:#5F5F5F;}
	.st327{fill:#606060;}
	.st328{fill:#616161;}
	.st329{fill:#626262;}
	.st330{fill:#636363;}
	.st331{fill:#646464;}
	.st332{fill:#656565;}
	.st333{fill:#666666;}
	.st334{fill:#676767;}
	.st335{fill:#686868;}
	.st336{fill:#696969;}
	.st337{fill:#6A6A6A;}
	.st338{fill:#6B6B6B;}
	.st339{fill:#6C6C6C;}
	.st340{fill:#6D6D6D;}
	.st341{fill:#6E6E6E;}
	.st342{fill:#6F6F6F;}
	.st343{fill:#707070;}
	.st344{fill:#717171;}
	.st345{fill:#727272;}
	.st346{fill:#737373;}
	.st347{fill:#747474;}
	.st348{fill:#757575;}
	.st349{fill:#767676;}
	.st350{fill:#777777;}
	.st351{fill:#787878;}
	.st352{fill:#787979;}
	.st353{fill:#797A7A;}
	.st354{fill:#7A7B7B;}
	.st355{fill:#7B7C7C;}
	.st356{fill:#7C7D7D;}
	.st357{fill:#7D7E7E;}
	.st358{fill:#7E7F7F;}
	.st359{fill:#7F8080;}
	.st360{fill:#808181;}
	.st361{fill:#818282;}
	.st362{fill:#828383;}
	.st363{fill:#838484;}
	.st364{fill:#848585;}
	.st365{fill:#858686;}
	.st366{fill:#868787;}
	.st367{fill:#878888;}
	.st368{fill:#888989;}
	.st369{fill:#898A8A;}
	.st370{fill:#8A8B8B;}
	.st371{fill:#8B8B8C;}
	.st372{fill:#8C8C8D;}
	.st373{fill:#8D8D8E;}
	.st374{fill:#8E8E8F;}
	.st375{fill:#8F8F90;}
	.st376{fill:#909091;}
	.st377{fill:#919192;}
	.st378{fill:#929293;}
	.st379{fill:#939394;}
	.st380{fill:#949495;}
	.st381{fill:#959596;}
	.st382{fill:#969697;}
	.st383{fill:#979798;}
	.st384{fill:#989899;}
	.st385{fill:#99999A;}
	.st386{fill:#9A9A9B;}
	.st387{fill:#9B9B9C;}
	.st388{fill:#9C9C9D;}
	.st389{fill:#9D9D9E;}
	.st390{fill:#9E9E9F;}
	.st391{fill:#9E9FA0;}
	.st392{fill:#9FA0A1;}
	.st393{fill:#A0A1A2;}
	.st394{fill:#A1A2A3;}
	.st395{fill:#A2A3A4;}
	.st396{fill:#A3A4A5;}
	.st397{fill:#A4A5A6;}
	.st398{fill:#A5A6A7;}
	.st399{fill:#A6A7A8;}
	.st400{fill:#A7A8A9;}
	.st401{fill:#A8A9AA;}
	.st402{fill:#A9AAAB;}
	.st403{fill:#AAABAC;}
	.st404{fill:#ABACAD;}
	.st405{fill:#ACADAE;}
	.st406{fill:#ADAEAF;}
	.st407{fill:#AEAFB0;}
	.st408{fill:#AFB0B1;}
	.st409{fill:#B0B1B2;}
	.st410{fill:#B1B2B3;}
</style>
<g class="st0">
	<radialGradient id="SVGID_1_" cx="15.8225" cy="51.6684" r="33.0151" gradientUnits="userSpaceOnUse">
		<stop  offset="0.2547" style="stop-color:#FFFFFF"/>
		<stop  offset="0.8989" style="stop-color:#231815"/>
	</radialGradient>
	<path class="st1" d="M23,6.5c10.7,0,19.3,8.6,19.3,19.2S33.7,44.9,23,44.9S3.7,36.3,3.7,25.7S12.4,6.5,23,6.5z"/>
	
		<radialGradient id="SVGID_00000139982562476169622920000007941178908080487064_" cx="-0.7714" cy="0.9177" r="35.2877" gradientUnits="userSpaceOnUse">
		<stop  offset="0.1422" style="stop-color:#FFFFFF"/>
		<stop  offset="1" style="stop-color:#231815"/>
	</radialGradient>
	
		<path style="opacity:3.000000e-02;fill:url(#SVGID_00000139982562476169622920000007941178908080487064_);enable-background:new    ;" d="
		M23.1,6.6c10.6,0,19.2,8.6,19.2,19.1s-8.6,19.1-19.2,19.1S3.9,36.3,3.9,25.7S12.5,6.6,23.1,6.6z"/>
	
		<radialGradient id="SVGID_00000118395812819018699450000002834563876038971313_" cx="-0.7714" cy="0.9177" r="35.2877" gradientUnits="userSpaceOnUse">
		<stop  offset="0.1422" style="stop-color:#FFFFFF"/>
		<stop  offset="1" style="stop-color:#231815"/>
	</radialGradient>
	
		<path style="opacity:4.000000e-02;fill:url(#SVGID_00000118395812819018699450000002834563876038971313_);enable-background:new    ;" d="
		M23.2,6.6c10.5,0,19.1,8.5,19.1,19s-8.5,19-19.1,19c-10.5,0-19-8.5-19-19S12.7,6.6,23.2,6.6z"/>
	
		<radialGradient id="SVGID_00000127744584227924344130000004493676148247185062_" cx="-0.7714" cy="0.9177" r="35.2877" gradientUnits="userSpaceOnUse">
		<stop  offset="0.1422" style="stop-color:#FFFFFF"/>
		<stop  offset="1" style="stop-color:#231815"/>
	</radialGradient>
	
		<path style="opacity:5.000000e-02;fill:url(#SVGID_00000127744584227924344130000004493676148247185062_);enable-background:new    ;" d="
		M23.4,6.7c10.4,0,18.9,8.4,18.9,18.8s-8.5,18.8-18.9,18.8s-19-8.4-19-18.8S12.9,6.7,23.4,6.7z"/>
	
		<radialGradient id="SVGID_00000138548164600839771610000009084583004943230621_" cx="-0.7714" cy="0.9177" r="35.2877" gradientUnits="userSpaceOnUse">
		<stop  offset="0.1422" style="stop-color:#FFFFFF"/>
		<stop  offset="1" style="stop-color:#231815"/>
	</radialGradient>
	
		<path style="opacity:6.000000e-02;fill:url(#SVGID_00000138548164600839771610000009084583004943230621_);enable-background:new    ;" d="
		M23.5,6.8c10.4,0,18.8,8.4,18.8,18.7s-8.4,18.7-18.8,18.7S4.7,35.8,4.7,25.5S13.1,6.8,23.5,6.8z"/>
	
		<radialGradient id="SVGID_00000052820775882465008390000012533423560127061940_" cx="-0.7714" cy="0.9177" r="35.2877" gradientUnits="userSpaceOnUse">
		<stop  offset="0.1422" style="stop-color:#FFFFFF"/>
		<stop  offset="1" style="stop-color:#231815"/>
	</radialGradient>
	
		<path style="opacity:8.000000e-02;fill:url(#SVGID_00000052820775882465008390000012533423560127061940_);enable-background:new    ;" d="
		M23.6,6.9c10.3,0,18.6,8.3,18.6,18.5S33.9,44,23.6,44S4.9,35.7,4.9,25.4S13.3,6.9,23.6,6.9z"/>
	
		<radialGradient id="SVGID_00000111913543181194217410000015770103238802213524_" cx="-0.7714" cy="0.9177" r="35.2877" gradientUnits="userSpaceOnUse">
		<stop  offset="0.1422" style="stop-color:#FFFFFF"/>
		<stop  offset="1" style="stop-color:#231815"/>
	</radialGradient>
	
		<path style="opacity:9.000000e-02;fill:url(#SVGID_00000111913543181194217410000015770103238802213524_);enable-background:new    ;" d="
		M23.7,6.9c10.2,0,18.5,8.2,18.5,18.4s-8.3,18.4-18.5,18.4S5.2,35.5,5.2,25.4S13.5,6.9,23.7,6.9z"/>
	
		<radialGradient id="SVGID_00000116930583986887779050000006034315525477109653_" cx="-0.7714" cy="0.9177" r="35.2877" gradientUnits="userSpaceOnUse">
		<stop  offset="0.1422" style="stop-color:#FFFFFF"/>
		<stop  offset="1" style="stop-color:#231815"/>
	</radialGradient>
	<path style="opacity:0.1;fill:url(#SVGID_00000116930583986887779050000006034315525477109653_);enable-background:new    ;" d="
		M23.8,7c10.1,0,18.4,8.2,18.4,18.3S34,43.6,23.8,43.6S5.4,35.4,5.4,25.3S13.6,7,23.8,7z"/>
	
		<radialGradient id="SVGID_00000183970225072408274410000017210780409266365628_" cx="-0.7714" cy="0.9177" r="35.2877" gradientUnits="userSpaceOnUse">
		<stop  offset="0.1422" style="stop-color:#FFFFFF"/>
		<stop  offset="1" style="stop-color:#231815"/>
	</radialGradient>
	<path style="opacity:0.11;fill:url(#SVGID_00000183970225072408274410000017210780409266365628_);enable-background:new    ;" d="
		M23.9,7.1c10.1,0,18.2,8.1,18.2,18.1s-8.2,18.1-18.2,18.1s-18.2-8-18.2-18S13.8,7.1,23.9,7.1z"/>
	
		<radialGradient id="SVGID_00000133487292340326891840000005411071871353127854_" cx="-0.7714" cy="0.9177" r="35.2877" gradientUnits="userSpaceOnUse">
		<stop  offset="0.1422" style="stop-color:#FFFFFF"/>
		<stop  offset="1" style="stop-color:#231815"/>
	</radialGradient>
	<path style="opacity:0.13;fill:url(#SVGID_00000133487292340326891840000005411071871353127854_);enable-background:new    ;" d="
		M24,7.2c10,0,18.1,8.1,18.1,18s-8.1,18-18.1,18s-18.1-8.1-18.1-18S14,7.2,24,7.2z"/>
	
		<radialGradient id="SVGID_00000072978314003058994160000017599122752053250956_" cx="-0.7714" cy="0.9177" r="35.2877" gradientUnits="userSpaceOnUse">
		<stop  offset="0.1422" style="stop-color:#FFFFFF"/>
		<stop  offset="1" style="stop-color:#231815"/>
	</radialGradient>
	<path style="opacity:0.14;fill:url(#SVGID_00000072978314003058994160000017599122752053250956_);enable-background:new    ;" d="
		M24.1,7.3c9.9,0,17.9,8,17.9,17.9S34,43,24.1,43S6.2,35,6.2,25.1S14.2,7.3,24.1,7.3z"/>
	
		<radialGradient id="SVGID_00000013190343376521775100000013889691557334033855_" cx="-0.7714" cy="0.9177" r="35.2877" gradientUnits="userSpaceOnUse">
		<stop  offset="0.1422" style="stop-color:#FFFFFF"/>
		<stop  offset="1" style="stop-color:#231815"/>
	</radialGradient>
	<path style="opacity:0.15;fill:url(#SVGID_00000013190343376521775100000013889691557334033855_);enable-background:new    ;" d="
		M24.2,7.3c9.8,0,17.8,8,17.8,17.8s-8,17.7-17.8,17.7S6.4,34.9,6.4,25.1S14.4,7.3,24.2,7.3z"/>
	
		<radialGradient id="SVGID_00000054243305456962559630000011914401637660761526_" cx="-0.7714" cy="0.9177" r="35.2877" gradientUnits="userSpaceOnUse">
		<stop  offset="0.1422" style="stop-color:#FFFFFF"/>
		<stop  offset="1" style="stop-color:#231815"/>
	</radialGradient>
	<path style="opacity:0.16;fill:url(#SVGID_00000054243305456962559630000011914401637660761526_);enable-background:new    ;" d="
		M24.3,7.4C34.1,7.4,42,15.3,42,25s-7.9,17.6-17.7,17.6S6.7,34.7,6.7,25S14.6,7.4,24.3,7.4z"/>
	
		<radialGradient id="SVGID_00000116218483114448714520000000156364522103035809_" cx="-0.7714" cy="0.9177" r="35.2877" gradientUnits="userSpaceOnUse">
		<stop  offset="0.1422" style="stop-color:#FFFFFF"/>
		<stop  offset="1" style="stop-color:#231815"/>
	</radialGradient>
	<path style="opacity:0.18;fill:url(#SVGID_00000116218483114448714520000000156364522103035809_);enable-background:new    ;" d="
		M24.4,7.5c9.7,0,17.5,7.8,17.5,17.5s-7.8,17.5-17.5,17.5S6.9,34.7,6.9,25S14.7,7.5,24.4,7.5z"/>
	
		<radialGradient id="SVGID_00000143591681145082234170000007767407927158355084_" cx="-0.7714" cy="0.9177" r="35.2877" gradientUnits="userSpaceOnUse">
		<stop  offset="0.1422" style="stop-color:#FFFFFF"/>
		<stop  offset="1" style="stop-color:#231815"/>
	</radialGradient>
	<path style="opacity:0.19;fill:url(#SVGID_00000143591681145082234170000007767407927158355084_);enable-background:new    ;" d="
		M24.5,7.6c9.6,0,17.4,7.8,17.4,17.3s-7.8,17.3-17.4,17.3S7.2,34.5,7.2,24.9S14.9,7.6,24.5,7.6z"/>
	
		<radialGradient id="SVGID_00000132809000519333015110000006012446691617528976_" cx="-0.7714" cy="0.9177" r="35.2877" gradientUnits="userSpaceOnUse">
		<stop  offset="0.1422" style="stop-color:#FFFFFF"/>
		<stop  offset="1" style="stop-color:#231815"/>
	</radialGradient>
	<path style="opacity:0.2;fill:url(#SVGID_00000132809000519333015110000006012446691617528976_);enable-background:new    ;" d="
		M24.6,7.6c9.5,0,17.2,7.7,17.2,17.2S34.2,42,24.6,42S7.4,34.3,7.4,24.8S15.1,7.6,24.6,7.6z"/>
	
		<radialGradient id="SVGID_00000128478225339809234000000007098145780139498672_" cx="-0.7714" cy="0.9177" r="35.2877" gradientUnits="userSpaceOnUse">
		<stop  offset="0.1422" style="stop-color:#FFFFFF"/>
		<stop  offset="1" style="stop-color:#231815"/>
	</radialGradient>
	<path style="opacity:0.22;fill:url(#SVGID_00000128478225339809234000000007098145780139498672_);enable-background:new    ;" d="
		M24.7,7.7c9.5,0,17.1,7.6,17.1,17.1s-7.7,17-17.1,17s-17.1-7.6-17.1-17S15.3,7.7,24.7,7.7z"/>
	
		<radialGradient id="SVGID_00000016058688409669942360000010854391433649135499_" cx="-0.7714" cy="0.9177" r="35.2877" gradientUnits="userSpaceOnUse">
		<stop  offset="0.1422" style="stop-color:#FFFFFF"/>
		<stop  offset="1" style="stop-color:#231815"/>
	</radialGradient>
	<path style="opacity:0.23;fill:url(#SVGID_00000016058688409669942360000010854391433649135499_);enable-background:new    ;" d="
		M24.9,7.8c9.4,0,17,7.6,17,16.9s-7.6,16.9-17,16.9s-17-7.6-17-16.9S15.5,7.8,24.9,7.8z"/>
	
		<radialGradient id="SVGID_00000137826411760363945020000007672286372646618757_" cx="-0.7714" cy="0.9177" r="35.2877" gradientUnits="userSpaceOnUse">
		<stop  offset="0.1422" style="stop-color:#FFFFFF"/>
		<stop  offset="1" style="stop-color:#231815"/>
	</radialGradient>
	<path style="opacity:0.24;fill:url(#SVGID_00000137826411760363945020000007672286372646618757_);enable-background:new    ;" d="
		M25,7.9c9.3,0,16.8,7.5,16.8,16.8S34.3,41.4,25,41.4S8.1,33.9,8.1,24.6S15.7,7.9,25,7.9z"/>
	
		<radialGradient id="SVGID_00000131328949812605107850000012699359951227492737_" cx="-0.7714" cy="0.9177" r="35.2877" gradientUnits="userSpaceOnUse">
		<stop  offset="0.1422" style="stop-color:#FFFFFF"/>
		<stop  offset="1" style="stop-color:#231815"/>
	</radialGradient>
	<path style="opacity:0.25;fill:url(#SVGID_00000131328949812605107850000012699359951227492737_);enable-background:new    ;" d="
		M25.1,7.9c9.2,0,16.7,7.5,16.7,16.6s-7.5,16.6-16.7,16.6S8.4,33.8,8.4,24.6S15.9,7.9,25.1,7.9z"/>
	
		<radialGradient id="SVGID_00000128482034168830100560000002808145651905479041_" cx="-0.7714" cy="0.9177" r="35.2877" gradientUnits="userSpaceOnUse">
		<stop  offset="0.1422" style="stop-color:#FFFFFF"/>
		<stop  offset="1" style="stop-color:#231815"/>
	</radialGradient>
	<path style="opacity:0.27;fill:url(#SVGID_00000128482034168830100560000002808145651905479041_);enable-background:new    ;" d="
		M25.2,8c9.1,0,16.6,7.4,16.6,16.5S34.3,41,25.2,41S8.6,33.6,8.6,24.5S16,8,25.2,8z"/>
	
		<radialGradient id="SVGID_00000181070294054504101710000015965515131952923017_" cx="-0.7714" cy="0.9177" r="35.2877" gradientUnits="userSpaceOnUse">
		<stop  offset="0.1422" style="stop-color:#FFFFFF"/>
		<stop  offset="1" style="stop-color:#231815"/>
	</radialGradient>
	<path style="opacity:0.28;fill:url(#SVGID_00000181070294054504101710000015965515131952923017_);enable-background:new    ;" d="
		M25.3,8.1c9.1,0,16.4,7.3,16.4,16.4s-7.3,16.4-16.4,16.4S8.9,33.5,8.9,24.5S16.2,8.1,25.3,8.1z"/>
	
		<radialGradient id="SVGID_00000042721555981418313610000011934087769741572782_" cx="-0.7714" cy="0.9177" r="35.2877" gradientUnits="userSpaceOnUse">
		<stop  offset="0.1422" style="stop-color:#FFFFFF"/>
		<stop  offset="1" style="stop-color:#231815"/>
	</radialGradient>
	<path style="opacity:0.29;fill:url(#SVGID_00000042721555981418313610000011934087769741572782_);enable-background:new    ;" d="
		M25.4,8.2c9,0,16.3,7.3,16.3,16.2s-7.3,16.2-16.3,16.2S9.1,33.4,9.1,24.4S16.4,8.2,25.4,8.2z"/>
	
		<radialGradient id="SVGID_00000174591352544682292810000006322859901007853193_" cx="-0.7714" cy="0.9177" r="35.2877" gradientUnits="userSpaceOnUse">
		<stop  offset="0.1422" style="stop-color:#FFFFFF"/>
		<stop  offset="1" style="stop-color:#231815"/>
	</radialGradient>
	<path style="opacity:0.3;fill:url(#SVGID_00000174591352544682292810000006322859901007853193_);enable-background:new    ;" d="
		M25.5,8.2c8.9,0,16.1,7.2,16.1,16.1s-7.2,16.1-16.1,16.1S9.4,33.2,9.4,24.3S16.6,8.2,25.5,8.2z"/>
	
		<radialGradient id="SVGID_00000090284129401257703190000007962837911461839285_" cx="-0.7714" cy="0.9177" r="35.2877" gradientUnits="userSpaceOnUse">
		<stop  offset="0.1422" style="stop-color:#FFFFFF"/>
		<stop  offset="1" style="stop-color:#231815"/>
	</radialGradient>
	<path style="opacity:0.32;fill:url(#SVGID_00000090284129401257703190000007962837911461839285_);enable-background:new    ;" d="
		M25.6,8.3c8.8,0,16,7.2,16,16s-7.2,16-16,16s-16-7.1-16-16S16.8,8.3,25.6,8.3z"/>
	
		<radialGradient id="SVGID_00000137124871730157626010000011259573333741813637_" cx="-0.7714" cy="0.9177" r="35.2877" gradientUnits="userSpaceOnUse">
		<stop  offset="0.1422" style="stop-color:#FFFFFF"/>
		<stop  offset="1" style="stop-color:#231815"/>
	</radialGradient>
	<path style="opacity:0.33;fill:url(#SVGID_00000137124871730157626010000011259573333741813637_);enable-background:new    ;" d="
		M25.7,8.4c8.8,0,15.9,7.1,15.9,15.8S34.5,40,25.7,40S9.9,33,9.9,24.2S17,8.4,25.7,8.4z"/>
	
		<radialGradient id="SVGID_00000175289311753556136920000008374801110530303928_" cx="-0.7714" cy="0.9177" r="35.2877" gradientUnits="userSpaceOnUse">
		<stop  offset="0.1422" style="stop-color:#FFFFFF"/>
		<stop  offset="1" style="stop-color:#231815"/>
	</radialGradient>
	<path style="opacity:0.34;fill:url(#SVGID_00000175289311753556136920000008374801110530303928_);enable-background:new    ;" d="
		M25.8,8.5c8.7,0,15.7,7,15.7,15.7s-7,15.7-15.7,15.7s-15.7-7-15.7-15.7S17.1,8.5,25.8,8.5z"/>
	
		<radialGradient id="SVGID_00000072998018309921270470000017101115418943738506_" cx="-0.7714" cy="0.9177" r="35.2877" gradientUnits="userSpaceOnUse">
		<stop  offset="0.1422" style="stop-color:#FFFFFF"/>
		<stop  offset="1" style="stop-color:#231815"/>
	</radialGradient>
	<path style="opacity:0.35;fill:url(#SVGID_00000072998018309921270470000017101115418943738506_);enable-background:new    ;" d="
		M25.9,8.5c8.6,0,15.6,7,15.6,15.5s-7,15.5-15.6,15.5s-15.6-7-15.6-15.5S17.3,8.5,25.9,8.5z"/>
	
		<radialGradient id="SVGID_00000143595730032172725730000007266102421003677880_" cx="-0.7714" cy="0.9177" r="35.2877" gradientUnits="userSpaceOnUse">
		<stop  offset="0.1422" style="stop-color:#FFFFFF"/>
		<stop  offset="1" style="stop-color:#231815"/>
	</radialGradient>
	<path style="opacity:0.37;fill:url(#SVGID_00000143595730032172725730000007266102421003677880_);enable-background:new    ;" d="
		M26,8.6c8.5,0,15.4,6.9,15.4,15.4S34.6,39.5,26,39.5S10.6,32.6,10.6,24S17.5,8.6,26,8.6z"/>
	
		<radialGradient id="SVGID_00000078022162834335798880000014364137773631608483_" cx="-0.7714" cy="0.9177" r="35.2877" gradientUnits="userSpaceOnUse">
		<stop  offset="0.1422" style="stop-color:#FFFFFF"/>
		<stop  offset="1" style="stop-color:#231815"/>
	</radialGradient>
	<path style="opacity:0.38;fill:url(#SVGID_00000078022162834335798880000014364137773631608483_);enable-background:new    ;" d="
		M26.1,8.7c8.4,0,15.3,6.8,15.3,15.3s-6.8,15.3-15.3,15.3S10.9,32.4,10.9,24S17.7,8.7,26.1,8.7z"/>
	
		<radialGradient id="SVGID_00000084489136590031998500000001439478699551135879_" cx="-0.7714" cy="0.9177" r="35.2877" gradientUnits="userSpaceOnUse">
		<stop  offset="0.1422" style="stop-color:#FFFFFF"/>
		<stop  offset="1" style="stop-color:#231815"/>
	</radialGradient>
	<path style="opacity:0.39;fill:url(#SVGID_00000084489136590031998500000001439478699551135879_);enable-background:new    ;" d="
		M26.2,8.8c8.4,0,15.2,6.8,15.2,15.1S34.6,39,26.2,39S11,32.2,11,23.9S17.9,8.8,26.2,8.8z"/>
	
		<radialGradient id="SVGID_00000057136532365462329190000007281032518791970178_" cx="-0.7714" cy="0.9177" r="35.2877" gradientUnits="userSpaceOnUse">
		<stop  offset="0.1422" style="stop-color:#FFFFFF"/>
		<stop  offset="1" style="stop-color:#231815"/>
	</radialGradient>
	<path style="opacity:0.41;fill:url(#SVGID_00000057136532365462329190000007281032518791970178_);enable-background:new    ;" d="
		M26.4,8.9c8.3,0,15,6.7,15,15s-6.7,15-15,15s-15-6.7-15-15S18.1,8.9,26.4,8.9z"/>
	
		<radialGradient id="SVGID_00000021814378353781645630000001001664247190675361_" cx="-0.7714" cy="0.9177" r="35.2877" gradientUnits="userSpaceOnUse">
		<stop  offset="0.1422" style="stop-color:#FFFFFF"/>
		<stop  offset="1" style="stop-color:#231815"/>
	</radialGradient>
	<path style="opacity:0.42;fill:url(#SVGID_00000021814378353781645630000001001664247190675361_);enable-background:new    ;" d="
		M26.5,8.9c8.2,0,14.9,6.7,14.9,14.9s-6.7,14.9-14.9,14.9S11.6,32,11.6,23.8S18.2,8.9,26.5,8.9z"/>
	
		<radialGradient id="SVGID_00000147204092953503035230000017799519941726835116_" cx="-0.7714" cy="0.9177" r="35.2877" gradientUnits="userSpaceOnUse">
		<stop  offset="0.1422" style="stop-color:#FFFFFF"/>
		<stop  offset="1" style="stop-color:#231815"/>
	</radialGradient>
	<path style="opacity:0.43;fill:url(#SVGID_00000147204092953503035230000017799519941726835116_);enable-background:new    ;" d="
		M26.6,9c8.1,0,14.7,6.6,14.7,14.7s-6.6,14.7-14.7,14.7s-14.7-6.6-14.7-14.7S18.4,9,26.6,9z"/>
	
		<radialGradient id="SVGID_00000001657678100645404200000002438725711460607395_" cx="-0.7714" cy="0.9177" r="35.2877" gradientUnits="userSpaceOnUse">
		<stop  offset="0.1422" style="stop-color:#FFFFFF"/>
		<stop  offset="1" style="stop-color:#231815"/>
	</radialGradient>
	<path style="opacity:0.44;fill:url(#SVGID_00000001657678100645404200000002438725711460607395_);enable-background:new    ;" d="
		M26.7,9.1c8.1,0,14.6,6.5,14.6,14.6s-6.5,14.6-14.6,14.6s-14.6-6.5-14.6-14.6S18.6,9.1,26.7,9.1z"/>
	
		<radialGradient id="SVGID_00000118367564417205443990000007708245714167079339_" cx="-0.7714" cy="0.9177" r="35.2877" gradientUnits="userSpaceOnUse">
		<stop  offset="0.1422" style="stop-color:#FFFFFF"/>
		<stop  offset="1" style="stop-color:#231815"/>
	</radialGradient>
	<path style="opacity:0.46;fill:url(#SVGID_00000118367564417205443990000007708245714167079339_);enable-background:new    ;" d="
		M26.8,9.2c8,0,14.5,6.5,14.5,14.5s-6.5,14.5-14.5,14.5s-14.5-6.5-14.5-14.5S18.8,9.2,26.8,9.2z"/>
	
		<radialGradient id="SVGID_00000162342514857194603970000013544791073270275719_" cx="-0.7714" cy="0.9177" r="35.2877" gradientUnits="userSpaceOnUse">
		<stop  offset="0.1422" style="stop-color:#FFFFFF"/>
		<stop  offset="1" style="stop-color:#231815"/>
	</radialGradient>
	<path style="opacity:0.47;fill:url(#SVGID_00000162342514857194603970000013544791073270275719_);enable-background:new    ;" d="
		M26.9,9.2c7.9,0,14.3,6.4,14.3,14.3s-6.4,14.3-14.3,14.3s-14.3-6.4-14.3-14.3S19,9.2,26.9,9.2z"/>
	
		<radialGradient id="SVGID_00000153692718057201471810000013634233174174327214_" cx="-0.7714" cy="0.9177" r="35.2877" gradientUnits="userSpaceOnUse">
		<stop  offset="0.1422" style="stop-color:#FFFFFF"/>
		<stop  offset="1" style="stop-color:#231815"/>
	</radialGradient>
	<path style="opacity:0.48;fill:url(#SVGID_00000153692718057201471810000013634233174174327214_);enable-background:new    ;" d="
		M27,9.3c7.8,0,14.2,6.4,14.2,14.2S34.8,37.7,27,37.7s-14.2-6.4-14.2-14.2S19.2,9.3,27,9.3z"/>
	
		<radialGradient id="SVGID_00000082352570895050018230000017305770468632675978_" cx="-0.7714" cy="0.9177" r="35.2877" gradientUnits="userSpaceOnUse">
		<stop  offset="0.1422" style="stop-color:#FFFFFF"/>
		<stop  offset="1" style="stop-color:#231815"/>
	</radialGradient>
	<path style="opacity:0.49;fill:url(#SVGID_00000082352570895050018230000017305770468632675978_);enable-background:new    ;" d="
		M27.1,9.4c7.8,0,14,6.3,14,14.1s-6.3,14-14,14s-14-6.3-14-14S19.4,9.4,27.1,9.4z"/>
	
		<radialGradient id="SVGID_00000107569556890465859090000005065558839703361431_" cx="-0.7714" cy="0.9177" r="35.2877" gradientUnits="userSpaceOnUse">
		<stop  offset="0.1422" style="stop-color:#FFFFFF"/>
		<stop  offset="1" style="stop-color:#231815"/>
	</radialGradient>
	<path style="opacity:0.51;fill:url(#SVGID_00000107569556890465859090000005065558839703361431_);enable-background:new    ;" d="
		M27.2,9.5c7.7,0,13.9,6.2,13.9,13.9s-6.2,13.9-13.9,13.9s-13.9-6.2-13.9-13.9S19.5,9.5,27.2,9.5z"/>
	
		<radialGradient id="SVGID_00000142159547893564144310000012728260995536135607_" cx="-0.7714" cy="0.9177" r="35.2877" gradientUnits="userSpaceOnUse">
		<stop  offset="0.1422" style="stop-color:#FFFFFF"/>
		<stop  offset="1" style="stop-color:#231815"/>
	</radialGradient>
	<path style="opacity:0.52;fill:url(#SVGID_00000142159547893564144310000012728260995536135607_);enable-background:new    ;" d="
		M27.3,9.5c7.6,0,13.8,6.2,13.8,13.8s-6.2,13.8-13.8,13.8s-13.8-6.2-13.8-13.8S19.7,9.5,27.3,9.5z"/>
	
		<radialGradient id="SVGID_00000157995763847734990390000016054202109591118759_" cx="-0.7714" cy="0.9177" r="35.2877" gradientUnits="userSpaceOnUse">
		<stop  offset="0.1422" style="stop-color:#FFFFFF"/>
		<stop  offset="1" style="stop-color:#231815"/>
	</radialGradient>
	<path style="opacity:0.53;fill:url(#SVGID_00000157995763847734990390000016054202109591118759_);enable-background:new    ;" d="
		M27.4,9.6c7.5,0,13.6,6.1,13.6,13.6s-6,13.7-13.6,13.7s-13.6-6.1-13.6-13.6S19.9,9.6,27.4,9.6z"/>
	
		<radialGradient id="SVGID_00000157289027510068308440000013377740483430778768_" cx="-0.7714" cy="0.9177" r="35.2877" gradientUnits="userSpaceOnUse">
		<stop  offset="0.1422" style="stop-color:#FFFFFF"/>
		<stop  offset="1" style="stop-color:#231815"/>
	</radialGradient>
	<path style="opacity:0.54;fill:url(#SVGID_00000157289027510068308440000013377740483430778768_);enable-background:new    ;" d="
		M27.5,9.7C35,9.7,41,15.8,41,23.2s-6,13.5-13.5,13.5S14,30.7,14,23.2S20.1,9.7,27.5,9.7z"/>
	
		<radialGradient id="SVGID_00000147177869780826859170000015711913029742895273_" cx="-0.7714" cy="0.9177" r="35.2877" gradientUnits="userSpaceOnUse">
		<stop  offset="0.1422" style="stop-color:#FFFFFF"/>
		<stop  offset="1" style="stop-color:#231815"/>
	</radialGradient>
	<path style="opacity:0.56;fill:url(#SVGID_00000147177869780826859170000015711913029742895273_);enable-background:new    ;" d="
		M27.6,9.8c7.4,0,13.4,6,13.4,13.4s-6,13.4-13.4,13.4s-13.4-6-13.4-13.4S20.3,9.8,27.6,9.8z"/>
	
		<radialGradient id="SVGID_00000035509565021499878590000001373679087716281513_" cx="-0.7714" cy="0.9177" r="35.2877" gradientUnits="userSpaceOnUse">
		<stop  offset="0.1422" style="stop-color:#FFFFFF"/>
		<stop  offset="1" style="stop-color:#231815"/>
	</radialGradient>
	<path style="opacity:0.57;fill:url(#SVGID_00000035509565021499878590000001373679087716281513_);enable-background:new    ;" d="
		M27.8,9.9C35,9.9,41,15.8,41,23.1s-5.9,13.2-13.2,13.2s-13.2-5.9-13.2-13.2S20.5,9.9,27.8,9.9z"/>
	
		<radialGradient id="SVGID_00000106133278397912344410000008598337749073573296_" cx="-0.7714" cy="0.9177" r="35.2877" gradientUnits="userSpaceOnUse">
		<stop  offset="0.1422" style="stop-color:#FFFFFF"/>
		<stop  offset="1" style="stop-color:#231815"/>
	</radialGradient>
	<path style="opacity:0.58;fill:url(#SVGID_00000106133278397912344410000008598337749073573296_);enable-background:new    ;" d="
		M27.9,9.9C35.1,9.9,41,15.8,41,23s-5.9,13.1-13.1,13.1S14.8,30.3,14.8,23S20.6,9.9,27.9,9.9z"/>
	
		<radialGradient id="SVGID_00000055693382526966294440000001410884576239253658_" cx="-0.7714" cy="0.9177" r="35.2877" gradientUnits="userSpaceOnUse">
		<stop  offset="0.1422" style="stop-color:#FFFFFF"/>
		<stop  offset="1" style="stop-color:#231815"/>
	</radialGradient>
	<path style="opacity:0.59;fill:url(#SVGID_00000055693382526966294440000001410884576239253658_);enable-background:new    ;" d="
		M28,10c7.1,0,12.9,5.8,12.9,13S35.1,36,28,36s-13-5.9-13-13S20.8,10,28,10z"/>
	
		<radialGradient id="SVGID_00000038409532385630281080000000820295116497034893_" cx="-0.7714" cy="0.9177" r="35.2877" gradientUnits="userSpaceOnUse">
		<stop  offset="0.1422" style="stop-color:#FFFFFF"/>
		<stop  offset="1" style="stop-color:#231815"/>
	</radialGradient>
	<path style="opacity:0.61;fill:url(#SVGID_00000038409532385630281080000000820295116497034893_);enable-background:new    ;" d="
		M28.1,10.1c7.1,0,12.8,5.7,12.8,12.8s-5.7,12.8-12.8,12.8S15.3,30,15.3,22.9S21,10.1,28.1,10.1z"/>
	
		<radialGradient id="SVGID_00000151529160202857122160000002093027759477024691_" cx="-0.7714" cy="0.9177" r="35.2877" gradientUnits="userSpaceOnUse">
		<stop  offset="0.1422" style="stop-color:#FFFFFF"/>
		<stop  offset="1" style="stop-color:#231815"/>
	</radialGradient>
	<path style="opacity:0.62;fill:url(#SVGID_00000151529160202857122160000002093027759477024691_);enable-background:new    ;" d="
		M28.2,10.2c7,0,12.7,5.7,12.7,12.7s-5.7,12.7-12.7,12.7s-12.6-5.7-12.6-12.7S21.2,10.2,28.2,10.2z"/>
	
		<radialGradient id="SVGID_00000164474023096419392220000006464414746696223407_" cx="-0.7714" cy="0.9177" r="35.2877" gradientUnits="userSpaceOnUse">
		<stop  offset="0.1422" style="stop-color:#FFFFFF"/>
		<stop  offset="1" style="stop-color:#231815"/>
	</radialGradient>
	<path style="opacity:0.63;fill:url(#SVGID_00000164474023096419392220000006464414746696223407_);enable-background:new    ;" d="
		M28.3,10.2c6.9,0,12.5,5.6,12.5,12.6s-5.6,12.6-12.5,12.6s-12.5-5.6-12.5-12.6S21.4,10.2,28.3,10.2z"/>
	
		<radialGradient id="SVGID_00000046305815477937812380000014846507301578559909_" cx="-0.7714" cy="0.9177" r="35.2877" gradientUnits="userSpaceOnUse">
		<stop  offset="0.1422" style="stop-color:#FFFFFF"/>
		<stop  offset="1" style="stop-color:#231815"/>
	</radialGradient>
	<path style="opacity:0.65;fill:url(#SVGID_00000046305815477937812380000014846507301578559909_);enable-background:new    ;" d="
		M28.4,10.3c6.8,0,12.4,5.6,12.4,12.4s-5.5,12.4-12.4,12.4S16,29.6,16,22.7S21.6,10.3,28.4,10.3z"/>
	
		<radialGradient id="SVGID_00000172405720598822118500000016478756981257809047_" cx="-0.7714" cy="0.9177" r="35.2877" gradientUnits="userSpaceOnUse">
		<stop  offset="0.1422" style="stop-color:#FFFFFF"/>
		<stop  offset="1" style="stop-color:#231815"/>
	</radialGradient>
	<path style="opacity:0.66;fill:url(#SVGID_00000172405720598822118500000016478756981257809047_);enable-background:new    ;" d="
		M28.5,10.4c6.8,0,12.2,5.5,12.2,12.3S35.2,35,28.5,35s-12.2-5.5-12.2-12.3S21.8,10.4,28.5,10.4z"/>
	
		<radialGradient id="SVGID_00000021821086271126210540000001272908179338279562_" cx="-0.7714" cy="0.9177" r="35.2877" gradientUnits="userSpaceOnUse">
		<stop  offset="0.1422" style="stop-color:#FFFFFF"/>
		<stop  offset="1" style="stop-color:#231815"/>
	</radialGradient>
	<path style="opacity:0.67;fill:url(#SVGID_00000021821086271126210540000001272908179338279562_);enable-background:new    ;" d="
		M28.6,10.5c6.7,0,12.1,5.4,12.1,12.1s-5.4,12.1-12.1,12.1s-12.1-5.4-12.1-12.1S21.9,10.5,28.6,10.5z"/>
	
		<radialGradient id="SVGID_00000061462657851152557290000017278111084155227538_" cx="-0.7714" cy="0.9177" r="35.2877" gradientUnits="userSpaceOnUse">
		<stop  offset="0.1422" style="stop-color:#FFFFFF"/>
		<stop  offset="1" style="stop-color:#231815"/>
	</radialGradient>
	<path style="opacity:0.68;fill:url(#SVGID_00000061462657851152557290000017278111084155227538_);enable-background:new    ;" d="
		M28.7,10.5c6.6,0,12,5.4,12,12s-5.3,12-12,12s-12-5.4-12-12S22.1,10.5,28.7,10.5z"/>
	
		<radialGradient id="SVGID_00000147929346217188450120000017424317365272487055_" cx="-0.7714" cy="0.9177" r="35.2877" gradientUnits="userSpaceOnUse">
		<stop  offset="0.1422" style="stop-color:#FFFFFF"/>
		<stop  offset="1" style="stop-color:#231815"/>
	</radialGradient>
	<path style="opacity:0.7;fill:url(#SVGID_00000147929346217188450120000017424317365272487055_);enable-background:new    ;" d="
		M28.8,10.6c6.5,0,11.8,5.3,11.8,11.9s-5.3,11.9-11.8,11.9S17,29,17,22.5S22.3,10.6,28.8,10.6z"/>
	
		<radialGradient id="SVGID_00000181808462134203690170000001560749311408811412_" cx="-0.7714" cy="0.9177" r="35.2877" gradientUnits="userSpaceOnUse">
		<stop  offset="0.1422" style="stop-color:#FFFFFF"/>
		<stop  offset="1" style="stop-color:#231815"/>
	</radialGradient>
	<path style="opacity:0.71;fill:url(#SVGID_00000181808462134203690170000001560749311408811412_);enable-background:new    ;" d="
		M28.9,10.7c6.5,0,11.7,5.3,11.7,11.7s-5.2,11.7-11.7,11.7s-11.7-5.3-11.7-11.7S22.5,10.7,28.9,10.7z"/>
	
		<radialGradient id="SVGID_00000011027691109307846790000003362301652892586121_" cx="-0.7714" cy="0.9177" r="35.2877" gradientUnits="userSpaceOnUse">
		<stop  offset="0.1422" style="stop-color:#FFFFFF"/>
		<stop  offset="1" style="stop-color:#231815"/>
	</radialGradient>
	<path style="opacity:0.72;fill:url(#SVGID_00000011027691109307846790000003362301652892586121_);enable-background:new    ;" d="
		M29,10.8c6.4,0,11.5,5.2,11.5,11.6S35.4,34,29,34s-11.5-5.2-11.5-11.6S22.7,10.8,29,10.8z"/>
	
		<radialGradient id="SVGID_00000168818316747886325020000009702912929803329724_" cx="-0.7714" cy="0.9177" r="35.2877" gradientUnits="userSpaceOnUse">
		<stop  offset="0.1422" style="stop-color:#FFFFFF"/>
		<stop  offset="1" style="stop-color:#231815"/>
	</radialGradient>
	<path style="opacity:0.73;fill:url(#SVGID_00000168818316747886325020000009702912929803329724_);enable-background:new    ;" d="
		M29.1,10.8c6.3,0,11.4,5.1,11.4,11.5s-5.1,11.5-11.4,11.5s-11.4-5.1-11.4-11.5S22.8,10.8,29.1,10.8z"/>
	
		<radialGradient id="SVGID_00000110430169334222707770000006245741845799656612_" cx="-0.7714" cy="0.9177" r="35.2877" gradientUnits="userSpaceOnUse">
		<stop  offset="0.1422" style="stop-color:#FFFFFF"/>
		<stop  offset="1" style="stop-color:#231815"/>
	</radialGradient>
	<path style="opacity:0.75;fill:url(#SVGID_00000110430169334222707770000006245741845799656612_);enable-background:new    ;" d="
		M29.3,10.9c6.2,0,11.3,5.1,11.3,11.3s-5,11.3-11.3,11.3S18,28.5,18,22.2S23,10.9,29.3,10.9z"/>
	
		<radialGradient id="SVGID_00000159463199062398109220000004039803908127227060_" cx="-0.7714" cy="0.9177" r="35.2877" gradientUnits="userSpaceOnUse">
		<stop  offset="0.1422" style="stop-color:#FFFFFF"/>
		<stop  offset="1" style="stop-color:#231815"/>
	</radialGradient>
	<path style="opacity:0.76;fill:url(#SVGID_00000159463199062398109220000004039803908127227060_);enable-background:new    ;" d="
		M29.4,11c6.1,0,11.1,5,11.1,11.2s-5,11.2-11.1,11.2s-11.1-5-11.1-11.2S23.2,11,29.4,11z"/>
	
		<radialGradient id="SVGID_00000097476523419426710430000012245306421441244069_" cx="-0.7714" cy="0.9177" r="35.2877" gradientUnits="userSpaceOnUse">
		<stop  offset="0.1422" style="stop-color:#FFFFFF"/>
		<stop  offset="1" style="stop-color:#231815"/>
	</radialGradient>
	<path style="opacity:0.77;fill:url(#SVGID_00000097476523419426710430000012245306421441244069_);enable-background:new    ;" d="
		M29.5,11.1c6.1,0,11,5,11,11.1s-4.9,11.1-11,11.1s-11-4.9-11-11.1S23.4,11.1,29.5,11.1z"/>
	
		<radialGradient id="SVGID_00000023269930632094753020000010442415286477449607_" cx="-0.7714" cy="0.9177" r="35.2877" gradientUnits="userSpaceOnUse">
		<stop  offset="0.1422" style="stop-color:#FFFFFF"/>
		<stop  offset="1" style="stop-color:#231815"/>
	</radialGradient>
	<path style="opacity:0.78;fill:url(#SVGID_00000023269930632094753020000010442415286477449607_);enable-background:new    ;" d="
		M29.6,11.1c6,0,10.8,4.9,10.8,10.9s-4.8,11-10.8,11s-10.8-4.9-10.8-10.9S23.6,11.1,29.6,11.1z"/>
	
		<radialGradient id="SVGID_00000067225076041809600550000010636998860846241415_" cx="-0.7714" cy="0.9177" r="35.2877" gradientUnits="userSpaceOnUse">
		<stop  offset="0.1422" style="stop-color:#FFFFFF"/>
		<stop  offset="1" style="stop-color:#231815"/>
	</radialGradient>
	<path style="opacity:0.8;fill:url(#SVGID_00000067225076041809600550000010636998860846241415_);enable-background:new    ;" d="
		M29.7,11.2c5.9,0,10.7,4.8,10.7,10.8s-4.8,10.8-10.7,10.8S19,28,19,22S23.8,11.2,29.7,11.2z"/>
	
		<radialGradient id="SVGID_00000121245654142423132620000002992520075493399226_" cx="-0.7714" cy="0.9177" r="35.2877" gradientUnits="userSpaceOnUse">
		<stop  offset="0.1422" style="stop-color:#FFFFFF"/>
		<stop  offset="1" style="stop-color:#231815"/>
	</radialGradient>
	<path style="opacity:0.81;fill:url(#SVGID_00000121245654142423132620000002992520075493399226_);enable-background:new    ;" d="
		M29.8,11.3c5.8,0,10.6,4.8,10.6,10.7s-4.7,10.6-10.6,10.6S19.2,27.8,19.2,22S24,11.3,29.8,11.3z"/>
	
		<radialGradient id="SVGID_00000165936493242312868730000010274339275134403477_" cx="-0.7714" cy="0.9" r="35.295" gradientUnits="userSpaceOnUse">
		<stop  offset="0.1422" style="stop-color:#FFFFFF"/>
		<stop  offset="1" style="stop-color:#231815"/>
	</radialGradient>
	<path style="opacity:0.82;fill:url(#SVGID_00000165936493242312868730000010274339275134403477_);enable-background:new    ;" d="
		M29.9,11.4c5.8,0,10.4,4.7,10.4,10.5s-4.7,10.5-10.4,10.5s-10.4-4.7-10.4-10.5S24.1,11.4,29.9,11.4z"/>
	
		<radialGradient id="SVGID_00000167374935872462186770000012352463323134826888_" cx="-0.7714" cy="0.9177" r="35.2877" gradientUnits="userSpaceOnUse">
		<stop  offset="0.1422" style="stop-color:#FFFFFF"/>
		<stop  offset="1" style="stop-color:#231815"/>
	</radialGradient>
	<path style="opacity:0.84;fill:url(#SVGID_00000167374935872462186770000012352463323134826888_);enable-background:new    ;" d="
		M30,11.5c5.7,0,10.3,4.7,10.3,10.4S35.7,32.2,30,32.2s-10.3-4.6-10.3-10.4S24.3,11.5,30,11.5z"/>
	
		<radialGradient id="SVGID_00000059285498765995471920000002113264600888775814_" cx="-0.7714" cy="0.9177" r="35.2877" gradientUnits="userSpaceOnUse">
		<stop  offset="0.1422" style="stop-color:#FFFFFF"/>
		<stop  offset="1" style="stop-color:#231815"/>
	</radialGradient>
	<path style="opacity:0.85;fill:url(#SVGID_00000059285498765995471920000002113264600888775814_);enable-background:new    ;" d="
		M30.1,11.5c5.6,0,10.1,4.6,10.1,10.2S35.7,32,30.1,32S20,27.4,20,21.8S24.5,11.5,30.1,11.5z"/>
	
		<radialGradient id="SVGID_00000052074282758555459770000002351529925316286906_" cx="-0.7714" cy="0.9177" r="35.2877" gradientUnits="userSpaceOnUse">
		<stop  offset="0.1422" style="stop-color:#FFFFFF"/>
		<stop  offset="1" style="stop-color:#231815"/>
	</radialGradient>
	<path style="opacity:0.86;fill:url(#SVGID_00000052074282758555459770000002351529925316286906_);enable-background:new    ;" d="
		M30.2,11.6c5.5,0,10,4.5,10,10.1s-4.5,10.1-10,10.1s-10-4.5-10-10.1S24.7,11.6,30.2,11.6z"/>
	
		<radialGradient id="SVGID_00000136378860503672016760000016991147210244519080_" cx="-0.7714" cy="0.9177" r="35.2877" gradientUnits="userSpaceOnUse">
		<stop  offset="0.1422" style="stop-color:#FFFFFF"/>
		<stop  offset="1" style="stop-color:#231815"/>
	</radialGradient>
	<path style="opacity:0.87;fill:url(#SVGID_00000136378860503672016760000016991147210244519080_);enable-background:new    ;" d="
		M30.3,11.7c5.5,0,9.9,4.5,9.9,10s-4.4,10-9.9,10s-9.9-4.5-9.9-10S24.9,11.7,30.3,11.7z"/>
	
		<radialGradient id="SVGID_00000055677903988477173680000006940752156941327035_" cx="-0.7714" cy="0.9177" r="35.2877" gradientUnits="userSpaceOnUse">
		<stop  offset="0.1422" style="stop-color:#FFFFFF"/>
		<stop  offset="1" style="stop-color:#231815"/>
	</radialGradient>
	<path style="opacity:0.89;fill:url(#SVGID_00000055677903988477173680000006940752156941327035_);enable-background:new    ;" d="
		M30.4,11.8c5.4,0,9.7,4.4,9.7,9.8s-4.4,9.8-9.7,9.8s-9.7-4.4-9.7-9.8S25.1,11.8,30.4,11.8z"/>
	
		<radialGradient id="SVGID_00000061455321242681221150000009980535833580769973_" cx="-0.7714" cy="0.9177" r="35.2877" gradientUnits="userSpaceOnUse">
		<stop  offset="0.1422" style="stop-color:#FFFFFF"/>
		<stop  offset="1" style="stop-color:#231815"/>
	</radialGradient>
	<path style="opacity:0.9;fill:url(#SVGID_00000061455321242681221150000009980535833580769973_);enable-background:new    ;" d="
		M30.5,11.8c5.3,0,9.6,4.3,9.6,9.7s-4.3,9.7-9.6,9.7S21,26.9,21,21.5S25.2,11.8,30.5,11.8z"/>
	
		<radialGradient id="SVGID_00000114756807241954426690000016195627150006202525_" cx="-0.7714" cy="0.9177" r="35.2877" gradientUnits="userSpaceOnUse">
		<stop  offset="0.1422" style="stop-color:#FFFFFF"/>
		<stop  offset="1" style="stop-color:#231815"/>
	</radialGradient>
	<path style="opacity:0.91;fill:url(#SVGID_00000114756807241954426690000016195627150006202525_);enable-background:new    ;" d="
		M30.6,11.9c5.2,0,9.5,4.3,9.5,9.6S35.9,31,30.6,31s-9.4-4.3-9.4-9.6S25.4,11.9,30.6,11.9z"/>
	
		<radialGradient id="SVGID_00000148662911627437118450000012259432599297895609_" cx="-0.7714" cy="0.9177" r="35.2877" gradientUnits="userSpaceOnUse">
		<stop  offset="0.1422" style="stop-color:#FFFFFF"/>
		<stop  offset="1" style="stop-color:#231815"/>
	</radialGradient>
	<path style="opacity:0.92;fill:url(#SVGID_00000148662911627437118450000012259432599297895609_);enable-background:new    ;" d="
		M30.8,12c5.1,0,9.3,4.2,9.3,9.4s-4.2,9.4-9.3,9.4s-9.3-4.2-9.3-9.4S25.6,12,30.8,12z"/>
	
		<radialGradient id="SVGID_00000067953297341764632570000000682148304571477406_" cx="-0.7714" cy="0.9177" r="35.2877" gradientUnits="userSpaceOnUse">
		<stop  offset="0.1422" style="stop-color:#FFFFFF"/>
		<stop  offset="1" style="stop-color:#231815"/>
	</radialGradient>
	<path style="opacity:0.94;fill:url(#SVGID_00000067953297341764632570000000682148304571477406_);enable-background:new    ;" d="
		M30.9,12.1c5.1,0,9.2,4.2,9.2,9.3s-4.1,9.3-9.2,9.3s-9.2-4.2-9.2-9.3S25.8,12.1,30.9,12.1z"/>
	
		<radialGradient id="SVGID_00000026881313672784775020000001952610816840674720_" cx="-0.7714" cy="0.9177" r="35.2877" gradientUnits="userSpaceOnUse">
		<stop  offset="0.1422" style="stop-color:#FFFFFF"/>
		<stop  offset="1" style="stop-color:#231815"/>
	</radialGradient>
	<path style="opacity:0.95;fill:url(#SVGID_00000026881313672784775020000001952610816840674720_);enable-background:new    ;" d="
		M31,12.1c5,0,9,4.1,9,9.2s-4,9.1-9,9.1s-9-4.1-9-9.1S26,12.1,31,12.1z"/>
	
		<radialGradient id="SVGID_00000119110516171388757050000001189050994057780624_" cx="-0.7714" cy="0.9177" r="35.2877" gradientUnits="userSpaceOnUse">
		<stop  offset="0.1422" style="stop-color:#FFFFFF"/>
		<stop  offset="1" style="stop-color:#231815"/>
	</radialGradient>
	<path style="opacity:0.96;fill:url(#SVGID_00000119110516171388757050000001189050994057780624_);enable-background:new    ;" d="
		M31.1,12.2c4.9,0,8.9,4,8.9,9s-4,9-8.9,9s-8.9-4-8.9-9S26.2,12.2,31.1,12.2z"/>
	
		<radialGradient id="SVGID_00000005239262779784261850000010831945355102170543_" cx="-0.7714" cy="0.9177" r="35.2877" gradientUnits="userSpaceOnUse">
		<stop  offset="0.1422" style="stop-color:#FFFFFF"/>
		<stop  offset="1" style="stop-color:#231815"/>
	</radialGradient>
	<path style="opacity:0.97;fill:url(#SVGID_00000005239262779784261850000010831945355102170543_);enable-background:new    ;" d="
		M31.2,12.3c4.8,0,8.8,4,8.8,8.9S36,30,31.2,30s-8.8-4-8.8-8.9S26.3,12.3,31.2,12.3z"/>
	
		<radialGradient id="SVGID_00000112601040372943362230000008282114392595845766_" cx="-0.7714" cy="0.9177" r="35.2728" gradientUnits="userSpaceOnUse">
		<stop  offset="0.1422" style="stop-color:#FFFFFF"/>
		<stop  offset="1" style="stop-color:#231815"/>
	</radialGradient>
	<path style="opacity:0.99;fill:url(#SVGID_00000112601040372943362230000008282114392595845766_);enable-background:new    ;" d="
		M31.3,12.4c4.8,0,8.6,3.9,8.6,8.7s-3.9,8.7-8.6,8.7s-8.6-3.9-8.6-8.7S26.5,12.4,31.3,12.4z"/>
	
		<radialGradient id="SVGID_00000172411571430928475000000000715752138301226678_" cx="-0.7714" cy="0.9177" r="35.2877" gradientUnits="userSpaceOnUse">
		<stop  offset="0.1422" style="stop-color:#FFFFFF"/>
		<stop  offset="1" style="stop-color:#231815"/>
	</radialGradient>
	<path style="fill:url(#SVGID_00000172411571430928475000000000715752138301226678_);" d="M31.4,29.7c-4.7,0-8.5-3.9-8.5-8.6
		s3.8-8.6,8.5-8.6s8.5,3.8,8.5,8.6S36.1,29.7,31.4,29.7z"/>
</g>
<path class="st80" d="M41.8,20.9c0,7.5-6,13.5-13.5,13.5s-13.4-6-13.4-13.5s6-13.5,13.4-13.5S41.8,13.4,41.8,20.9z"/>
<path class="st80" d="M48.6,12.8c0,2.4-1.2,4.6-3.1,5.7l-10.2,6.6l-0.8,0.5c-1,0.5-2.1,0.9-3.3,0.9c-4,0-7.2-3.4-7.2-7.6
	c0-3.6,2.3-6.6,5.4-7.4l10.1-4.7l0,0c0.8-0.4,1.8-0.7,2.7-0.7C45.7,6.1,48.6,9.1,48.6,12.8L48.6,12.8z"/>
<path class="st80" d="M35.3,25.1c-0.3,0.2-0.5,0.4-0.8,0.5L35.3,25.1z"/>
<path class="st80" d="M54.3,12.8c0,7.1-5.4,12.8-12.1,12.8s-12.1-5.7-12.1-12.8S35.6,0,42.3,0S54.3,5.7,54.3,12.8z"/>
<g class="st81">
	<path class="st82" d="M41.8,20.9c0,7.5-6,13.5-13.5,13.5s-13.4-6-13.4-13.5s6-13.5,13.4-13.5S41.8,13.4,41.8,20.9z"/>
	<path class="st83" d="M14.9,20.8c0-7.4,6-13.5,13.4-13.5s13.4,6,13.4,13.5s-6,13.5-13.4,13.5S14.9,28.3,14.9,20.8z"/>
	<path class="st84" d="M15,20.8c0-7.4,6-13.4,13.4-13.4s13.4,6,13.4,13.4s-6,13.4-13.4,13.4S15,28.2,15,20.8z"/>
	<path class="st85" d="M15,20.8c0-7.4,6-13.4,13.3-13.4s13.3,6,13.3,13.4s-6,13.4-13.3,13.4S15,28.2,15,20.8z"/>
	<path class="st86" d="M15,20.8c0-7.4,6-13.4,13.3-13.4s13.3,6,13.3,13.4s-5.9,13.4-13.3,13.4S15,28.1,15,20.8z"/>
	<path class="st87" d="M15,20.7c0-7.3,6-13.3,13.3-13.3s13.3,6,13.3,13.3S35.6,34,28.3,34S15,28.1,15,20.7z"/>
	<path class="st88" d="M15,20.7c0-7.3,6-13.3,13.3-13.3s13.2,5.9,13.2,13.3S35.6,34,28.3,34S15,28,15,20.7z"/>
	<path class="st89" d="M15.1,20.7c0-7.3,5.9-13.2,13.2-13.2s13.2,5.9,13.2,13.2s-5.9,13.2-13.2,13.2S15.1,28,15.1,20.7z"/>
	<path class="st90" d="M15.1,20.6c0-7.3,5.9-13.2,13.1-13.2s13.1,5.9,13.1,13.2s-5.9,13.2-13.1,13.2S15.1,27.9,15.1,20.6z"/>
	<path class="st91" d="M15.1,20.6c0-7.3,5.9-13.2,13.1-13.2s13.1,5.9,13.1,13.2s-5.9,13.2-13.1,13.2S15.1,27.9,15.1,20.6z"/>
	<path class="st92" d="M15.1,20.6c0-7.3,5.8-13.1,13.1-13.1s13.1,5.9,13.1,13.1s-5.8,13.1-13.1,13.1S15.1,27.8,15.1,20.6z"/>
	<path class="st93" d="M15.1,20.5c0-7.2,5.8-13.1,13-13.1s13,5.9,13,13.1s-5.8,13.1-13,13.1S15.1,27.8,15.1,20.5z"/>
	<path class="st94" d="M15.2,20.5c0-7.2,5.8-13.1,13-13.1s13,5.8,13,13.1s-5.8,13.1-13,13.1S15.2,27.7,15.2,20.5z"/>
	<path class="st95" d="M15.2,20.5c0-7.2,5.8-13,13-13s13,5.8,13,13s-5.8,13-13,13S15.2,27.7,15.2,20.5z"/>
	<path class="st96" d="M15.2,20.5c0-7.2,5.8-13,12.9-13S41,13.3,41,20.5s-5.8,13-12.9,13S15.2,27.6,15.2,20.5z"/>
	<path class="st97" d="M15.2,20.4c0-7.1,5.8-12.9,12.9-12.9S41,13.3,41,20.4s-5.8,12.9-12.9,12.9S15.2,27.6,15.2,20.4z"/>
	<path class="st98" d="M15.2,20.4C15.2,13.3,21,7.5,28,7.5s12.8,5.8,12.8,12.9S35,33.3,28,33.3S15.2,27.5,15.2,20.4z"/>
	<path class="st99" d="M15.3,20.4c0-7.1,5.7-12.9,12.8-12.9s12.8,5.8,12.8,12.9s-5.7,12.9-12.8,12.9S15.3,27.5,15.3,20.4z"/>
	<path class="st100" d="M15.3,20.3C15.3,13.2,21,7.5,28,7.5s12.8,5.7,12.8,12.8S35.1,33.2,28,33.2S15.3,27.4,15.3,20.3z"/>
	<path class="st101" d="M15.3,20.3C15.3,13.2,21,7.5,28,7.5s12.7,5.7,12.7,12.8S35,33.1,28,33.1S15.3,27.4,15.3,20.3z"/>
	<path class="st102" d="M15.3,20.3c0-7,5.7-12.7,12.7-12.7s12.7,5.7,12.7,12.7S35,33,28,33S15.3,27.3,15.3,20.3z"/>
	<path class="st103" d="M15.3,20.2c0-7,5.7-12.7,12.6-12.7s12.6,5.7,12.6,12.7S35,32.9,28,32.9S15.3,27.2,15.3,20.2z"/>
	<path class="st104" d="M15.3,20.2c0-7,5.7-12.7,12.6-12.7s12.6,5.7,12.6,12.7S34.9,32.9,28,32.9S15.3,27.2,15.3,20.2z"/>
	<path class="st105" d="M15.4,20.2c0-7,5.6-12.6,12.6-12.6s12.6,5.6,12.6,12.6S35,32.8,28,32.8S15.4,27.2,15.4,20.2z"/>
	<path class="st106" d="M15.4,20.1c0-7,5.6-12.6,12.5-12.6s12.5,5.6,12.5,12.6s-5.6,12.6-12.5,12.6S15.4,27.1,15.4,20.1z"/>
	<path class="st107" d="M15.4,20.1c0-6.9,5.6-12.5,12.5-12.5s12.5,5.6,12.5,12.5s-5.6,12.5-12.5,12.5S15.4,27,15.4,20.1z"/>
	<path class="st108" d="M15.4,20.1c0-6.9,5.6-12.5,12.5-12.5s12.5,5.6,12.5,12.5s-5.6,12.5-12.5,12.5S15.4,27,15.4,20.1z"/>
	<path class="st109" d="M15.4,20.1c0-6.9,5.6-12.5,12.4-12.5s12.4,5.6,12.4,12.5s-5.6,12.5-12.4,12.5S15.4,27,15.4,20.1z"/>
	<path class="st110" d="M15.5,20c0-6.9,5.5-12.4,12.4-12.4S40.2,13.2,40.2,20s-5.5,12.4-12.4,12.4S15.5,26.9,15.5,20z"/>
	<path class="st111" d="M15.5,20c0-6.8,5.5-12.4,12.3-12.4S40.2,13.2,40.2,20s-5.5,12.4-12.4,12.4S15.5,26.8,15.5,20z"/>
	<path class="st112" d="M15.5,20c0-6.8,5.5-12.3,12.3-12.3S40.1,13.1,40.1,20s-5.5,12.4-12.3,12.4S15.5,26.8,15.5,20z"/>
	<path class="st113" d="M15.5,19.9c0-6.8,5.5-12.3,12.3-12.3s12.3,5.5,12.3,12.3s-5.5,12.3-12.3,12.3S15.5,26.7,15.5,19.9z"/>
	<path class="st114" d="M15.5,19.9c0-6.8,5.5-12.3,12.2-12.3S40,13.1,40,19.9s-5.5,12.3-12.2,12.3S15.5,26.7,15.5,19.9z"/>
	<path class="st115" d="M15.6,19.9c0-6.8,5.5-12.2,12.2-12.2S40,13.2,40,19.9s-5.5,12.2-12.2,12.2S15.6,26.6,15.6,19.9z"/>
	<path class="st116" d="M15.6,19.9c0-6.7,5.4-12.2,12.2-12.2S40,13.2,40,19.9S34.5,32,27.7,32S15.6,26.6,15.6,19.9z"/>
	<path class="st117" d="M15.6,19.8c0-6.7,5.4-12.2,12.1-12.2S39.8,13,39.8,19.8S34.4,32,27.7,32S15.6,26.5,15.6,19.8z"/>
	<path class="st118" d="M15.6,19.8c0-6.7,5.4-12.1,12.1-12.1s12.1,5.4,12.1,12.1s-5.4,12.1-12.1,12.1S15.6,26.5,15.6,19.8z"/>
	<path class="st119" d="M15.6,19.8c0-6.7,5.4-12.1,12-12.1s12,5.4,12,12.1s-5.4,12.1-12,12.1S15.6,26.4,15.6,19.8z"/>
	<path class="st120" d="M15.7,19.7c0-6.7,5.4-12,12-12s12,5.4,12,12s-5.4,12-12,12S15.7,26.4,15.7,19.7z"/>
	<path class="st121" d="M15.7,19.7c0-6.6,5.4-12,12-12s12,5.4,12,12s-5.4,12-12,12S15.7,26.3,15.7,19.7z"/>
	<path class="st122" d="M15.7,19.7c0-6.6,5.3-12,11.9-12s11.9,5.4,11.9,12s-5.3,12-11.9,12S15.7,26.3,15.7,19.7z"/>
	<path class="st123" d="M15.7,19.6C15.7,13,21,7.7,27.6,7.7S39.5,13,39.5,19.6s-5.3,11.9-11.9,11.9S15.7,26.2,15.7,19.6z"/>
	<path class="st124" d="M15.7,19.6C15.7,13,21,7.7,27.6,7.7S39.4,13,39.4,19.6s-5.3,11.9-11.8,11.9S15.7,26.2,15.7,19.6z"/>
	<path class="st125" d="M15.7,19.6C15.7,13,21,7.7,27.6,7.7S39.4,13,39.4,19.6s-5.3,11.9-11.8,11.9S15.7,26.1,15.7,19.6z"/>
	<path class="st126" d="M15.8,19.5C15.8,13,21,7.7,27.5,7.7S39.3,13,39.3,19.5S34,31.4,27.5,31.4S15.8,26.1,15.8,19.5z"/>
	<path class="st127" d="M15.8,19.5C15.8,13,21,7.8,27.5,7.8S39.3,13,39.3,19.5S34,31.3,27.5,31.3S15.8,26,15.8,19.5z"/>
	<path class="st128" d="M15.8,19.5C15.8,13,21,7.8,27.5,7.8S39.2,13,39.2,19.5S34,31.2,27.5,31.2S15.8,26,15.8,19.5z"/>
	<path class="st129" d="M15.8,19.5C15.8,13,21,7.8,27.5,7.8S39.1,13,39.1,19.5s-5.2,11.7-11.7,11.7S15.8,25.9,15.8,19.5z"/>
	<path class="st130" d="M15.8,19.4C15.8,13,21,7.8,27.5,7.8S39.1,13,39.1,19.4S33.9,31,27.5,31S15.8,25.9,15.8,19.4z"/>
	<path class="st131" d="M15.9,19.4c0-6.4,5.2-11.6,11.6-11.6S39,13,39,19.4S33.8,31,27.4,31S15.9,25.8,15.9,19.4z"/>
	<path class="st132" d="M15.9,19.4c0-6.4,5.2-11.6,11.6-11.6S39,13,39,19.4S33.8,31,27.5,31S15.9,25.8,15.9,19.4z"/>
	<path class="st133" d="M15.9,19.3c0-6.4,5.2-11.5,11.5-11.5S38.9,13,38.9,19.3s-5.1,11.5-11.5,11.5S15.9,25.7,15.9,19.3z"/>
	<path class="st134" d="M15.9,19.3c0-6.4,5.1-11.5,11.5-11.5S38.9,13,38.9,19.3s-5.1,11.5-11.5,11.5S15.9,25.7,15.9,19.3z"/>
	<path class="st135" d="M15.9,19.3C15.9,13,21,7.8,27.3,7.8s11.4,5.1,11.4,11.5s-5.1,11.5-11.4,11.5S15.9,25.6,15.9,19.3z"/>
	<path class="st136" d="M16,19.2c0-6.3,5.1-11.4,11.4-11.4s11.4,5.1,11.4,11.4s-5.1,11.4-11.4,11.4S16,25.6,16,19.2z"/>
	<path class="st137" d="M16,19.2c0-6.3,5.1-11.4,11.4-11.4s11.4,5.1,11.4,11.4s-5.1,11.4-11.4,11.4S16,25.5,16,19.2z"/>
	<path class="st138" d="M16,19.2c0-6.3,5.1-11.3,11.3-11.3S38.6,13,38.6,19.2s-5.1,11.3-11.3,11.3S16,25.5,16,19.2z"/>
	<path class="st139" d="M16,19.2C16,13,21,7.9,27.3,7.9S38.6,13,38.6,19.2s-5,11.3-11.3,11.3S16,25.4,16,19.2z"/>
	<path class="st140" d="M16,19.1c0-6.2,5-11.3,11.2-11.3s11.2,5,11.2,11.3s-5,11.3-11.2,11.3S16,25.4,16,19.1z"/>
	<path class="st141" d="M16.1,19.1c0-6.2,5-11.2,11.2-11.2s11.2,5,11.2,11.2s-5,11.2-11.2,11.2S16.1,25.3,16.1,19.1z"/>
	<path class="st142" d="M16.1,19.1c0-6.2,5-11.2,11.2-11.2s11.2,5,11.2,11.2s-5,11.2-11.2,11.2S16.1,25.2,16.1,19.1z"/>
	<path class="st143" d="M16.1,19c0-6.2,5-11.1,11.1-11.1s11.1,5,11.1,11.1s-5,11.1-11.1,11.1S16.1,25.2,16.1,19z"/>
	<path class="st144" d="M16.1,19c0-6.1,5-11.1,11.1-11.1s11.1,5,11.1,11.1s-5,11.1-11.1,11.1S16.1,25.1,16.1,19z"/>
	<path class="st145" d="M16.1,19c0-6.1,5-11.1,11.1-11.1s11,5,11,11.1s-5,11.1-11,11.1S16.1,25.1,16.1,19z"/>
	<path class="st146" d="M16.2,18.9c0-6.1,4.9-11,11-11s11,4.9,11,11s-4.9,11-11,11S16.2,25,16.2,18.9z"/>
	<path class="st147" d="M16.2,18.9c0-6.1,4.9-11,11-11s11,4.9,11,11s-4.9,11-11,11S16.2,25,16.2,18.9z"/>
	<path class="st148" d="M16.2,18.9C16.2,12.8,21.1,8,27.1,8S38,12.9,38,18.9s-4.9,10.9-10.9,10.9S16.2,24.9,16.2,18.9z"/>
	<path class="st149" d="M16.2,18.9c0-6,4.9-10.9,10.9-10.9S38,12.8,38,18.9s-4.9,10.9-10.9,10.9S16.2,24.9,16.2,18.9z"/>
	<path class="st150" d="M16.2,18.8c0-6,4.9-10.9,10.9-10.9S38,12.8,38,18.8s-4.9,10.9-10.9,10.9S16.2,24.8,16.2,18.8z"/>
	<path class="st151" d="M16.2,18.8C16.2,12.8,21.1,8,27,8s10.8,4.9,10.8,10.8S33,29.6,27.1,29.6S16.2,24.8,16.2,18.8z"/>
	<path class="st152" d="M16.3,18.8C16.3,12.8,21.1,8,27,8s10.8,4.8,10.8,10.8S33,29.6,27,29.6S16.3,24.7,16.3,18.8z"/>
	<path class="st153" d="M16.3,18.7C16.3,12.8,21.1,8,27,8s10.7,4.8,10.7,10.8S33,29.5,27,29.5S16.3,24.7,16.3,18.7z"/>
	<path class="st154" d="M16.3,18.7C16.3,12.8,21.1,8,27,8s10.7,4.8,10.7,10.7S32.9,29.4,27,29.4S16.3,24.6,16.3,18.7z"/>
	<path class="st155" d="M16.3,18.7C16.3,12.8,21.1,8,27,8s10.7,4.8,10.7,10.7S32.9,29.4,27,29.4S16.3,24.6,16.3,18.7z"/>
	<path class="st156" d="M16.3,18.6C16.3,12.8,21.1,8,27,8s10.6,4.8,10.6,10.6S32.8,29.3,27,29.3S16.3,24.5,16.3,18.6z"/>
	<path class="st157" d="M16.4,18.6C16.4,12.8,21.1,8,27,8s10.6,4.7,10.6,10.6S32.8,29.2,27,29.2S16.4,24.5,16.4,18.6z"/>
	<path class="st158" d="M16.4,18.6C16.4,12.8,21.1,8,26.9,8s10.5,4.7,10.5,10.6s-4.7,10.6-10.5,10.6S16.4,24.4,16.4,18.6z"/>
	<path class="st159" d="M16.4,18.6C16.4,12.7,21.1,8,26.9,8s10.5,4.7,10.5,10.5S32.7,29,26.9,29S16.4,24.4,16.4,18.6z"/>
	<path class="st160" d="M16.4,18.5C16.4,12.7,21.1,8,26.9,8s10.5,4.7,10.5,10.5S32.7,29,26.9,29S16.4,24.3,16.4,18.5z"/>
	<path class="st161" d="M16.4,18.5C16.4,12.7,21.1,8,26.9,8s10.4,4.7,10.4,10.4s-4.7,10.4-10.4,10.4S16.4,24.3,16.4,18.5z"/>
	<path class="st162" d="M16.5,18.5c0-5.8,4.7-10.4,10.4-10.4s10.4,4.7,10.4,10.4s-4.7,10.4-10.4,10.4S16.5,24.2,16.5,18.5z"/>
	<path class="st163" d="M16.5,18.4C16.5,12.7,21.1,8,26.9,8s10.4,4.6,10.4,10.4s-4.6,10.4-10.4,10.4S16.5,24.2,16.5,18.4z"/>
	<path class="st164" d="M16.5,18.4c0-5.7,4.6-10.3,10.3-10.3s10.3,4.6,10.3,10.3s-4.6,10.3-10.3,10.3S16.5,24.1,16.5,18.4z"/>
	<path class="st165" d="M16.5,18.4c0-5.7,4.6-10.3,10.3-10.3s10.3,4.6,10.3,10.3s-4.6,10.3-10.3,10.3S16.5,24.1,16.5,18.4z"/>
	<path class="st166" d="M16.5,18.4c0-5.7,4.6-10.3,10.2-10.3S37,12.7,37,18.4s-4.6,10.2-10.2,10.2S16.5,24,16.5,18.4z"/>
	<path class="st167" d="M16.6,18.3c0-5.6,4.6-10.2,10.2-10.2S37,12.7,37,18.3s-4.6,10.2-10.2,10.2S16.6,24,16.6,18.3z"/>
	<path class="st168" d="M16.6,18.3c0-5.6,4.5-10.2,10.2-10.2S37,12.7,37,18.3s-4.5,10.2-10.2,10.2S16.6,23.9,16.6,18.3z"/>
	<path class="st169" d="M16.6,18.3c0-5.6,4.5-10.1,10.1-10.1s10.1,4.5,10.1,10.1s-4.5,10.1-10.1,10.1S16.6,23.9,16.6,18.3z"/>
	<path class="st170" d="M16.6,18.2c0-5.6,4.5-10.1,10.1-10.1s10.1,4.5,10.1,10.1s-4.5,10.1-10.1,10.1S16.6,23.8,16.6,18.2z"/>
	<path class="st171" d="M16.6,18.2c0-5.6,4.5-10.1,10.1-10.1s10.1,4.5,10.1,10.1s-4.5,10.1-10.1,10.1S16.6,23.8,16.6,18.2z"/>
	<path class="st172" d="M16.7,18.2c0-5.5,4.5-10,10-10s10,4.5,10,10s-4.5,10-10,10S16.7,23.7,16.7,18.2z"/>
	<path class="st173" d="M16.7,18.1c0-5.5,4.5-10,10-10s10,4.5,10,10s-4.5,10-10,10S16.7,23.6,16.7,18.1z"/>
	<path class="st174" d="M16.7,18.1c0-5.5,4.4-9.9,9.9-9.9s9.9,4.4,9.9,9.9S32.1,28,26.6,28S16.7,23.6,16.7,18.1z"/>
	<path class="st175" d="M16.7,18.1c0-5.5,4.4-9.9,9.9-9.9s9.9,4.4,9.9,9.9S32.1,28,26.6,28S16.7,23.5,16.7,18.1z"/>
	<path class="st176" d="M16.7,18c0-5.4,4.4-9.9,9.9-9.9s9.9,4.4,9.9,9.9s-4.4,9.9-9.9,9.9S16.7,23.5,16.7,18z"/>
	<path class="st177" d="M16.7,18c0-5.4,4.4-9.8,9.8-9.8s9.8,4.4,9.8,9.8s-4.4,9.8-9.8,9.8S16.7,23.4,16.7,18z"/>
	<path class="st178" d="M16.8,18c0-5.4,4.4-9.8,9.8-9.8s9.8,4.4,9.8,9.8s-4.4,9.8-9.8,9.8S16.8,23.4,16.8,18z"/>
	<path class="st179" d="M16.8,18c0-5.4,4.4-9.7,9.8-9.7s9.8,4.4,9.8,9.7s-4.4,9.7-9.8,9.7S16.8,23.3,16.8,18z"/>
	<path class="st180" d="M16.8,17.9c0-5.4,4.4-9.7,9.7-9.7s9.7,4.4,9.7,9.7s-4.4,9.7-9.7,9.7S16.8,23.3,16.8,17.9z"/>
	<path class="st181" d="M16.8,17.9c0-5.3,4.3-9.7,9.7-9.7s9.7,4.3,9.7,9.7s-4.3,9.7-9.7,9.7S16.8,23.2,16.8,17.9z"/>
	<path class="st182" d="M16.8,17.9c0-5.3,4.3-9.6,9.6-9.6s9.6,4.3,9.6,9.6s-4.3,9.6-9.6,9.6S16.8,23.2,16.8,17.9z"/>
	<path class="st183" d="M16.9,17.8c0-5.3,4.3-9.6,9.6-9.6s9.6,4.3,9.6,9.6s-4.3,9.6-9.6,9.6S16.9,23.1,16.9,17.8z"/>
	<path class="st184" d="M16.9,17.8c0-5.3,4.3-9.5,9.6-9.5s9.6,4.3,9.6,9.5s-4.3,9.6-9.6,9.6S16.9,23.1,16.9,17.8z"/>
	<path class="st185" d="M16.9,17.8c0-5.3,4.3-9.5,9.5-9.5s9.5,4.3,9.5,9.5s-4.3,9.5-9.5,9.5S16.9,23,16.9,17.8z"/>
	<path class="st186" d="M16.9,17.8c0-5.2,4.2-9.5,9.5-9.5s9.5,4.2,9.5,9.5s-4.2,9.5-9.5,9.5S16.9,23,16.9,17.8z"/>
	<path class="st187" d="M16.9,17.7c0-5.2,4.2-9.4,9.4-9.4s9.4,4.2,9.4,9.4s-4.2,9.4-9.4,9.4S16.9,22.9,16.9,17.7z"/>
	<path class="st188" d="M17,17.7c0-5.2,4.2-9.4,9.4-9.4s9.4,4.2,9.4,9.4s-4.2,9.4-9.4,9.4S17,22.9,17,17.7z"/>
	<path class="st189" d="M17,17.7c0-5.2,4.2-9.4,9.4-9.4s9.4,4.2,9.4,9.4S31.5,27,26.3,27S17,22.8,17,17.7z"/>
	<path class="st190" d="M17,17.6c0-5.1,4.2-9.3,9.3-9.3s9.3,4.2,9.3,9.3s-4.2,9.3-9.3,9.3S17,22.8,17,17.6z"/>
	<path class="st191" d="M17,17.6c0-5.1,4.2-9.3,9.3-9.3s9.3,4.1,9.3,9.3s-4.2,9.3-9.3,9.3S17,22.7,17,17.6z"/>
	<path class="st192" d="M17,17.6c0-5.1,4.1-9.2,9.3-9.2s9.3,4.1,9.3,9.2s-4.1,9.2-9.3,9.2S17,22.7,17,17.6z"/>
	<path class="st193" d="M17.1,17.5c0-5.1,4.1-9.2,9.2-9.2s9.2,4.1,9.2,9.2s-4.1,9.2-9.2,9.2S17.1,22.6,17.1,17.5z"/>
	<path class="st194" d="M17.1,17.5c0-5.1,4.1-9.2,9.2-9.2s9.2,4.1,9.2,9.2s-4.1,9.2-9.2,9.2S17.1,22.6,17.1,17.5z"/>
	<path class="st195" d="M17.1,17.5c0-5,4.1-9.1,9.1-9.1s9.1,4.1,9.1,9.1s-4.1,9.1-9.1,9.1S17.1,22.5,17.1,17.5z"/>
	<path class="st196" d="M17.1,17.5c0-5,4.1-9.1,9.1-9.1s9.1,4.1,9.1,9.1s-4.1,9.1-9.1,9.1C21.2,26.5,17.1,22.5,17.1,17.5z"/>
	<path class="st197" d="M17.1,17.4c0-5,4.1-9,9.1-9s9.1,4.1,9.1,9s-4.1,9-9.1,9S17.1,22.4,17.1,17.4z"/>
	<path class="st198" d="M17.1,17.4c0-5,4-9,9-9s9,4,9,9s-4,9-9,9S17.1,22.4,17.1,17.4z"/>
	<path class="st199" d="M17.2,17.4c0-5,4-9,9-9s9,4,9,9s-4,9-9,9S17.2,22.3,17.2,17.4z"/>
	<path class="st200" d="M17.2,17.3c0-4.9,4-8.9,8.9-8.9s8.9,4,8.9,8.9s-4,8.9-8.9,8.9S17.2,22.3,17.2,17.3z"/>
	<path class="st201" d="M17.2,17.3c0-4.9,4-8.9,8.9-8.9s8.9,4,8.9,8.9s-4,8.9-8.9,8.9S17.2,22.2,17.2,17.3z"/>
	<path class="st202" d="M17.2,17.3c0-4.9,4-8.8,8.9-8.8s8.9,4,8.9,8.8s-4,8.9-8.9,8.9S17.2,22.2,17.2,17.3z"/>
	<path class="st203" d="M17.2,17.2c0-4.9,4-8.8,8.8-8.8s8.8,3.9,8.8,8.8S31,26,26.1,26S17.2,22.1,17.2,17.2z"/>
	<path class="st204" d="M17.3,17.2c0-4.8,3.9-8.8,8.8-8.8s8.8,3.9,8.8,8.8s-4,8.8-8.8,8.8S17.3,22,17.3,17.2z"/>
	<path class="st205" d="M17.3,17.2c0-4.8,3.9-8.7,8.8-8.7s8.8,3.9,8.8,8.7s-3.9,8.7-8.8,8.7S17.3,22,17.3,17.2z"/>
	<path class="st206" d="M17.3,17.1c0-4.8,3.9-8.7,8.7-8.7s8.7,3.9,8.7,8.7s-3.9,8.7-8.7,8.7S17.3,22,17.3,17.1z"/>
	<path class="st207" d="M17.3,17.1c0-4.8,3.9-8.7,8.7-8.7s8.7,3.9,8.7,8.7s-3.9,8.6-8.7,8.6S17.3,21.9,17.3,17.1z"/>
	<path class="st208" d="M17.3,17.1c0-4.8,3.9-8.6,8.7-8.6s8.6,3.9,8.6,8.6s-3.9,8.6-8.6,8.6S17.3,21.8,17.3,17.1z"/>
	<path class="st209" d="M17.4,17.1c0-4.7,3.9-8.6,8.6-8.6s8.6,3.8,8.6,8.6s-3.9,8.6-8.6,8.6S17.4,21.8,17.4,17.1z"/>
	<path class="st210" d="M17.4,17c0-4.7,3.8-8.5,8.6-8.5s8.6,3.8,8.6,8.5s-3.8,8.5-8.6,8.5S17.4,21.8,17.4,17z"/>
	<path class="st211" d="M17.4,17c0-4.7,3.8-8.5,8.5-8.5s8.5,3.8,8.5,8.5s-3.8,8.5-8.5,8.5S17.4,21.7,17.4,17z"/>
	<path class="st212" d="M17.4,17c0-4.7,3.8-8.5,8.5-8.5s8.5,3.8,8.5,8.5s-3.8,8.5-8.5,8.5S17.4,21.6,17.4,17z"/>
	<path class="st213" d="M17.4,16.9c0-4.7,3.8-8.4,8.5-8.4s8.5,3.8,8.5,8.4s-3.8,8.4-8.5,8.4S17.4,21.6,17.4,16.9z"/>
	<path class="st214" d="M17.5,16.9c0-4.6,3.8-8.4,8.4-8.4s8.4,3.7,8.4,8.4s-3.8,8.4-8.4,8.4S17.5,21.5,17.5,16.9z"/>
	<path class="st215" d="M17.5,16.9c0-4.6,3.8-8.3,8.4-8.3s8.4,3.7,8.4,8.3s-3.8,8.3-8.4,8.3S17.5,21.5,17.5,16.9z"/>
	<path class="st216" d="M17.5,16.8c0-4.6,3.7-8.3,8.3-8.3s8.3,3.7,8.3,8.3s-3.7,8.3-8.3,8.3S17.5,21.4,17.5,16.8z"/>
	<path class="st217" d="M17.5,16.8c0-4.6,3.7-8.3,8.3-8.3s8.3,3.7,8.3,8.3s-3.7,8.3-8.3,8.3S17.5,21.4,17.5,16.8z"/>
	<path class="st218" d="M17.5,16.8c0-4.5,3.7-8.2,8.3-8.2s8.3,3.7,8.3,8.2S30.4,25,25.8,25S17.5,21.3,17.5,16.8z"/>
	<path class="st219" d="M17.6,16.7c0-4.5,3.7-8.2,8.2-8.2s8.2,3.7,8.2,8.2s-3.7,8.2-8.2,8.2S17.6,21.3,17.6,16.7z"/>
	<path class="st220" d="M17.6,16.7c0-4.5,3.7-8.1,8.2-8.1s8.2,3.6,8.2,8.1s-3.7,8.1-8.2,8.1S17.6,21.2,17.6,16.7z"/>
	<path class="st221" d="M17.6,16.7c0-4.5,3.7-8.1,8.2-8.1s8.1,3.6,8.1,8.1s-3.6,8.1-8.1,8.1S17.6,21.2,17.6,16.7z"/>
	<path class="st222" d="M17.6,16.7c0-4.5,3.6-8.1,8.1-8.1s8.1,3.6,8.1,8.1s-3.6,8.1-8.1,8.1S17.6,21.1,17.6,16.7z"/>
	<path class="st223" d="M17.6,16.6c0-4.4,3.6-8,8.1-8s8.1,3.6,8.1,8s-3.6,8-8.1,8S17.6,21.1,17.6,16.6z"/>
	<path class="st224" d="M17.6,16.6c0-4.4,3.6-8,8-8s8,3.6,8,8s-3.6,8-8,8S17.6,21,17.6,16.6z"/>
	<path class="st225" d="M17.7,16.6c0-4.4,3.6-7.9,8-7.9s8,3.6,8,7.9s-3.6,8-8,8S17.7,21,17.7,16.6z"/>
	<path class="st226" d="M17.7,16.5c0-4.4,3.6-7.9,8-7.9s8,3.5,8,7.9s-3.6,7.9-8,7.9S17.7,20.9,17.7,16.5z"/>
	<path class="st227" d="M17.7,16.5c0-4.4,3.6-7.9,7.9-7.9s7.9,3.5,7.9,7.9s-3.6,7.9-7.9,7.9S17.7,20.9,17.7,16.5z"/>
	<path class="st228" d="M17.7,16.5c0-4.3,3.5-7.8,7.9-7.8s7.9,3.5,7.9,7.8s-3.5,7.8-7.9,7.8S17.7,20.8,17.7,16.5z"/>
	<path class="st229" d="M17.7,16.5c0-4.3,3.5-7.8,7.9-7.8s7.8,3.5,7.8,7.8s-3.5,7.8-7.8,7.8S17.7,20.8,17.7,16.5z"/>
	<path class="st230" d="M17.8,16.4c0-4.3,3.5-7.8,7.8-7.8s7.8,3.5,7.8,7.8s-3.5,7.8-7.8,7.8S17.8,20.7,17.8,16.4z"/>
	<path class="st231" d="M17.8,16.4c0-4.3,3.5-7.7,7.8-7.7s7.8,3.5,7.8,7.7s-3.5,7.7-7.8,7.7S17.8,20.6,17.8,16.4z"/>
	<path class="st232" d="M17.8,16.4c0-4.2,3.5-7.7,7.7-7.7s7.7,3.4,7.7,7.7S29.8,24,25.5,24S17.8,20.6,17.8,16.4z"/>
	<path class="st233" d="M17.8,16.3c0-4.2,3.4-7.6,7.7-7.6s7.7,3.4,7.7,7.6S29.8,24,25.5,24S17.8,20.5,17.8,16.3z"/>
	<path class="st234" d="M17.8,16.3c0-4.2,3.4-7.6,7.7-7.6s7.6,3.4,7.6,7.6s-3.4,7.6-7.6,7.6S17.8,20.5,17.8,16.3z"/>
	<path class="st235" d="M17.9,16.3c0-4.2,3.4-7.6,7.6-7.6s7.6,3.4,7.6,7.6s-3.4,7.6-7.6,7.6S17.9,20.4,17.9,16.3z"/>
	<path class="st236" d="M17.9,16.2c0-4.2,3.4-7.5,7.6-7.5s7.6,3.4,7.6,7.5s-3.4,7.5-7.6,7.5S17.9,20.4,17.9,16.2z"/>
	<path class="st237" d="M17.9,16.2c0-4.1,3.4-7.5,7.5-7.5s7.5,3.4,7.5,7.5s-3.4,7.5-7.5,7.5S17.9,20.3,17.9,16.2z"/>
	<path class="st238" d="M17.9,16.2c0-4.1,3.4-7.5,7.5-7.5s7.5,3.3,7.5,7.5s-3.4,7.4-7.5,7.4S17.9,20.3,17.9,16.2z"/>
	<path class="st239" d="M17.9,16.1c0-4.1,3.3-7.4,7.5-7.4s7.5,3.3,7.5,7.4s-3.3,7.4-7.5,7.4S17.9,20.2,17.9,16.1z"/>
	<path class="st240" d="M18,16.1c0-4.1,3.3-7.4,7.4-7.4s7.4,3.3,7.4,7.4s-3.3,7.4-7.4,7.4S18,20.2,18,16.1z"/>
	<path class="st241" d="M18,16.1c0-4.1,3.3-7.3,7.4-7.3s7.4,3.3,7.4,7.3s-3.3,7.3-7.4,7.3S18,20.1,18,16.1z"/>
	<path class="st242" d="M18,16.1c0-4,3.3-7.3,7.4-7.3s7.3,3.3,7.3,7.3s-3.3,7.3-7.3,7.3S18,20.1,18,16.1z"/>
	<path class="st243" d="M18,16c0-4,3.3-7.2,7.3-7.2s7.3,3.2,7.3,7.2s-3.3,7.2-7.3,7.2S18,20,18,16z"/>
	<path class="st244" d="M18,16c0-4,3.3-7.2,7.3-7.2s7.3,3.2,7.3,7.2s-3.3,7.2-7.3,7.2S18,20,18,16z"/>
	<path class="st245" d="M18,16c0-4,3.2-7.2,7.2-7.2s7.2,3.2,7.2,7.2s-3.2,7.2-7.2,7.2S18,19.9,18,16z"/>
	<path class="st246" d="M18.1,15.9c0-3.9,3.2-7.1,7.2-7.1s7.2,3.2,7.2,7.1S29.3,23,25.3,23S18.1,19.9,18.1,15.9z"/>
	<path class="st247" d="M18.1,15.9c0-3.9,3.2-7.1,7.2-7.1s7.2,3.2,7.2,7.1S29.2,23,25.2,23S18.1,19.8,18.1,15.9z"/>
	<path class="st248" d="M18.1,15.9c0-3.9,3.2-7.1,7.1-7.1s7.1,3.2,7.1,7.1S29.1,23,25.2,23S18.1,19.8,18.1,15.9z"/>
	<path class="st249" d="M18.1,15.9c0-3.9,3.2-7,7.1-7s7.1,3.1,7.1,7s-3.2,7-7.1,7S18.1,19.7,18.1,15.9z"/>
	<path class="st250" d="M18.1,15.8c0-3.9,3.1-7,7-7s7,3.1,7,7s-3.2,7-7,7S18.1,19.7,18.1,15.8z"/>
	<path class="st251" d="M18.2,15.8c0-3.8,3.1-6.9,7-6.9s7,3.1,7,6.9s-3.1,6.9-7,6.9S18.2,19.6,18.2,15.8z"/>
	<path class="st252" d="M18.2,15.8c0-3.8,3.1-6.9,7-6.9s7,3.1,7,6.9s-3.1,6.9-7,6.9S18.2,19.6,18.2,15.8z"/>
	<path class="st253" d="M18.2,15.7c0-3.8,3.1-6.9,6.9-6.9s6.9,3.1,6.9,6.9s-3.1,6.9-6.9,6.9S18.2,19.5,18.2,15.7z"/>
	<path class="st254" d="M18.2,15.7c0-3.8,3.1-6.8,6.9-6.8S32,12,32,15.7s-3.1,6.8-6.9,6.8S18.2,19.5,18.2,15.7z"/>
	<path class="st255" d="M18.2,15.7c0-3.8,3.1-6.8,6.9-6.8s6.9,3,6.9,6.8s-3.1,6.8-6.9,6.8S18.2,19.4,18.2,15.7z"/>
	<path class="st256" d="M18.3,15.6c0-3.7,3-6.7,6.8-6.7s6.8,3,6.8,6.7s-3,6.7-6.8,6.7S18.3,19.4,18.3,15.6z"/>
	<path class="st257" d="M18.3,15.6c0-3.7,3-6.7,6.8-6.7s6.8,3,6.8,6.7s-3,6.7-6.8,6.7S18.3,19.3,18.3,15.6z"/>
	<path class="st258" d="M18.3,15.6c0-3.7,3-6.7,6.7-6.7s6.7,3,6.7,6.7s-3,6.7-6.7,6.7S18.3,19.3,18.3,15.6z"/>
	<path class="st259" d="M18.3,15.5c0-3.7,3-6.6,6.7-6.6s6.7,3,6.7,6.6s-3,6.6-6.7,6.6S18.3,19.2,18.3,15.5z"/>
	<path class="st260" d="M18.3,15.5c0-3.6,3-6.6,6.7-6.6s6.7,2.9,6.7,6.6s-3,6.6-6.7,6.6S18.3,19.2,18.3,15.5z"/>
	<path class="st261" d="M18.4,15.5c0-3.6,3-6.5,6.6-6.5s6.6,2.9,6.6,6.5S28.6,22,25,22S18.4,19.1,18.4,15.5z"/>
	<path class="st262" d="M18.4,15.5c0-3.6,3-6.5,6.6-6.5s6.6,2.9,6.6,6.5S28.6,22,25,22S18.4,19,18.4,15.5z"/>
	<path class="st263" d="M18.4,15.4c0-3.6,2.9-6.5,6.5-6.5s6.6,2.9,6.6,6.5s-2.9,6.5-6.6,6.5S18.4,19,18.4,15.4z"/>
	<path class="st264" d="M18.4,15.4c0-3.5,2.9-6.4,6.5-6.4s6.5,2.9,6.5,6.4s-2.9,6.4-6.5,6.4S18.4,19,18.4,15.4z"/>
	<path class="st265" d="M18.4,15.4c0-3.5,2.9-6.4,6.5-6.4s6.5,2.9,6.5,6.4s-2.9,6.4-6.5,6.4S18.4,18.9,18.4,15.4z"/>
	<path class="st266" d="M18.5,15.3c0-3.5,2.9-6.4,6.4-6.4s6.4,2.9,6.4,6.4s-2.9,6.4-6.4,6.4S18.5,18.9,18.5,15.3z"/>
	<path class="st267" d="M18.5,15.3c0-3.5,2.9-6.3,6.4-6.3s6.4,2.8,6.4,6.3s-2.9,6.3-6.4,6.3S18.5,18.8,18.5,15.3z"/>
	<path class="st268" d="M18.5,15.3c0-3.5,2.9-6.3,6.4-6.3s6.4,2.8,6.4,6.3s-2.8,6.3-6.4,6.3S18.5,18.8,18.5,15.3z"/>
	<path class="st269" d="M18.5,15.2c0-3.4,2.8-6.2,6.3-6.2s6.3,2.8,6.3,6.2s-2.8,6.2-6.3,6.2S18.5,18.7,18.5,15.2z"/>
	<path class="st270" d="M18.5,15.2c0-3.4,2.8-6.2,6.3-6.2s6.3,2.8,6.3,6.2s-2.8,6.2-6.3,6.2S18.5,18.6,18.5,15.2z"/>
	<path class="st271" d="M18.5,15.2c0-3.4,2.8-6.2,6.2-6.2s6.2,2.8,6.2,6.2s-2.8,6.2-6.2,6.2S18.5,18.6,18.5,15.2z"/>
	<path class="st272" d="M18.6,15.2c0-3.4,2.8-6.1,6.2-6.1s6.2,2.7,6.2,6.1s-2.8,6.1-6.2,6.1S18.6,18.5,18.6,15.2z"/>
	<path class="st273" d="M18.6,15.1c0-3.4,2.8-6.1,6.2-6.1s6.2,2.7,6.2,6.1s-2.8,6.1-6.2,6.1S18.6,18.5,18.6,15.1z"/>
	<path class="st274" d="M18.6,15.1c0-3.3,2.7-6,6.1-6s6.1,2.7,6.1,6s-2.7,6-6.1,6S18.6,18.4,18.6,15.1z"/>
	<path class="st275" d="M18.6,15.1c0-3.3,2.7-6,6.1-6s6.1,2.7,6.1,6s-2.7,6-6.1,6S18.6,18.4,18.6,15.1z"/>
	<path class="st276" d="M18.6,15c0-3.3,2.7-6,6-6s6.1,2.7,6.1,6s-2.7,6-6.1,6S18.6,18.3,18.6,15z"/>
	<path class="st277" d="M18.7,15c0-3.3,2.7-5.9,6-5.9s6,2.7,6,5.9s-2.7,5.9-6,5.9S18.7,18.3,18.7,15z"/>
	<path class="st278" d="M30.6,15c0,3.2-2.7,5.9-6,5.9s-6-2.6-6-5.9s2.7-5.9,6-5.9S30.6,11.7,30.6,15z"/>
	
		<linearGradient id="SVGID_00000165933873475880853490000018023945349614791297_" gradientUnits="userSpaceOnUse" x1="23.7349" y1="-774.175" x2="44.6949" y2="-759.9751" gradientTransform="matrix(1 0 0 -1 0 -750.1102)">
		<stop  offset="0" style="stop-color:#181716"/>
		<stop  offset="0.18" style="stop-color:#50504F"/>
		<stop  offset="0.4" style="stop-color:#8B8A8A"/>
		<stop  offset="0.59" style="stop-color:#B9B8B8"/>
		<stop  offset="0.76" style="stop-color:#DADADA"/>
		<stop  offset="0.9" style="stop-color:#EEEEEE"/>
		<stop  offset="1" style="stop-color:#F6F6F6"/>
	</linearGradient>
	<path style="fill:url(#SVGID_00000165933873475880853490000018023945349614791297_);" d="M48.6,12.8c0,2.4-1.2,4.6-3.1,5.7
		l-10.2,6.6l-0.8,0.5c-1,0.5-2.1,0.9-3.3,0.9c-4,0-7.2-3.4-7.2-7.6c0-3.6,2.3-6.6,5.4-7.4l10.1-4.7l0,0c0.8-0.4,1.8-0.7,2.7-0.7
		C45.7,6.1,48.6,9.1,48.6,12.8L48.6,12.8z"/>
	<path class="st82" d="M54.3,12.8c0,7.1-5.4,12.8-12.1,12.8s-12.1-5.7-12.1-12.8S35.6,0,42.3,0S54.3,5.7,54.3,12.8z"/>
	<path class="st83" d="M42.3,0C49,0,54.4,5.7,54.4,12.8S49,25.6,42.3,25.6s-12.1-5.7-12.1-12.8S35.6,0,42.3,0z"/>
	<path class="st84" d="M42.3,0C49,0,54.4,5.7,54.4,12.8S49,25.6,42.3,25.6s-12.1-5.7-12.1-12.8C30.2,5.7,35.6,0,42.3,0z"/>
	<path class="st85" d="M42.3,0C49,0,54.4,5.7,54.4,12.8S49,25.6,42.3,25.6s-12.1-5.7-12.1-12.8C30.2,5.7,35.6,0,42.3,0z"/>
	<path class="st86" d="M42.3,0c6.7,0,12,5.7,12,12.8s-5.4,12.8-12,12.8s-12-5.7-12-12.8C30.2,5.7,35.6,0,42.3,0z"/>
	<path class="st87" d="M42.3,0c6.7,0,12,5.7,12,12.8s-5.4,12.8-12,12.8s-12-5.7-12-12.8C30.2,5.7,35.6,0,42.3,0z"/>
	<path class="st88" d="M42.3,0c6.7,0,12,5.7,12,12.7s-5.4,12.8-12,12.8s-12-5.7-12-12.8C30.2,5.7,35.6,0,42.3,0z"/>
	<path class="st89" d="M42.3,0c6.6,0,12,5.7,12,12.7s-5.4,12.7-12,12.7s-12-5.7-12-12.7C30.2,5.8,35.6,0,42.3,0z"/>
	<path class="st90" d="M42.3,0c6.6,0,12,5.7,12,12.7s-5.4,12.7-12,12.7s-12-5.7-12-12.7S35.6,0,42.3,0z"/>
	<path class="st91" d="M42.3,0.1c6.6,0,12,5.7,12,12.7s-5.4,12.7-12,12.7s-12-5.7-12-12.7S35.6,0.1,42.3,0.1z"/>
	<path class="st92" d="M42.3,0.1c6.6,0,12,5.7,12,12.7s-5.4,12.7-12,12.7s-12-5.7-12-12.7C30.3,5.7,35.7,0.1,42.3,0.1z"/>
	<path class="st93" d="M42.3,0.1c6.6,0,12,5.7,12,12.7s-5.4,12.7-12,12.7s-12-5.7-12-12.7S35.7,0.1,42.3,0.1z"/>
	<path class="st94" d="M42.3,0.1c6.6,0,12,5.7,12,12.7s-5.4,12.7-12,12.7s-12-5.7-12-12.7S35.7,0.1,42.3,0.1z"/>
	<path class="st95" d="M42.3,0.1c6.6,0,12,5.7,12,12.7s-5.4,12.7-12,12.7s-12-5.7-12-12.7C30.3,5.7,35.7,0.1,42.3,0.1z"/>
	<path class="st96" d="M42.3,0.1c6.6,0,12,5.7,12,12.7s-5.4,12.7-12,12.7s-12-5.7-12-12.7S35.7,0.1,42.3,0.1z"/>
	<path class="st97" d="M42.3,0.1c6.6,0,12,5.7,12,12.7s-5.4,12.7-12,12.7s-12-5.7-12-12.7C30.3,5.7,35.7,0.1,42.3,0.1z"/>
	<path class="st98" d="M42.3,0.1c6.6,0,12,5.7,12,12.7s-5.4,12.7-12,12.7s-12-5.7-12-12.7S35.7,0.1,42.3,0.1z"/>
	<path class="st99" d="M42.3,0.1c6.6,0,12,5.7,12,12.7s-5.4,12.7-12,12.7s-12-5.7-12-12.7C30.4,5.8,35.7,0.1,42.3,0.1z"/>
	<path class="st100" d="M42.3,0.1c6.6,0,11.9,5.7,11.9,12.7s-5.3,12.6-11.9,12.6s-11.9-5.7-11.9-12.6C30.4,5.8,35.7,0.1,42.3,0.1z"
		/>
	<path class="st101" d="M42.3,0.1c6.6,0,11.9,5.7,11.9,12.6c0,7-5.3,12.6-11.9,12.6s-11.9-5.7-11.9-12.6C30.4,5.8,35.7,0.1,42.3,0.1
		z"/>
	<path class="st280" d="M42.3,0.1c6.6,0,11.9,5.7,11.9,12.6c0,7-5.3,12.6-11.9,12.6s-11.9-5.7-11.9-12.6C30.4,5.8,35.7,0.1,42.3,0.1
		z"/>
	<path class="st281" d="M42.3,0.1c6.6,0,11.9,5.7,11.9,12.6c0,7-5.3,12.6-11.9,12.6s-11.9-5.7-11.9-12.6C30.4,5.7,35.7,0.1,42.3,0.1
		z"/>
	<path class="st282" d="M42.3,0.1c6.6,0,11.9,5.7,11.9,12.6s-5.3,12.6-11.9,12.6s-11.9-5.7-11.9-12.6S35.7,0.1,42.3,0.1z"/>
	<path class="st283" d="M42.3,0.1c6.6,0,11.9,5.6,11.9,12.6s-5.3,12.6-11.9,12.6s-11.9-5.6-11.9-12.6C30.4,5.8,35.7,0.1,42.3,0.1z"
		/>
	<path class="st284" d="M42.3,0.1c6.6,0,11.9,5.6,11.9,12.6s-5.3,12.6-11.9,12.6s-11.9-5.6-11.9-12.6S35.8,0.1,42.3,0.1z"/>
	<path class="st285" d="M42.3,0.1c6.6,0,11.9,5.6,11.9,12.6c0,6.9-5.3,12.6-11.9,12.6s-11.9-5.6-11.9-12.6
		C30.4,5.8,35.8,0.1,42.3,0.1z"/>
	<path class="st286" d="M42.3,0.1c6.6,0,11.9,5.6,11.9,12.6c0,6.9-5.3,12.6-11.9,12.6s-11.9-5.6-11.9-12.6
		C30.4,5.8,35.8,0.1,42.3,0.1z"/>
	<path class="st287" d="M42.3,0.2c6.5,0,11.9,5.6,11.9,12.6c0,6.9-5.3,12.6-11.9,12.6s-11.9-5.6-11.9-12.6
		C30.5,5.8,35.8,0.2,42.3,0.2z"/>
	<path class="st288" d="M42.3,0.2c6.5,0,11.9,5.6,11.9,12.6c0,6.9-5.3,12.6-11.9,12.6s-11.9-5.6-11.9-12.6
		C30.5,5.8,35.8,0.2,42.3,0.2z"/>
	<path class="st289" d="M42.3,0.2c6.5,0,11.9,5.6,11.9,12.6c0,6.9-5.3,12.6-11.9,12.6s-11.8-5.6-11.8-12.6
		C30.5,5.8,35.8,0.2,42.3,0.2z"/>
	<path class="st290" d="M42.3,0.2c6.5,0,11.8,5.6,11.8,12.5s-5.3,12.6-11.8,12.6s-11.8-5.6-11.8-12.6C30.5,5.8,35.8,0.2,42.3,0.2z"
		/>
	<path class="st291" d="M42.3,0.2c6.5,0,11.8,5.6,11.8,12.5s-5.3,12.5-11.8,12.5s-11.8-5.6-11.8-12.5S35.8,0.2,42.3,0.2z"/>
	<path class="st292" d="M42.3,0.2c6.5,0,11.8,5.6,11.8,12.5s-5.3,12.5-11.8,12.5s-11.8-5.6-11.8-12.5S35.8,0.2,42.3,0.2z"/>
	<path class="st115" d="M42.3,0.2c6.5,0,11.8,5.6,11.8,12.5s-5.3,12.5-11.8,12.5s-11.8-5.6-11.8-12.5S35.8,0.2,42.3,0.2z"/>
	<path class="st116" d="M42.4,0.2c6.5,0,11.8,5.6,11.8,12.5s-5.3,12.5-11.8,12.5s-11.8-5.6-11.8-12.5C30.5,5.8,35.8,0.2,42.4,0.2z"
		/>
	<path class="st117" d="M42.4,0.2c6.5,0,11.8,5.6,11.8,12.5s-5.3,12.5-11.8,12.5s-11.8-5.6-11.8-12.5C30.6,5.8,35.8,0.2,42.4,0.2z"
		/>
	<path class="st118" d="M42.4,0.2c6.5,0,11.8,5.6,11.8,12.5s-5.3,12.5-11.8,12.5s-11.8-5.6-11.8-12.5C30.6,5.8,35.8,0.2,42.4,0.2z"
		/>
	<path class="st119" d="M42.4,0.2c6.5,0,11.8,5.6,11.8,12.5s-5.3,12.5-11.8,12.5s-11.8-5.6-11.8-12.5C30.6,5.8,35.9,0.2,42.4,0.2z"
		/>
	<path class="st120" d="M42.4,0.2c6.5,0,11.8,5.6,11.8,12.5s-5.3,12.5-11.8,12.5s-11.8-5.6-11.8-12.5C30.6,5.8,35.9,0.2,42.4,0.2z"
		/>
	<path class="st121" d="M42.4,0.2c6.5,0,11.8,5.6,11.8,12.5s-5.3,12.5-11.8,12.5s-11.8-5.6-11.8-12.5C30.6,5.8,35.9,0.2,42.4,0.2z"
		/>
	<path class="st293" d="M42.4,0.2c6.5,0,11.8,5.6,11.8,12.5s-5.3,12.5-11.8,12.5s-11.8-5.6-11.8-12.5C30.6,5.8,35.9,0.2,42.4,0.2z"
		/>
	<path class="st294" d="M42.4,0.2c6.5,0,11.8,5.6,11.8,12.5s-5.3,12.5-11.8,12.5s-11.8-5.6-11.8-12.5C30.6,5.8,35.9,0.2,42.4,0.2z"
		/>
	<path class="st295" d="M42.4,0.2c6.5,0,11.8,5.6,11.8,12.5s-5.3,12.4-11.8,12.4s-11.8-5.6-11.8-12.4C30.6,5.8,35.9,0.2,42.4,0.2z"
		/>
	<path class="st296" d="M42.4,0.2c6.5,0,11.7,5.6,11.7,12.4c0,6.9-5.3,12.4-11.7,12.4s-11.7-5.6-11.7-12.4
		C30.6,5.8,35.9,0.2,42.4,0.2z"/>
	<path class="st297" d="M42.4,0.2c6.5,0,11.7,5.6,11.7,12.4c0,6.9-5.2,12.4-11.7,12.4s-11.7-5.6-11.7-12.4S35.9,0.2,42.4,0.2z"/>
	<path class="st298" d="M42.4,0.2c6.5,0,11.7,5.6,11.7,12.4c0,6.9-5.2,12.4-11.7,12.4s-11.7-5.6-11.7-12.4S35.9,0.2,42.4,0.2z"/>
	<path class="st299" d="M42.4,0.2c6.5,0,11.7,5.6,11.7,12.4S48.9,25,42.4,25s-11.7-5.6-11.7-12.4S35.9,0.2,42.4,0.2z"/>
	<path class="st300" d="M42.4,0.2c6.5,0,11.7,5.6,11.7,12.4S48.9,25,42.4,25s-11.7-5.5-11.7-12.4S35.9,0.2,42.4,0.2z"/>
	<path class="st301" d="M42.4,0.3c6.5,0,11.7,5.6,11.7,12.4c0,6.9-5.2,12.4-11.7,12.4s-11.7-5.5-11.7-12.4S35.9,0.3,42.4,0.3z"/>
	<path class="st302" d="M42.4,0.3c6.5,0,11.7,5.6,11.7,12.4s-5.2,12.4-11.7,12.4s-11.7-5.6-11.7-12.4C30.7,5.8,35.9,0.3,42.4,0.3z"
		/>
	<path class="st303" d="M42.4,0.3c6.5,0,11.7,5.5,11.7,12.4c0,6.8-5.2,12.4-11.7,12.4s-11.7-5.5-11.7-12.4S35.9,0.3,42.4,0.3z"/>
	<path class="st304" d="M42.4,0.3c6.5,0,11.7,5.5,11.7,12.4c0,6.8-5.2,12.4-11.7,12.4s-11.7-5.5-11.7-12.4S36,0.3,42.4,0.3z"/>
	<path class="st305" d="M42.4,0.3c6.4,0,11.7,5.5,11.7,12.4c0,6.8-5.2,12.4-11.7,12.4s-11.7-5.5-11.7-12.4S36,0.3,42.4,0.3z"/>
	<path class="st306" d="M42.4,0.3c6.4,0,11.7,5.5,11.7,12.3s-5.2,12.3-11.7,12.3s-11.7-5.5-11.7-12.3S36,0.3,42.4,0.3z"/>
	<path class="st307" d="M42.4,0.3c6.4,0,11.7,5.5,11.7,12.3s-5.2,12.3-11.7,12.3s-11.6-5.5-11.6-12.3C30.8,5.8,36,0.3,42.4,0.3z"/>
	<path class="st308" d="M42.4,0.3C48.8,0.3,54,5.8,54,12.6s-5.2,12.3-11.6,12.3s-11.6-5.5-11.6-12.3C30.8,5.8,36,0.3,42.4,0.3z"/>
	<path class="st309" d="M42.4,0.3C48.8,0.3,54,5.8,54,12.6s-5.2,12.3-11.6,12.3s-11.6-5.5-11.6-12.3C30.8,5.8,36,0.3,42.4,0.3z"/>
	<path class="st310" d="M42.4,0.3C48.8,0.3,54,5.8,54,12.6S48.8,25,42.4,25s-11.6-5.5-11.6-12.3C30.8,5.8,36,0.3,42.4,0.3z"/>
	<path class="st311" d="M42.4,0.3C48.8,0.3,54,5.8,54,12.6s-5.2,12.3-11.6,12.3s-11.6-5.5-11.6-12.3C30.8,5.8,36,0.3,42.4,0.3z"/>
	<path class="st312" d="M42.4,0.3C48.8,0.3,54,5.8,54,12.6s-5.2,12.3-11.6,12.3s-11.6-5.5-11.6-12.3C30.8,5.8,36,0.3,42.4,0.3z"/>
	<path class="st313" d="M42.4,0.3C48.8,0.3,54,5.8,54,12.6s-5.2,12.3-11.6,12.3s-11.6-5.5-11.6-12.3C30.8,5.8,36,0.3,42.4,0.3z"/>
	<path class="st314" d="M42.4,0.3C48.8,0.3,54,5.8,54,12.6s-5.2,12.3-11.6,12.3s-11.6-5.5-11.6-12.3C30.8,5.8,36,0.3,42.4,0.3z"/>
	<path class="st315" d="M42.4,0.3C48.8,0.3,54,5.8,54,12.6s-5.2,12.3-11.6,12.3s-11.6-5.5-11.6-12.3C30.8,5.8,36,0.3,42.4,0.3z"/>
	<path class="st316" d="M42.4,0.3C48.8,0.3,54,5.8,54,12.6s-5.2,12.3-11.6,12.3s-11.6-5.5-11.6-12.3C30.9,5.8,36,0.3,42.4,0.3z"/>
	<path class="st317" d="M42.4,0.3C48.8,0.3,54,5.8,54,12.6s-5.2,12.3-11.6,12.3s-11.6-5.5-11.6-12.3C30.9,5.8,36,0.3,42.4,0.3z"/>
	<path class="st318" d="M42.4,0.3C48.8,0.3,54,5.8,54,12.6s-5.2,12.2-11.6,12.2s-11.6-5.5-11.6-12.2C30.9,5.8,36.1,0.3,42.4,0.3z"/>
	<path class="st319" d="M42.4,0.3C48.8,0.3,54,5.8,54,12.6s-5.2,12.2-11.6,12.2s-11.6-5.5-11.6-12.2C30.9,5.8,36.1,0.3,42.4,0.3z"/>
	<path class="st320" d="M42.4,0.4C48.8,0.4,54,5.8,54,12.6s-5.2,12.2-11.5,12.2S31,19.3,31,12.6C30.9,5.8,36.1,0.4,42.4,0.4z"/>
	<path class="st321" d="M42.5,0.4C48.8,0.4,54,5.8,54,12.6s-5.2,12.2-11.5,12.2S31,19.3,31,12.6S36.1,0.4,42.5,0.4z"/>
	<path class="st322" d="M42.5,0.4C48.8,0.4,54,5.8,54,12.6s-5.2,12.2-11.5,12.2c-6.4,0-11.5-5.5-11.5-12.2S36.1,0.4,42.5,0.4z"/>
	<path class="st323" d="M42.5,0.4C48.8,0.4,54,5.9,54,12.6s-5.2,12.2-11.5,12.2S31,19.3,31,12.6C30.9,5.9,36.1,0.4,42.5,0.4z"/>
	<path class="st324" d="M42.5,0.4C48.8,0.4,54,5.8,54,12.6s-5.2,12.2-11.5,12.2S31,19.3,31,12.6S36.1,0.4,42.5,0.4z"/>
	<path class="st325" d="M42.5,0.4C48.8,0.4,54,5.9,54,12.6s-5.2,12.2-11.5,12.2S31,19.3,31,12.6S36.1,0.4,42.5,0.4z"/>
	<path class="st326" d="M42.5,0.4C48.8,0.4,54,5.8,54,12.6c0,6.7-5.2,12.2-11.5,12.2S31,19.3,31,12.6C31,5.8,36.1,0.4,42.5,0.4z"/>
	<path class="st327" d="M42.5,0.4C48.8,0.4,54,5.9,54,12.6s-5.2,12.2-11.5,12.2S31,19.3,31,12.6S36.1,0.4,42.5,0.4z"/>
	<path class="st328" d="M42.5,0.4C48.8,0.4,54,5.9,54,12.6s-5.1,12.2-11.5,12.2S31,19.3,31,12.6S36.1,0.4,42.5,0.4z"/>
	<path class="st329" d="M42.5,0.4C48.8,0.4,54,5.9,54,12.6s-5.1,12.2-11.5,12.2S31,19.3,31,12.6S36.1,0.4,42.5,0.4z"/>
	<path class="st330" d="M42.5,0.4C48.8,0.4,54,5.8,54,12.5s-5.1,12.1-11.5,12.1S31,19.3,31,12.6S36.1,0.4,42.5,0.4z"/>
	<path class="st331" d="M42.5,0.4C48.8,0.4,54,5.8,54,12.5s-5.1,12.1-11.5,12.1S31,19.3,31,12.6S36.2,0.4,42.5,0.4z"/>
	<path class="st332" d="M42.5,0.4C48.8,0.4,54,5.8,54,12.5s-5.1,12.1-11.5,12.1S31,19.2,31,12.6C31,5.9,36.2,0.4,42.5,0.4z"/>
	<path class="st333" d="M42.5,0.4c6.3,0,11.4,5.4,11.4,12.1s-5.1,12.1-11.4,12.1S31,19.2,31,12.6C31,5.9,36.2,0.4,42.5,0.4z"/>
	<path class="st334" d="M42.5,0.4c6.3,0,11.4,5.4,11.4,12.1s-5.1,12.1-11.4,12.1S31,19.3,31,12.6S36.2,0.4,42.5,0.4z"/>
	<path class="st335" d="M42.5,0.4c6.3,0,11.4,5.4,11.4,12.1s-5.1,12.1-11.4,12.1s-11.4-5.4-11.4-12.1C31.1,5.9,36.2,0.4,42.5,0.4z"
		/>
	<path class="st336" d="M42.5,0.4c6.3,0,11.4,5.4,11.4,12.1s-5.1,12.1-11.4,12.1s-11.4-5.4-11.4-12.1C31.1,5.9,36.2,0.4,42.5,0.4z"
		/>
	<path class="st337" d="M42.5,0.4c6.3,0,11.4,5.4,11.4,12.1s-5.1,12.1-11.4,12.1s-11.4-5.4-11.4-12.1C31.1,5.9,36.2,0.4,42.5,0.4z"
		/>
	<path class="st338" d="M42.5,0.5c6.3,0,11.4,5.4,11.4,12.1s-5.1,12.1-11.4,12.1s-11.4-5.4-11.4-12.1S36.2,0.5,42.5,0.5z"/>
	<path class="st339" d="M42.5,0.5c6.3,0,11.4,5.4,11.4,12.1s-5.1,12.1-11.4,12.1s-11.4-5.4-11.4-12.1S36.2,0.5,42.5,0.5z"/>
	<path class="st340" d="M42.5,0.5c6.3,0,11.4,5.4,11.4,12.1s-5.1,12.1-11.4,12.1s-11.4-5.4-11.4-12.1S36.2,0.5,42.5,0.5z"/>
	<path class="st341" d="M42.5,0.5c6.3,0,11.4,5.4,11.4,12.1s-5.1,12.1-11.4,12.1s-11.4-5.4-11.4-12.1S36.2,0.5,42.5,0.5z"/>
	<path class="st342" d="M42.5,0.5c6.3,0,11.4,5.4,11.4,12.1s-5.1,12.1-11.4,12.1s-11.4-5.4-11.4-12.1S36.2,0.5,42.5,0.5z"/>
	<path class="st343" d="M42.5,0.5c6.3,0,11.4,5.4,11.4,12s-5.1,12-11.4,12s-11.4-5.4-11.4-12C31.2,5.9,36.2,0.5,42.5,0.5z"/>
	<path class="st344" d="M42.5,0.5c6.3,0,11.4,5.4,11.4,12s-5.1,12-11.4,12s-11.4-5.4-11.4-12C31.2,5.9,36.2,0.5,42.5,0.5z"/>
	<path class="st345" d="M42.5,0.5c6.3,0,11.3,5.4,11.3,12s-5.1,12-11.3,12s-11.4-5.4-11.4-12C31.2,5.9,36.3,0.5,42.5,0.5z"/>
	<path class="st346" d="M42.5,0.5c6.3,0,11.3,5.4,11.3,12s-5.1,12-11.3,12s-11.3-5.4-11.3-12S36.3,0.5,42.5,0.5z"/>
	<path class="st347" d="M42.5,0.5c6.3,0,11.3,5.4,11.3,12s-5.1,12-11.3,12s-11.3-5.4-11.3-12S36.3,0.5,42.5,0.5z"/>
	<path class="st348" d="M42.5,0.5c6.2,0,11.3,5.4,11.3,12s-5.1,12-11.3,12s-11.3-5.4-11.3-12S36.3,0.5,42.5,0.5z"/>
	<path class="st349" d="M42.5,0.5c6.2,0,11.3,5.4,11.3,12s-5.1,12-11.3,12s-11.3-5.4-11.3-12S36.3,0.5,42.5,0.5z"/>
	<path class="st350" d="M42.5,0.5c6.2,0,11.3,5.4,11.3,12s-5.1,12-11.3,12s-11.3-5.4-11.3-12S36.3,0.5,42.5,0.5z"/>
	<path class="st351" d="M42.5,0.5c6.2,0,11.3,5.4,11.3,12s-5.1,12-11.3,12s-11.3-5.4-11.3-12S36.3,0.5,42.5,0.5z"/>
	<path class="st352" d="M42.5,0.5c6.2,0,11.3,5.4,11.3,12s-5.1,12-11.3,12s-11.3-5.4-11.3-12C31.3,5.9,36.3,0.5,42.5,0.5z"/>
	<path class="st353" d="M42.5,0.5c6.2,0,11.3,5.4,11.3,12s-5,12-11.3,12s-11.3-5.4-11.3-12C31.3,5.9,36.3,0.5,42.5,0.5z"/>
	<path class="st354" d="M42.5,0.5c6.2,0,11.3,5.4,11.3,11.9c0,6.6-5,12-11.3,12s-11.3-5.4-11.3-12C31.3,5.9,36.3,0.5,42.5,0.5z"/>
	<path class="st355" d="M42.6,0.6c6.2,0,11.3,5.4,11.3,11.9c0,6.6-5,11.9-11.3,11.9s-11.3-5.3-11.3-11.9S36.3,0.6,42.6,0.6z"/>
	<path class="st356" d="M42.6,0.6c6.2,0,11.3,5.3,11.3,11.9s-5,11.9-11.3,11.9s-11.3-5.3-11.3-11.9S36.3,0.6,42.6,0.6z"/>
	<path class="st357" d="M42.6,0.6c6.2,0,11.2,5.3,11.2,11.9s-5,11.9-11.2,11.9s-11.2-5.3-11.2-11.9C31.3,5.9,36.3,0.6,42.6,0.6z"/>
	<path class="st358" d="M42.6,0.6c6.2,0,11.2,5.3,11.2,11.9s-5,11.9-11.2,11.9s-11.2-5.3-11.2-11.9C31.3,5.9,36.4,0.6,42.6,0.6z"/>
	<path class="st359" d="M42.6,0.6c6.2,0,11.2,5.3,11.2,11.9s-5,11.9-11.2,11.9S31.3,19,31.3,12.5C31.3,5.9,36.4,0.6,42.6,0.6z"/>
	<path class="st360" d="M42.6,0.6c6.2,0,11.2,5.3,11.2,11.9s-5,11.9-11.2,11.9S31.3,19,31.3,12.5C31.3,5.9,36.4,0.6,42.6,0.6z"/>
	<path class="st361" d="M42.6,0.6c6.2,0,11.2,5.3,11.2,11.9s-5,11.9-11.2,11.9S31.3,19,31.3,12.5C31.3,5.9,36.4,0.6,42.6,0.6z"/>
	<path class="st362" d="M42.6,0.6c6.2,0,11.2,5.3,11.2,11.9s-5,11.9-11.2,11.9S31.4,19,31.4,12.5C31.4,5.9,36.4,0.6,42.6,0.6z"/>
	<path class="st363" d="M42.6,0.6c6.2,0,11.2,5.3,11.2,11.9s-5,11.9-11.2,11.9S31.4,19,31.4,12.5C31.4,5.9,36.4,0.6,42.6,0.6z"/>
	<path class="st364" d="M42.6,0.6c6.2,0,11.2,5.3,11.2,11.9s-5,11.9-11.2,11.9S31.4,19,31.4,12.5C31.4,5.9,36.4,0.6,42.6,0.6z"/>
	<path class="st365" d="M42.6,0.6c6.2,0,11.2,5.3,11.2,11.9c0,6.5-5,11.8-11.2,11.8S31.4,19,31.4,12.4C31.4,5.9,36.4,0.6,42.6,0.6z"
		/>
	<path class="st366" d="M42.6,0.6c6.2,0,11.2,5.3,11.2,11.9s-5,11.8-11.2,11.8S31.4,19,31.4,12.5C31.4,5.9,36.4,0.6,42.6,0.6z"/>
	<path class="st367" d="M42.6,0.6c6.2,0,11.2,5.3,11.2,11.8s-5,11.8-11.2,11.8S31.4,19,31.4,12.4C31.4,5.9,36.4,0.6,42.6,0.6z"/>
	<path class="st368" d="M42.6,0.6c6.2,0,11.2,5.3,11.2,11.8s-5,11.8-11.2,11.8S31.4,19,31.4,12.4C31.4,5.9,36.4,0.6,42.6,0.6z"/>
	<path class="st369" d="M42.6,0.6c6.2,0,11.2,5.3,11.2,11.8s-5,11.8-11.2,11.8S31.4,19,31.4,12.4C31.4,5.9,36.4,0.6,42.6,0.6z"/>
	<path class="st370" d="M42.6,0.6c6.2,0,11.1,5.3,11.1,11.8s-5,11.8-11.1,11.8S31.4,19,31.4,12.4S36.4,0.6,42.6,0.6z"/>
	<path class="st371" d="M42.6,0.6c6.1,0,11.1,5.3,11.1,11.8s-5,11.8-11.1,11.8S31.5,19,31.5,12.4C31.5,5.9,36.4,0.6,42.6,0.6z"/>
	<path class="st372" d="M42.6,0.6c6.2,0,11.1,5.3,11.1,11.8s-5,11.8-11.1,11.8s-11.1-5.3-11.1-11.8C31.5,5.9,36.5,0.6,42.6,0.6z"/>
	<path class="st373" d="M42.6,0.6c6.1,0,11.1,5.3,11.1,11.8s-5,11.8-11.1,11.8s-11.1-5.3-11.1-11.8C31.5,5.9,36.5,0.6,42.6,0.6z"/>
	<path class="st374" d="M42.6,0.7c6.1,0,11.1,5.3,11.1,11.8s-5,11.8-11.1,11.8S31.5,19,31.5,12.5C31.5,5.9,36.5,0.7,42.6,0.7z"/>
	<path class="st375" d="M42.6,0.7c6.1,0,11.1,5.3,11.1,11.8s-5,11.8-11.1,11.8S31.5,19,31.5,12.5C31.5,5.9,36.5,0.7,42.6,0.7z"/>
	<path class="st376" d="M42.6,0.7c6.1,0,11.1,5.3,11.1,11.8s-5,11.8-11.1,11.8S31.5,19,31.5,12.5C31.5,5.9,36.5,0.7,42.6,0.7z"/>
	<path class="st377" d="M42.6,0.7c6.1,0,11.1,5.3,11.1,11.7c0,6.5-5,11.8-11.1,11.8s-11.1-5.3-11.1-11.8C31.5,5.9,36.5,0.7,42.6,0.7
		z"/>
	<path class="st378" d="M42.6,0.7c6.1,0,11.1,5.3,11.1,11.7c0,6.5-5,11.7-11.1,11.7s-11.1-5.3-11.1-11.7C31.5,5.9,36.5,0.7,42.6,0.7
		z"/>
	<path class="st379" d="M42.6,0.7c6.1,0,11.1,5.2,11.1,11.7s-5,11.7-11.1,11.7s-11.1-5.2-11.1-11.7C31.5,5.9,36.5,0.7,42.6,0.7z"/>
	<path class="st380" d="M42.6,0.7c6.1,0,11.1,5.2,11.1,11.7s-5,11.7-11.1,11.7s-11.1-5.2-11.1-11.7C31.6,5.9,36.5,0.7,42.6,0.7z"/>
	<path class="st381" d="M42.6,0.7c6.1,0,11.1,5.2,11.1,11.7s-5,11.7-11.1,11.7s-11.1-5.2-11.1-11.7C31.6,5.9,36.5,0.7,42.6,0.7z"/>
	<path class="st382" d="M42.6,0.7c6.1,0,11,5.2,11,11.7s-4.9,11.7-11,11.7s-11-5.2-11-11.7C31.6,5.9,36.5,0.7,42.6,0.7z"/>
	<path class="st383" d="M42.6,0.7c6.1,0,11,5.2,11,11.7s-4.9,11.7-11,11.7s-11-5.2-11-11.7C31.6,5.9,36.5,0.7,42.6,0.7z"/>
	<path class="st384" d="M42.6,0.7c6.1,0,11,5.2,11,11.7c0,6.4-4.9,11.7-11,11.7s-11-5.2-11-11.7C31.6,5.9,36.5,0.7,42.6,0.7z"/>
	<path class="st385" d="M42.6,0.7c6.1,0,11,5.2,11,11.7c0,6.4-4.9,11.7-11,11.7s-11-5.2-11-11.7C31.6,5.9,36.5,0.7,42.6,0.7z"/>
	<path class="st386" d="M42.6,0.7c6.1,0,11,5.2,11,11.7c0,6.4-4.9,11.7-11,11.7s-11-5.2-11-11.7C31.6,5.9,36.6,0.7,42.6,0.7z"/>
	<path class="st387" d="M42.6,0.7c6.1,0,11,5.2,11,11.7c0,6.4-4.9,11.7-11,11.7s-11-5.2-11-11.7C31.6,5.9,36.6,0.7,42.6,0.7z"/>
	<path class="st388" d="M42.6,0.7c6.1,0,11,5.2,11,11.7c0,6.4-4.9,11.7-11,11.7s-11-5.2-11-11.7C31.6,5.9,36.6,0.7,42.6,0.7z"/>
	<path class="st389" d="M42.7,0.7c6.1,0,11,5.2,11,11.7c0,6.4-4.9,11.7-11,11.7s-11-5.2-11-11.7S36.6,0.7,42.7,0.7z"/>
	<path class="st390" d="M42.7,0.7c6.1,0,11,5.2,11,11.6s-4.9,11.6-11,11.6s-11-5.2-11-11.6S36.6,0.7,42.7,0.7z"/>
	<path class="st391" d="M42.7,0.7c6.1,0,11,5.2,11,11.6s-4.9,11.6-11,11.6s-11-5.2-11-11.6S36.6,0.7,42.7,0.7z"/>
	<path class="st392" d="M42.7,0.8c6.1,0,11,5.2,11,11.6s-5,11.6-11,11.6s-11-5.2-11-11.6S36.6,0.8,42.7,0.8z"/>
	<path class="st393" d="M42.7,0.8c6.1,0,11,5.2,11,11.6s-5,11.6-11,11.6s-11-5.2-11-11.6S36.6,0.8,42.7,0.8z"/>
	<path class="st394" d="M42.7,0.8c6,0,11,5.2,11,11.6S48.8,24,42.7,24s-11-5.2-11-11.6S36.6,0.8,42.7,0.8z"/>
	<path class="st395" d="M42.7,0.8c6,0,11,5.2,11,11.6S48.8,24,42.7,24s-11-5.2-11-11.6S36.6,0.8,42.7,0.8z"/>
	<path class="st396" d="M42.7,0.8c6,0,10.9,5.2,10.9,11.6S48.7,24,42.7,24s-10.9-5.2-10.9-11.6C31.7,6,36.6,0.8,42.7,0.8z"/>
	<path class="st397" d="M42.7,0.8c6,0,10.9,5.2,10.9,11.6S48.7,24,42.7,24s-10.9-5.2-10.9-11.6C31.7,6,36.6,0.8,42.7,0.8z"/>
	<path class="st398" d="M42.7,0.8c6,0,10.9,5.2,10.9,11.6S48.7,24,42.7,24s-10.9-5.2-10.9-11.6C31.8,6,36.6,0.8,42.7,0.8z"/>
	<path class="st399" d="M42.7,0.8c6,0,10.9,5.2,10.9,11.6S48.7,24,42.7,24s-10.9-5.2-10.9-11.6C31.8,6,36.7,0.8,42.7,0.8z"/>
	<path class="st400" d="M42.7,0.8c6,0,10.9,5.2,10.9,11.6S48.7,24,42.7,24s-10.9-5.2-10.9-11.6C31.8,6,36.7,0.8,42.7,0.8z"/>
	<path class="st401" d="M42.7,0.8c6,0,10.9,5.2,10.9,11.5c0,6.4-4.9,11.5-10.9,11.5s-10.9-5.2-10.9-11.5C31.8,6,36.7,0.8,42.7,0.8z"
		/>
	<path class="st402" d="M42.7,0.8c6,0,10.9,5.2,10.9,11.5c0,6.4-4.9,11.5-10.9,11.5s-10.9-5.2-10.9-11.5C31.8,6,36.7,0.8,42.7,0.8z"
		/>
	<path class="st403" d="M42.7,0.8c6,0,10.9,5.2,10.9,11.5c0,6.4-4.9,11.5-10.9,11.5s-10.9-5.2-10.9-11.5C31.8,6,36.7,0.8,42.7,0.8z"
		/>
	<path class="st404" d="M42.7,0.8c6,0,10.9,5.2,10.9,11.5c0,6.4-4.9,11.5-10.9,11.5s-10.9-5.2-10.9-11.5C31.8,6,36.7,0.8,42.7,0.8z"
		/>
	<path class="st405" d="M42.7,0.8c6,0,10.9,5.2,10.9,11.5s-4.9,11.5-10.9,11.5s-10.9-5.1-10.9-11.5C31.8,6,36.7,0.8,42.7,0.8z"/>
	<path class="st406" d="M42.7,0.8c6,0,10.9,5.2,10.9,11.5c0,6.4-4.9,11.5-10.9,11.5s-10.9-5.2-10.9-11.5C31.8,6,36.7,0.8,42.7,0.8z"
		/>
	<path class="st407" d="M42.7,0.8c6,0,10.8,5.2,10.8,11.5c0,6.4-4.9,11.5-10.8,11.5s-10.9-5.1-10.9-11.5C31.9,6,36.7,0.8,42.7,0.8z"
		/>
	<path class="st408" d="M42.7,0.8c6,0,10.8,5.1,10.8,11.5s-4.9,11.5-10.8,11.5s-10.8-5.1-10.8-11.5C31.9,6,36.7,0.8,42.7,0.8z"/>
	<path class="st409" d="M42.7,0.8c6,0,10.8,5.1,10.8,11.5c0,6.3-4.9,11.5-10.8,11.5s-10.8-5.1-10.8-11.5C31.9,6,36.7,0.8,42.7,0.8z"
		/>
	<path class="st410" d="M53.5,12.3c0,6.3-4.8,11.5-10.8,11.5s-10.8-5.1-10.8-11.5c0-6.3,4.9-11.5,10.8-11.5S53.5,6,53.5,12.3
		L53.5,12.3z"/>
</g>
</svg>
