<svg width="55" height="46" viewBox="0 0 55 46" fill="none" xmlns="http://www.w3.org/2000/svg">
<g style="mix-blend-mode:multiply" opacity="0.4">
<path opacity="0.01" d="M20.235 7.25989C30.905 7.25989 39.565 15.8699 39.565 26.4899C39.565 37.1099 30.915 45.7199 20.235 45.7199C9.55504 45.7199 0.915039 37.1199 0.915039 26.4899C0.915039 15.8599 9.56504 7.25989 20.235 7.25989Z" fill="#FEFEFE"/>
<path opacity="0.03" d="M20.345 7.33997C30.945 7.33997 39.535 15.89 39.535 26.43C39.535 36.97 30.945 45.53 20.345 45.53C9.74503 45.53 1.15503 36.98 1.15503 26.43C1.15503 15.88 9.74503 7.33997 20.345 7.33997Z" fill="#FDFDFD"/>
<path opacity="0.04" d="M20.455 7.41992C30.975 7.41992 39.505 15.9099 39.505 26.3799C39.505 36.8499 30.975 45.3399 20.455 45.3399C9.93503 45.3399 1.40503 36.8499 1.40503 26.3699C1.40503 15.8899 9.93503 7.41992 20.455 7.41992Z" fill="#FCFCFC"/>
<path opacity="0.05" d="M20.565 7.48999C31.005 7.48999 39.475 15.92 39.475 26.31C39.475 36.7 31.005 45.13 20.565 45.13C10.125 45.13 1.65503 36.71 1.65503 26.31C1.65503 15.91 10.115 7.48999 20.565 7.48999Z" fill="#FBFBFB"/>
<path opacity="0.06" d="M20.665 7.56995C31.035 7.56995 39.435 15.9399 39.435 26.2599C39.435 36.5799 31.035 44.9499 20.665 44.9499C10.295 44.9499 1.89502 36.5799 1.89502 26.2499C1.89502 15.9199 10.305 7.56995 20.665 7.56995Z" fill="#FAFAFA"/>
<path opacity="0.08" d="M20.775 7.6499C31.065 7.6499 39.405 15.9499 39.405 26.1999C39.405 36.4499 31.065 44.7499 20.775 44.7499C10.485 44.7499 2.14502 36.4399 2.14502 26.1999C2.14502 15.9599 10.485 7.6499 20.775 7.6499Z" fill="#F9F9F9"/>
<path opacity="0.09" d="M20.885 7.71997C31.095 7.71997 39.375 15.96 39.375 26.13C39.375 36.3 31.095 44.54 20.885 44.54C10.675 44.54 2.38501 36.31 2.38501 26.14C2.38501 15.97 10.665 7.71997 20.885 7.71997Z" fill="#F8F8F8"/>
<path opacity="0.1" d="M20.995 7.79993C31.135 7.79993 39.345 15.9799 39.345 26.0799C39.345 36.1799 31.125 44.3599 20.995 44.3599C10.865 44.3599 2.63501 36.1699 2.63501 26.0799C2.63501 15.9899 10.855 7.79993 20.995 7.79993Z" fill="#F7F7F7"/>
<path opacity="0.11" d="M21.095 7.87C31.155 7.87 39.305 15.99 39.305 26.01C39.305 36.03 31.145 44.15 21.095 44.15C11.045 44.15 2.88501 36.04 2.88501 26.02C2.88501 16 11.035 7.87 21.095 7.87Z" fill="#F6F6F6"/>
<path opacity="0.13" d="M21.2051 7.94995C31.1851 7.94995 39.2851 16.01 39.2851 25.95C39.2851 35.8899 31.1951 43.9599 21.2051 43.9599C11.2151 43.9599 3.12506 35.8999 3.12506 25.9599C3.12506 16.0199 11.2251 7.94995 21.2051 7.94995Z" fill="#F5F5F5"/>
<path opacity="0.14" d="M21.3151 8.02991C31.2251 8.02991 39.2551 16.0299 39.2551 25.8999C39.2551 35.7699 31.2251 43.7699 21.3151 43.7699C11.4051 43.7699 3.37506 35.7599 3.37506 25.8999C3.37506 16.0399 11.4051 8.02991 21.3151 8.02991Z" fill="#F4F4F4"/>
<path opacity="0.15" d="M21.4151 8.09998C31.2451 8.09998 39.2151 16.04 39.2151 25.83C39.2151 35.62 31.2451 43.56 21.4151 43.56C11.5851 43.56 3.62506 35.63 3.62506 25.84C3.62506 16.05 11.5951 8.09998 21.4151 8.09998Z" fill="#F3F3F3"/>
<path opacity="0.16" d="M21.5251 8.17993C31.2751 8.17993 39.1851 16.0599 39.1851 25.7799C39.1851 35.4999 31.2751 43.3799 21.5251 43.3799C11.7751 43.3799 3.86505 35.4899 3.86505 25.7799C3.86505 16.0699 11.7751 8.17993 21.5251 8.17993Z" fill="#F2F2F2"/>
<path opacity="0.18" d="M21.635 8.25989C31.3151 8.25989 39.1551 16.0799 39.1551 25.7199C39.1551 35.3599 31.3151 43.1799 21.635 43.1799C11.955 43.1799 4.11505 35.3599 4.11505 25.7199C4.11505 16.0799 11.955 8.25989 21.635 8.25989Z" fill="#F1F1F2"/>
<path opacity="0.19" d="M21.7451 8.32996C31.3451 8.32996 39.125 16.09 39.125 25.65C39.125 35.21 31.3451 42.97 21.7451 42.97C12.1451 42.97 4.36505 35.22 4.36505 25.66C4.36505 16.1 12.1451 8.32996 21.7451 8.32996Z" fill="#F0F0F1"/>
<path opacity="0.2" d="M21.845 8.40991C31.365 8.40991 39.085 16.1099 39.085 25.5999C39.085 35.0899 31.365 42.7899 21.845 42.7899C12.325 42.7899 4.60504 35.0899 4.60504 25.5999C4.60504 16.1099 12.325 8.40991 21.845 8.40991Z" fill="#EFEFF0"/>
<path opacity="0.22" d="M21.955 8.47998C31.405 8.47998 39.055 16.11 39.055 25.53C39.055 34.95 31.395 42.58 21.955 42.58C12.515 42.58 4.85504 34.95 4.85504 25.54C4.85504 16.13 12.515 8.47998 21.955 8.47998Z" fill="#EEEEEF"/>
<path opacity="0.23" d="M22.065 8.55994C31.435 8.55994 39.025 16.1299 39.025 25.4799C39.025 34.8299 31.435 42.3999 22.065 42.3999C12.695 42.3999 5.10504 34.8199 5.10504 25.4799C5.10504 16.1399 12.695 8.55994 22.065 8.55994Z" fill="#EDEDEE"/>
<path opacity="0.24" d="M22.175 8.63989C31.465 8.63989 38.995 16.1499 38.995 25.4199C38.995 34.6899 31.465 42.1999 22.175 42.1999C12.885 42.1999 5.34503 34.6799 5.34503 25.4199C5.34503 16.1599 12.875 8.63989 22.175 8.63989Z" fill="#ECECED"/>
<path opacity="0.25" d="M22.275 8.70996C31.485 8.70996 38.955 16.16 38.955 25.35C38.955 34.54 31.485 41.99 22.275 41.99C13.065 41.99 5.59503 34.55 5.59503 25.36C5.59503 16.17 13.065 8.70996 22.275 8.70996Z" fill="#EBECEC"/>
<path opacity="0.27" d="M22.385 8.78992C31.525 8.78992 38.935 16.1799 38.935 25.2999C38.935 34.4199 31.525 41.8099 22.385 41.8099C13.245 41.8099 5.83502 34.4099 5.83502 25.2999C5.83502 16.1899 13.245 8.78992 22.385 8.78992Z" fill="#EAEBEB"/>
<path opacity="0.28" d="M22.495 8.87C31.555 8.87 38.905 16.2 38.905 25.24C38.905 34.28 31.555 41.61 22.495 41.61C13.435 41.61 6.08502 34.28 6.08502 25.24C6.08502 16.2 13.435 8.87 22.495 8.87Z" fill="#E9EAEA"/>
<path opacity="0.29" d="M22.605 8.93994C31.585 8.93994 38.875 16.2099 38.875 25.1699C38.875 34.1299 31.595 41.3999 22.605 41.3999C13.615 41.3999 6.33502 34.1399 6.33502 25.1799C6.33502 16.2199 13.615 8.93994 22.605 8.93994Z" fill="#E8E9E9"/>
<path opacity="0.3" d="M22.705 9.0199C31.615 9.0199 38.835 16.2299 38.835 25.1199C38.835 34.0099 31.615 41.2199 22.705 41.2199C13.795 41.2199 6.57501 34.0099 6.57501 25.1199C6.57501 16.2299 13.795 9.0199 22.705 9.0199Z" fill="#E7E8E8"/>
<path opacity="0.32" d="M22.815 9.08997C31.645 9.08997 38.805 16.24 38.805 25.05C38.805 33.86 31.645 41.01 22.815 41.01C13.985 41.01 6.82501 33.86 6.82501 25.05C6.82501 16.24 13.985 9.08997 22.815 9.08997Z" fill="#E6E7E7"/>
<path opacity="0.33" d="M22.925 9.16992C31.675 9.16992 38.775 16.2599 38.775 24.9999C38.775 33.7399 31.675 40.8299 22.925 40.8299C14.175 40.8299 7.07501 33.7399 7.07501 24.9999C7.07501 16.2599 14.175 9.16992 22.925 9.16992Z" fill="#E5E6E6"/>
<path opacity="0.34" d="M23.0251 9.25C31.7051 9.25 38.7351 16.27 38.7351 24.94C38.7351 33.61 31.7051 40.63 23.0251 40.63C14.3451 40.63 7.31506 33.61 7.31506 24.94C7.31506 16.27 14.3451 9.25 23.0251 9.25Z" fill="#E4E5E5"/>
<path opacity="0.35" d="M23.1351 9.31995C31.7351 9.31995 38.7051 16.2799 38.7051 24.8699C38.7051 33.4599 31.7351 40.4199 23.1351 40.4199C14.5351 40.4199 7.56506 33.4599 7.56506 24.8699C7.56506 16.2799 14.5351 9.31995 23.1351 9.31995Z" fill="#E3E4E4"/>
<path opacity="0.37" d="M23.2451 9.3999C31.7651 9.3999 38.6751 16.2999 38.6751 24.8199C38.6751 33.3399 31.7651 40.2399 23.2451 40.2399C14.7251 40.2399 7.81506 33.3399 7.81506 24.8199C7.81506 16.2999 14.7251 9.3999 23.2451 9.3999Z" fill="#E2E3E3"/>
<path opacity="0.38" d="M23.3551 9.47998C31.8051 9.47998 38.6451 16.32 38.6451 24.76C38.6451 33.2 31.7951 40.04 23.3551 40.04C14.9151 40.04 8.06506 33.2 8.06506 24.76C8.06506 16.32 14.9151 9.47998 23.3551 9.47998Z" fill="#E1E2E2"/>
<path opacity="0.39" d="M23.4551 9.54993C31.8251 9.54993 38.6151 16.3299 38.6151 24.6899C38.6151 33.0499 31.8251 39.8299 23.4551 39.8299C15.0851 39.8299 8.30505 33.0499 8.30505 24.6899C8.30505 16.3299 15.0851 9.54993 23.4551 9.54993Z" fill="#E0E1E1"/>
<path opacity="0.41" d="M23.565 9.62988C31.855 9.62988 38.585 16.3499 38.585 24.6399C38.585 32.9299 31.865 39.6499 23.565 39.6499C15.265 39.6499 8.54504 32.9299 8.54504 24.6399C8.54504 16.3499 15.265 9.62988 23.565 9.62988Z" fill="#DFE0E0"/>
<path opacity="0.42" d="M23.675 9.69995C31.895 9.69995 38.555 16.36 38.555 24.57C38.555 32.78 31.895 39.4399 23.675 39.4399C15.455 39.4399 8.79504 32.78 8.79504 24.57C8.79504 16.36 15.455 9.69995 23.675 9.69995Z" fill="#DEDFDF"/>
<path opacity="0.43" d="M23.785 9.77991C31.925 9.77991 38.525 16.3799 38.525 24.5199C38.525 32.6599 31.925 39.2599 23.785 39.2599C15.645 39.2599 9.04504 32.6599 9.04504 24.5199C9.04504 16.3799 15.645 9.77991 23.785 9.77991Z" fill="#DDDEDE"/>
<path opacity="0.44" d="M23.885 9.85999C31.945 9.85999 38.485 16.4 38.485 24.46C38.485 32.52 31.945 39.06 23.885 39.06C15.825 39.06 9.28503 32.52 9.28503 24.46C9.28503 16.4 15.825 9.85999 23.885 9.85999Z" fill="#DCDDDD"/>
<path opacity="0.46" d="M23.995 9.92993C31.985 9.92993 38.455 16.4099 38.455 24.3899C38.455 32.3699 31.985 38.8499 23.995 38.8499C16.005 38.8499 9.53503 32.3699 9.53503 24.3899C9.53503 16.4099 16.005 9.92993 23.995 9.92993Z" fill="#DBDCDC"/>
<path opacity="0.47" d="M24.105 10.0099C32.015 10.0099 38.425 16.4199 38.425 24.3399C38.425 32.2599 32.015 38.6699 24.105 38.6699C16.195 38.6699 9.78503 32.2599 9.78503 24.3399C9.78503 16.4199 16.195 10.0099 24.105 10.0099Z" fill="#DADBDB"/>
<path opacity="0.48" d="M24.205 10.09C32.035 10.09 38.385 16.44 38.385 24.28C38.385 32.12 32.035 38.47 24.205 38.47C16.375 38.47 10.025 32.12 10.025 24.28C10.025 16.44 16.375 10.09 24.205 10.09Z" fill="#D9DADA"/>
<path opacity="0.49" d="M24.315 10.1599C32.075 10.1599 38.355 16.4499 38.355 24.2099C38.355 31.9699 32.065 38.2599 24.315 38.2599C16.565 38.2599 10.275 31.9699 10.275 24.2099C10.275 16.4499 16.565 10.1599 24.315 10.1599Z" fill="#D8D9D9"/>
<path opacity="0.51" d="M24.425 10.24C32.105 10.24 38.325 16.47 38.325 24.16C38.325 31.85 32.105 38.08 24.425 38.08C16.745 38.08 10.525 31.85 10.525 24.16C10.525 16.47 16.745 10.24 24.425 10.24Z" fill="#D8D8D9"/>
<path opacity="0.52" d="M24.535 10.3199C32.135 10.3199 38.295 16.4899 38.295 24.0999C38.295 31.7099 32.135 37.8799 24.535 37.8799C16.935 37.8799 10.775 31.7099 10.775 24.0999C10.775 16.4899 16.935 10.3199 24.535 10.3199Z" fill="#D7D7D8"/>
<path opacity="0.53" d="M24.635 10.3899C32.165 10.3899 38.265 16.4999 38.265 24.0399C38.265 31.5799 32.165 37.6899 24.635 37.6899C17.105 37.6899 11.015 31.5799 11.015 24.0399C11.015 16.4999 17.115 10.3899 24.635 10.3899Z" fill="#D6D6D7"/>
<path opacity="0.54" d="M24.7451 10.47C32.1951 10.47 38.2351 16.52 38.2351 23.98C38.2351 31.44 32.1951 37.49 24.7451 37.49C17.2951 37.49 11.2551 31.44 11.2551 23.98C11.2551 16.52 17.2951 10.47 24.7451 10.47Z" fill="#D5D5D6"/>
<path opacity="0.56" d="M24.8551 10.5399C32.2251 10.5399 38.2051 16.5299 38.2051 23.9099C38.2051 31.2899 32.2251 37.2799 24.8551 37.2799C17.4851 37.2799 11.5051 31.2899 11.5051 23.9099C11.5051 16.5299 17.4851 10.5399 24.8551 10.5399Z" fill="#D4D4D5"/>
<path opacity="0.57" d="M24.9651 10.62C32.2551 10.62 38.1751 16.55 38.1751 23.86C38.1751 31.17 32.2651 37.1 24.9651 37.1C17.6651 37.1 11.7551 31.17 11.7551 23.86C11.7551 16.55 17.6651 10.62 24.9651 10.62Z" fill="#D3D3D4"/>
<path opacity="0.58" d="M25.0651 10.7C32.2851 10.7 38.1351 16.57 38.1351 23.8C38.1351 31.03 32.2851 36.9 25.0651 36.9C17.8451 36.9 11.9951 31.03 11.9951 23.8C11.9951 16.57 17.8451 10.7 25.0651 10.7Z" fill="#D2D2D3"/>
<path opacity="0.59" d="M25.1751 10.7699C32.3151 10.7699 38.1051 16.5699 38.1051 23.7299C38.1051 30.8899 32.3151 36.6999 25.1751 36.6999C18.0351 36.6999 12.2451 30.8999 12.2451 23.7299C12.2451 16.5599 18.0351 10.7699 25.1751 10.7699Z" fill="#D1D1D2"/>
<path opacity="0.61" d="M25.2851 10.85C32.3451 10.85 38.0751 16.59 38.0751 23.68C38.0751 30.77 32.3451 36.51 25.2851 36.51C18.2251 36.51 12.4951 30.77 12.4951 23.68C12.4951 16.59 18.2251 10.85 25.2851 10.85Z" fill="#D0D0D1"/>
<path opacity="0.62" d="M25.3951 10.9299C32.3851 10.9299 38.0451 16.6099 38.0451 23.6199C38.0451 30.6299 32.3851 36.3099 25.3951 36.3099C18.4051 36.3099 12.7451 30.6299 12.7451 23.6199C12.7451 16.6099 18.4051 10.9299 25.3951 10.9299Z" fill="#CFCFD0"/>
<path opacity="0.63" d="M25.495 11C32.405 11 38.005 16.62 38.005 23.56C38.005 30.5 32.405 36.12 25.495 36.12C18.585 36.12 12.985 30.5 12.985 23.56C12.985 16.62 18.585 11 25.495 11Z" fill="#CECECF"/>
<path opacity="0.65" d="M25.605 11.08C32.435 11.08 37.975 16.64 37.975 23.5C37.975 30.36 32.435 35.92 25.605 35.92C18.775 35.92 13.235 30.36 13.235 23.5C13.235 16.64 18.775 11.08 25.605 11.08Z" fill="#CDCDCE"/>
<path opacity="0.66" d="M25.715 11.1499C32.475 11.1499 37.945 16.6499 37.945 23.4299C37.945 30.2099 32.465 35.7099 25.715 35.7099C18.965 35.7099 13.485 30.2099 13.485 23.4299C13.485 16.6499 18.965 11.1499 25.715 11.1499Z" fill="#CCCCCD"/>
<path opacity="0.67" d="M25.815 11.23C32.495 11.23 37.915 16.67 37.915 23.38C37.915 30.09 32.495 35.53 25.815 35.53C19.135 35.53 13.725 30.09 13.725 23.38C13.725 16.67 19.135 11.23 25.815 11.23Z" fill="#CBCBCC"/>
<path opacity="0.68" d="M25.925 11.3099C32.525 11.3099 37.885 16.6899 37.885 23.3199C37.885 29.9499 32.535 35.3299 25.925 35.3299C19.315 35.3299 13.965 29.9499 13.965 23.3199C13.965 16.6899 19.315 11.3099 25.925 11.3099Z" fill="#CACACB"/>
<path opacity="0.7" d="M26.035 11.3799C32.565 11.3799 37.855 16.6999 37.855 23.2499C37.855 29.7999 32.565 35.1299 26.035 35.1299C19.505 35.1299 14.215 29.8099 14.215 23.2499C14.215 16.6899 19.505 11.3799 26.035 11.3799Z" fill="#C9C9CA"/>
<path opacity="0.71" d="M26.145 11.46C32.595 11.46 37.825 16.72 37.825 23.2C37.825 29.68 32.595 34.94 26.145 34.94C19.695 34.94 14.465 29.68 14.465 23.2C14.465 16.72 19.695 11.46 26.145 11.46Z" fill="#C8C8C9"/>
<path opacity="0.72" d="M26.245 11.5399C32.615 11.5399 37.785 16.7299 37.785 23.1399C37.785 29.5499 32.615 34.7399 26.245 34.7399C19.875 34.7399 14.705 29.5499 14.705 23.1399C14.705 16.7299 19.875 11.5399 26.245 11.5399Z" fill="#C7C7C8"/>
<path opacity="0.73" d="M26.355 11.61C32.655 11.61 37.755 16.74 37.755 23.08C37.755 29.42 32.655 34.55 26.355 34.55C20.055 34.55 14.955 29.42 14.955 23.08C14.955 16.74 20.055 11.61 26.355 11.61Z" fill="#C6C6C7"/>
<path opacity="0.75" d="M26.465 11.6899C32.685 11.6899 37.725 16.7599 37.725 23.0199C37.725 29.2799 32.685 34.3499 26.465 34.3499C20.245 34.3499 15.205 29.2799 15.205 23.0199C15.205 16.7599 20.245 11.6899 26.465 11.6899Z" fill="#C5C5C6"/>
<path opacity="0.76" d="M26.575 11.7599C32.715 11.7599 37.695 16.7699 37.695 22.9499C37.695 29.1299 32.715 34.1399 26.575 34.1399C20.435 34.1399 15.455 29.1299 15.455 22.9499C15.455 16.7699 20.435 11.7599 26.575 11.7599Z" fill="#C4C5C5"/>
<path opacity="0.77" d="M26.6751 11.84C32.7451 11.84 37.6551 16.79 37.6551 22.9C37.6551 29.01 32.7351 33.96 26.6751 33.96C20.6151 33.96 15.6951 29.01 15.6951 22.9C15.6951 16.79 20.6151 11.84 26.6751 11.84Z" fill="#C3C4C4"/>
<path opacity="0.78" d="M26.7851 11.9199C32.7751 11.9199 37.6251 16.8099 37.6251 22.8399C37.6251 28.8699 32.7751 33.7599 26.7851 33.7599C20.7951 33.7599 15.9451 28.8699 15.9451 22.8399C15.9451 16.8099 20.7951 11.9199 26.7851 11.9199Z" fill="#C2C3C3"/>
<path opacity="0.8" d="M26.8951 11.99C32.8051 11.99 37.6051 16.82 37.6051 22.78C37.6051 28.74 32.8151 33.57 26.8951 33.57C20.9751 33.57 16.1951 28.74 16.1951 22.78C16.1951 16.82 20.9851 11.99 26.8951 11.99Z" fill="#C1C2C2"/>
<path opacity="0.81" d="M27.0051 12.0699C32.8451 12.0699 37.5751 16.8399 37.5751 22.7199C37.5751 28.5999 32.8451 33.3699 27.0051 33.3699C21.1651 33.3699 16.4451 28.5999 16.4451 22.7199C16.4451 16.8399 21.1751 12.0699 27.0051 12.0699Z" fill="#C0C1C1"/>
<path opacity="0.82" d="M27.105 12.1499C32.865 12.1499 37.535 16.8599 37.535 22.6599C37.535 28.4599 32.865 33.1699 27.105 33.1699C21.345 33.1699 16.675 28.4599 16.675 22.6599C16.675 16.8599 21.345 12.1499 27.105 12.1499Z" fill="#BFC0C0"/>
<path opacity="0.84" d="M27.215 12.22C32.895 12.22 37.505 16.87 37.505 22.6C37.505 28.33 32.895 32.98 27.215 32.98C21.535 32.98 16.925 28.33 16.925 22.6C16.925 16.87 21.535 12.22 27.215 12.22Z" fill="#BEBFC0"/>
<path opacity="0.85" d="M27.325 12.2999C32.935 12.2999 37.475 16.8799 37.475 22.5399C37.475 28.1999 32.935 32.7799 27.325 32.7799C21.715 32.7799 17.175 28.1999 17.175 22.5399C17.175 16.8799 21.715 12.2999 27.325 12.2999Z" fill="#BDBEBF"/>
<path opacity="0.86" d="M27.425 12.37C32.955 12.37 37.435 16.89 37.435 22.47C37.435 28.05 32.955 32.57 27.425 32.57C21.895 32.57 17.415 28.05 17.415 22.47C17.415 16.89 21.895 12.37 27.425 12.37Z" fill="#BCBDBE"/>
<path opacity="0.87" d="M27.535 12.45C32.985 12.45 37.405 16.91 37.405 22.42C37.405 27.93 32.985 32.3899 27.535 32.3899C22.085 32.3899 17.665 27.93 17.665 22.42C17.665 16.91 22.085 12.45 27.535 12.45Z" fill="#BBBCBD"/>
<path opacity="0.89" d="M27.645 12.5299C33.025 12.5299 37.375 16.9299 37.375 22.3599C37.375 27.7899 33.015 32.1899 27.645 32.1899C22.275 32.1899 17.915 27.7899 17.915 22.3599C17.915 16.9299 22.275 12.5299 27.645 12.5299Z" fill="#BABBBC"/>
<path opacity="0.9" d="M27.755 12.6C33.055 12.6 37.345 16.94 37.345 22.3C37.345 27.66 33.055 32 27.755 32C22.455 32 18.165 27.66 18.165 22.3C18.165 16.94 22.455 12.6 27.755 12.6Z" fill="#B9BABB"/>
<path opacity="0.91" d="M27.855 12.6799C33.075 12.6799 37.305 16.9599 37.305 22.2399C37.305 27.5199 33.075 31.7999 27.855 31.7999C22.635 31.7999 18.405 27.5199 18.405 22.2399C18.405 16.9599 22.635 12.6799 27.855 12.6799Z" fill="#B8B9BA"/>
<path opacity="0.92" d="M27.965 12.7599C33.105 12.7599 37.275 16.9799 37.275 22.1799C37.275 27.3799 33.105 31.5999 27.965 31.5999C22.825 31.5999 18.655 27.3799 18.655 22.1799C18.655 16.9799 22.825 12.7599 27.965 12.7599Z" fill="#B7B8B9"/>
<path opacity="0.94" d="M28.075 12.83C33.145 12.83 37.255 16.99 37.255 22.12C37.255 27.25 33.145 31.41 28.075 31.41C23.005 31.41 18.905 27.25 18.905 22.12C18.905 16.99 23.015 12.83 28.075 12.83Z" fill="#B6B7B8"/>
<path opacity="0.95" d="M28.185 12.9099C33.175 12.9099 37.225 17.0099 37.225 22.0599C37.225 27.1099 33.175 31.2099 28.185 31.2099C23.195 31.2099 19.155 27.1099 19.155 22.0599C19.155 17.0099 23.195 12.9099 28.185 12.9099Z" fill="#B5B6B7"/>
<path opacity="0.96" d="M28.285 12.99C33.195 12.99 37.185 17.03 37.185 22C37.185 26.97 33.205 31.01 28.285 31.01C23.365 31.01 19.385 26.97 19.385 22C19.385 17.03 23.365 12.99 28.285 12.99Z" fill="#B4B5B6"/>
<path opacity="0.97" d="M28.395 13.0599C33.235 13.0599 37.155 17.0299 37.155 21.9399C37.155 26.8499 33.235 30.8199 28.395 30.8199C23.555 30.8199 19.635 26.8499 19.635 21.9399C19.635 17.0299 23.555 13.0599 28.395 13.0599Z" fill="#B3B4B5"/>
<path opacity="0.99" d="M28.505 13.1399C33.265 13.1399 37.125 17.0499 37.125 21.8799C37.125 26.7099 33.265 30.6199 28.505 30.6199C23.745 30.6199 19.885 26.7099 19.885 21.8799C19.885 17.0499 23.745 13.1399 28.505 13.1399Z" fill="#B2B3B4"/>
<path d="M28.6051 30.42C23.9251 30.42 20.1251 26.57 20.1251 21.81C20.1251 17.05 23.9251 13.2 28.6051 13.2C33.2851 13.2 37.0851 17.05 37.0851 21.81C37.0851 26.57 33.2851 30.42 28.6051 30.42Z" fill="#B1B2B3"/>
</g>
<path d="M41.825 20.87C41.825 28.34 35.805 34.39 28.375 34.39C20.945 34.39 14.925 28.34 14.925 20.87C14.925 13.4 20.945 7.34998 28.375 7.34998C35.805 7.34998 41.825 13.4 41.825 20.87Z" fill="#E80000"/>
<path d="M48.5651 12.8C48.5651 15.23 47.3451 17.36 45.5151 18.53L35.3251 25.15L34.4951 25.69C33.4951 26.24 32.3651 26.56 31.1651 26.56C27.1851 26.56 23.9551 23.14 23.9551 18.92C23.9551 15.36 26.2551 12.37 29.3551 11.52L39.4751 6.77998L39.5051 6.75998C40.3351 6.33998 41.2651 6.09998 42.2451 6.09998C45.7351 6.09998 48.5551 9.08998 48.5551 12.79L48.5651 12.8Z" fill="#E80000"/>
<path d="M35.3251 25.15C35.0651 25.35 34.7851 25.53 34.4951 25.69L35.3251 25.15Z" fill="#E80000"/>
<path d="M54.335 12.8C54.335 19.87 48.925 25.6 42.255 25.6C35.585 25.6 30.175 19.87 30.175 12.8C30.175 5.73 35.575 0 42.255 0C48.935 0 54.335 5.73 54.335 12.8Z" fill="#E80000"/>
<g style="mix-blend-mode:multiply" opacity="0.2">
<path d="M41.825 20.87C41.825 28.34 35.805 34.39 28.375 34.39C20.945 34.39 14.925 28.34 14.925 20.87C14.925 13.4 20.945 7.34998 28.375 7.34998C35.805 7.34998 41.825 13.4 41.825 20.87Z" fill="#181716"/>
<path d="M14.9451 20.84C14.9451 13.39 20.9551 7.35999 28.3551 7.35999C35.7551 7.35999 41.7651 13.4 41.7651 20.84C41.7651 28.28 35.7551 34.32 28.3551 34.32C20.9551 34.32 14.9451 28.28 14.9451 20.84Z" fill="#191817"/>
<path d="M14.965 20.81C14.965 13.39 20.955 7.37 28.345 7.37C35.735 7.37 41.725 13.39 41.725 20.81C41.725 28.23 35.735 34.25 28.345 34.25C20.955 34.25 14.965 28.23 14.965 20.81Z" fill="#1A1918"/>
<path d="M14.985 20.78C14.985 13.38 20.955 7.38 28.325 7.38C35.695 7.38 41.665 13.38 41.665 20.78C41.665 28.18 35.695 34.18 28.325 34.18C20.955 34.18 14.985 28.18 14.985 20.78Z" fill="#1B1A19"/>
<path d="M15.0051 20.75C15.0051 13.37 20.9651 7.39001 28.3051 7.39001C35.6451 7.39001 41.6051 13.37 41.6051 20.75C41.6051 28.13 35.6551 34.12 28.3051 34.12C20.9551 34.12 15.0051 28.14 15.0051 20.75Z" fill="#1C1B1A"/>
<path d="M15.025 20.72C15.025 13.36 20.965 7.39001 28.285 7.39001C35.605 7.39001 41.545 13.36 41.545 20.72C41.545 28.08 35.605 34.05 28.285 34.05C20.965 34.05 15.025 28.08 15.025 20.72Z" fill="#1D1C1B"/>
<path d="M15.035 20.69C15.035 13.35 20.955 7.40002 28.255 7.40002C35.555 7.40002 41.475 13.35 41.475 20.69C41.475 28.03 35.555 33.98 28.255 33.98C20.955 33.98 15.035 28.03 15.035 20.69Z" fill="#1E1D1C"/>
<path d="M15.0551 20.66C15.0551 13.34 20.9551 7.41003 28.2451 7.41003C35.5351 7.41003 41.4251 13.34 41.4251 20.66C41.4251 27.98 35.5251 33.91 28.2451 33.91C20.9651 33.91 15.0551 27.98 15.0551 20.66Z" fill="#1F1E1D"/>
<path d="M15.0751 20.6299C15.0751 13.3399 20.9651 7.41992 28.2251 7.41992C35.4851 7.41992 41.3751 13.3299 41.3751 20.6299C41.3751 27.9299 35.4851 33.8399 28.2251 33.8399C20.9651 33.8399 15.0751 27.9299 15.0751 20.6299Z" fill="#201F1E"/>
<path d="M15.095 20.5999C15.095 13.3299 20.965 7.42993 28.205 7.42993C35.445 7.42993 41.315 13.3299 41.315 20.5999C41.315 27.8699 35.445 33.7699 28.205 33.7699C20.965 33.7699 15.095 27.8699 15.095 20.5999Z" fill="#21201F"/>
<path d="M15.1151 20.5699C15.1151 13.3199 20.9651 7.43994 28.1851 7.43994C35.4051 7.43994 41.2551 13.3199 41.2551 20.5699C41.2551 27.8199 35.4051 33.6999 28.1851 33.6999C20.9651 33.6999 15.1151 27.8199 15.1151 20.5699Z" fill="#222120"/>
<path d="M15.1351 20.54C15.1351 13.31 20.9751 7.44995 28.1651 7.44995C35.3551 7.44995 41.1951 13.31 41.1951 20.54C41.1951 27.77 35.3651 33.63 28.1651 33.63C20.9651 33.63 15.1351 27.77 15.1351 20.54Z" fill="#232221"/>
<path d="M15.155 20.51C15.155 13.3 20.975 7.45996 28.155 7.45996C35.335 7.45996 41.145 13.3 41.145 20.51C41.145 27.72 35.325 33.56 28.155 33.56C20.985 33.56 15.155 27.72 15.155 20.51Z" fill="#242322"/>
<path d="M15.175 20.48C15.175 13.29 20.975 7.46997 28.135 7.46997C35.295 7.46997 41.095 13.3 41.095 20.48C41.095 27.66 35.295 33.5 28.135 33.5C20.975 33.5 15.175 27.67 15.175 20.48Z" fill="#252423"/>
<path d="M15.1951 20.45C15.1951 13.28 20.9751 7.46997 28.1151 7.46997C35.2551 7.46997 41.0351 13.28 41.0351 20.45C41.0351 27.62 35.2551 33.43 28.1151 33.43C20.9751 33.43 15.1951 27.62 15.1951 20.45Z" fill="#262524"/>
<path d="M15.215 20.42C15.215 13.28 20.985 7.47998 28.095 7.47998C35.205 7.47998 40.975 13.27 40.975 20.42C40.975 27.57 35.205 33.36 28.095 33.36C20.985 33.36 15.215 27.57 15.215 20.42Z" fill="#272625"/>
<path d="M15.235 20.39C15.235 13.27 20.985 7.48999 28.075 7.48999C35.165 7.48999 40.915 13.26 40.915 20.39C40.915 27.52 35.165 33.29 28.075 33.29C20.985 33.29 15.235 27.52 15.235 20.39Z" fill="#282726"/>
<path d="M15.2551 20.36C15.2551 13.26 20.9851 7.5 28.0551 7.5C35.1251 7.5 40.8551 13.26 40.8551 20.36C40.8551 27.46 35.1251 33.22 28.0551 33.22C20.9851 33.22 15.2551 27.46 15.2551 20.36Z" fill="#292827"/>
<path d="M15.2651 20.33C15.2651 13.25 20.9851 7.51001 28.0351 7.51001C35.0851 7.51001 40.8051 13.25 40.8051 20.33C40.8051 27.41 35.0851 33.15 28.0351 33.15C20.9851 33.15 15.2651 27.41 15.2651 20.33Z" fill="#2A2928"/>
<path d="M15.285 20.3C15.285 13.24 20.985 7.52002 28.015 7.52002C35.045 7.52002 40.745 13.24 40.745 20.3C40.745 27.36 35.045 33.08 28.015 33.08C20.985 33.08 15.285 27.36 15.285 20.3Z" fill="#2B2A29"/>
<path d="M15.3051 20.27C15.3051 13.23 20.9851 7.53003 27.9951 7.53003C35.0051 7.53003 40.6851 13.24 40.6851 20.27C40.6851 27.3 35.0051 33.01 27.9951 33.01C20.9851 33.01 15.3051 27.3 15.3051 20.27Z" fill="#2C2B2A"/>
<path d="M15.3251 20.2399C15.3251 13.2199 20.9851 7.53992 27.9751 7.53992C34.9651 7.53992 40.6251 13.2299 40.6251 20.2399C40.6251 27.2499 34.9651 32.9399 27.9751 32.9399C20.9851 32.9399 15.3251 27.2499 15.3251 20.2399Z" fill="#2D2C2B"/>
<path d="M15.345 20.2099C15.345 13.2199 20.995 7.54993 27.955 7.54993C34.915 7.54993 40.565 13.2199 40.565 20.2099C40.565 27.1999 34.915 32.8699 27.955 32.8699C20.995 32.8699 15.345 27.1999 15.345 20.2099Z" fill="#2E2D2C"/>
<path d="M15.3651 20.1799C15.3651 13.2099 20.9951 7.54993 27.9451 7.54993C34.8951 7.54993 40.515 13.1999 40.515 20.1799C40.515 27.1599 34.8851 32.8099 27.9451 32.8099C21.0051 32.8099 15.3651 27.1599 15.3651 20.1799Z" fill="#2F2E2D"/>
<path d="M15.3851 20.1499C15.3851 13.1999 20.9951 7.55994 27.9251 7.55994C34.8551 7.55994 40.4651 13.1999 40.4651 20.1499C40.4651 27.0999 34.8551 32.7399 27.9251 32.7399C20.9951 32.7399 15.3851 27.0999 15.3851 20.1499Z" fill="#302F2E"/>
<path d="M15.405 20.1199C15.405 13.1899 21.005 7.56995 27.905 7.56995C34.805 7.56995 40.405 13.1899 40.405 20.1199C40.405 27.0499 34.805 32.6699 27.905 32.6699C21.005 32.6699 15.405 27.0499 15.405 20.1199Z" fill="#31302F"/>
<path d="M15.425 20.09C15.425 13.18 21.005 7.57996 27.885 7.57996C34.765 7.57996 40.345 13.18 40.345 20.09C40.345 27 34.765 32.6 27.885 32.6C21.005 32.6 15.425 27 15.425 20.09Z" fill="#323130"/>
<path d="M15.4451 20.06C15.4451 13.17 21.0051 7.58997 27.8651 7.58997C34.7251 7.58997 40.2851 13.17 40.2851 20.06C40.2851 26.95 34.7251 32.53 27.8651 32.53C21.0051 32.53 15.4451 26.95 15.4451 20.06Z" fill="#333231"/>
<path d="M15.465 20.03C15.465 13.17 21.015 7.59998 27.855 7.59998C34.695 7.59998 40.235 13.17 40.235 20.03C40.235 26.89 34.695 32.46 27.855 32.46C21.015 32.46 15.465 26.89 15.465 20.03Z" fill="#343332"/>
<path d="M15.485 20C15.485 13.16 21.015 7.60999 27.835 7.60999C34.655 7.60999 40.185 13.16 40.185 20C40.185 26.84 34.655 32.39 27.835 32.39C21.015 32.39 15.485 26.84 15.485 20Z" fill="#353433"/>
<path d="M15.4951 19.97C15.4951 13.15 21.0051 7.62 27.8051 7.62C34.6051 7.62 40.1151 13.15 40.1151 19.97C40.1151 26.79 34.6051 32.32 27.8051 32.32C21.0051 32.32 15.4951 26.79 15.4951 19.97Z" fill="#363534"/>
<path d="M15.5151 19.94C15.5151 13.14 21.0051 7.63 27.7851 7.63C34.5651 7.63 40.0551 13.14 40.0551 19.94C40.0551 26.74 34.5651 32.25 27.7851 32.25C21.0051 32.25 15.5151 26.74 15.5151 19.94Z" fill="#373635"/>
<path d="M15.535 19.91C15.535 13.13 21.015 7.64001 27.765 7.64001C34.515 7.64001 39.995 13.14 39.995 19.91C39.995 26.68 34.515 32.19 27.765 32.19C21.015 32.19 15.535 26.69 15.535 19.91Z" fill="#383736"/>
<path d="M15.5551 19.88C15.5551 13.12 21.0151 7.64001 27.7451 7.64001C34.4751 7.64001 39.9351 13.12 39.9351 19.88C39.9351 26.64 34.4751 32.12 27.7451 32.12C21.0151 32.12 15.5551 26.64 15.5551 19.88Z" fill="#383837"/>
<path d="M15.5751 19.85C15.5751 13.11 21.0151 7.65002 27.7351 7.65002C34.4551 7.65002 39.8951 13.11 39.8951 19.85C39.8951 26.59 34.4551 32.05 27.7351 32.05C21.0151 32.05 15.5751 26.59 15.5751 19.85Z" fill="#393938"/>
<path d="M15.595 19.82C15.595 13.11 21.025 7.66003 27.715 7.66003C34.405 7.66003 39.835 13.1 39.835 19.82C39.835 26.54 34.415 31.98 27.715 31.98C21.015 31.98 15.595 26.54 15.595 19.82Z" fill="#3A3A39"/>
<path d="M15.6151 19.7899C15.6151 13.0999 21.0251 7.66992 27.6951 7.66992C34.3651 7.66992 39.7751 13.0999 39.7751 19.7899C39.7751 26.4799 34.3651 31.9099 27.6951 31.9099C21.0251 31.9099 15.6151 26.4799 15.6151 19.7899Z" fill="#3B3B3A"/>
<path d="M15.6351 19.7599C15.6351 13.0899 21.0251 7.67993 27.6751 7.67993C34.3251 7.67993 39.7151 13.0899 39.7151 19.7599C39.7151 26.4299 34.3251 31.8399 27.6751 31.8399C21.0251 31.8399 15.6351 26.4299 15.6351 19.7599Z" fill="#3C3C3B"/>
<path d="M15.655 19.7299C15.655 13.0799 21.025 7.68994 27.655 7.68994C34.285 7.68994 39.655 13.0799 39.655 19.7299C39.655 26.3799 34.285 31.7699 27.655 31.7699C21.025 31.7699 15.655 26.3799 15.655 19.7299Z" fill="#3D3D3C"/>
<path d="M15.675 19.7C15.675 13.07 21.035 7.69995 27.645 7.69995C34.255 7.69995 39.605 13.07 39.605 19.7C39.605 26.33 34.245 31.7 27.645 31.7C21.045 31.7 15.675 26.33 15.675 19.7Z" fill="#3E3E3D"/>
<path d="M15.6951 19.67C15.6951 13.06 21.0351 7.70996 27.6251 7.70996C34.2151 7.70996 39.5551 13.07 39.5551 19.67C39.5551 26.27 34.2151 31.63 27.6251 31.63C21.0351 31.63 15.6951 26.27 15.6951 19.67Z" fill="#3F3F3E"/>
<path d="M15.715 19.64C15.715 13.05 21.035 7.71997 27.605 7.71997C34.175 7.71997 39.495 13.06 39.495 19.64C39.495 26.22 34.175 31.56 27.605 31.56C21.035 31.56 15.715 26.22 15.715 19.64Z" fill="#40403F"/>
<path d="M15.725 19.61C15.725 13.05 21.035 7.71997 27.575 7.71997C34.115 7.71997 39.425 13.04 39.425 19.61C39.425 26.18 34.115 31.5 27.575 31.5C21.035 31.5 15.725 26.18 15.725 19.61Z" fill="#414140"/>
<path d="M15.7451 19.58C15.7451 13.04 21.0351 7.72998 27.5551 7.72998C34.0751 7.72998 39.3651 13.03 39.3651 19.58C39.3651 26.13 34.0751 31.43 27.5551 31.43C21.0351 31.43 15.7451 26.13 15.7451 19.58Z" fill="#424241"/>
<path d="M15.7651 19.55C15.7651 13.03 21.0351 7.73999 27.5351 7.73999C34.0351 7.73999 39.3051 13.03 39.3051 19.55C39.3051 26.07 34.0351 31.36 27.5351 31.36C21.0351 31.36 15.7651 26.07 15.7651 19.55Z" fill="#434342"/>
<path d="M15.785 19.52C15.785 13.02 21.035 7.75 27.525 7.75C34.015 7.75 39.265 13.02 39.265 19.52C39.265 26.02 34.015 31.29 27.525 31.29C21.035 31.29 15.785 26.02 15.785 19.52Z" fill="#444443"/>
<path d="M15.8051 19.49C15.8051 13.01 21.0451 7.76001 27.5051 7.76001C33.9651 7.76001 39.2051 13.01 39.2051 19.49C39.2051 25.97 33.9651 31.22 27.5051 31.22C21.0451 31.22 15.8051 25.97 15.8051 19.49Z" fill="#454544"/>
<path d="M15.8251 19.46C15.8251 13 21.0451 7.77002 27.4851 7.77002C33.9251 7.77002 39.1451 13 39.1451 19.46C39.1451 25.92 33.9251 31.15 27.4851 31.15C21.0451 31.15 15.8251 25.92 15.8251 19.46Z" fill="#464645"/>
<path d="M15.845 19.43C15.845 12.99 21.045 7.78003 27.465 7.78003C33.885 7.78003 39.085 13 39.085 19.43C39.085 25.86 33.885 31.08 27.465 31.08C21.045 31.08 15.845 25.86 15.845 19.43Z" fill="#474746"/>
<path d="M15.8651 19.3999C15.8651 12.9899 21.0551 7.78992 27.4451 7.78992C33.8351 7.78992 39.0251 12.9899 39.0251 19.3999C39.0251 25.8099 33.8351 31.0099 27.4451 31.0099C21.0551 31.0099 15.8651 25.8099 15.8651 19.3999Z" fill="#484847"/>
<path d="M15.8851 19.3699C15.8851 12.9799 21.0551 7.79993 27.4351 7.79993C33.8151 7.79993 38.9751 12.9799 38.9751 19.3699C38.9751 25.7599 33.8051 30.9399 27.4351 30.9399C21.0651 30.9399 15.8851 25.7599 15.8851 19.3699Z" fill="#494948"/>
<path d="M15.905 19.3399C15.905 12.9699 21.055 7.79993 27.415 7.79993C33.775 7.79993 38.925 12.9599 38.925 19.3399C38.925 25.7199 33.775 30.8799 27.415 30.8799C21.055 30.8799 15.905 25.7199 15.905 19.3399Z" fill="#4A4A49"/>
<path d="M15.925 19.3099C15.925 12.9599 21.065 7.80994 27.395 7.80994C33.725 7.80994 38.865 12.9599 38.865 19.3099C38.865 25.6599 33.735 30.8099 27.395 30.8099C21.055 30.8099 15.925 25.6599 15.925 19.3099Z" fill="#4B4B4A"/>
<path d="M15.9451 19.2799C15.9451 12.9499 21.0651 7.81995 27.3751 7.81995C33.6851 7.81995 38.8051 12.9499 38.8051 19.2799C38.8051 25.6099 33.6851 30.7399 27.3751 30.7399C21.0651 30.7399 15.9451 25.6099 15.9451 19.2799Z" fill="#4C4C4B"/>
<path d="M15.9551 19.25C15.9551 12.94 21.0551 7.82996 27.3451 7.82996C33.6351 7.82996 38.7351 12.94 38.7351 19.25C38.7351 25.56 33.6351 30.67 27.3451 30.67C21.0551 30.67 15.9551 25.56 15.9551 19.25Z" fill="#4D4D4C"/>
<path d="M15.975 19.22C15.975 12.94 21.055 7.83997 27.335 7.83997C33.615 7.83997 38.685 12.93 38.685 19.22C38.685 25.51 33.605 30.6 27.335 30.6C21.065 30.6 15.975 25.51 15.975 19.22Z" fill="#4E4E4D"/>
<path d="M15.9951 19.19C15.9951 12.93 21.0651 7.84998 27.3151 7.84998C33.5651 7.84998 38.6351 12.93 38.6351 19.19C38.6351 25.45 33.5651 30.53 27.3151 30.53C21.0651 30.53 15.9951 25.45 15.9951 19.19Z" fill="#4F4F4E"/>
<path d="M16.0151 19.16C16.0151 12.92 21.0651 7.85999 27.2951 7.85999C33.5251 7.85999 38.5751 12.92 38.5751 19.16C38.5751 25.4 33.5251 30.46 27.2951 30.46C21.0651 30.46 16.0151 25.4 16.0151 19.16Z" fill="#50504F"/>
<path d="M16.035 19.13C16.035 12.91 21.065 7.87 27.275 7.87C33.485 7.87 38.515 12.91 38.515 19.13C38.515 25.35 33.485 30.39 27.275 30.39C21.065 30.39 16.035 25.35 16.035 19.13Z" fill="#515150"/>
<path d="M16.0551 19.1C16.0551 12.9 21.0751 7.88 27.2551 7.88C33.4351 7.88 38.4551 12.91 38.4551 19.1C38.4551 25.29 33.4351 30.32 27.2551 30.32C21.0751 30.32 16.0551 25.29 16.0551 19.1Z" fill="#525251"/>
<path d="M16.0751 19.07C16.0751 12.89 21.0751 7.89001 27.2351 7.89001C33.3951 7.89001 38.3951 12.9 38.3951 19.07C38.3951 25.24 33.3951 30.25 27.2351 30.25C21.0751 30.25 16.0751 25.24 16.0751 19.07Z" fill="#535352"/>
<path d="M16.095 19.04C16.095 12.88 21.075 7.89001 27.225 7.89001C33.375 7.89001 38.355 12.88 38.355 19.04C38.355 25.2 33.375 30.19 27.225 30.19C21.075 30.19 16.095 25.2 16.095 19.04Z" fill="#545453"/>
<path d="M16.1151 19.01C16.1151 12.88 21.0751 7.90002 27.2051 7.90002C33.3351 7.90002 38.2951 12.87 38.2951 19.01C38.2951 25.15 33.3351 30.12 27.2051 30.12C21.0751 30.12 16.1151 25.15 16.1151 19.01Z" fill="#555554"/>
<path d="M16.1351 18.98C16.1351 12.87 21.0851 7.91003 27.1851 7.91003C33.2851 7.91003 38.2351 12.87 38.2351 18.98C38.2351 25.09 33.2851 30.05 27.1851 30.05C21.0851 30.05 16.1351 25.09 16.1351 18.98Z" fill="#565655"/>
<path d="M16.155 18.9499C16.155 12.8599 21.085 7.91992 27.165 7.91992C33.245 7.91992 38.175 12.8599 38.175 18.9499C38.175 25.0399 33.245 29.9799 27.165 29.9799C21.085 29.9799 16.155 25.0399 16.155 18.9499Z" fill="#575756"/>
<path d="M16.175 18.9199C16.175 12.8499 21.085 7.92993 27.145 7.92993C33.205 7.92993 38.115 12.8499 38.115 18.9199C38.115 24.9899 33.205 29.9099 27.145 29.9099C21.085 29.9099 16.175 24.9899 16.175 18.9199Z" fill="#585857"/>
<path d="M16.1951 18.8899C16.1951 12.8399 21.0951 7.93994 27.1351 7.93994C33.1751 7.93994 38.0651 12.8399 38.0651 18.8899C38.0651 24.9399 33.1651 29.8399 27.1351 29.8399C21.1051 29.8399 16.1951 24.9399 16.1951 18.8899Z" fill="#595958"/>
<path d="M16.2051 18.86C16.2051 12.83 21.0851 7.94995 27.1051 7.94995C33.1251 7.94995 38.0051 12.84 38.0051 18.86C38.0051 24.88 33.1251 29.77 27.1051 29.77C21.0851 29.77 16.2051 24.88 16.2051 18.86Z" fill="#5A5A59"/>
<path d="M16.225 18.83C16.225 12.82 21.085 7.95996 27.085 7.95996C33.085 7.95996 37.945 12.83 37.945 18.83C37.945 24.83 33.085 29.7 27.085 29.7C21.085 29.7 16.225 24.83 16.225 18.83Z" fill="#5B5B5A"/>
<path d="M16.2451 18.8C16.2451 12.82 21.0951 7.96997 27.0651 7.96997C33.0351 7.96997 37.8851 12.82 37.8851 18.8C37.8851 24.78 33.0451 29.63 27.0651 29.63C21.0851 29.63 16.2451 24.78 16.2451 18.8Z" fill="#5C5C5B"/>
<path d="M16.2651 18.77C16.2651 12.81 21.0951 7.96997 27.0451 7.96997C32.9951 7.96997 37.8251 12.8 37.8251 18.77C37.8251 24.74 32.9951 29.57 27.0451 29.57C21.0951 29.57 16.2651 24.74 16.2651 18.77Z" fill="#5D5D5C"/>
<path d="M16.285 18.74C16.285 12.8 21.095 7.97998 27.035 7.97998C32.975 7.97998 37.775 12.8 37.775 18.74C37.775 24.68 32.965 29.5 27.035 29.5C21.105 29.5 16.285 24.68 16.285 18.74Z" fill="#5E5E5D"/>
<path d="M16.3051 18.71C16.3051 12.79 21.0951 7.98999 27.0151 7.98999C32.9351 7.98999 37.7251 12.79 37.7251 18.71C37.7251 24.63 32.9351 29.43 27.0151 29.43C21.0951 29.43 16.3051 24.63 16.3051 18.71Z" fill="#5F5F5E"/>
<path d="M16.3251 18.68C16.3251 12.78 21.1051 8 26.9951 8C32.8851 8 37.6651 12.78 37.6651 18.68C37.6651 24.58 32.8851 29.36 26.9951 29.36C21.1051 29.36 16.3251 24.58 16.3251 18.68Z" fill="#60605F"/>
<path d="M16.345 18.65C16.345 12.77 21.105 8.01001 26.975 8.01001C32.845 8.01001 37.605 12.77 37.605 18.65C37.605 24.53 32.845 29.29 26.975 29.29C21.105 29.29 16.345 24.53 16.345 18.65Z" fill="#616160"/>
<path d="M16.3651 18.62C16.3651 12.77 21.1051 8.02002 26.9551 8.02002C32.8051 8.02002 37.5451 12.77 37.5451 18.62C37.5451 24.47 32.8051 29.22 26.9551 29.22C21.1051 29.22 16.3651 24.47 16.3651 18.62Z" fill="#626261"/>
<path d="M16.3851 18.59C16.3851 12.76 21.1151 8.03003 26.9351 8.03003C32.7551 8.03003 37.4851 12.76 37.4851 18.59C37.4851 24.42 32.7651 29.15 26.9351 29.15C21.1051 29.15 16.3851 24.42 16.3851 18.59Z" fill="#636362"/>
<path d="M16.405 18.5599C16.405 12.7499 21.115 8.03992 26.925 8.03992C32.735 8.03992 37.445 12.7499 37.445 18.5599C37.445 24.3699 32.735 29.0799 26.925 29.0799C21.115 29.0799 16.405 24.3699 16.405 18.5599Z" fill="#646463"/>
<path d="M16.425 18.5299C16.425 12.7399 21.115 8.04993 26.905 8.04993C32.695 8.04993 37.385 12.7399 37.385 18.5299C37.385 24.3199 32.695 29.0099 26.905 29.0099C21.115 29.0099 16.425 24.3199 16.425 18.5299Z" fill="#656564"/>
<path d="M16.4351 18.4999C16.4351 12.7299 21.1051 8.04993 26.8751 8.04993C32.6451 8.04993 37.3151 12.7299 37.3151 18.4999C37.3151 24.2699 32.6451 28.9399 26.8751 28.9399C21.1051 28.9399 16.4351 24.2599 16.4351 18.4999Z" fill="#666665"/>
<path d="M16.4551 18.4699C16.4551 12.7199 21.1151 8.05994 26.8551 8.05994C32.5951 8.05994 37.2551 12.7199 37.2551 18.4699C37.2551 24.2199 32.5951 28.8799 26.8551 28.8799C21.1151 28.8799 16.4551 24.2199 16.4551 18.4699Z" fill="#676766"/>
<path d="M16.475 18.4399C16.475 12.7099 21.115 8.06995 26.835 8.06995C32.555 8.06995 37.195 12.7099 37.195 18.4399C37.195 24.1699 32.555 28.8099 26.835 28.8099C21.115 28.8099 16.475 24.1699 16.475 18.4399Z" fill="#686867"/>
<path d="M16.4951 18.41C16.4951 12.71 21.1151 8.07996 26.8251 8.07996C32.5351 8.07996 37.1451 12.7 37.1451 18.41C37.1451 24.12 32.5251 28.74 26.8251 28.74C21.1251 28.74 16.4951 24.12 16.4951 18.41Z" fill="#696968"/>
<path d="M16.5151 18.38C16.5151 12.7 21.1251 8.08997 26.8051 8.08997C32.4851 8.08997 37.0951 12.7 37.0951 18.38C37.0951 24.06 32.4851 28.67 26.8051 28.67C21.1251 28.67 16.5151 24.06 16.5151 18.38Z" fill="#6A6A69"/>
<path d="M16.535 18.35C16.535 12.69 21.125 8.09998 26.785 8.09998C32.445 8.09998 37.035 12.69 37.035 18.35C37.035 24.01 32.445 28.6 26.785 28.6C21.125 28.6 16.535 24.01 16.535 18.35Z" fill="#6B6B6A"/>
<path d="M16.5551 18.32C16.5551 12.68 21.1251 8.10999 26.7651 8.10999C32.4051 8.10999 36.9751 12.68 36.9751 18.32C36.9751 23.96 32.4051 28.53 26.7651 28.53C21.1251 28.53 16.5551 23.96 16.5551 18.32Z" fill="#6C6C6B"/>
<path d="M16.5751 18.29C16.5751 12.67 21.1251 8.12 26.7451 8.12C32.3651 8.12 36.9151 12.67 36.9151 18.29C36.9151 23.91 32.3651 28.46 26.7451 28.46C21.1251 28.46 16.5751 23.91 16.5751 18.29Z" fill="#6D6D6C"/>
<path d="M16.595 18.26C16.595 12.66 21.135 8.13 26.725 8.13C32.315 8.13 36.855 12.67 36.855 18.26C36.855 23.85 32.315 28.39 26.725 28.39C21.135 28.39 16.595 23.85 16.595 18.26Z" fill="#6E6E6D"/>
<path d="M16.6151 18.23C16.6151 12.65 21.1351 8.14001 26.7151 8.14001C32.2951 8.14001 36.8151 12.66 36.8151 18.23C36.8151 23.8 32.2951 28.32 26.7151 28.32C21.1351 28.32 16.6151 23.8 16.6151 18.23Z" fill="#6F6F6E"/>
<path d="M16.6351 18.2C16.6351 12.65 21.1351 8.14001 26.6951 8.14001C32.2551 8.14001 36.7551 12.64 36.7551 18.2C36.7551 23.76 32.2551 28.26 26.6951 28.26C21.1351 28.26 16.6351 23.76 16.6351 18.2Z" fill="#70706F"/>
<path d="M16.655 18.17C16.655 12.64 21.145 8.15002 26.675 8.15002C32.205 8.15002 36.695 12.63 36.695 18.17C36.695 23.71 32.205 28.19 26.675 28.19C21.145 28.19 16.655 23.71 16.655 18.17Z" fill="#717170"/>
<path d="M16.665 18.14C16.665 12.63 21.135 8.16003 26.645 8.16003C32.155 8.16003 36.625 12.63 36.625 18.14C36.625 23.65 32.155 28.12 26.645 28.12C21.135 28.12 16.665 23.65 16.665 18.14Z" fill="#727271"/>
<path d="M16.6851 18.1099C16.6851 12.6199 21.1351 8.16992 26.6251 8.16992C32.1151 8.16992 36.5651 12.6199 36.5651 18.1099C36.5651 23.5999 32.1151 28.0499 26.6251 28.0499C21.1351 28.0499 16.6851 23.5999 16.6851 18.1099Z" fill="#737372"/>
<path d="M16.7051 18.0799C16.7051 12.6099 21.1451 8.17993 26.6151 8.17993C32.0851 8.17993 36.5251 12.6099 36.5251 18.0799C36.5251 23.5499 32.0951 27.9799 26.6151 27.9799C21.1351 27.9799 16.7051 23.5499 16.7051 18.0799Z" fill="#747473"/>
<path d="M16.725 18.0499C16.725 12.5999 21.145 8.18994 26.595 8.18994C32.045 8.18994 36.465 12.5999 36.465 18.0499C36.465 23.4999 32.045 27.9099 26.595 27.9099C21.145 27.9099 16.725 23.4999 16.725 18.0499Z" fill="#757574"/>
<path d="M16.7451 18.02C16.7451 12.6 21.1451 8.19995 26.5751 8.19995C32.0051 8.19995 36.4051 12.6 36.4051 18.02C36.4051 23.44 32.0051 27.84 26.5751 27.84C21.1451 27.84 16.7451 23.44 16.7451 18.02Z" fill="#767675"/>
<path d="M16.7651 17.99C16.7651 12.59 21.1451 8.20996 26.5551 8.20996C31.9651 8.20996 36.3451 12.59 36.3451 17.99C36.3451 23.39 31.9651 27.77 26.5551 27.77C21.1451 27.77 16.7651 23.39 16.7651 17.99Z" fill="#777776"/>
<path d="M16.785 17.96C16.785 12.58 21.155 8.21997 26.535 8.21997C31.915 8.21997 36.285 12.58 36.285 17.96C36.285 23.34 31.915 27.7 26.535 27.7C21.155 27.7 16.785 23.34 16.785 17.96Z" fill="#787877"/>
<path d="M16.8051 17.93C16.8051 12.57 21.1551 8.21997 26.5251 8.21997C31.8951 8.21997 36.2351 12.57 36.2351 17.93C36.2351 23.29 31.8851 27.63 26.5251 27.63C21.1651 27.63 16.8051 23.28 16.8051 17.93Z" fill="#797978"/>
<path d="M16.8251 17.9C16.8251 12.56 21.1551 8.22998 26.5051 8.22998C31.8551 8.22998 36.1851 12.56 36.1851 17.9C36.1851 23.24 31.8551 27.57 26.5051 27.57C21.1551 27.57 16.8251 23.24 16.8251 17.9Z" fill="#797979"/>
<path d="M16.845 17.87C16.845 12.55 21.165 8.23999 26.485 8.23999C31.805 8.23999 36.125 12.55 36.125 17.87C36.125 23.19 31.805 27.5 26.485 27.5C21.165 27.5 16.845 23.19 16.845 17.87Z" fill="#7A7A7A"/>
<path d="M16.8651 17.84C16.8651 12.54 21.165 8.25 26.465 8.25C31.765 8.25 36.0651 12.54 36.0651 17.84C36.0651 23.14 31.765 27.43 26.465 27.43C21.165 27.43 16.8651 23.14 16.8651 17.84Z" fill="#7B7B7B"/>
<path d="M16.8851 17.81C16.8851 12.54 21.1651 8.26001 26.4451 8.26001C31.7251 8.26001 36.0051 12.54 36.0051 17.81C36.0051 23.08 31.7251 27.36 26.4451 27.36C21.1651 27.36 16.8851 23.08 16.8851 17.81Z" fill="#7C7C7C"/>
<path d="M16.895 17.78C16.895 12.53 21.155 8.27002 26.415 8.27002C31.675 8.27002 35.935 12.53 35.935 17.78C35.935 23.03 31.675 27.29 26.415 27.29C21.155 27.29 16.895 23.03 16.895 17.78Z" fill="#7D7D7D"/>
<path d="M16.915 17.75C16.915 12.52 21.165 8.28003 26.405 8.28003C31.645 8.28003 35.895 12.52 35.895 17.75C35.895 22.98 31.645 27.22 26.405 27.22C21.165 27.22 16.915 22.98 16.915 17.75Z" fill="#7E7E7E"/>
<path d="M16.9351 17.7199C16.9351 12.5099 21.1651 8.28992 26.3851 8.28992C31.6051 8.28992 35.8351 12.5099 35.8351 17.7199C35.8351 22.9299 31.6051 27.1499 26.3851 27.1499C21.1651 27.1499 16.9351 22.9299 16.9351 17.7199Z" fill="#7F7F7F"/>
<path d="M16.9551 17.6899C16.9551 12.4999 21.1651 8.29993 26.3651 8.29993C31.5651 8.29993 35.7751 12.5099 35.7751 17.6899C35.7751 22.8699 31.5651 27.0799 26.3651 27.0799C21.1651 27.0799 16.9551 22.8699 16.9551 17.6899Z" fill="#808080"/>
<path d="M16.975 17.6599C16.975 12.4899 21.175 8.29993 26.345 8.29993C31.515 8.29993 35.715 12.4899 35.715 17.6599C35.715 22.8299 31.515 27.0099 26.345 27.0099C21.175 27.0099 16.975 22.8199 16.975 17.6599Z" fill="#818181"/>
<path d="M16.9951 17.6299C16.9951 12.4799 21.1751 8.30994 26.3251 8.30994C31.4751 8.30994 35.6551 12.4799 35.6551 17.6299C35.6551 22.7799 31.4751 26.9499 26.3251 26.9499C21.1751 26.9499 16.9951 22.7799 16.9951 17.6299Z" fill="#828282"/>
<path d="M17.0151 17.5999C17.0151 12.4799 21.1751 8.31995 26.3151 8.31995C31.4551 8.31995 35.6051 12.4699 35.6051 17.5999C35.6051 22.7299 31.4451 26.8799 26.3151 26.8799C21.1851 26.8799 17.0151 22.7299 17.0151 17.5999Z" fill="#838383"/>
<path d="M17.035 17.57C17.035 12.47 21.175 8.32996 26.295 8.32996C31.415 8.32996 35.555 12.47 35.555 17.57C35.555 22.67 31.415 26.81 26.295 26.81C21.175 26.81 17.035 22.67 17.035 17.57Z" fill="#848484"/>
<path d="M17.0551 17.54C17.0551 12.46 21.1851 8.33997 26.2751 8.33997C31.3651 8.33997 35.4951 12.46 35.4951 17.54C35.4951 22.62 31.3651 26.74 26.2751 26.74C21.1851 26.74 17.0551 22.62 17.0551 17.54Z" fill="#858585"/>
<path d="M17.0751 17.51C17.0751 12.45 21.1851 8.34998 26.2551 8.34998C31.3251 8.34998 35.4351 12.45 35.4351 17.51C35.4351 22.57 31.3251 26.67 26.2551 26.67C21.1851 26.67 17.0751 22.57 17.0751 17.51Z" fill="#868686"/>
<path d="M17.095 17.48C17.095 12.44 21.185 8.35999 26.235 8.35999C31.285 8.35999 35.375 12.44 35.375 17.48C35.375 22.52 31.285 26.6 26.235 26.6C21.185 26.6 17.095 22.52 17.095 17.48Z" fill="#878787"/>
<path d="M17.1151 17.45C17.1151 12.43 21.195 8.37 26.225 8.37C31.2551 8.37 35.3251 12.44 35.3251 17.45C35.3251 22.46 31.2451 26.53 26.225 26.53C21.205 26.53 17.1151 22.46 17.1151 17.45Z" fill="#888888"/>
<path d="M17.1251 17.42C17.1251 12.43 21.1851 8.38 26.1951 8.38C31.2051 8.38 35.2651 12.43 35.2651 17.42C35.2651 22.41 31.2051 26.46 26.1951 26.46C21.1851 26.46 17.1251 22.41 17.1251 17.42Z" fill="#898989"/>
<path d="M17.145 17.39C17.145 12.42 21.185 8.39001 26.175 8.39001C31.165 8.39001 35.205 12.42 35.205 17.39C35.205 22.36 31.165 26.39 26.175 26.39C21.185 26.39 17.145 22.36 17.145 17.39Z" fill="#8A8A8A"/>
<path d="M17.165 17.36C17.165 12.41 21.195 8.39001 26.155 8.39001C31.115 8.39001 35.145 12.4 35.145 17.36C35.145 22.32 31.115 26.32 26.155 26.32C21.195 26.32 17.165 22.31 17.165 17.36Z" fill="#8B8B8B"/>
<path d="M17.1851 17.33C17.1851 12.4 21.1951 8.40002 26.1351 8.40002C31.0751 8.40002 35.0851 12.4 35.0851 17.33C35.0851 22.26 31.0751 26.26 26.1351 26.26C21.1951 26.26 17.1851 22.26 17.1851 17.33Z" fill="#8C8C8C"/>
<path d="M17.2051 17.3C17.2051 12.39 21.1951 8.41003 26.1151 8.41003C31.0351 8.41003 35.0251 12.39 35.0251 17.3C35.0251 22.21 31.0351 26.19 26.1151 26.19C21.1951 26.19 17.2051 22.21 17.2051 17.3Z" fill="#8D8D8D"/>
<path d="M17.225 17.2699C17.225 12.3799 21.195 8.41992 26.105 8.41992C31.015 8.41992 34.985 12.3799 34.985 17.2699C34.985 22.1599 31.015 26.1199 26.105 26.1199C21.195 26.1199 17.225 22.1599 17.225 17.2699Z" fill="#8E8E8E"/>
<path d="M17.2451 17.2399C17.2451 12.3699 21.2051 8.42993 26.0851 8.42993C30.9651 8.42993 34.9251 12.3699 34.9251 17.2399C34.9251 22.1099 30.9651 26.0499 26.0851 26.0499C21.2051 26.0499 17.2451 22.1099 17.2451 17.2399Z" fill="#8F8F8F"/>
<path d="M17.2651 17.2099C17.2651 12.3699 21.2051 8.43994 26.0651 8.43994C30.9251 8.43994 34.8651 12.3699 34.8651 17.2099C34.8651 22.0499 30.9251 25.9799 26.0651 25.9799C21.2051 25.9799 17.2651 22.0499 17.2651 17.2099Z" fill="#909090"/>
<path d="M17.285 17.18C17.285 12.36 21.205 8.44995 26.045 8.44995C30.885 8.44995 34.805 12.36 34.805 17.18C34.805 22 30.885 25.91 26.045 25.91C21.205 25.91 17.285 22 17.285 17.18Z" fill="#919191"/>
<path d="M17.3051 17.15C17.3051 12.35 21.2151 8.45996 26.0251 8.45996C30.8351 8.45996 34.7451 12.35 34.7451 17.15C34.7451 21.95 30.8351 25.84 26.0251 25.84C21.2151 25.84 17.3051 21.95 17.3051 17.15Z" fill="#929292"/>
<path d="M17.3251 17.12C17.3251 12.34 21.2151 8.46997 26.0151 8.46997C30.8151 8.46997 34.6951 12.34 34.6951 17.12C34.6951 21.9 30.8051 25.77 26.0151 25.77C21.2251 25.77 17.3251 21.9 17.3251 17.12Z" fill="#939393"/>
<path d="M17.345 17.09C17.345 12.33 21.215 8.46997 25.995 8.46997C30.775 8.46997 34.645 12.33 34.645 17.09C34.645 21.85 30.775 25.7 25.995 25.7C21.215 25.7 17.345 21.84 17.345 17.09Z" fill="#949494"/>
<path d="M17.355 17.06C17.355 12.32 21.205 8.47998 25.965 8.47998C30.725 8.47998 34.575 12.32 34.575 17.06C34.575 21.8 30.725 25.64 25.965 25.64C21.205 25.64 17.355 21.8 17.355 17.06Z" fill="#959595"/>
<path d="M17.3751 17.03C17.3751 12.31 21.2151 8.48999 25.9451 8.48999C30.6751 8.48999 34.5151 12.31 34.5151 17.03C34.5151 21.75 30.6751 25.57 25.9451 25.57C21.2151 25.57 17.3751 21.75 17.3751 17.03Z" fill="#969696"/>
<path d="M17.395 17C17.395 12.31 21.215 8.5 25.925 8.5C30.635 8.5 34.455 12.3 34.455 17C34.455 21.7 30.635 25.5 25.925 25.5C21.215 25.5 17.395 21.7 17.395 17Z" fill="#979797"/>
<path d="M17.415 16.96C17.415 12.29 21.215 8.5 25.905 8.5C30.595 8.5 34.395 12.29 34.395 16.96C34.395 21.63 30.595 25.42 25.905 25.42C21.215 25.42 17.415 21.63 17.415 16.96Z" fill="#989898"/>
<path d="M17.4351 16.93C17.4351 12.28 21.2251 8.51001 25.8951 8.51001C30.5651 8.51001 34.3551 12.28 34.3551 16.93C34.3551 21.58 30.5651 25.35 25.8951 25.35C21.2251 25.35 17.4351 21.58 17.4351 16.93Z" fill="#999999"/>
<path d="M17.4551 16.9C17.4551 12.27 21.2251 8.52002 25.8751 8.52002C30.5251 8.52002 34.2951 12.27 34.2951 16.9C34.2951 21.53 30.5251 25.28 25.8751 25.28C21.2251 25.28 17.4551 21.53 17.4551 16.9Z" fill="#9A9A9A"/>
<path d="M17.475 16.87C17.475 12.26 21.225 8.53003 25.855 8.53003C30.485 8.53003 34.235 12.27 34.235 16.87C34.235 21.47 30.485 25.21 25.855 25.21C21.225 25.21 17.475 21.47 17.475 16.87Z" fill="#9B9B9B"/>
<path d="M17.4951 16.8399C17.4951 12.2499 21.2351 8.53992 25.8351 8.53992C30.4351 8.53992 34.1751 12.2599 34.1751 16.8399C34.1751 21.4199 30.4451 25.1399 25.8351 25.1399C21.2251 25.1399 17.4951 21.4199 17.4951 16.8399Z" fill="#9C9C9C"/>
<path d="M17.5151 16.8099C17.5151 12.2399 21.2351 8.53992 25.8151 8.53992C30.3951 8.53992 34.1151 12.2399 34.1151 16.8099C34.1151 21.3799 30.3951 25.0699 25.8151 25.0699C21.2351 25.0699 17.5151 21.3699 17.5151 16.8099Z" fill="#9D9D9D"/>
<path d="M17.535 16.7799C17.535 12.2399 21.235 8.54993 25.805 8.54993C30.375 8.54993 34.075 12.2299 34.075 16.7799C34.075 21.3299 30.375 24.9999 25.805 24.9999C21.235 24.9999 17.535 21.3199 17.535 16.7799Z" fill="#9E9E9E"/>
<path d="M17.5551 16.7499C17.5551 12.2299 21.2351 8.55994 25.7851 8.55994C30.3351 8.55994 34.0151 12.2299 34.0151 16.7499C34.0151 21.2699 30.3351 24.9399 25.7851 24.9399C21.2351 24.9399 17.5551 21.2699 17.5551 16.7499Z" fill="#9F9F9F"/>
<path d="M17.5751 16.7199C17.5751 12.2199 21.2451 8.56995 25.7651 8.56995C30.2851 8.56995 33.9551 12.2199 33.9551 16.7199C33.9551 21.2199 30.2851 24.8699 25.7651 24.8699C21.2451 24.8699 17.5751 21.2199 17.5751 16.7199Z" fill="#A0A0A0"/>
<path d="M17.585 16.69C17.585 12.21 21.235 8.57996 25.735 8.57996C30.235 8.57996 33.885 12.21 33.885 16.69C33.885 21.17 30.235 24.8 25.735 24.8C21.235 24.8 17.585 21.17 17.585 16.69Z" fill="#A1A1A1"/>
<path d="M17.605 16.66C17.605 12.2 21.235 8.58997 25.715 8.58997C30.195 8.58997 33.825 12.2 33.825 16.66C33.825 21.12 30.195 24.73 25.715 24.73C21.235 24.73 17.605 21.12 17.605 16.66Z" fill="#A2A2A2"/>
<path d="M17.6251 16.63C17.6251 12.19 21.2451 8.59998 25.7051 8.59998C30.1651 8.59998 33.7751 12.2 33.7751 16.63C33.7751 21.06 30.1551 24.66 25.7051 24.66C21.2551 24.66 17.6251 21.06 17.6251 16.63Z" fill="#A3A3A3"/>
<path d="M17.645 16.6C17.645 12.19 21.245 8.60999 25.685 8.60999C30.125 8.60999 33.725 12.19 33.725 16.6C33.725 21.01 30.125 24.59 25.685 24.59C21.245 24.59 17.645 21.01 17.645 16.6Z" fill="#A4A4A4"/>
<path d="M17.665 16.57C17.665 12.18 21.245 8.62 25.665 8.62C30.085 8.62 33.665 12.18 33.665 16.57C33.665 20.96 30.085 24.52 25.665 24.52C21.245 24.52 17.665 20.96 17.665 16.57Z" fill="#A5A5A5"/>
<path d="M17.6851 16.54C17.6851 12.17 21.2451 8.63 25.6451 8.63C30.0451 8.63 33.6051 12.17 33.6051 16.54C33.6051 20.91 30.0451 24.45 25.6451 24.45C21.2451 24.45 17.6851 20.91 17.6851 16.54Z" fill="#A6A6A6"/>
<path d="M17.7051 16.51C17.7051 12.16 21.2551 8.63 25.6251 8.63C29.9951 8.63 33.5451 12.16 33.5451 16.51C33.5451 20.86 29.9951 24.38 25.6251 24.38C21.2551 24.38 17.7051 20.85 17.7051 16.51Z" fill="#A7A7A7"/>
<path d="M17.725 16.48C17.725 12.15 21.255 8.64001 25.605 8.64001C29.955 8.64001 33.485 12.15 33.485 16.48C33.485 20.81 29.955 24.32 25.605 24.32C21.255 24.32 17.725 20.81 17.725 16.48Z" fill="#A8A8A8"/>
<path d="M17.7451 16.45C17.7451 12.14 21.2551 8.65002 25.5951 8.65002C29.9351 8.65002 33.4451 12.14 33.4451 16.45C33.4451 20.76 29.9351 24.25 25.5951 24.25C21.2551 24.25 17.7451 20.76 17.7451 16.45Z" fill="#A9A9A9"/>
<path d="M17.7651 16.42C17.7651 12.13 21.2651 8.66003 25.5751 8.66003C29.8851 8.66003 33.3851 12.13 33.3851 16.42C33.3851 20.71 29.8851 24.18 25.5751 24.18C21.2651 24.18 17.7651 20.71 17.7651 16.42Z" fill="#AAAAAA"/>
<path d="M17.785 16.3899C17.785 12.1299 21.265 8.66992 25.555 8.66992C29.845 8.66992 33.325 12.1299 33.325 16.3899C33.325 20.6499 29.845 24.1099 25.555 24.1099C21.265 24.1099 17.785 20.6499 17.785 16.3899Z" fill="#ABABAB"/>
<path d="M17.8051 16.3599C17.8051 12.1199 21.2651 8.67993 25.5351 8.67993C29.8051 8.67993 33.2651 12.1199 33.2651 16.3599C33.2651 20.5999 29.8051 24.0399 25.5351 24.0399C21.2651 24.0399 17.8051 20.5999 17.8051 16.3599Z" fill="#ACACAC"/>
<path d="M17.8151 16.3299C17.8151 12.1099 21.2551 8.68994 25.5051 8.68994C29.7551 8.68994 33.1951 12.1099 33.1951 16.3299C33.1951 20.5499 29.7551 23.9699 25.5051 23.9699C21.2551 23.9699 17.8151 20.5499 17.8151 16.3299Z" fill="#ADADAD"/>
<path d="M17.835 16.3C17.835 12.1 21.265 8.69995 25.495 8.69995C29.725 8.69995 33.145 12.1 33.145 16.3C33.145 20.5 29.715 23.9 25.495 23.9C21.275 23.9 17.835 20.5 17.835 16.3Z" fill="#AEAEAE"/>
<path d="M17.855 16.27C17.855 12.09 21.265 8.70996 25.475 8.70996C29.685 8.70996 33.095 12.1 33.095 16.27C33.095 20.44 29.685 23.83 25.475 23.83C21.265 23.83 17.855 20.44 17.855 16.27Z" fill="#AFAFAF"/>
<path d="M17.8751 16.24C17.8751 12.08 21.2651 8.70996 25.4551 8.70996C29.6451 8.70996 33.0351 12.08 33.0351 16.24C33.0351 20.4 29.6451 23.76 25.4551 23.76C21.2651 23.76 17.8751 20.39 17.8751 16.24Z" fill="#B0B0B0"/>
<path d="M17.895 16.21C17.895 12.07 21.275 8.71997 25.435 8.71997C29.595 8.71997 32.975 12.07 32.975 16.21C32.975 20.35 29.595 23.69 25.435 23.69C21.275 23.69 17.895 20.34 17.895 16.21Z" fill="#B1B1B1"/>
<path d="M17.915 16.18C17.915 12.07 21.275 8.72998 25.415 8.72998C29.555 8.72998 32.915 12.06 32.915 16.18C32.915 20.3 29.555 23.63 25.415 23.63C21.275 23.63 17.915 20.3 17.915 16.18Z" fill="#B2B2B2"/>
<path d="M17.9351 16.15C17.9351 12.06 21.2751 8.73999 25.4051 8.73999C29.5351 8.73999 32.8651 12.06 32.8651 16.15C32.8651 20.24 29.5251 23.56 25.4051 23.56C21.2851 23.56 17.9351 20.24 17.9351 16.15Z" fill="#B3B3B3"/>
<path d="M17.9551 16.12C17.9551 12.05 21.2851 8.75 25.3851 8.75C29.4851 8.75 32.8151 12.05 32.8151 16.12C32.8151 20.19 29.4851 23.49 25.3851 23.49C21.2851 23.49 17.9551 20.19 17.9551 16.12Z" fill="#B4B4B4"/>
<path d="M17.975 16.09C17.975 12.04 21.285 8.76001 25.365 8.76001C29.445 8.76001 32.755 12.04 32.755 16.09C32.755 20.14 29.445 23.42 25.365 23.42C21.285 23.42 17.975 20.14 17.975 16.09Z" fill="#B5B5B5"/>
<path d="M17.9951 16.06C17.9951 12.03 21.2851 8.77002 25.3451 8.77002C29.4051 8.77002 32.6951 12.03 32.6951 16.06C32.6951 20.09 29.4051 23.35 25.3451 23.35C21.2851 23.35 17.9951 20.09 17.9951 16.06Z" fill="#B6B6B6"/>
<path d="M18.0151 16.03C18.0151 12.02 21.2851 8.78003 25.3251 8.78003C29.3651 8.78003 32.6351 12.03 32.6351 16.03C32.6351 20.03 29.3651 23.28 25.3251 23.28C21.2851 23.28 18.0151 20.03 18.0151 16.03Z" fill="#B7B7B7"/>
<path d="M18.035 15.9999C18.035 12.0199 21.295 8.78992 25.305 8.78992C29.315 8.78992 32.575 12.0199 32.575 15.9999C32.575 19.9799 29.315 23.2099 25.305 23.2099C21.295 23.2099 18.035 19.9799 18.035 15.9999Z" fill="#B8B8B8"/>
<path d="M18.045 15.9699C18.045 12.0099 21.285 8.78992 25.285 8.78992C29.285 8.78992 32.525 11.9999 32.525 15.9699C32.525 19.9399 29.285 23.1399 25.285 23.1399C21.285 23.1399 18.045 19.9299 18.045 15.9699Z" fill="#B9B9B9"/>
<path d="M18.0651 15.9399C18.0651 11.9999 21.2851 8.79993 25.2651 8.79993C29.2451 8.79993 32.4651 11.9899 32.4651 15.9399C32.4651 19.8899 29.2451 23.0699 25.2651 23.0699C21.2851 23.0699 18.0651 19.8799 18.0651 15.9399Z" fill="#B9BABA"/>
<path d="M18.085 15.9099C18.085 11.9899 21.295 8.80994 25.245 8.80994C29.195 8.80994 32.405 11.9899 32.405 15.9099C32.405 19.8299 29.195 23.0099 25.245 23.0099C21.295 23.0099 18.085 19.8299 18.085 15.9099Z" fill="#BABBBB"/>
<path d="M18.105 15.8799C18.105 11.9799 21.295 8.81995 25.225 8.81995C29.155 8.81995 32.345 11.9799 32.345 15.8799C32.345 19.7799 29.155 22.9399 25.225 22.9399C21.295 22.9399 18.105 19.7799 18.105 15.8799Z" fill="#BBBCBC"/>
<path d="M18.1251 15.85C18.1251 11.97 21.2951 8.82996 25.2051 8.82996C29.1151 8.82996 32.2851 11.97 32.2851 15.85C32.2851 19.73 29.1151 22.87 25.2051 22.87C21.2951 22.87 18.1251 19.73 18.1251 15.85Z" fill="#BCBDBD"/>
<path d="M18.145 15.82C18.145 11.96 21.295 8.83997 25.195 8.83997C29.095 8.83997 32.235 11.96 32.235 15.82C32.235 19.68 29.085 22.8 25.195 22.8C21.305 22.8 18.145 19.68 18.145 15.82Z" fill="#BDBEBE"/>
<path d="M18.165 15.79C18.165 11.96 21.305 8.84998 25.175 8.84998C29.045 8.84998 32.185 11.96 32.185 15.79C32.185 19.62 29.045 22.73 25.175 22.73C21.305 22.73 18.165 19.62 18.165 15.79Z" fill="#BEBFBF"/>
<path d="M18.1851 15.76C18.1851 11.95 21.3051 8.85999 25.1551 8.85999C29.0051 8.85999 32.1251 11.95 32.1251 15.76C32.1251 19.57 29.0051 22.66 25.1551 22.66C21.3051 22.66 18.1851 19.57 18.1851 15.76Z" fill="#BFC0C0"/>
<path d="M18.2051 15.73C18.2051 11.94 21.3051 8.87 25.1351 8.87C28.9651 8.87 32.0651 11.94 32.0651 15.73C32.0651 19.52 28.9651 22.59 25.1351 22.59C21.3051 22.59 18.2051 19.52 18.2051 15.73Z" fill="#C0C1C1"/>
<path d="M18.225 15.7C18.225 11.93 21.315 8.88 25.115 8.88C28.915 8.88 32.005 11.94 32.005 15.7C32.005 19.46 28.915 22.52 25.115 22.52C21.315 22.52 18.225 19.46 18.225 15.7Z" fill="#C1C2C2"/>
<path d="M18.2451 15.67C18.2451 11.92 21.3151 8.88 25.0951 8.88C28.8751 8.88 31.9451 11.92 31.9451 15.67C31.9451 19.42 28.8751 22.45 25.0951 22.45C21.3151 22.45 18.2451 19.41 18.2451 15.67Z" fill="#C2C3C3"/>
<path d="M18.2651 15.64C18.2651 11.91 21.3151 8.89001 25.0851 8.89001C28.8551 8.89001 31.9051 11.91 31.9051 15.64C31.9051 19.37 28.8551 22.38 25.0851 22.38C21.3151 22.38 18.2651 19.36 18.2651 15.64Z" fill="#C3C4C4"/>
<path d="M18.275 15.61C18.275 11.9 21.305 8.90002 25.055 8.90002C28.805 8.90002 31.835 11.9 31.835 15.61C31.835 19.32 28.805 22.32 25.055 22.32C21.305 22.32 18.275 19.32 18.275 15.61Z" fill="#C4C5C5"/>
<path d="M18.295 15.58C18.295 11.9 21.315 8.91003 25.035 8.91003C28.755 8.91003 31.775 11.9 31.775 15.58C31.775 19.26 28.755 22.25 25.035 22.25C21.315 22.25 18.295 19.26 18.295 15.58Z" fill="#C5C6C6"/>
<path d="M18.3151 15.5499C18.3151 11.8899 21.3151 8.91992 25.0151 8.91992C28.7151 8.91992 31.7151 11.8899 31.7151 15.5499C31.7151 19.2099 28.7151 22.1799 25.0151 22.1799C21.3151 22.1799 18.3151 19.2099 18.3151 15.5499Z" fill="#C6C7C7"/>
<path d="M18.335 15.5199C18.335 11.8799 21.315 8.92993 24.995 8.92993C28.675 8.92993 31.655 11.8799 31.655 15.5199C31.655 19.1599 28.675 22.1099 24.995 22.1099C21.315 22.1099 18.335 19.1599 18.335 15.5199Z" fill="#C7C8C8"/>
<path d="M18.355 15.4899C18.355 11.8699 21.325 8.93994 24.985 8.93994C28.645 8.93994 31.615 11.8699 31.615 15.4899C31.615 19.1099 28.645 22.0399 24.985 22.0399C21.325 22.0399 18.355 19.1099 18.355 15.4899Z" fill="#C8C9C9"/>
<path d="M18.3751 15.46C18.3751 11.86 21.3251 8.94995 24.9651 8.94995C28.6051 8.94995 31.5551 11.87 31.5551 15.46C31.5551 19.05 28.6051 21.97 24.9651 21.97C21.3251 21.97 18.3751 19.05 18.3751 15.46Z" fill="#C9CACA"/>
<path d="M18.395 15.43C18.395 11.85 21.325 8.95996 24.945 8.95996C28.565 8.95996 31.495 11.86 31.495 15.43C31.495 19 28.565 21.9 24.945 21.9C21.325 21.9 18.395 19 18.395 15.43Z" fill="#CACBCB"/>
<path d="M18.415 15.4C18.415 11.85 21.335 8.95996 24.925 8.95996C28.515 8.95996 31.435 11.84 31.435 15.4C31.435 18.96 28.515 21.83 24.925 21.83C21.335 21.83 18.415 18.95 18.415 15.4Z" fill="#CBCCCC"/>
<path d="M18.4351 15.37C18.4351 11.84 21.3351 8.96997 24.9051 8.96997C28.4751 8.96997 31.3751 11.83 31.3751 15.37C31.3751 18.91 28.4751 21.76 24.9051 21.76C21.3351 21.76 18.4351 18.9 18.4351 15.37Z" fill="#CCCDCD"/>
<path d="M18.4551 15.34C18.4551 11.83 21.3351 8.97998 24.8951 8.97998C28.4551 8.97998 31.3251 11.83 31.3251 15.34C31.3251 18.85 28.4451 21.7 24.8951 21.7C21.3451 21.7 18.4551 18.85 18.4551 15.34Z" fill="#CDCECE"/>
<path d="M18.475 15.31C18.475 11.82 21.335 8.98999 24.875 8.98999C28.415 8.98999 31.275 11.82 31.275 15.31C31.275 18.8 28.415 21.63 24.875 21.63C21.335 21.63 18.475 18.8 18.475 15.31Z" fill="#CECFCF"/>
<path d="M18.4951 15.28C18.4951 11.81 21.3451 9 24.8551 9C28.3651 9 31.2151 11.81 31.2151 15.28C31.2151 18.75 28.3651 21.56 24.8551 21.56C21.3451 21.56 18.4951 18.75 18.4951 15.28Z" fill="#CFD0D0"/>
<path d="M18.5051 15.25C18.5051 11.8 21.3351 9.01001 24.8251 9.01001C28.3151 9.01001 31.1451 11.8 31.1451 15.25C31.1451 18.7 28.3151 21.49 24.8251 21.49C21.3351 21.49 18.5051 18.7 18.5051 15.25Z" fill="#D0D1D1"/>
<path d="M18.525 15.22C18.525 11.79 21.335 9.02002 24.805 9.02002C28.275 9.02002 31.085 11.8 31.085 15.22C31.085 18.64 28.275 21.42 24.805 21.42C21.335 21.42 18.525 18.64 18.525 15.22Z" fill="#D1D2D2"/>
<path d="M18.545 15.19C18.545 11.79 21.345 9.03003 24.785 9.03003C28.225 9.03003 31.025 11.79 31.025 15.19C31.025 18.59 28.225 21.35 24.785 21.35C21.345 21.35 18.545 18.59 18.545 15.19Z" fill="#D2D3D3"/>
<path d="M18.5651 15.1599C18.5651 11.7799 21.3451 9.03992 24.7751 9.03992C28.2051 9.03992 30.9851 11.7799 30.9851 15.1599C30.9851 18.5399 28.2051 21.2799 24.7751 21.2799C21.3451 21.2799 18.5651 18.5399 18.5651 15.1599Z" fill="#D3D4D4"/>
<path d="M18.585 15.1299C18.585 11.7699 21.345 9.03992 24.755 9.03992C28.165 9.03992 30.925 11.7599 30.925 15.1299C30.925 18.4999 28.165 21.2099 24.755 21.2099C21.345 21.2099 18.585 18.4899 18.585 15.1299Z" fill="#D4D5D5"/>
<path d="M18.605 15.0999C18.605 11.7599 21.345 9.04993 24.735 9.04993C28.125 9.04993 30.865 11.7599 30.865 15.0999C30.865 18.4399 28.125 21.1399 24.735 21.1399C21.345 21.1399 18.605 18.4299 18.605 15.0999Z" fill="#D5D6D6"/>
<path d="M18.6251 15.0699C18.6251 11.7499 21.3551 9.05994 24.7151 9.05994C28.0751 9.05994 30.8051 11.7499 30.8051 15.0699C30.8051 18.3899 28.0751 21.0699 24.7151 21.0699C21.3551 21.0699 18.6251 18.3799 18.6251 15.0699Z" fill="#D6D7D7"/>
<path d="M18.645 15.0399C18.645 11.7399 21.355 9.06995 24.695 9.06995C28.035 9.06995 30.745 11.7399 30.745 15.0399C30.745 18.3399 28.035 21.0099 24.695 21.0099C21.355 21.0099 18.645 18.3399 18.645 15.0399Z" fill="#D7D8D8"/>
<path d="M18.665 15.01C18.665 11.73 21.355 9.07996 24.685 9.07996C28.015 9.07996 30.705 11.73 30.705 15.01C30.705 18.29 28.015 20.94 24.685 20.94C21.355 20.94 18.665 18.29 18.665 15.01Z" fill="#D8D9D9"/>
<path d="M30.635 14.98C30.635 18.23 27.955 20.87 24.655 20.87C21.355 20.87 18.675 18.23 18.675 14.98C18.675 11.73 21.355 9.08997 24.655 9.08997C27.955 9.08997 30.635 11.73 30.635 14.98Z" fill="#D9DADA"/>
<path d="M48.5651 12.8C48.5651 15.23 47.3451 17.36 45.5151 18.53L35.3251 25.15L34.4951 25.69C33.4951 26.24 32.3651 26.56 31.1651 26.56C27.1851 26.56 23.9551 23.14 23.9551 18.92C23.9551 15.36 26.2551 12.37 29.3551 11.52L39.4751 6.77998L39.5051 6.75998C40.3351 6.33998 41.2651 6.09998 42.2451 6.09998C45.7351 6.09998 48.5551 9.08998 48.5551 12.79L48.5651 12.8Z" fill="url(#paint0_linear_326_15079)"/>
<path d="M54.335 12.8C54.335 19.87 48.925 25.6 42.255 25.6C35.585 25.6 30.175 19.87 30.175 12.8C30.175 5.73 35.575 0 42.255 0C48.935 0 54.335 5.73 54.335 12.8Z" fill="#181716"/>
<path d="M42.255 0C48.925 0 54.335 5.73 54.335 12.79C54.335 19.85 48.925 25.59 42.255 25.59C35.585 25.59 30.175 19.86 30.175 12.79C30.175 5.72 35.585 0 42.255 0Z" fill="#191817"/>
<path d="M42.2551 0.0100098C48.9251 0.0100098 54.3251 5.73001 54.3251 12.79C54.3251 19.85 48.9251 25.58 42.2551 25.58C35.5851 25.58 30.1851 19.86 30.1851 12.79C30.1851 5.72001 35.5951 0.0100098 42.2551 0.0100098Z" fill="#1A1918"/>
<path d="M42.2651 0.0200195C48.9251 0.0200195 54.3251 5.74002 54.3251 12.8C54.3251 19.86 48.9251 25.58 42.2651 25.58C35.6051 25.58 30.2051 19.86 30.2051 12.8C30.2051 5.74002 35.6051 0.0200195 42.2651 0.0200195Z" fill="#1B1A19"/>
<path d="M42.265 0.0200195C48.925 0.0200195 54.315 5.74002 54.315 12.79C54.315 19.84 48.915 25.56 42.265 25.56C35.615 25.56 30.215 19.84 30.215 12.79C30.215 5.74002 35.605 0.0200195 42.265 0.0200195Z" fill="#1C1B1A"/>
<path d="M42.265 0.0300293C48.915 0.0300293 54.305 5.74003 54.305 12.79C54.305 19.84 48.915 25.55 42.265 25.55C35.615 25.55 30.225 19.84 30.225 12.79C30.225 5.74003 35.615 0.0300293 42.265 0.0300293Z" fill="#1D1C1B"/>
<path d="M42.265 0.0300293C48.915 0.0300293 54.305 5.74003 54.305 12.78C54.305 19.82 48.915 25.53 42.265 25.53C35.615 25.53 30.225 19.82 30.225 12.78C30.225 5.74003 35.625 0.0300293 42.265 0.0300293Z" fill="#1E1D1C"/>
<path d="M42.2751 0.0400391C48.9151 0.0400391 54.3051 5.74004 54.3051 12.78C54.3051 19.82 48.9151 25.52 42.2751 25.52C35.6351 25.52 30.2451 19.81 30.2451 12.78C30.2451 5.75004 35.6351 0.0400391 42.2751 0.0400391Z" fill="#1F1E1D"/>
<path d="M42.2751 0.0400391C48.9151 0.0400391 54.2951 5.74004 54.2951 12.77C54.2951 19.8 48.9151 25.51 42.2751 25.51C35.6351 25.51 30.2551 19.81 30.2551 12.77C30.2551 5.73004 35.6351 0.0400391 42.2751 0.0400391Z" fill="#201F1E"/>
<path d="M42.2751 0.0500488C48.9051 0.0500488 54.2851 5.75005 54.2851 12.78C54.2851 19.81 48.9051 25.51 42.2751 25.51C35.6451 25.51 30.2651 19.81 30.2651 12.78C30.2651 5.75005 35.6451 0.0500488 42.2751 0.0500488Z" fill="#21201F"/>
<path d="M42.285 0.0500488C48.915 0.0500488 54.285 5.74005 54.285 12.77C54.285 19.8 48.915 25.49 42.285 25.49C35.655 25.49 30.285 19.8 30.285 12.77C30.285 5.74005 35.655 0.0500488 42.285 0.0500488Z" fill="#222120"/>
<path d="M42.285 0.0600586C48.915 0.0600586 54.285 5.75006 54.285 12.7701C54.285 19.7901 48.915 25.4801 42.285 25.4801C35.655 25.4801 30.285 19.7901 30.285 12.7701C30.285 5.75006 35.655 0.0600586 42.285 0.0600586Z" fill="#232221"/>
<path d="M42.285 0.0600586C48.905 0.0600586 54.275 5.75006 54.275 12.7601C54.275 19.7701 48.905 25.4601 42.285 25.4601C35.665 25.4601 30.295 19.7701 30.295 12.7601C30.295 5.75006 35.665 0.0600586 42.285 0.0600586Z" fill="#242322"/>
<path d="M42.2951 0.0699463C48.9151 0.0699463 54.2751 5.74995 54.2751 12.7599C54.2751 19.7699 48.9151 25.4499 42.2951 25.4499C35.6751 25.4499 30.3151 19.7699 30.3151 12.7599C30.3151 5.74995 35.6751 0.0699463 42.2951 0.0699463Z" fill="#252423"/>
<path d="M42.2951 0.0799561C48.9051 0.0799561 54.2651 5.75996 54.2651 12.76C54.2651 19.76 48.9051 25.44 42.2951 25.44C35.6851 25.44 30.3251 19.76 30.3251 12.76C30.3251 5.75996 35.6851 0.0799561 42.2951 0.0799561Z" fill="#262524"/>
<path d="M42.295 0.0799561C48.905 0.0799561 54.255 5.74996 54.255 12.75C54.255 19.75 48.895 25.43 42.295 25.43C35.695 25.43 30.335 19.75 30.335 12.75C30.335 5.74996 35.685 0.0799561 42.295 0.0799561Z" fill="#272625"/>
<path d="M42.295 0.0899658C48.895 0.0899658 54.255 5.75997 54.255 12.76C54.255 19.76 48.905 25.43 42.295 25.43C35.685 25.43 30.335 19.76 30.335 12.76C30.335 5.75997 35.695 0.0899658 42.295 0.0899658Z" fill="#282726"/>
<path d="M42.305 0.0899658C48.905 0.0899658 54.255 5.75997 54.255 12.75C54.255 19.74 48.905 25.41 42.305 25.41C35.705 25.41 30.355 19.74 30.355 12.75C30.355 5.75997 35.705 0.0899658 42.305 0.0899658Z" fill="#292827"/>
<path d="M42.305 0.0999756C48.8951 0.0999756 54.2451 5.75998 54.2451 12.75C54.2451 19.74 48.8951 25.4 42.305 25.4C35.715 25.4 30.3651 19.74 30.3651 12.75C30.3651 5.75998 35.715 0.0999756 42.305 0.0999756Z" fill="#2A2928"/>
<path d="M42.3051 0.0999756C48.8951 0.0999756 54.2351 5.75997 54.2351 12.74C54.2351 19.72 48.8951 25.38 42.3051 25.38C35.7151 25.38 30.3751 19.72 30.3751 12.74C30.3751 5.75997 35.7151 0.0999756 42.3051 0.0999756Z" fill="#2B2A29"/>
<path d="M42.315 0.109985C48.905 0.109985 54.235 5.76999 54.235 12.74C54.235 19.71 48.895 25.37 42.315 25.37C35.735 25.37 30.395 19.71 30.395 12.74C30.395 5.76999 35.725 0.109985 42.315 0.109985Z" fill="#2B2B2A"/>
<path d="M42.315 0.109985C48.895 0.109985 54.235 5.75999 54.235 12.73C54.235 19.7 48.895 25.36 42.315 25.36C35.735 25.36 30.395 19.71 30.395 12.73C30.395 5.74999 35.735 0.109985 42.315 0.109985Z" fill="#2C2C2B"/>
<path d="M42.315 0.119995C48.895 0.119995 54.225 5.77 54.225 12.74C54.225 19.71 48.895 25.36 42.315 25.36C35.735 25.36 30.405 19.71 30.405 12.74C30.405 5.77 35.745 0.119995 42.315 0.119995Z" fill="#2D2D2C"/>
<path d="M42.315 0.119995C48.885 0.119995 54.215 5.75999 54.215 12.73C54.215 19.7 48.885 25.34 42.315 25.34C35.745 25.34 30.415 19.7 30.415 12.73C30.415 5.75999 35.745 0.119995 42.315 0.119995Z" fill="#2E2E2D"/>
<path d="M42.3251 0.130005C48.8951 0.130005 54.2151 5.77 54.2151 12.73C54.2151 19.69 48.8951 25.33 42.3251 25.33C35.7551 25.33 30.4351 19.69 30.4351 12.73C30.4351 5.77 35.7551 0.130005 42.3251 0.130005Z" fill="#2F2F2E"/>
<path d="M42.3251 0.130005C48.8851 0.130005 54.2051 5.77001 54.2051 12.72C54.2051 19.67 48.8851 25.31 42.3251 25.31C35.7651 25.31 30.4451 19.67 30.4451 12.72C30.4451 5.77001 35.7651 0.130005 42.3251 0.130005Z" fill="#30302F"/>
<path d="M42.3251 0.140015C48.8851 0.140015 54.2051 5.77001 54.2051 12.72C54.2051 19.67 48.8851 25.3 42.3251 25.3C35.7651 25.3 30.4451 19.67 30.4451 12.72C30.4451 5.77001 35.7751 0.140015 42.3251 0.140015Z" fill="#313130"/>
<path d="M42.335 0.150024C48.885 0.150024 54.205 5.78003 54.205 12.72C54.205 19.66 48.895 25.29 42.335 25.29C35.775 25.29 30.465 19.66 30.465 12.72C30.465 5.78003 35.775 0.150024 42.335 0.150024Z" fill="#323231"/>
<path d="M42.335 0.150024C48.885 0.150024 54.195 5.78003 54.195 12.71C54.195 19.64 48.885 25.28 42.335 25.28C35.785 25.28 30.475 19.65 30.475 12.71C30.475 5.77002 35.785 0.150024 42.335 0.150024Z" fill="#333332"/>
<path d="M42.335 0.160034C48.885 0.160034 54.185 5.78003 54.185 12.72C54.185 19.66 48.875 25.28 42.335 25.28C35.795 25.28 30.485 19.66 30.485 12.72C30.485 5.78003 35.795 0.160034 42.335 0.160034Z" fill="#343433"/>
<path d="M42.3451 0.160034C48.8851 0.160034 54.1851 5.78003 54.1851 12.71C54.1851 19.64 48.8851 25.26 42.3451 25.26C35.8051 25.26 30.5051 19.64 30.5051 12.71C30.5051 5.78003 35.7951 0.160034 42.3451 0.160034Z" fill="#353534"/>
<path d="M42.3451 0.170044C48.8851 0.170044 54.1851 5.78004 54.1851 12.71C54.1851 19.64 48.8851 25.25 42.3451 25.25C35.8051 25.25 30.5051 19.64 30.5051 12.71C30.5051 5.78004 35.8051 0.170044 42.3451 0.170044Z" fill="#363635"/>
<path d="M42.3451 0.170044C48.8751 0.170044 54.1751 5.78004 54.1751 12.7C54.1751 19.62 48.8751 25.23 42.3451 25.23C35.8151 25.23 30.5151 19.62 30.5151 12.7C30.5151 5.78004 35.8151 0.170044 42.3451 0.170044Z" fill="#373736"/>
<path d="M42.345 0.180054C48.875 0.180054 54.165 5.79005 54.165 12.7001C54.165 19.6101 48.875 25.2201 42.345 25.2201C35.815 25.2201 30.525 19.6101 30.525 12.7001C30.525 5.79005 35.825 0.180054 42.345 0.180054Z" fill="#383837"/>
<path d="M42.355 0.180054C48.875 0.180054 54.165 5.78005 54.165 12.6901C54.165 19.6001 48.875 25.2101 42.355 25.2101C35.835 25.2101 30.545 19.6101 30.545 12.6901C30.545 5.77005 35.825 0.180054 42.355 0.180054Z" fill="#393938"/>
<path d="M42.3551 0.189941C48.8751 0.189941 54.1551 5.78994 54.1551 12.6999C54.1551 19.6099 48.8651 25.2099 42.3551 25.2099C35.8451 25.2099 30.5551 19.6099 30.5551 12.6999C30.5551 5.78994 35.8351 0.189941 42.3551 0.189941Z" fill="#3A3A39"/>
<path d="M42.3551 0.189941C48.8651 0.189941 54.1551 5.78994 54.1551 12.6899C54.1551 19.5899 48.8751 25.1899 42.3551 25.1899C35.8351 25.1899 30.5551 19.5899 30.5551 12.6899C30.5551 5.78994 35.8451 0.189941 42.3551 0.189941Z" fill="#3B3B3A"/>
<path d="M42.3651 0.199951C48.8751 0.199951 54.1551 5.78995 54.1551 12.69C54.1551 19.59 48.8751 25.18 42.3651 25.18C35.8551 25.18 30.5751 19.59 30.5751 12.69C30.5751 5.78995 35.8551 0.199951 42.3651 0.199951Z" fill="#3C3C3B"/>
<path d="M42.365 0.199951C48.875 0.199951 54.145 5.78995 54.145 12.68C54.145 19.57 48.875 25.16 42.365 25.16C35.855 25.16 30.585 19.57 30.585 12.68C30.585 5.78995 35.855 0.199951 42.365 0.199951Z" fill="#3D3D3C"/>
<path d="M42.365 0.209961C48.865 0.209961 54.135 5.78996 54.135 12.68C54.135 19.57 48.865 25.15 42.365 25.15C35.865 25.15 30.595 19.57 30.595 12.68C30.595 5.78996 35.865 0.209961 42.365 0.209961Z" fill="#3E3E3D"/>
<path d="M42.365 0.209961C48.865 0.209961 54.125 5.78996 54.125 12.67C54.125 19.55 48.855 25.13 42.365 25.13C35.875 25.13 30.605 19.55 30.605 12.67C30.605 5.78996 35.875 0.209961 42.365 0.209961Z" fill="#3F3E3E"/>
<path d="M42.375 0.219971C48.865 0.219971 54.1351 5.79997 54.1351 12.67C54.1351 19.54 48.875 25.13 42.375 25.13C35.875 25.13 30.6151 19.55 30.6151 12.67C30.6151 5.78997 35.885 0.219971 42.375 0.219971Z" fill="#403F3F"/>
<path d="M42.3751 0.22998C48.8651 0.22998 54.1251 5.79998 54.1251 12.68C54.1251 19.56 48.8651 25.13 42.3751 25.13C35.8851 25.13 30.6251 19.56 30.6251 12.68C30.6251 5.79998 35.8851 0.22998 42.3751 0.22998Z" fill="#414040"/>
<path d="M42.3751 0.22998C48.8551 0.22998 54.1151 5.79998 54.1151 12.67C54.1151 19.54 48.8551 25.11 42.3751 25.11C35.8951 25.11 30.6351 19.54 30.6351 12.67C30.6351 5.79998 35.8951 0.22998 42.3751 0.22998Z" fill="#424141"/>
<path d="M42.385 0.23999C48.865 0.23999 54.115 5.79999 54.115 12.67C54.115 19.54 48.865 25.1 42.385 25.1C35.905 25.1 30.655 19.53 30.655 12.67C30.655 5.80999 35.905 0.23999 42.385 0.23999Z" fill="#434242"/>
<path d="M42.385 0.23999C48.865 0.23999 54.105 5.79999 54.105 12.66C54.105 19.52 48.855 25.08 42.385 25.08C35.915 25.08 30.665 19.52 30.665 12.66C30.665 5.79999 35.905 0.23999 42.385 0.23999Z" fill="#444343"/>
<path d="M42.385 0.25C48.855 0.25 54.105 5.81 54.105 12.66C54.105 19.51 48.855 25.07 42.385 25.07C35.915 25.07 30.665 19.51 30.665 12.66C30.665 5.81 35.915 0.25 42.385 0.25Z" fill="#454444"/>
<path d="M42.385 0.25C48.855 0.25 54.095 5.8 54.095 12.65C54.095 19.5 48.855 25.05 42.385 25.05C35.9151 25.05 30.675 19.5 30.675 12.65C30.675 5.8 35.925 0.25 42.385 0.25Z" fill="#464545"/>
<path d="M42.3951 0.26001C48.8551 0.26001 54.0951 5.81001 54.0951 12.66C54.0951 19.51 48.8551 25.06 42.3951 25.06C35.9351 25.06 30.6951 19.51 30.6951 12.66C30.6951 5.81001 35.9351 0.26001 42.3951 0.26001Z" fill="#474646"/>
<path d="M42.3951 0.26001C48.8551 0.26001 54.0851 5.81001 54.0851 12.65C54.0851 19.49 48.8451 25.04 42.3951 25.04C35.9451 25.04 30.7051 19.49 30.7051 12.65C30.7051 5.81001 35.9351 0.26001 42.3951 0.26001Z" fill="#484747"/>
<path d="M42.395 0.27002C48.845 0.27002 54.075 5.81002 54.075 12.65C54.075 19.49 48.845 25.03 42.395 25.03C35.945 25.03 30.715 19.49 30.715 12.65C30.715 5.81002 35.945 0.27002 42.395 0.27002Z" fill="#494848"/>
<path d="M42.405 0.27002C48.855 0.27002 54.085 5.81002 54.085 12.64C54.085 19.47 48.855 25.01 42.405 25.01C35.955 25.01 30.725 19.47 30.725 12.64C30.725 5.81002 35.955 0.27002 42.405 0.27002Z" fill="#4A4949"/>
<path d="M42.405 0.280029C48.845 0.280029 54.075 5.81003 54.075 12.64C54.075 19.47 48.855 25 42.405 25C35.955 25 30.735 19.47 30.735 12.64C30.735 5.81003 35.965 0.280029 42.405 0.280029Z" fill="#4B4A4A"/>
<path d="M42.4051 0.280029C48.8451 0.280029 54.0651 5.81003 54.0651 12.63C54.0651 19.45 48.8451 24.98 42.4051 24.98C35.9651 24.98 30.7451 19.45 30.7451 12.63C30.7451 5.81003 35.9651 0.280029 42.4051 0.280029Z" fill="#4C4B4B"/>
<path d="M42.4151 0.290039C48.8551 0.290039 54.0651 5.82004 54.0651 12.63C54.0651 19.44 48.8451 24.98 42.4151 24.98C35.9851 24.98 30.7651 19.45 30.7651 12.63C30.7651 5.81004 35.9751 0.290039 42.4151 0.290039Z" fill="#4D4C4C"/>
<path d="M42.415 0.300049C48.845 0.300049 54.055 5.82005 54.055 12.64C54.055 19.46 48.845 24.98 42.415 24.98C35.985 24.98 30.775 19.46 30.775 12.64C30.775 5.82005 35.985 0.300049 42.415 0.300049Z" fill="#4E4D4D"/>
<path d="M42.415 0.300049C48.845 0.300049 54.055 5.82005 54.055 12.63C54.055 19.44 48.845 24.96 42.415 24.96C35.985 24.96 30.775 19.44 30.775 12.63C30.775 5.82005 35.995 0.300049 42.415 0.300049Z" fill="#4F4E4E"/>
<path d="M42.415 0.310059C48.835 0.310059 54.045 5.83006 54.045 12.6301C54.045 19.4301 48.835 24.9501 42.415 24.9501C35.995 24.9501 30.785 19.4301 30.785 12.6301C30.785 5.83006 35.995 0.310059 42.415 0.310059Z" fill="#504F4F"/>
<path d="M42.4251 0.310059C48.8451 0.310059 54.0451 5.82006 54.0451 12.6201C54.0451 19.4201 48.8451 24.9301 42.4251 24.9301C36.0051 24.9301 30.8051 19.4201 30.8051 12.6201C30.8051 5.82006 36.0051 0.310059 42.4251 0.310059Z" fill="#515050"/>
<path d="M42.4251 0.319946C48.8351 0.319946 54.0351 5.82995 54.0351 12.6199C54.0351 19.4099 48.8351 24.9199 42.4251 24.9199C36.0151 24.9199 30.8151 19.4099 30.8151 12.6199C30.8151 5.82995 36.0151 0.319946 42.4251 0.319946Z" fill="#515151"/>
<path d="M42.4251 0.319946C48.8351 0.319946 54.0251 5.81995 54.0251 12.6099C54.0251 19.3999 48.8251 24.8999 42.4251 24.8999C36.0251 24.8999 30.8251 19.3999 30.8251 12.6099C30.8251 5.81995 36.0151 0.319946 42.4251 0.319946Z" fill="#525252"/>
<path d="M42.435 0.329956C48.835 0.329956 54.035 5.82996 54.035 12.62C54.035 19.41 48.845 24.91 42.435 24.91C36.025 24.91 30.835 19.41 30.835 12.62C30.835 5.82996 36.025 0.329956 42.435 0.329956Z" fill="#535353"/>
<path d="M42.435 0.329956C48.835 0.329956 54.025 5.82996 54.025 12.61C54.025 19.39 48.835 24.89 42.435 24.89C36.035 24.89 30.845 19.39 30.845 12.61C30.845 5.82996 36.035 0.329956 42.435 0.329956Z" fill="#545454"/>
<path d="M42.435 0.339966C48.835 0.339966 54.015 5.82997 54.015 12.61C54.015 19.39 48.835 24.88 42.435 24.88C36.035 24.88 30.855 19.39 30.855 12.61C30.855 5.82997 36.045 0.339966 42.435 0.339966Z" fill="#555555"/>
<path d="M42.4351 0.339966C48.8251 0.339966 54.0051 5.82997 54.0051 12.6C54.0051 19.37 48.8251 24.86 42.4351 24.86C36.0451 24.86 30.8651 19.37 30.8651 12.6C30.8651 5.82997 36.0451 0.339966 42.4351 0.339966Z" fill="#565656"/>
<path d="M42.4451 0.349976C48.8351 0.349976 54.0051 5.83998 54.0051 12.6C54.0051 19.36 48.8251 24.85 42.4451 24.85C36.0651 24.85 30.8851 19.36 30.8851 12.6C30.8851 5.83998 36.0551 0.349976 42.4451 0.349976Z" fill="#575757"/>
<path d="M42.4451 0.349976C48.8251 0.349976 54.0051 5.82998 54.0051 12.59C54.0051 19.35 48.8351 24.83 42.4451 24.83C36.0551 24.83 30.8851 19.35 30.8851 12.59C30.8851 5.82998 36.0651 0.349976 42.4451 0.349976Z" fill="#585858"/>
<path d="M42.445 0.359985C48.825 0.359985 53.995 5.83999 53.995 12.59C53.995 19.34 48.825 24.82 42.445 24.82C36.065 24.82 30.895 19.34 30.895 12.59C30.895 5.83999 36.075 0.359985 42.445 0.359985Z" fill="#595959"/>
<path d="M42.455 0.369995C48.825 0.369995 53.995 5.84 53.995 12.6C53.995 19.36 48.825 24.83 42.455 24.83C36.085 24.83 30.915 19.36 30.915 12.6C30.915 5.84 36.075 0.369995 42.455 0.369995Z" fill="#5A5A5A"/>
<path d="M42.455 0.369995C48.8251 0.369995 53.985 5.84 53.985 12.59C53.985 19.34 48.8251 24.81 42.455 24.81C36.085 24.81 30.925 19.34 30.925 12.59C30.925 5.84 36.085 0.369995 42.455 0.369995Z" fill="#5B5B5B"/>
<path d="M42.4551 0.380005C48.8151 0.380005 53.9751 5.85001 53.9751 12.59C53.9751 19.33 48.8151 24.8 42.4551 24.8C36.0951 24.8 30.9351 19.33 30.9351 12.59C30.9351 5.85001 36.0951 0.380005 42.4551 0.380005Z" fill="#5C5C5C"/>
<path d="M42.4551 0.380005C48.8151 0.380005 53.9751 5.84 53.9751 12.58C53.9751 19.32 48.8151 24.78 42.4551 24.78C36.0951 24.78 30.9351 19.32 30.9351 12.58C30.9351 5.84 36.1051 0.380005 42.4551 0.380005Z" fill="#5D5D5D"/>
<path d="M42.4651 0.390015C48.8251 0.390015 53.9751 5.85001 53.9751 12.58C53.9751 19.31 48.8251 24.77 42.4651 24.77C36.1051 24.77 30.9551 19.31 30.9551 12.58C30.9551 5.85001 36.1051 0.390015 42.4651 0.390015Z" fill="#5E5E5E"/>
<path d="M42.465 0.390015C48.815 0.390015 53.965 5.84001 53.965 12.57C53.965 19.3 48.815 24.75 42.465 24.75C36.115 24.75 30.965 19.3 30.965 12.57C30.965 5.84001 36.115 0.390015 42.465 0.390015Z" fill="#5F5F5F"/>
<path d="M42.465 0.400024C48.815 0.400024 53.955 5.85002 53.955 12.58C53.955 19.31 48.805 24.76 42.465 24.76C36.125 24.76 30.975 19.31 30.975 12.58C30.975 5.85002 36.125 0.400024 42.465 0.400024Z" fill="#606060"/>
<path d="M42.4751 0.400024C48.8151 0.400024 53.9551 5.85002 53.9551 12.57C53.9551 19.29 48.8151 24.74 42.4751 24.74C36.1351 24.74 30.9951 19.29 30.9951 12.57C30.9951 5.85002 36.1251 0.400024 42.4751 0.400024Z" fill="#616161"/>
<path d="M42.4751 0.410034C48.8151 0.410034 53.9551 5.85003 53.9551 12.57C53.9551 19.29 48.8151 24.73 42.4751 24.73C36.1351 24.73 30.9951 19.29 30.9951 12.57C30.9951 5.85003 36.1351 0.410034 42.4751 0.410034Z" fill="#626262"/>
<path d="M42.4751 0.410034C48.8051 0.410034 53.9451 5.85003 53.9451 12.56C53.9451 19.27 48.8151 24.71 42.4751 24.71C36.1351 24.71 31.0051 19.27 31.0051 12.56C31.0051 5.85003 36.1451 0.410034 42.4751 0.410034Z" fill="#636363"/>
<path d="M42.485 0.420044C48.815 0.420044 53.945 5.86004 53.945 12.56C53.945 19.26 48.815 24.7 42.485 24.7C36.155 24.7 31.025 19.26 31.025 12.56C31.025 5.86004 36.155 0.420044 42.485 0.420044Z" fill="#646464"/>
<path d="M42.485 0.420044C48.805 0.420044 53.935 5.85004 53.935 12.55C53.935 19.25 48.805 24.68 42.485 24.68C36.165 24.68 31.035 19.25 31.035 12.55C31.035 5.85004 36.155 0.420044 42.485 0.420044Z" fill="#656565"/>
<path d="M42.485 0.430054C48.805 0.430054 53.925 5.86005 53.925 12.5501C53.925 19.2401 48.805 24.6701 42.485 24.6701C36.165 24.6701 31.045 19.2401 31.045 12.5501C31.045 5.86005 36.165 0.430054 42.485 0.430054Z" fill="#666666"/>
<path d="M42.485 0.439941C48.805 0.439941 53.925 5.85994 53.925 12.5599C53.925 19.2599 48.805 24.6799 42.485 24.6799C36.165 24.6799 31.045 19.2599 31.045 12.5599C31.045 5.85994 36.175 0.439941 42.485 0.439941Z" fill="#676767"/>
<path d="M42.4951 0.439941C48.8051 0.439941 53.9251 5.85994 53.9251 12.5499C53.9251 19.2399 48.8051 24.6599 42.4951 24.6599C36.1851 24.6599 31.0651 19.2399 31.0651 12.5499C31.0651 5.85994 36.1851 0.439941 42.4951 0.439941Z" fill="#686868"/>
<path d="M42.4951 0.449951C48.8051 0.449951 53.9151 5.86995 53.9151 12.55C53.9151 19.23 48.8051 24.65 42.4951 24.65C36.1851 24.65 31.0751 19.23 31.0751 12.55C31.0751 5.86995 36.1851 0.449951 42.4951 0.449951Z" fill="#696969"/>
<path d="M42.495 0.449951C48.795 0.449951 53.905 5.85995 53.905 12.54C53.905 19.22 48.795 24.6299 42.495 24.6299C36.195 24.6299 31.085 19.22 31.085 12.54C31.085 5.85995 36.195 0.449951 42.495 0.449951Z" fill="#6A6A6A"/>
<path d="M42.505 0.459961C48.805 0.459961 53.905 5.86996 53.905 12.54C53.905 19.21 48.795 24.62 42.505 24.62C36.215 24.62 31.105 19.21 31.105 12.54C31.105 5.86996 36.205 0.459961 42.505 0.459961Z" fill="#6B6B6B"/>
<path d="M42.505 0.459961C48.795 0.459961 53.905 5.86996 53.905 12.53C53.905 19.19 48.805 24.6 42.505 24.6C36.205 24.6 31.105 19.19 31.105 12.53C31.105 5.86996 36.215 0.459961 42.505 0.459961Z" fill="#6C6C6C"/>
<path d="M42.5051 0.469971C48.7951 0.469971 53.8951 5.86997 53.8951 12.54C53.8951 19.21 48.7951 24.61 42.5051 24.61C36.2151 24.61 31.1151 19.21 31.1151 12.54C31.1151 5.86997 36.2151 0.469971 42.5051 0.469971Z" fill="#6D6D6D"/>
<path d="M42.5051 0.469971C48.7851 0.469971 53.8851 5.86997 53.8851 12.53C53.8851 19.19 48.7851 24.59 42.5051 24.59C36.2251 24.59 31.1251 19.19 31.1251 12.53C31.1251 5.86997 36.2251 0.469971 42.5051 0.469971Z" fill="#6E6E6E"/>
<path d="M42.515 0.47998C48.795 0.47998 53.885 5.86998 53.885 12.53C53.885 19.19 48.795 24.58 42.515 24.58C36.235 24.58 31.145 19.19 31.145 12.53C31.145 5.86998 36.235 0.47998 42.515 0.47998Z" fill="#6F6F6F"/>
<path d="M42.515 0.47998C48.795 0.47998 53.875 5.86998 53.875 12.52C53.875 19.17 48.785 24.56 42.515 24.56C36.245 24.56 31.155 19.17 31.155 12.52C31.155 5.86998 36.235 0.47998 42.515 0.47998Z" fill="#707070"/>
<path d="M42.515 0.48999C48.785 0.48999 53.875 5.87999 53.875 12.52C53.875 19.16 48.795 24.55 42.515 24.55C36.235 24.55 31.155 19.16 31.155 12.52C31.155 5.87999 36.245 0.48999 42.515 0.48999Z" fill="#717171"/>
<path d="M42.525 0.48999C48.795 0.48999 53.875 5.86999 53.875 12.51C53.875 19.15 48.795 24.53 42.525 24.53C36.255 24.53 31.175 19.15 31.175 12.51C31.175 5.86999 36.255 0.48999 42.525 0.48999Z" fill="#727272"/>
<path d="M42.5251 0.5C48.7851 0.5 53.8651 5.88 53.8651 12.51C53.8651 19.14 48.7851 24.52 42.5251 24.52C36.2651 24.52 31.1851 19.14 31.1851 12.51C31.1851 5.88 36.2651 0.5 42.5251 0.5Z" fill="#737373"/>
<path d="M42.5251 0.51001C48.7851 0.51001 53.8551 5.89001 53.8551 12.52C53.8551 19.15 48.7851 24.53 42.5251 24.53C36.2651 24.53 31.1951 19.15 31.1951 12.52C31.1951 5.89001 36.2651 0.51001 42.5251 0.51001Z" fill="#747474"/>
<path d="M42.535 0.51001C48.785 0.51001 53.855 5.88001 53.855 12.51C53.855 19.14 48.785 24.51 42.535 24.51C36.285 24.51 31.215 19.14 31.215 12.51C31.215 5.88001 36.275 0.51001 42.535 0.51001Z" fill="#757575"/>
<path d="M42.535 0.52002C48.785 0.52002 53.855 5.89002 53.855 12.51C53.855 19.13 48.785 24.5 42.535 24.5C36.285 24.5 31.215 19.13 31.215 12.51C31.215 5.89002 36.285 0.52002 42.535 0.52002Z" fill="#767676"/>
<path d="M42.535 0.52002C48.785 0.52002 53.845 5.88002 53.845 12.5C53.845 19.12 48.785 24.48 42.535 24.48C36.285 24.48 31.225 19.12 31.225 12.5C31.225 5.88002 36.295 0.52002 42.535 0.52002Z" fill="#777777"/>
<path d="M42.535 0.530029C48.775 0.530029 53.835 5.89003 53.835 12.5C53.835 19.11 48.775 24.47 42.535 24.47C36.295 24.47 31.235 19.11 31.235 12.5C31.235 5.89003 36.295 0.530029 42.535 0.530029Z" fill="#787878"/>
<path d="M42.5451 0.530029C48.7851 0.530029 53.8351 5.89003 53.8351 12.49C53.8351 19.09 48.7751 24.45 42.5451 24.45C36.3151 24.45 31.2551 19.09 31.2551 12.49C31.2551 5.89003 36.3051 0.530029 42.5451 0.530029Z" fill="#787979"/>
<path d="M42.5451 0.540039C48.7751 0.540039 53.8251 5.89004 53.8251 12.5C53.8251 19.11 48.7751 24.45 42.5451 24.45C36.3151 24.45 31.2651 19.1 31.2651 12.5C31.2651 5.90004 36.3151 0.540039 42.5451 0.540039Z" fill="#797A7A"/>
<path d="M42.5451 0.540039C48.7751 0.540039 53.8251 5.89004 53.8251 12.49C53.8251 19.09 48.7751 24.44 42.5451 24.44C36.3151 24.44 31.2651 19.09 31.2651 12.49C31.2651 5.89004 36.3251 0.540039 42.5451 0.540039Z" fill="#7A7B7B"/>
<path d="M42.555 0.550049C48.775 0.550049 53.825 5.90005 53.825 12.49C53.825 19.08 48.775 24.43 42.555 24.43C36.335 24.43 31.285 19.09 31.285 12.49C31.285 5.89005 36.325 0.550049 42.555 0.550049Z" fill="#7B7C7C"/>
<path d="M42.555 0.550049C48.775 0.550049 53.815 5.89005 53.815 12.48C53.815 19.07 48.775 24.41 42.555 24.41C36.335 24.41 31.295 19.07 31.295 12.48C31.295 5.89005 36.335 0.550049 42.555 0.550049Z" fill="#7C7D7D"/>
<path d="M42.5551 0.560059C48.7651 0.560059 53.8051 5.90006 53.8051 12.4801C53.8051 19.0601 48.7651 24.4001 42.5551 24.4001C36.3451 24.4001 31.3051 19.0601 31.3051 12.4801C31.3051 5.90006 36.3451 0.560059 42.5551 0.560059Z" fill="#7D7E7E"/>
<path d="M42.5551 0.560059C48.7651 0.560059 53.7951 5.89006 53.7951 12.4701C53.7951 19.0501 48.7651 24.3801 42.5551 24.3801C36.3451 24.3801 31.3151 19.0501 31.3151 12.4701C31.3151 5.89006 36.3551 0.560059 42.5551 0.560059Z" fill="#7E7F7F"/>
<path d="M42.5651 0.569946C48.7751 0.569946 53.8051 5.89995 53.8051 12.4699C53.8051 19.0399 48.7751 24.3699 42.5651 24.3699C36.3551 24.3699 31.3251 19.0399 31.3251 12.4699C31.3251 5.89995 36.3551 0.569946 42.5651 0.569946Z" fill="#7F8080"/>
<path d="M42.565 0.579956C48.765 0.579956 53.795 5.90996 53.795 12.48C53.795 19.05 48.765 24.38 42.565 24.38C36.365 24.38 31.335 19.05 31.335 12.48C31.335 5.90996 36.365 0.579956 42.565 0.579956Z" fill="#808181"/>
<path d="M42.565 0.579956C48.765 0.579956 53.785 5.89996 53.785 12.47C53.785 19.04 48.765 24.36 42.565 24.36C36.365 24.36 31.345 19.04 31.345 12.47C31.345 5.89996 36.375 0.579956 42.565 0.579956Z" fill="#818282"/>
<path d="M42.5751 0.589966C48.7651 0.589966 53.785 5.90997 53.785 12.47C53.785 19.03 48.7651 24.35 42.5751 24.35C36.3851 24.35 31.3651 19.03 31.3651 12.47C31.3651 5.90997 36.3751 0.589966 42.5751 0.589966Z" fill="#828383"/>
<path d="M42.5751 0.589966C48.7651 0.589966 53.7751 5.89997 53.7751 12.46C53.7751 19.02 48.7551 24.33 42.5751 24.33C36.3951 24.33 31.3751 19.02 31.3751 12.46C31.3751 5.89997 36.3851 0.589966 42.5751 0.589966Z" fill="#838484"/>
<path d="M42.5751 0.599976C48.7551 0.599976 53.7751 5.90998 53.7751 12.46C53.7751 19.01 48.7651 24.32 42.5751 24.32C36.3851 24.32 31.3751 19.01 31.3751 12.46C31.3751 5.90998 36.3951 0.599976 42.5751 0.599976Z" fill="#848585"/>
<path d="M42.5751 0.599976C48.7551 0.599976 53.7651 5.90998 53.7651 12.45C53.7651 18.99 48.7551 24.3 42.5751 24.3C36.3951 24.3 31.3851 18.99 31.3851 12.45C31.3851 5.90998 36.4051 0.599976 42.5751 0.599976Z" fill="#858686"/>
<path d="M42.585 0.609985C48.755 0.609985 53.765 5.90999 53.765 12.46C53.765 19.01 48.755 24.3 42.585 24.3C36.415 24.3 31.405 19 31.405 12.46C31.405 5.91999 36.405 0.609985 42.585 0.609985Z" fill="#868787"/>
<path d="M42.585 0.609985C48.755 0.609985 53.755 5.90999 53.755 12.45C53.755 18.99 48.755 24.29 42.585 24.29C36.415 24.29 31.415 18.99 31.415 12.45C31.415 5.90999 36.415 0.609985 42.585 0.609985Z" fill="#878888"/>
<path d="M42.585 0.619995C48.755 0.619995 53.7451 5.91999 53.7451 12.45C53.7451 18.98 48.745 24.28 42.585 24.28C36.425 24.28 31.425 18.98 31.425 12.45C31.425 5.91999 36.425 0.619995 42.585 0.619995Z" fill="#888989"/>
<path d="M42.5951 0.619995C48.7551 0.619995 53.7551 5.90999 53.7551 12.44C53.7551 18.97 48.7651 24.26 42.5951 24.26C36.4251 24.26 31.4351 18.97 31.4351 12.44C31.4351 5.90999 36.4351 0.619995 42.5951 0.619995Z" fill="#898A8A"/>
<path d="M42.5951 0.630005C48.7551 0.630005 53.7451 5.92 53.7451 12.44C53.7451 18.96 48.7551 24.25 42.5951 24.25C36.4351 24.25 31.4451 18.96 31.4451 12.44C31.4451 5.92 36.4351 0.630005 42.5951 0.630005Z" fill="#8A8B8B"/>
<path d="M42.5951 0.630005C48.7451 0.630005 53.7351 5.91001 53.7351 12.43C53.7351 18.95 48.7451 24.23 42.5951 24.23C36.4451 24.23 31.4551 18.95 31.4551 12.43C31.4551 5.91001 36.4451 0.630005 42.5951 0.630005Z" fill="#8B8B8C"/>
<path d="M42.605 0.640015C48.755 0.640015 53.735 5.92001 53.735 12.43C53.735 18.94 48.755 24.22 42.605 24.22C36.455 24.22 31.475 18.94 31.475 12.43C31.475 5.92001 36.455 0.640015 42.605 0.640015Z" fill="#8C8C8D"/>
<path d="M42.605 0.640015C48.745 0.640015 53.725 5.92001 53.725 12.43C53.725 18.94 48.745 24.21 42.605 24.21C36.465 24.21 31.485 18.93 31.485 12.43C31.485 5.93001 36.465 0.640015 42.605 0.640015Z" fill="#8D8D8E"/>
<path d="M42.605 0.650024C48.745 0.650024 53.725 5.92002 53.725 12.43C53.725 18.94 48.745 24.21 42.605 24.21C36.465 24.21 31.485 18.94 31.485 12.43C31.485 5.92002 36.465 0.650024 42.605 0.650024Z" fill="#8E8E8F"/>
<path d="M42.6051 0.660034C48.7351 0.660034 53.7151 5.93003 53.7151 12.43C53.7151 18.93 48.7451 24.2 42.6051 24.2C36.4651 24.2 31.4951 18.93 31.4951 12.43C31.4951 5.93003 36.4751 0.660034 42.6051 0.660034Z" fill="#8F8F90"/>
<path d="M42.6151 0.660034C48.7451 0.660034 53.7151 5.93003 53.7151 12.42C53.7151 18.91 48.7451 24.18 42.6151 24.18C36.4851 24.18 31.5151 18.92 31.5151 12.42C31.5151 5.92003 36.4851 0.660034 42.6151 0.660034Z" fill="#909091"/>
<path d="M42.615 0.670044C48.745 0.670044 53.705 5.93004 53.705 12.42C53.705 18.91 48.735 24.17 42.615 24.17C36.495 24.17 31.525 18.91 31.525 12.42C31.525 5.93004 36.485 0.670044 42.615 0.670044Z" fill="#919192"/>
<path d="M42.615 0.670044C48.735 0.670044 53.695 5.93004 53.695 12.41C53.695 18.89 48.735 24.15 42.615 24.15C36.495 24.15 31.535 18.89 31.535 12.41C31.535 5.93004 36.495 0.670044 42.615 0.670044Z" fill="#929293"/>
<path d="M42.625 0.680054C48.745 0.680054 53.705 5.93005 53.705 12.4201C53.705 18.9101 48.745 24.1501 42.625 24.1501C36.505 24.1501 31.545 18.9001 31.545 12.4201C31.545 5.94005 36.505 0.680054 42.625 0.680054Z" fill="#939394"/>
<path d="M42.6251 0.680054C48.7351 0.680054 53.6951 5.93005 53.6951 12.4101C53.6951 18.8901 48.7351 24.1401 42.6251 24.1401C36.5151 24.1401 31.5551 18.8901 31.5551 12.4101C31.5551 5.93005 36.5151 0.680054 42.6251 0.680054Z" fill="#949495"/>
<path d="M42.6251 0.689941C48.7351 0.689941 53.6851 5.93994 53.6851 12.4099C53.6851 18.8799 48.7351 24.1299 42.6251 24.1299C36.5151 24.1299 31.5651 18.8799 31.5651 12.4099C31.5651 5.93994 36.5151 0.689941 42.6251 0.689941Z" fill="#959596"/>
<path d="M42.6251 0.689941C48.7251 0.689941 53.6751 5.92994 53.6751 12.3999C53.6751 18.8699 48.7251 24.1099 42.6251 24.1099C36.5251 24.1099 31.5751 18.8699 31.5751 12.3999C31.5751 5.92994 36.5251 0.689941 42.6251 0.689941Z" fill="#969697"/>
<path d="M42.635 0.699951C48.735 0.699951 53.675 5.93995 53.675 12.4C53.675 18.86 48.735 24.1 42.635 24.1C36.535 24.1 31.595 18.86 31.595 12.4C31.595 5.93995 36.535 0.699951 42.635 0.699951Z" fill="#979798"/>
<path d="M42.635 0.699951C48.725 0.699951 53.675 5.93995 53.675 12.39C53.675 18.84 48.735 24.08 42.635 24.08C36.535 24.08 31.595 18.85 31.595 12.39C31.595 5.92995 36.545 0.699951 42.635 0.699951Z" fill="#989899"/>
<path d="M42.635 0.709961C48.725 0.709961 53.665 5.93996 53.665 12.39C53.665 18.84 48.725 24.07 42.635 24.07C36.545 24.07 31.605 18.84 31.605 12.39C31.605 5.93996 36.545 0.709961 42.635 0.709961Z" fill="#99999A"/>
<path d="M42.6451 0.709961C48.7351 0.709961 53.6651 5.93996 53.6651 12.39C53.6651 18.84 48.7351 24.06 42.6451 24.06C36.5551 24.06 31.6251 18.83 31.6251 12.39C31.6251 5.94996 36.5551 0.709961 42.6451 0.709961Z" fill="#9A9A9B"/>
<path d="M42.6451 0.719971C48.7251 0.719971 53.6551 5.93997 53.6551 12.39C53.6551 18.84 48.7251 24.06 42.6451 24.06C36.5651 24.06 31.6351 18.84 31.6351 12.39C31.6351 5.93997 36.5651 0.719971 42.6451 0.719971Z" fill="#9B9B9C"/>
<path d="M42.645 0.72998C48.725 0.72998 53.645 5.94998 53.645 12.39C53.645 18.83 48.715 24.05 42.645 24.05C36.575 24.05 31.645 18.83 31.645 12.39C31.645 5.94998 36.575 0.72998 42.645 0.72998Z" fill="#9C9C9D"/>
<path d="M42.655 0.72998C48.725 0.72998 53.655 5.94998 53.655 12.38C53.655 18.81 48.735 24.03 42.655 24.03C36.575 24.03 31.655 18.81 31.655 12.38C31.655 5.94998 36.575 0.72998 42.655 0.72998Z" fill="#9D9D9E"/>
<path d="M42.655 0.73999C48.725 0.73999 53.645 5.94999 53.645 12.38C53.645 18.81 48.725 24.02 42.655 24.02C36.585 24.02 31.665 18.81 31.665 12.38C31.665 5.94999 36.585 0.73999 42.655 0.73999Z" fill="#9E9E9F"/>
<path d="M42.6551 0.73999C48.715 0.73999 53.635 5.94999 53.635 12.37C53.635 18.79 48.715 24 42.6551 24C36.5951 24 31.675 18.79 31.675 12.37C31.675 5.94999 36.5951 0.73999 42.6551 0.73999Z" fill="#9E9FA0"/>
<path d="M42.6551 0.75C48.7151 0.75 53.6251 5.95 53.6251 12.37C53.6251 18.79 48.7151 23.99 42.6551 23.99C36.5951 23.99 31.6851 18.79 31.6851 12.37C31.6851 5.95 36.5951 0.75 42.6551 0.75Z" fill="#9FA0A1"/>
<path d="M42.6651 0.75C48.7251 0.75 53.6251 5.95 53.6251 12.37C53.6251 18.79 48.7151 23.99 42.6651 23.99C36.6151 23.99 31.7051 18.79 31.7051 12.37C31.7051 5.95 36.6051 0.75 42.6651 0.75Z" fill="#A0A1A2"/>
<path d="M42.6651 0.76001C48.7151 0.76001 53.6251 5.96001 53.6251 12.37C53.6251 18.78 48.7151 23.98 42.6651 23.98C36.6151 23.98 31.7051 18.78 31.7051 12.37C31.7051 5.96001 36.6151 0.76001 42.6651 0.76001Z" fill="#A1A2A3"/>
<path d="M42.665 0.76001C48.715 0.76001 53.615 5.95001 53.615 12.36C53.615 18.77 48.715 23.96 42.665 23.96C36.615 23.96 31.715 18.77 31.715 12.36C31.715 5.95001 36.625 0.76001 42.665 0.76001Z" fill="#A2A3A4"/>
<path d="M42.675 0.77002C48.715 0.77002 53.615 5.96002 53.615 12.36C53.615 18.76 48.715 23.95 42.675 23.95C36.635 23.95 31.735 18.76 31.735 12.36C31.735 5.96002 36.625 0.77002 42.675 0.77002Z" fill="#A3A4A5"/>
<path d="M42.6751 0.77002C48.7151 0.77002 53.6051 5.96002 53.6051 12.35C53.6051 18.74 48.7151 23.93 42.6751 23.93C36.6351 23.93 31.7451 18.74 31.7451 12.35C31.7451 5.96002 36.6351 0.77002 42.6751 0.77002Z" fill="#A4A5A6"/>
<path d="M42.6751 0.780029C48.7051 0.780029 53.5951 5.96003 53.5951 12.35C53.5951 18.74 48.7051 23.92 42.6751 23.92C36.6451 23.92 31.7551 18.74 31.7551 12.35C31.7551 5.96003 36.6451 0.780029 42.6751 0.780029Z" fill="#A5A6A7"/>
<path d="M42.6751 0.780029C48.7051 0.780029 53.5951 5.96003 53.5951 12.35C53.5951 18.74 48.7051 23.91 42.6751 23.91C36.6451 23.91 31.7551 18.73 31.7551 12.35C31.7551 5.97003 36.6551 0.780029 42.6751 0.780029Z" fill="#A6A7A8"/>
<path d="M42.685 0.790039C48.705 0.790039 53.595 5.96004 53.595 12.35C53.595 18.74 48.715 23.91 42.685 23.91C36.655 23.91 31.775 18.74 31.775 12.35C31.775 5.96004 36.655 0.790039 42.685 0.790039Z" fill="#A7A8A9"/>
<path d="M42.685 0.800049C48.705 0.800049 53.585 5.97005 53.585 12.35C53.585 18.73 48.705 23.9 42.685 23.9C36.665 23.9 31.785 18.73 31.785 12.35C31.785 5.97005 36.665 0.800049 42.685 0.800049Z" fill="#A8A9AA"/>
<path d="M42.685 0.800049C48.705 0.800049 53.575 5.97005 53.575 12.34C53.575 18.71 48.695 23.88 42.685 23.88C36.675 23.88 31.795 18.71 31.795 12.34C31.795 5.97005 36.675 0.800049 42.685 0.800049Z" fill="#A9AAAB"/>
<path d="M42.6951 0.810059C48.7051 0.810059 53.5751 5.97006 53.5751 12.3401C53.5751 18.7101 48.7051 23.8701 42.6951 23.8701C36.6851 23.8701 31.8151 18.7101 31.8151 12.3401C31.8151 5.97006 36.6851 0.810059 42.6951 0.810059Z" fill="#AAABAC"/>
<path d="M42.6951 0.810059C48.7051 0.810059 53.5751 5.97006 53.5751 12.3301C53.5751 18.6901 48.7051 23.8501 42.6951 23.8501C36.6851 23.8501 31.8151 18.6901 31.8151 12.3301C31.8151 5.97006 36.6851 0.810059 42.6951 0.810059Z" fill="#ABACAD"/>
<path d="M42.6951 0.819946C48.6951 0.819946 53.5651 5.97995 53.5651 12.3299C53.5651 18.6799 48.6951 23.8399 42.6951 23.8399C36.6951 23.8399 31.8251 18.6899 31.8251 12.3299C31.8251 5.96995 36.6951 0.819946 42.6951 0.819946Z" fill="#ACADAE"/>
<path d="M42.695 0.819946C48.695 0.819946 53.555 5.96995 53.555 12.3299C53.555 18.6899 48.695 23.8299 42.695 23.8299C36.695 23.8299 31.835 18.6799 31.835 12.3299C31.835 5.97995 36.705 0.819946 42.695 0.819946Z" fill="#ADAEAF"/>
<path d="M42.705 0.829956C48.695 0.829956 53.555 5.97996 53.555 12.33C53.555 18.68 48.695 23.83 42.705 23.83C36.715 23.83 31.855 18.68 31.855 12.33C31.855 5.97996 36.705 0.829956 42.705 0.829956Z" fill="#AEAFB0"/>
<path d="M42.7051 0.829956C48.6951 0.829956 53.5451 5.96996 53.5451 12.32C53.5451 18.67 48.6851 23.81 42.7051 23.81C36.7251 23.81 31.8651 18.67 31.8651 12.32C31.8651 5.96996 36.7151 0.829956 42.7051 0.829956Z" fill="#AFB0B1"/>
<path d="M42.7051 0.839966C48.6851 0.839966 53.5451 5.97997 53.5451 12.32C53.5451 18.66 48.6951 23.8 42.7051 23.8C36.7151 23.8 31.8651 18.66 31.8651 12.32C31.8651 5.97997 36.7251 0.839966 42.7051 0.839966Z" fill="#B0B1B2"/>
<path d="M53.5351 12.32C53.5351 18.66 48.6851 23.79 42.7051 23.79C36.7251 23.79 31.8751 18.65 31.8751 12.32C31.8751 5.98997 36.7351 0.839966 42.7151 0.839966C48.6951 0.839966 53.5451 5.97997 53.5451 12.31L53.5351 12.32Z" fill="#B1B2B3"/>
</g>
<defs>
<linearGradient id="paint0_linear_326_15079" x1="23.7451" y1="24.08" x2="44.7051" y2="9.87997" gradientUnits="userSpaceOnUse">
<stop stop-color="#181716"/>
<stop offset="0.18" stop-color="#50504F"/>
<stop offset="0.4" stop-color="#8B8A8A"/>
<stop offset="0.59" stop-color="#B9B8B8"/>
<stop offset="0.76" stop-color="#DADADA"/>
<stop offset="0.9" stop-color="#EEEEEE"/>
<stop offset="1" stop-color="#F6F6F6"/>
</linearGradient>
</defs>
</svg>
