<svg width="24" height="24" viewBox="0 0 24 24" fill="none" xmlns="http://www.w3.org/2000/svg">
<path d="M11.5 5.38981L14.4422 1.74398C14.8218 1.27349 15.394 1 15.9986 1H19.0885C20.72 1 21.6651 2.84833 20.7098 4.17098L17.3889 8.76916C16.8634 9.49677 15.9176 9.7852 15.0755 9.47463L14.6029 9.30032C14.2108 9.15572 13.8739 8.89195 13.6394 8.54605L11.5 5.38981ZM11.5 5.38981L9.08522 1.86882C8.71227 1.32502 8.09525 1 7.43585 1H4.73703C3.13964 1 2.18686 2.78029 3.07293 4.1094L7 10" stroke="white" stroke-width="2" stroke-linecap="round" stroke-linejoin="round"/>
<path d="M4.99027 1.14899L10.2665 9.21051" stroke="white" stroke-width="2"/>
<ellipse cx="12" cy="16" rx="7" ry="7" stroke="white" stroke-width="2"/>
<ellipse cx="11.9996" cy="16.0001" rx="3.26667" ry="3.26667" stroke="white" stroke-width="2"/>
</svg>
