<?xml version="1.0" encoding="UTF-8"?>
<svg id="_레이어_2" data-name="레이어 2" xmlns="http://www.w3.org/2000/svg" viewBox="0 0 27.72 46.91">
  <defs>
    <style>
      .cls-1 {
        stroke-linecap: round;
        stroke-linejoin: round;
      }

      .cls-1, .cls-2 {
        fill: none;
        stroke: #ffffff;
      }

      .cls-2 {
        stroke-miterlimit: 10;
      }
    </style>
  </defs>
  <g id="_레이어_1-2" data-name="레이어 1">
    <g>
      <path class="cls-1" d="M20.55,20.88l6.42-10.12c.31-.49.32-1.1.04-1.6l-4.49-7.88c-.58-1.02-2.04-1.05-2.67-.06l-6,9.44,6.4,10.08c.1.05.2.09.29.14Z"/>
      <path class="cls-1" d="M13.86,10.67L7.86,1.22c-.63-.99-2.08-.96-2.67.06L.7,9.16c-.29.5-.27,1.12.04,1.6l6.42,10.12c.1-.05.19-.09.29-.14,1.94-.95,4.1-1.49,6.4-1.49s4.46.55,6.4,1.49l-6.4-10.08Z"/>
    </g>
    <line class="cls-1" x1="21.01" y1=".52" x2="6.38" y2=".52"/>
    <path class="cls-2" d="M15.48,21.56C7.32,20.53.46,27.39,1.49,35.56c.7,5.56,5.19,10.05,10.75,10.75,8.16,1.03,15.02-5.83,14-14-.7-5.56-5.19-10.05-10.75-10.75ZM18.22,40.83l-4.18-3.04c-.11-.08-.25-.08-.35,0l-4.18,3.04c-.24.17-.55-.06-.46-.34l1.6-4.92c.04-.12,0-.26-.11-.34l-4.18-3.04c-.24-.17-.11-.55.18-.55h5.17c.13,0,.25-.08.29-.21l1.6-4.92c.09-.28.48-.28.57,0l1.6,4.92c.04.12.16.21.29.21h5.17c.29,0,.41.37.18.55l-4.18,3.04c-.11.08-.15.21-.11.34l1.6,4.92c.09.28-.23.51-.46.34Z"/>
  </g>
</svg>