<svg width="193" height="6" viewBox="0 0 193 6" fill="none" xmlns="http://www.w3.org/2000/svg">
<path d="M102.649 1.45663L101.442 1.19325C102.153 0.747814 103.125 0.896185 101.848 0.520232C102.674 1.45131 98.2518 0.628785 99.0529 1.56518L98.2405 1.36995C98.2405 1.36995 98.4388 1.32744 98.6058 1.32986C96.934 0.885766 98.4053 2.00966 96.681 1.88251C96.055 1.81291 95.5347 1.68243 95.7853 1.56504L94.7975 1.80222C94.4101 1.78336 94.3334 1.6215 94.7208 1.64036L92.9531 1.72628L92.9492 1.70164C92.8447 1.85142 92.457 2.07462 92.2808 2.17608C91.6574 2.04221 92.3931 2.07558 92.1571 1.96058L91.3611 2.19488C90.7079 1.95279 91.3122 1.72138 92.0726 1.74944C90.1706 0.81976 91.4436 1.98616 88.8223 1.45264L89.6873 1.33092C88.5153 0.805192 87.9568 1.00133 86.521 0.672235C86.9708 0.843293 89.5723 1.49567 88.7124 1.73093C88.3173 1.66279 87.8516 1.63523 87.4705 1.81881C87.1109 1.48831 86.6112 1.56995 85.8976 1.59552L85.5081 1.1568C84.8884 1.28964 85.1151 1.50852 84.8904 1.7095C83.9487 1.66936 83.4469 1.33113 82.9281 1.04749C81.432 0.986064 84.4484 1.58773 82.8869 1.68042C81.567 1.51754 80.8911 1.70063 79.7545 1.9697C78.7829 1.82133 79.6479 1.69961 79.2059 1.57783L78.8128 1.92955C78.8128 1.92955 78.5768 1.81455 78.53 1.76092C78.0524 1.9015 78.9194 2.19964 78.0935 2.32571C78.3238 2.81129 75.3956 1.63033 74.7387 2.17868C74.2967 2.05691 74.6321 1.90859 74.3493 1.73996C73.0613 2.10517 73.2128 2.00903 72.3421 2.50133L70.8749 2.21717C72.0407 2.54045 71.3854 2.93564 70.7575 3.26126C71.2178 3.41734 71.6246 3.55941 71.8528 3.62513L70.5845 3.87148C70.3172 3.80142 70.3187 3.64825 70.4051 3.46417C70.3594 3.49944 70.2889 3.54003 70.2432 3.57529C69.552 3.41775 69.5628 3.16071 69.6909 2.91673C69.9478 3.00177 70.2438 3.09117 70.515 3.18588C70.6393 2.91725 70.6566 2.62059 70.3086 2.36402C70.2525 2.41427 70.1181 2.45581 69.9302 2.48334C69.9577 2.41377 69.9604 2.34951 69.8887 2.30119C69.7922 2.25819 69.7047 2.35336 69.6067 2.46352L68.7868 1.97695L68.8818 2.17311L66.5799 1.87683C65.6844 2.37445 65.1721 3.10834 63.1291 3.31697C63.3161 2.95848 62.6524 2.73137 62.2525 2.30762C63.3098 2.75604 63.7842 2.10669 65.0533 2.1913C64.3672 2.1473 64.3218 1.94051 64.4132 1.86997L62.7495 2.29025C62.4252 1.93946 62.0428 2.03414 61.3412 1.89158C62.4622 2.5811 60.2606 2.35247 59.642 2.57421C59.3618 2.34131 59.3126 2.10988 60.3965 2.15776C58.7523 1.64409 59.7432 2.97282 58.2137 2.53646C58.4694 2.5326 58.6154 2.56498 58.6351 2.44613C58.2579 2.65435 56.6575 2.50064 56.7791 2.29627L57.0348 2.29241C55.2935 2.21986 51.9631 2.30958 52.312 2.89712C52.2364 2.82416 51.7911 2.19362 51.8108 2.07476L50.8286 4.05566C50.5697 3.55075 48.3837 2.36354 49.4524 2.07079C48.9933 2.00361 48.4169 1.92338 47.7657 2.10116C48.097 2.17026 49.1605 2.82112 48.8735 2.86991C47.2998 2.31566 47.8786 2.57369 46.1391 2.10592C46.6555 2.21175 47.0106 3.00173 46.3532 2.97706C46.309 2.85917 45.5259 2.19914 45.6669 2.11798L44.8675 2.90065C45.1143 2.75862 44.2905 2.2474 43.7051 2.02899C44.0232 2.17733 42.3198 2.02023 41.9479 2.09993L42.7956 2.27487C40.8691 2.1656 42.0963 3.36726 40.2845 3.33529C40.3356 3.17151 39.8096 2.35446 38.821 2.26069C38.8192 2.65591 38.9034 4.16626 37.6468 4.48654L37.0862 4.26282L36.1414 4.52899C36.3039 3.93375 37.143 2.6713 37.7828 2.17754C36.9351 2.0026 37.3174 1.90792 36.3482 1.93735C35.7771 1.7286 36.5534 1.61316 36.8587 1.59868L34.353 1.47343C34.9381 1.9339 33.031 1.94783 33.5014 2.33099L35.5513 1.84068C36.1364 2.30115 35.4127 3.15679 33.6713 3.08424C33.0402 2.9011 33.1702 2.26189 32.9408 2.10727C32.8897 2.27106 31.6699 2.41788 31.4091 2.30819L31.8569 2.05939C30.7535 1.8883 30.9808 2.68021 29.3873 2.24481C28.9856 2.21629 27.6284 1.65383 27.8381 1.92731C29.0101 2.45304 30.8042 4.08087 30.8024 4.47609C30.6172 4.43937 28.2777 3.98558 27.5566 3.71981C26.4927 3.31101 27.5292 2.73223 26.6152 2.38046C26.7377 2.50705 26.5444 2.6631 26.4244 2.71431C25.908 2.60847 26.1705 2.32294 25.3473 2.38475C25.652 2.85439 23.5355 2.35278 25.3455 2.77997C24.637 2.91909 24.3321 2.69151 23.3485 2.71127C23.9599 3.01327 23.5116 3.74621 22.7639 3.88097C22.6806 3.75873 22.3234 3.60604 22.1591 3.53936C20.3473 3.50739 19.1866 3.29765 17.56 3.30241C17.2992 3.19272 16.342 3.05401 16.5027 2.85399C16.3617 2.93515 16.3106 3.09894 15.7744 3.11196C14.3662 2.71329 16.8533 3.0463 15.6108 2.56115C15.8205 2.83463 14.6711 2.94088 14.1478 3.11672C14.8034 3.53661 15.8891 3.18927 16.4516 3.01778C17.017 3.59711 16.4214 4.20876 14.9653 4.48264C13.7454 4.62947 13.9835 4.10719 13.8177 4.19367C11.1385 4.10561 12.6842 5.21356 10.1215 4.8076C8.89837 4.44566 9.32671 4.07364 8.90049 3.80837C9.86465 3.6654 10.8712 4.03554 11.5991 4.01963L10.4958 3.84854C10.732 3.72148 11.3452 3.62826 11.8865 3.72878C10.8485 3.40357 7.51012 3.68607 5.20817 3.38979C4.97191 3.51685 4.50476 3.64246 4.9259 3.79419L5.49341 3.73623C6.38526 4.02906 4.73891 4.15268 5.65706 4.28704C5.02414 4.49912 4.41062 4.8344 3.09074 4.67152L2.43515 4.25163C2.58239 4.3729 3.48621 4.4976 3.65855 4.3715C3.35568 4.56379 1.28911 3.80949 1.26101 4.36318L2.40855 4.65216C1.77563 4.86424 1.20631 5.31742 0.00769953 5.19223C0.918972 5.60826 0.230819 5.1444 1.4342 5.6252C0.147491 5.02216 4.16567 5.63836 2.47723 5.0068C3.83443 5.56926 4.06443 5.23975 5.52349 5.7167C5.34756 5.57609 4.90552 5.45431 5.85115 5.5191C5.85772 5.47948 5.87475 5.42488 5.89566 5.39493C5.89566 5.39493 5.93479 5.39928 5.97392 5.40363C5.97392 5.40363 5.89566 5.39493 5.92045 5.38961C5.91657 5.36497 5.9557 5.36932 5.92045 5.38961C5.66747 5.32921 5.40015 5.25914 5.24633 5.17748C5.36283 4.85957 6.7338 4.85866 7.07968 4.69537C7.66659 4.76062 7.02859 4.85916 7.47453 5.00557L7.92227 4.75677C8.31711 5.06697 9.84697 5.26127 8.78753 5.45014L9.91715 5.46275C10.7257 5.63334 11.7352 5.69716 12.1241 5.56286C12.711 5.62811 13.082 5.21744 12.89 5.46239L14.4216 5.26147L14.5363 5.33878C16.2842 5.37171 17.5411 4.80937 20.088 5.35883C20.5877 5.2772 21.0978 5.18059 22.136 5.26374L22.6014 5.53336C23.2394 5.43483 25.1017 5.78713 25.1477 5.5098C26.6951 6.22253 28.886 5.65105 30.3403 5.77239L30.0159 5.4216C30.9538 5.4371 31.6805 5.33229 32.6447 5.18932L32.2498 4.87911C32.978 4.62114 34.9484 5.09037 36.4538 5.04792C36.498 5.16581 36.0324 5.13825 35.7011 5.06914C38.2178 5.75244 39.015 4.5499 41.1563 5.04619C41.446 4.93315 41.7982 4.9723 42.1685 5.04575C42.1685 5.04575 42.119 5.05638 42.0942 5.06169C42.1333 5.06605 42.1972 5.06508 42.2611 5.06412C42.4998 5.11486 42.7528 5.17527 42.9914 5.22601C42.7489 5.15062 42.4959 5.09022 42.3251 5.06315C42.6446 5.05834 43.0739 5.01729 43.4705 4.93227L44.0219 5.25987C44.0219 5.25987 44.0467 5.25456 44.0962 5.24393C44.6661 5.36378 44.3143 5.08257 43.7889 4.83855C43.9729 4.78638 44.1282 4.71488 44.2053 4.63468C45.1216 5.16426 45.2399 4.45112 46.3415 5.01743C46.3875 4.7401 48.498 4.79721 48.1491 4.20967C48.2638 4.28698 48.4099 4.31936 48.1933 4.32757C48.7802 4.39282 49.3672 4.45807 49.6739 4.29043L50.3295 4.71032L50.8938 4.1436C51.8561 4.39585 52.302 4.54227 51.9442 4.8737C53.1201 4.36692 53.0923 4.67855 53.9878 4.18094L54.1975 4.45442C54.6697 4.44236 55.1372 4.0747 55.6587 4.29407C57.3029 4.80774 61.342 4.33684 64.7225 4.80952C63.3408 4.01031 66.457 5.16375 65.9621 4.54384C66.3375 4.73083 66.8539 4.83667 66.5472 5.00431C67.8623 4.81159 69.0905 5.28707 69.5594 4.76625C69.9349 4.95325 69.5134 5.04358 69.8133 5.15762C69.8838 5.11703 70.1201 4.98997 70.3808 5.09966C70.6416 5.20935 70.3297 5.26345 70.1887 5.34461C71.6693 5.30748 71.2566 4.72091 70.7733 4.17492C71.7996 4.4262 72.1401 4.39143 72.3271 4.03294C72.7912 4.21366 73.4223 4.3968 72.5104 4.46489C73.0648 4.48617 76.0086 4.70855 75.6192 4.26983C75.8799 4.37952 76.3796 4.29788 76.4997 4.24667C77.7076 4.26799 77.868 4.31003 79.0003 4.25838L78.6051 4.19024C78.5341 3.6578 79.4701 4.06852 80.3181 4.0014L80.365 4.05503C82.9095 4.42669 81.1048 3.87098 83.6962 4.29627L83.2727 3.96674C82.7766 3.25793 85.5797 4.37656 86.5349 4.09541L85.9038 3.91226C86.3267 3.66877 88.758 4.86711 89.5405 4.95411C89.7296 5.01548 89.4282 5.0546 89.269 5.10146C91.473 5.50789 89.0856 4.66951 90.2989 4.5623C90.7708 4.79231 90.5838 5.1508 91.5256 5.19094C92.1567 5.37409 93.3267 4.4228 94.9984 4.8669C94.5343 4.68618 94.1092 4.50981 94.562 4.37454C95.4348 4.30211 97.8066 5.04193 98.0761 4.47471C98.2508 4.52642 98.3473 4.56942 98.3798 4.61339C98.9461 4.46654 100.454 4.35982 100.585 4.05158C102.429 5.18466 104.506 3.47872 105.543 4.53012L107.698 4.46306L107.727 4.57128C109.224 4.63271 109.44 4.38245 109.682 4.12687C110.077 4.19501 109.965 4.2955 109.948 4.3501C112.21 4.55312 112.369 4.50626 113.605 3.97388L114.146 4.31646C114.409 4.11983 117.662 4.83649 119.315 4.4312C119.308 4.47081 119.37 4.53411 119.25 4.58532C121.158 4.17617 125.673 5.50119 125.233 4.258L126.44 3.94835C124.415 3.86033 126.163 3.40914 125.145 3.20713C125.851 3.13227 127.483 3.57202 126.635 3.63914L126.446 3.57777C126.753 4.22522 129.12 3.79434 129.485 4.23838C133.27 4.1912 137.398 4.52911 141.014 4.54376L140.077 4.04414L141.349 4.06448C141.815 4.18095 142.192 4.45685 141.279 4.43603C142.029 4.72113 142.547 4.18968 142.453 4.08241C144.406 4.27528 142.38 4.67138 142.92 4.68299L143.605 4.63809L143.391 4.58204C143.768 4.37381 143.605 4.15397 144.685 4.17721C145.482 4.27387 145.336 4.48356 145.659 4.50338C145.677 4.53769 145.795 4.55074 146.071 4.51693L147.691 4.55179L146.681 4.157C147.2 3.95652 148.169 4.16915 146.984 3.72266C148.759 4.4122 153.132 3.94615 153.998 4.15539C154.668 3.85876 155.656 3.86364 156.878 3.89461C156.493 3.81149 155.873 3.37131 156.957 3.41919C157.538 4.33915 159.235 3.80968 160.761 4.46346C159.59 4.02664 163.586 4.34183 161.784 3.72186C162.705 3.79196 162.197 4.06637 163.063 4.27561C164.774 3.90897 167.826 4.49035 170.239 4.35517C170.156 4.23293 169.524 4.04978 169.906 3.8662L171.871 4.46395C172.335 4.40261 171.62 3.76626 172.954 4.18087C172.707 4.08084 172.35 3.92815 172.651 3.88903C178.225 4.45215 182.319 3.35798 188.475 4.44584C187.541 4.21292 187.999 4.19119 188.471 4.17914C188.066 4.12597 188.194 3.88198 187.95 3.7177L190.506 4.16328C190.422 3.71008 192.729 4.1199 192.506 3.6836L191.904 3.76184C192.284 3.24729 189.509 2.63211 188.957 1.97354C188.549 2.55766 185.44 1.12255 184.662 1.96417C184.167 1.82839 184.77 1.75014 184.412 1.59745C184.278 1.88105 183.852 1.94674 182.782 1.81963L182.809 1.75005C180.285 1.83256 178.896 1.5571 175.768 1.38689L176.32 1.7145C175.634 1.6705 175.426 1.57483 175.042 1.49171C174.8 1.98935 176.839 1.51401 176.733 2.05901C175.232 1.39991 172.3 2.06654 170.965 1.32097C170.017 1.32045 171.652 1.69593 170.64 1.69637L170.172 1.49101L170.2 1.7524C169.514 1.7084 168.95 1.46003 168.756 1.28512C168.951 1.30687 169.171 1.23441 169.309 1.2175C168.272 0.981193 167.094 1.31017 166.724 1.23672L167.78 1.35417C165.339 1.55892 161.827 1.30559 159.715 1.73261L160.073 1.8853C158.414 2.17706 158.33 1.72385 156.354 1.86726L156.399 1.83199C156.142 1.98901 155.643 2.07064 155.024 2.05032C155.381 1.87205 153.663 1.70529 154.182 1.5048C152.361 1.81877 153.401 1.74876 152.556 2.32465L151.952 2.07193C151.707 2.30287 151.79 2.42511 150.79 2.49947C151.472 2.27677 149.73 2.11531 150.4 1.81868C147.598 1.27308 147.659 2.39352 145.776 1.58705C145.452 2.29341 148.104 1.96691 147.68 2.1215C148.408 2.34765 147.353 2.65006 146.6 2.58239C145.868 2.57366 144.485 1.68556 142.656 1.70818C142.823 1.71061 142.776 1.65697 142.982 1.66375C142.135 1.48881 141.92 1.91687 140.797 1.62258C140.775 2.04776 139.693 1.60466 140.137 2.1463L141.666 2.00963C140.868 2.15502 140.675 2.7952 138.795 2.49749C138.79 2.38395 139.101 2.24095 139.37 2.15786C138.742 1.99935 138.618 2.26799 137.952 2.10513C137.532 1.55818 139.854 1.97766 140.441 1.55879C139.714 1.33264 138.941 1.95685 138.823 1.37077C138.865 2.12595 136.964 1.28517 136.311 1.85817L136.055 1.53106C135.934 1.58227 135.677 1.73928 135.304 1.73008L135.519 1.30202C134.884 1.66726 133.305 0.999462 132.555 1.19849C134.551 1.17829 133.399 1.59085 134.46 1.82185C132.442 2.26723 132.162 0.977186 129.599 1.14425C129.926 1.09981 131.193 1.33758 130.794 1.48686C130.207 1.4216 129.406 1.3003 128.892 1.1302C127.174 1.2055 129.522 1.46651 128.939 1.66796C127.928 1.27318 128.17 1.83268 127.55 1.96552L127.191 1.63503C124.929 1.432 127.339 2.32933 125.236 2.07945L125.56 1.61515L124.695 1.73687L124.495 1.35951C123.707 1.64309 123.311 1.57495 122.181 1.47343C122.653 1.70344 122.647 2.07402 121.752 2.08751C120.94 1.89228 121.805 1.77056 120.544 1.82413C120.627 1.61541 120.662 1.35306 121.569 1.65556C121.539 1.54733 121.651 1.44684 121.621 1.33861C120.702 1.11535 119.859 1.29601 119.412 1.30276C119.593 1.31484 119.813 1.33128 120.013 1.37767L118.613 1.84337C118.17 1.7216 118.347 1.62014 118.459 1.51965C118.119 1.55442 117.989 1.70951 117.443 1.73751C117.336 1.46742 116.984 1.18621 117.643 1.05772L116.18 1.37122C115.905 1.25187 114.887 1.04987 114.999 0.949373C113.861 0.798578 113.11 1.48173 111.565 1.27777C111.548 1.33237 111.453 1.37826 111.216 1.41642C109.926 1.36177 108.465 1.03799 107.383 1.40997L106.052 0.931102C105.02 1.0504 107.8 1.53706 106.087 1.7259C104.882 1.88239 105.151 1.31517 104.567 1.18566C104.144 1.42915 103.455 1.93354 101.83 1.54308C102.148 1.44936 102.544 1.5175 102.884 1.48273L102.649 1.45663ZM88.6876 1.73624C88.9069 1.66378 89.2059 1.44686 89.5956 1.64352C89.6682 2.0228 89.2432 1.84643 88.6876 1.73624ZM67.929 2.63207C68.027 2.52191 68.3935 2.57073 68.8746 2.69685C68.6228 2.72535 68.3137 2.71519 67.929 2.63207ZM10.2618 5.21055C10.2618 5.21055 10.2866 5.20524 10.2723 5.19558C11.0091 5.31785 10.7457 5.27242 10.2618 5.21055ZM8.84279 5.06893C8.74752 5.11482 8.8192 5.16314 8.91567 5.20615C8.88969 5.12256 9.20928 5.11774 9.53275 5.13757C9.33981 5.05156 9.12595 4.9955 8.84279 5.06893ZM145.387 4.31977L145.066 4.23569C145.537 4.13473 145.474 4.22459 145.387 4.31977Z" fill="#0D442B"/>
</svg>
