<svg width="120" height="50" viewBox="0 0 120 50" fill="none" xmlns="http://www.w3.org/2000/svg" preserveAspectRatio="none">
<path d="M60.1363 48.8612L60.1333 49.0016L60.1345 48.8612C55.7886 48.7858 51.4495 48.765 47.1175 48.7442C37.7962 48.6996 28.5074 48.6551 19.2522 48.0674C18.542 48.0174 17.8328 47.9737 17.1271 47.9301C13.6098 47.713 10.179 47.5012 7.1355 46.5609C4.63669 45.6483 3.00562 44.4481 2.06457 43.1496C1.13488 41.8667 0.828478 40.4217 1.08909 38.8809L1.10008 38.8158L1.10245 38.7499C1.18586 36.4244 1.35492 34.0966 1.53333 31.7512C1.55134 31.5144 1.56945 31.2774 1.58758 31.0402C1.74854 28.9337 1.91069 26.8119 2.01548 24.6887L2.01809 24.6359L2.01512 24.5831C1.92882 23.0506 1.93874 21.5113 1.95559 19.9383L1.95575 19.9238L1.95549 19.9094C1.93798 18.9435 1.84764 17.9723 1.76139 17.0451C1.73982 16.8133 1.71851 16.5842 1.69866 16.3587C1.59778 15.2124 1.53056 14.1253 1.61266 13.0536C1.67784 12.4362 1.69629 11.8222 1.70861 11.2409C1.71058 11.1477 1.7124 11.0555 1.7142 10.9642C1.72395 10.4699 1.73319 10.0019 1.76402 9.53444C1.83619 8.44063 2.02257 7.45872 2.54843 6.53682L2.57755 6.48576L2.60049 6.43165C3.15738 5.11802 4.71365 4.09294 7.07237 3.3794C9.37739 2.68209 12.1822 2.36385 14.8023 2.25529L14.8023 2.25531L14.8096 2.25495C16.8548 2.15511 18.9192 2.0023 20.9692 1.85057C22.4168 1.74342 23.8573 1.6368 25.2787 1.54974C28.0089 1.40193 30.7645 1.40146 33.5525 1.40099L33.5653 1.40099C36.3454 1.40051 39.1577 1.39981 41.9546 1.24691C57.102 0.794006 72.2057 0.979653 87.3545 1.67682C90.4162 1.82329 93.4549 1.84808 96.4701 1.87268C96.7465 1.87493 97.0228 1.87719 97.2988 1.87953C100.59 1.9075 103.858 1.94852 107.148 2.15728C107.719 2.20616 108.297 2.24092 108.863 2.27491L108.873 2.27553C109.451 2.31022 110.015 2.34422 110.571 2.39197C111.684 2.48758 112.713 2.63479 113.632 2.926C115.872 3.66979 117.45 4.97704 118.057 6.2314C118.976 8.61769 119.109 11.0918 118.934 13.6506L118.93 13.7052L118.932 13.7598C119.033 16.2228 118.669 18.6583 118.287 21.2064C118.209 21.7277 118.131 22.2537 118.055 22.7855L118.045 22.8544L118.045 22.924C118.039 25.7818 117.91 28.6445 117.709 31.5132L117.708 31.524L117.707 31.5348C117.632 33.0868 117.796 34.6248 117.95 36.0744L117.969 36.2524C118.131 37.7819 118.272 39.2178 118.172 40.6417L118.172 40.6428C118.15 40.948 118.141 41.2557 118.131 41.5424C118.13 41.5838 118.129 41.6249 118.127 41.6654C118.117 41.9948 118.104 42.2994 118.077 42.5962C118.024 43.1579 117.919 43.6478 117.695 44.0992C116.865 45.2053 115.882 46.2425 114.32 46.8873C109.271 48.5684 103.344 48.6789 97.4472 48.7889C96.5149 48.8063 95.5833 48.8237 94.6561 48.8472C83.1372 48.9801 71.6342 49.105 60.1363 48.8612Z" fill="#0A4129" stroke="white" stroke-width="2"/>
</svg>
