<svg width="100" height="35" viewBox="0 0 100 35" fill="none" xmlns="http://www.w3.org/2000/svg" preserveAspectRatio="none">
<path d="M78.8876 34.393C69.2886 34.486 59.6952 34.5736 50.1049 34.4028V34.4028C46.4946 34.3502 42.8847 34.3356 39.2776 34.3211C31.503 34.2898 23.7413 34.2585 16.0161 33.8464C15.4325 33.8119 14.8469 33.7816 14.2619 33.7514C11.3271 33.5995 8.40567 33.4484 5.81638 32.775C3.67533 32.1195 2.2514 31.2476 1.42428 30.2888C0.610638 29.3457 0.35457 28.2986 0.57607 27.1986L0.583785 27.1602L0.585452 27.1212C0.65506 25.491 0.796128 23.8596 0.944806 22.2178C0.959817 22.052 0.974908 21.8862 0.990009 21.7202C1.12416 20.2454 1.25915 18.7616 1.34639 17.2769L1.34823 17.2455L1.34613 17.2141C1.27395 16.1373 1.28229 15.0566 1.29634 13.9557L1.29645 13.9471L1.29626 13.9385C1.28177 13.2667 1.20705 12.5919 1.13523 11.9433C1.11721 11.7805 1.09937 11.6194 1.08271 11.4603C0.998475 10.6564 0.941592 9.88776 1.01106 9.12791C1.06492 8.70006 1.08026 8.27363 1.09053 7.86642C1.09217 7.8015 1.09368 7.7372 1.09518 7.67344C1.1033 7.32744 1.11105 6.99703 1.13696 6.66718C1.19745 5.89698 1.35413 5.18629 1.81348 4.50983L1.83164 4.48308L1.84621 4.45422C2.09483 3.9616 2.56418 3.51905 3.24753 3.13118C3.92912 2.74431 4.79183 2.43012 5.77549 2.18016C7.743 1.68019 10.1193 1.45553 12.3181 1.37901L12.3212 1.37888C14.0244 1.30903 15.7315 1.20284 17.4328 1.097C18.6399 1.02191 19.844 0.947002 21.0418 0.885391C23.3286 0.781353 25.6347 0.781024 27.9547 0.780693L27.971 0.780691C30.2913 0.780359 32.6253 0.779782 34.9447 0.673125C47.5809 0.35563 60.1797 0.485703 72.8148 0.974158C75.3577 1.07635 77.882 1.09366 80.3962 1.11089C80.6262 1.11247 80.8561 1.11405 81.0859 1.11569C83.83 1.13527 86.5646 1.16402 89.3211 1.31103C89.8146 1.34663 90.3069 1.37154 90.7937 1.39618C92.2163 1.46819 93.5925 1.53786 94.8187 1.86478C96.7647 2.40695 98.1615 3.36915 98.701 4.31282C99.4816 6.01069 99.591 7.76319 99.4444 9.56263L99.4417 9.59508L99.4433 9.62759C99.5279 11.3626 99.222 13.0794 98.9041 14.8634C98.8393 15.2275 98.7739 15.5945 98.7112 15.965L98.7043 16.0057L98.7042 16.047C98.699 18.0504 98.5911 20.0568 98.4235 22.0666L98.4233 22.0666L98.4226 22.0794C98.3606 23.1574 98.4958 24.2267 98.6243 25.2432L98.6397 25.3655C98.7746 26.4353 98.8939 27.4492 98.8094 28.4566L98.8094 28.4572C98.7919 28.6687 98.7838 28.882 98.7762 29.0829C98.775 29.1119 98.7739 29.1407 98.7728 29.1692C98.7638 29.3999 98.7536 29.6159 98.7301 29.8272C98.6851 30.2317 98.5934 30.5973 98.3856 30.9419C97.6793 31.7349 96.8133 32.5159 95.4082 33.0001C91.1341 34.1981 86.118 34.2761 81.2053 34.3525C80.4291 34.3646 79.6554 34.3766 78.8876 34.393Z" fill="white" stroke="white"/>
</svg>
