<svg xmlns="http://www.w3.org/2000/svg" width="120" height="50" fill="none" preserveAspectRatio="none"><path fill="#0A4129" stroke="#fff" stroke-width="2" d="m60.136 48.861-.003.14.002-.14c-4.346-.075-8.685-.096-13.017-.117-9.322-.044-18.61-.089-27.866-.677q-1.066-.073-2.125-.137c-3.517-.217-6.948-.429-9.991-1.37-2.5-.912-4.13-2.112-5.071-3.41-.93-1.283-1.237-2.728-.976-4.27l.011-.064.002-.066c.084-2.326.253-4.653.431-6.999l.055-.71c.16-2.107.323-4.23.427-6.352l.003-.053-.003-.053c-.086-1.532-.076-3.072-.06-4.645v-.029c-.017-.965-.107-1.937-.194-2.864L1.7 16.36c-.101-1.147-.168-2.234-.086-3.305a22 22 0 0 0 .096-1.813l.005-.277c.01-.494.02-.962.05-1.43.072-1.093.259-2.075.784-2.997l.03-.051.022-.054c.557-1.314 2.114-2.34 4.472-3.053 2.305-.697 5.11-1.015 7.73-1.124h.008c2.045-.1 4.11-.253 6.16-.404 1.447-.108 2.887-.214 4.309-.301 2.73-.148 5.486-.149 8.274-.149h.012c2.78 0 5.593-.001 8.39-.154 15.147-.453 30.25-.267 45.4.43 3.061.146 6.1.171 9.115.196l.829.007c3.291.028 6.559.069 9.849.277.571.05 1.149.084 1.715.118h.01c.578.035 1.142.07 1.698.117 1.113.096 2.142.243 3.061.534 2.24.744 3.818 2.051 4.425 3.305.919 2.387 1.052 4.86.877 7.42l-.004.054.002.055c.101 2.463-.263 4.898-.645 7.446q-.118.782-.232 1.58l-.01.068v.07c-.006 2.858-.135 5.72-.336 8.59l-.001.01-.001.01c-.075 1.553.089 3.09.243 4.54l.019.178c.162 1.53.303 2.966.203 4.39-.022.306-.031.614-.041.9l-.004.123c-.01.33-.023.634-.05.931-.053.562-.158 1.052-.382 1.503-.83 1.106-1.813 2.144-3.375 2.788-5.049 1.681-10.976 1.792-16.873 1.902q-1.4.025-2.79.058c-11.52.133-23.023.258-34.52.014Z"/></svg>