<svg xmlns="http://www.w3.org/2000/svg" width="134" height="80" fill="none"><g fill="#fff" clip-path="url(#a)"><path d="M131.478.678c.39-.051.118-.56.152-.678-.61.288-.084.813-.152.678m-5.948 2.881.051-.255-.78.78zm-5.863 1.508c.796.796 2.084-.695 3.219-.644l.221.17.271-.882c-1.237.44-2.762 1.373-3.711 1.356m-3.643-1.22c.288.322-.594.491.762-.068-.085-.017-.102-.034-.152-.051a5 5 0 0 1-.61.136zm.593-.136c-.492-.203.61-.186 0 0m-2.796.949.728-.542c-.22-.17-.966-.034-.728-.254-.78.39-.56.559 0 .796m-.594.881.39-.254c-.101-.068-.22-.068-.39.254m1.204-.762-.814.525c.153.119.254.424.39-.203 0 .288.102 0 .441-.305zm.542.017c.508.084 1.135.067.407.593 1.525-.526 1.118-1.136-.407-.593m4.643 1.321.678.119.44-.458c-.22.22-1.237.051-1.118.34m-10.981-.628c0 .22.407.458.543.695l.542-.39c-.339-.05-.966-.034-1.085-.322zm.543.712-.814.576c.814-.17.915-.373.814-.576m4.185.424 1.288-1.102-1.576 1.186zm-8.168-.271.39-.594-.729.932zm-2.253.677c.271-.474-.678-.508-.339-.847-.593.237-1.051.695-1.441 1.119.458-.288 1.017-.39 1.796-.255zm-2.475.898c.221-.152.441-.39.695-.643a2.7 2.7 0 0 0-.695.644m6.338-.865c-.102-.101-.322-.39-.847-.39l.491.475a3 3 0 0 0 .356-.085m-.339.102c-.39.068-.661.119-.779.152.101-.016.339-.067.796-.152zm.424-.118s-.051 0-.085.016c.051.051.068.068.085-.017m3.982-.322c-.441.458-1.457 1.068-.271 1.271.271-.474-.407-.593.271-1.27m-3.355.914.983-.118c-.051-.136-.288-.322-.068-.542zm-.424.288.424-.288-.373.034zm-4.863.102c-.356.356-.797.492-1.288.661a9.3 9.3 0 0 0 1.695-.254c.033-.203.186-.576-.39-.407zm2.067-.372-.085.05s.119.034.085-.05m-8.371 2.338.102.068v-.102z"/><path d="M102.755 8.507c.441 0 .644-.204.83-.441-.288.136-.61.254-.948.356 0 .085 0 .135.118.085m-3.626.05c.237.068.508.102.796.12-.254-.12-.745-.289-.796-.12m4.914-.965.051-.034c-.17-.085-.136-.034-.051.034m0 0c-.186.135-.322.322-.458.491a3.6 3.6 0 0 0 .627-.356c-.067-.034-.135-.068-.186-.119zM95.35 13.98c-.068-.542.898-1.305 1.966-.983.813-.627-.22-2.186-1.271-2.931.034.237.084.44-.78 1 .407.203 2.27.118 1.593.796-1.186.593-1.068.085-1.745-.034.677.508-1.339 1.356-.83 2.237l1.016-.627c.05.135-.271.474.068.542zm2.49-4.321.374-.17c-.458.017-.83-.101-1.525-.355-.577.423-.661.644-.661.83l1.931-.424zm2.12-.627c-.153.644-1.034 1.118-.289 1.593 1.135-.339.678-.678 1.288-1.102-1.796.61.441-.457-.966-.423.339-.187.661-.305.949-.407-.356.017-.695 0-1.017 0h.051v.017c.102.05.136.102.034.085l-.034.017c0 .084 0 .152-.034.237-.559.017-.118-.119.034-.237v-.085l-1.762.78c.406-.017.898-.17 1.745-.458zm9.98.441s-.085-.068-.085-.119c-.101.102-.135.153.085.119"/><path d="M109.093 9.337c.118-.119.169-.373.61-.424.423.068.068.271.135.458.221-.22.814-.644-.084-.712l-.102.119c-.796 0-1.932-.458-1.813-.576.356.457.627.762 1.254 1.135m-4.592 0-1.458.678.915.288-.118-.288c.898-.119.627-.424.661-.678m-8.829.423.05-.66-.66 1.084zm-1.966.577-.068-.525-.44.44zM40.7 49.057v.797c0-.492.017-.813 0-.797m4.084-25.96c-.78-.322-1.711-.881-1.474-.305l.356.508c.424-.22.796-.254 1.135-.203zm-8.676 29.078c.051-.152.102-.322.153-.491a6 6 0 0 1-.543.474c.12 0 .255.017.39.017m2.186-3.999-.305 1.22c.102-.39.22-.78.305-1.22m6.321-11.692c-.068-.373-.153-.78-.203-1.186-.526 1.474-.017.949.203 1.186m28.74-20.64c-.627-.068-1.102-.05-1.509.017.763.152 1.44.491 1.509-.017M41.853 64.308c.135-.694.186-1.169.152-1.474-.135.661-.203 1.203-.152 1.474M70.22 16.302c.118.034.22.034.339.05.39-.203.78-.39 1.304-.474-.559-.119-1.186-.119-1.626.424zm37.771-6.592h.17c0-.085-.085-.068-.17 0m20.267-1.474c-.169.101-.457.22-.728.322.152 0 .372-.102.728-.322m-42.635 3.948c.051-.085.407-.153 0 0m2.644 1.711a.41.41 0 0 0-.102.322c0-.152.034-.254.102-.322m-21.335 7.033h-.034c.153.084.136.067.034 0m19.403-8.659c-.17-.034-.373-.034-.576-.034.101.017.27.034.576.034m-.17-.238c.153 0 .271-.034.39-.034.034-.101-.034-.152-.39.034"/><path d="M85.047 12.353c.237-.067.475-.101.695-.118-.085 0-.136-.034-.119-.068-.119.034-.288.101-.576.186M75.202 24.08s.067 0 .101.017c.322-.39.153-.289-.101-.017M37.48 31.315l-.016-.034h-.051z"/><path d="M37.938 32.247c-.745-.61-.694-.864-.559-.982h.034l-.17-.102a13 13 0 0 0-1.61-.797c.78.763 1.543 1.39 2.305 1.864z"/><path d="M42.056 44.889a1.7 1.7 0 0 1-.491-.187c-.509-1.169-.322-.796-.898-1.39.711.73.677 1 .627 1.238-.034.254-.085.508.339 2.05a1.5 1.5 0 0 1-.255-.423c.034-.034 0-.22 0-.255-.27-.559-.135.034-.017.933.119.88.22 2.05 0 2.22-.152 0-.27-.475-.254-1.136l-.118 1.678c-.068.084-.085-.797-.034-.865l-.051.238-.237 1.016v-.17c-.034.95-.17 2.661-.272 3.475-.084-.542.068-.763.051-1.407l-.27 2.085c0-1.373.22-3.39.321-3.474 0-2.66 0-2.322-.102-1.474-.067.796-.237 2.186-.237.61l.17-1.17c.05-1.22.084-1.88.118-2.694 0-.39 0-.576.136-1.864a146 146 0 0 0-.305 3.813c-.102 1.542-.17 3.033-.34 4.168 0-.373-.033-.508-.287 1.305.271-2.66.119-1.796 0-1.322l.457-3.812a893 893 0 0 0-.745 5.27c-.051 0 .034-.78.17-1.898.169-1.305.355-2.678.542-3.966v-.017c.033-.39-.322 2.17-.594 4.135-.033.22-.067.424-.084.627-.102.627-.17 1.068-.22 1.068.203-2.101-.068-.661-.509.576.203-1.644.407-2.033.593-3.186l-.56 2.339c0-.17.17-.932.255-1.322-.22.678-.678 3.27-.898 3.423-.39 1.61-.136-.068.102-1.576.237-1.542.474-2.813 0-1.644.186-.88.44-1.423.728-2.457-.39.729-.491.746-.694 1.034-.136.237-.305.56-.661.983.152-.729.288-1.424.44-2.068-.542 1.95-1.254 2.83-1.898 2.78-.254.88-.491 1.728-.593 2.185-.17-.355-.356-.762-.542-1.22.119-.474.407-.711.746-1-.068 0-.136-.016-.204 0 .254-1.169.729-1.508 1.186-1.897-.152.474-.305.965-.457 1.44.491-.474 1.034-1.27 1.491-2.288-.102.119-.186.119-.237.051.135-.17.254-.356.322-.542.085-.203-.102.034-.305.22l.864-1.796-.356.56c.153-.746.322-1.39.492-1.967-.95.441-2.39.255-2.949-2.389.746.56 1.152.017 2 .017-.424.254-.305.627-.119.915.203.322.492.508.424.95a.71.71 0 0 1 .593-.61c-.288-.17-.576-.475-.864-.899.338-.05.457-.136.542-.254.034-.068.05-.119.085-.204.033-.135.05-.305.118-.457-1.322.56-1.017-1.745-1.491-2.694.458-.085.932.118.898 1.321.949-1.372-1.695-1.61-.898-2.948.034.288-.034.457.203.559-.44-.66-.22-2.338.187-1.966l.034.288c.017-.965-.068-2.44-.305-3.694-.034-.152-.068-.339-.102-.44l-.102-.272a3 3 0 0 0-.254-.508c-.186-.322-.44-.61-.729-.78.153.069 1.424.61 1.678.73q-1.525-1.018-3.152-3.508c-.05-.322-.034-.644 0-.983.271.44 1.271 1.05 1.983 1.677.728.627 1.237 1.237 1.152 1.56.373.05.695.135.915-.289-.203-.101-1.508-1.084-1.27-1.237.83.356.999.458 1.22.543.203.084.457.118.965.474-.288-.152-.66-1.66.203-1.83-.05.254.441 1.474.22 1.694l1.407-1.948c-.373.39.237 1.27.763 1.576-.254-.238 1.559-.373 2-.644l-.848-.153c2.084-.305 1.458-2.592 3.49-3.033-.169.373-.118 2.033.95 1.949.271-.881 1.135-4.169 2.762-5.22l.458.34 1.237-.848c-.56 1.356-2.322 4.372-3.39 5.643.848.152.34.457 1.475.119.508.305-.458.78-.797.88l2.712-.423c-.34-.847 1.796-1.406 1.508-2.118l-2.644 1.66c-.339-.847 1.017-2.931 2.932-3.27.576.22.05 1.66.17 1.949.169-.373 1.626-1.034 1.863-.864l-.678.677c1.136.068 1.407-1.61 2.881-1.101.44-.05 1.593.796 1.525.254-.966-.83-1.915-3.897-1.643-4.779.169.034 2.524.373 3.151.746.915.61-.576 2.152.204 2.678-.034-.255.288-.644.423-.78.509.085 0 .796.966.424-.068-.932 2.034-.441.271-.882.899-.508 1.068-.084 2.203-.423-.508-.492.509-2.237 1.407-2.745 0 .237.288.474.44.593 2-.44 3.17-.305 5.016-.78.22.17 1.187.204.898.695.22-.22.39-.593.95-.762 1.304.49-1.238.457-.153 1.169-.068-.543 1.288-1.102 2.016-1.644-.457-.746-1.914.339-2.643.864-.288-1.101.83-2.626 2.626-3.643 1.458-.678.848.542 1.085.322 2.932-.56 1.949-2.576 4.558-2.39 1.136.458.407 1.39.746 1.848-1.186.593-2.033.05-2.88.305l1.135.067c-.34.34-1.119.73-1.627.644.966.424 4.897-1.135 7.286-1.135.34-.339.95-.763.56-.966l-.678.288c-.797-.406 1.118-1.135.152-1.17.847-.643 1.729-1.541 3.152-1.575l.458.746c-.085-.22-1-.255-1.305.084.457-.508 2.321.56 2.66-.644l-1.084-.322c.847-.643 1.796-1.813 3.033-1.864-.746-.66-.254.17-1.322-.559 1.034.966-3.033.729-1.542 1.644-1.135-.864-1.61-.068-2.965-.695.101.254.525.407-.492.526a1 1 0 0 1-.152.288h-.068.068s-.034.084.017.017c.27.05.491.152.61.27-.34.73-1.915 1.119-2.356 1.577-.627.034.17-.373-.22-.577l-.678.678c-.237-.576-1.813-.576-.525-1.27l-1.254.304c-.813-.135-1.864 0-2.423.407-.627.017-1.305 1.034-.915.44l-1.864.865-.051-.136c-1.949.424-3.711 2-6.185 1.508-.61.322-1.237.678-2.356.78l-.339-.458c-.78.39-2.626.136-2.847.763-1.253-1.135-4.117.745-5.642.881l.118.678c-1.017.22-1.931.66-3.118 1.254l.238.576c-.95.763-2.881.305-4.576.797.051-.255.509-.306.848-.255-2.39-.796-4.05 2.085-6.152 1.593-.406.34-.762.34-1.118.288.05 0 .085-.034.102-.067a1 1 0 0 0-.187.033c-.237-.05-.474-.118-.728-.152.237.085.44.17.627.17-.356.101-.865.321-1.356.61l-.39-.577s-.068.034-.119.051c-.576-.102-.338.407.068.813-.237.17-.457.356-.593.56-.678-.915-1.288.694-2.152-.238-.22.627-2.525 1.085-2.559 2.288-.068-.136-.27-.152.068-.254-.78.068-1.694.17-2.203.644-.271-.22-.542-.424-.847-.644-.407.491-.712.949-.915 1.39-1.407-.153-2.322-.22-1.746-1.034-.288.22-.525.406-.61.508.305 1.068.373 1.491.492 1.966.118.474.27 1.034.745 2.05l-.559-.254c.068.864.864 2.118.458 2.542-.932 1.372.254 6.507-.492 9.93.78-.322.61-.102.44.712-.169.728-.389 1.745.221 1.626-.356.407-.508 1.254-.881.509.254 1.288.186 2.372.17 3.372 0 .966.067 1.847.61 2.203-.34.729-.543 0-.746.525.085.153.356.526.17 1.085-.187.559-.323-.034-.492-.34.254 3.051 1.322 1.61 2.305.153-.39 1.932-.289 2.593.39 2.068-.289 1.033-.577 2.525-.78 1.22 0 .712-.085 4.456.27 4.914.12-.068.238-.271.39-.678-.152.661.102.712.204.61.203 1.05.186 1.271.474 2.034v-.509c.712-1.423.306.475.56 1.05l-.051.12c.034 1.423.135 1.423.203 1.558.085.085.102.289.22 1.458l.136-.593c.17-.424.17.101.203.745.034.661.119 1.34.238 1.797.05-.102.101-.187.152-.288-.05.067-.102.135-.152.22v-.085.05c.135-.321.322-.61.508-.626.186-.05.39.17.525.136.068.033-.101.237-.186.355.796.102.102-.677.66-1.525.12.373-.118 1.254.289 1.102.101.152.39-.407.695-1.153.305-.711.644-1.643.949-1.033-.153-.61-.288-1.068-.034-1.966.152-.339.39-.22.627-.034.237.17.491.39.66-.152q.18-.713.255-1.83c.085.05.118.203.152.423.39-1.915 1.254-4.88 1.237-6.626.593 1.661 1.203-.813 1.593-2.762.407-2 .644-3.592 1.407-2.626l1.203-3.66.152.203c.238-.542.424-1.102.526-1.457.067-.288.084-.543.084-.763 0-.458-.152-.813-.288-1.17.254-.304.356.018.44.086 1.204-2.119 1.204-2.373.916-4.61l.695.034s0-.237.05-.339c.034-.084.12-.186.204-.288.17-.22.407-.44.61-.66.305-.035.576-.069.813-.153.119-.051.237-.102.34-.187.203-.118.44-.27.643-.44 0 .085 0 .22-.136.373 2.186-1.695 6.592-.543 6.61-3.186l1.406-1.186c-2.186.644-.068-1.119-1.085-1.153.78-.457 2.407-.135 1.44.373l-.203-.05c.085 1.338 2.78-.594 3.034.237 4.134-1.661 8.422-2.576 12.336-4.016l-.814-.746 1.373-.475c.44.085.763.543-.22.882.712.322 1.457-1.068 1.406-1.271 2.034-.356-.322 1.372.271 1.169l.763-.373-.22-.034c.491-.627.39-1.05 1.576-1.457.813-.102.593.424.898.356.017.067.135.05.457-.153l1.746-.576-.966-.474c.61-.661 1.627-.577.508-1.102 1.644.83 6.558-2 7.405-1.88.848-.95 1.898-1.34 3.22-1.78-.373-.034-.898-.78.271-1.102.254 1.848 2.339-.05 3.711.814-1.118-.492 3.101-1.424 1.39-2.085.983-.22.305.61 1.169.746 1.966-1.508 5.067-1.457 7.727-2.745-.051-.237-.627-.407-.169-.966l1.881.56c.508-.323 0-1.475 1.288-1.085-.221-.136-.526-.34-.187-.543 5.796-1 10.642-5.134 16.895-5.219-.898-.152-.424-.373.135-.61-.406.034-.203-.559-.389-.83l2.609-.051c.102-1 2.424-1 2.356-1.898l-.661.424c.593-1.322-2.152-1.576-2.491-2.847-.661 1.491-3.457-.492-4.626 1.728-.492-.101.186-.525-.136-.711-.254.694-.745 1.016-1.847 1.169l.068-.17c-2.779 1.22-4.186 1.17-7.473 2.05l.457.51c-.711.186-.932.05-1.304.016-.424 1.203 1.931-.695 1.609.593-1.372-.864-4.812 1.83-5.947.695-1.051.39.576.576-.475.966l-.424-.271-.084.593c-.712.186-1.237-.153-1.39-.458.187-.034.441-.27.61-.372-1.067-.102-2.457 1.118-2.813 1.101l1.102-.153c-2.729 1.458-6.406 2.305-8.863 4.135l.322.204c-1.915 1.338-1.813.338-4.033 1.474l.05-.102c-.355.458-.914.847-1.558 1.05.457-.558-1.356-.22-.729-.88-2.067 1.44-.966.88-2.067 2.508l-.525-.34c-.356.628-.305.865-1.424 1.424.797-.763-1.017-.424-.152-1.373-2.83-.084-3.203 2.424-4.898 1.356-.61 1.729 2.373-.085 1.864.424.678.22-.542 1.322-1.355 1.491-.78.271-1.966-1.152-3.898-.373.204-.068.17-.17.373-.237-.864-.05-1.254 1-2.355.813-.204.983-1.187.407-.932 1.458l1.694-.915c-.915.66-1.406 2.186-3.304 2.27.05-.254.44-.711.728-.983-.61-.101-.864.56-1.49.458-.238-1.05 2.084-1.05 2.88-2.237-.695-.22-1.78 1.525-1.644.22-.254 1.678-1.982.577-2.897 2.136l-.153-.627c-.17.17-.491.627-.881.762l.39-1.05c-.814 1.084-2.288.22-3.17.965 2.136-.847.763.543 1.831.627-2.338 1.83-2.135-.982-4.982.458.373-.237 1.644-.22 1.118.305-.61.102-1.44.152-1.915-.034-1.914.881.543.508-.152 1.186-.949-.474-.847.678-1.627 1.237l-.237-.61c-2.39.475-.102 1.508-2.305 1.813l.526-1.169-.966.627-.051-.78c-.949.95-1.356.967-2.542 1.204.424.322.288 1.169-.695 1.559-.813-.102.153-.729-1.22-.102.17-.508.34-1.118 1.153-.796 0-.22.17-.509.152-.729-.881-.136-1.864.61-2.372.813.203-.05.457-.118.61-.067L52.9 31.942c-.406-.101-.22-.39-.05-.66-.39.22-.56.61-1.153.898-.034-.56-.271-1.051.492-1.627l-1.729 1.305c-.102-.085-.407-.136-.678-.204-.203-.084-.644-.067-.423-.27-1.187.27-2.44 1.118-3.61 1.863-.237 1.271-.491 2.423-1.05 3.44.017.085.033.204.033.356 0 .136-.016.288-.033.491-.594 1.305-1.644 2.288-1.542 4.135l-1.22.593c-.255 1.322 1.575-.83 1.152 1.39-.068.407-.153.627-.22.61-.085.034-.204 0-.322-.051-.255-.119-.56-.271-.712-.271.186.186.44.56.525.932.085.373 0 .78-.356.627-.068-.356.085-.34.085-.542zm-2.101 7.066c.102-.678.288-2.423.22-1.118-.237 2.847-.203 1.728-.22 1.118m-2.83-3.728c.203-.102.119.271-.085.949-.068-.153-.05-.458.085-.949m44.008-34.315v.034c-.78-.068-.509-.034 0-.034m1.508-.101c.118-.119.084-.204 0-.288-.051.186-.373.288-.746.322.153.135.356.203.746-.051zM81.149 26.52l-.321-.051c.542-.407.423-.186.322.05"/><path d="M38.04 48.65a32 32 0 0 1-.305.73c.102-.12.22-.373.305-.73m6.609-11.963.034-.085s-.051-.101-.085-.135l.05.203zM61.883 24.91c-.323 0-.509-.085-.645-.186.017.152.187.254.645.186m28.044-14.15-.88.407c.44-.152.626-.05.88 0-.05-.136-.288-.305 0-.39zm8.965 1.848c.118-.12.288-.085.39-.204l-.12-.288c-.559.17-.897.508-.287.475zm-7.575.033c.203.509.746.187 1.356-.084-.034 0-.068.034-.12.034 0-.797-.626-.373-1.236.05m1.491-.135c.186-.085.39-.136.593-.17 0-.322-.254 0-.593.17m-8.456.474c.34.051 0-.728.237-.559.17-.762-1.813 1.339-.237.56m7.948 1.27-.407-.593-.22.627zm-5.203.848 1.068-.085c-.05-.102.068-.204.22-.288-.644.135-1.355.186-1.288.372m1.288-.389c.34-.068.644-.17.797-.322-.17.05-.56.17-.797.322m2.559.118-.339-.067-.745.135zm-14.895 3-1.068.474c-.05.254.288.322.678.119.22-.22.627-.424.39-.593m3.847.915c-.34-.051-.39-.204-.627-.373l.169.83.44-.457zm-3.203 1.034c-.051.254-1.457 1.067-.051.643.05-.254 1.118-.728.05-.643M59.56 23.13l.289-.084-.39-1.322zm-14.013 7.05c1.406-.017.102-.898 1.406-.813.238-.39-1.067-.068-.813-.424-.712.542-1.186.457-.593 1.237m.576-1.237a3 3 0 0 0 .356-.305 1.5 1.5 0 0 0-.356.305m85.423-21.182.915-.05-.695-.221zm1.203-1.559.508.746.204-.932c-.17.101-.509.322-.712.186M40.446 45.397l-.101.915c-.102.966-.102 1-.085 1.068zm.576.339h-.017l.272 1.576zm-.152-2.576c-.119.272-.034.17-.017.22.034.018.05.051.034.051-.05-.05.152.034.254.051.136-.05.22-.237-.288-.322zm9.337-3.982c-.288.051 0 .542 0 .661.407-.288-.068-.796 0-.66m3.965-2.899v.238l.44-.78zm4.135-1.592c-.746-.746-1.44.728-2.305.694l-.203-.152-.05.847c.846-.457 1.83-1.39 2.558-1.39m2.965 1.102c-.27-.305.356-.491-.559.085.068.017.085.034.136.05.085-.033.203-.084.423-.135m-.423.136c-.424.186.407.186 0 0m1.931-.983-.457.542c.203.17.729 0 .593.237.526-.406.322-.559-.152-.762zm.289-.864-.255.254c.085.068.17.068.255-.255m-.779.763.524-.525c-.135-.119-.254-.407-.254.22-.05-.288-.085.017-.27.305m-.408 0c-.39-.068-.864-.034-.406-.576-1.05.542-.644 1.118.406.576m-3.728-1.17-.525-.1-.254.44c.136-.22.932-.068.78-.356zm8.372.357c-.034-.204-.39-.44-.526-.661l-.339.39c.271.05.729 0 .864.288zM66 33.366l.509-.576c-.577.186-.627.373-.509.576m-3.22-.339-.779 1.101.983-1.186zm6.186.085-.187.593.373-.915zm1.576-.695c-.119.474.61.474.406.813.407-.237.661-.694.882-1.101-.289.305-.695.407-1.305.288zm1.694-.915c-.135.152-.271.39-.407.627.153-.153.289-.356.407-.627m-4.609.966c.102.101.305.372.712.355l-.458-.44s-.17.05-.254.085m.237-.102a3.5 3.5 0 0 0 .542-.17 16 16 0 0 0-.559.17zm-.304.119h.067s-.068-.085-.068 0m-2.931.389c.254-.44.915-1.067-.017-1.237-.119.475.406.577.017 1.237m2.355-.949-.729.136c.068.136.271.305.136.525l.576-.66zm.271-.288-.271.288.271-.05zm3.644-.203c.203-.356.508-.491.864-.66-.424.05-.848.135-1.22.287 0 .187-.034.56.372.373zm-1.492.406.051-.05s-.102-.034-.05.05m5.879-2.44-.084-.067.017.101zm-4.863 1.577c-.322 0-.457.203-.56.44a3.5 3.5 0 0 1 .662-.356c0-.084-.017-.135-.102-.068zm2.711-.119a3.5 3.5 0 0 0-.61-.102c.22.119.61.271.61.102m-3.524 1.034-.034.034c.135.084.101.033.034-.034"/><path d="M69.61 31.892c.118-.136.186-.322.254-.475-.153.119-.305.237-.407.373a.5.5 0 0 1 .153.119zm5.405-6.372c.136.525-.44 1.27-1.305 1-.508.627.56 2.101 1.475 2.813-.068-.22-.136-.424.406-.983-.338-.187-1.728-.068-1.338-.746.78-.593.796-.101 1.322 0-.61-.491.762-1.338.22-2.186l-.644.627c-.068-.135.118-.474-.136-.525m-1.101 4.253-.254.17c.339-.034.644.084 1.203.305.356-.424.39-.644.356-.814l-1.373.458zm-1.491.644c0-.627.576-1.118-.051-1.542-.797.356-.39.678-.78 1.102 1.237-.644-.254.44.797.39a3 3 0 0 1-.644.406c.254-.017.508-.034.762 0h-.05v-.017s-.12-.084-.034-.068l.017-.016c-.017-.085-.017-.153-.017-.22.423-.035.118.118.017.22v.084l1.186-.796c-.305.034-.644.186-1.237.474zm-7.575-.22s.068.068.085.119c.05-.102.067-.153-.085-.119"/><path d="M65.509 30.316c-.068.118-.068.356-.39.423-.322-.067-.102-.254-.186-.44-.136.22-.492.644.186.678l.068-.102c.593 0 1.525.407 1.474.508-.339-.423-.61-.728-1.152-1.067m3.44-.102.983-.678-.73-.254.136.271c-.66.119-.39.424-.39.678zm6.575-.594.067.645.322-1.068zm1.372-.61.136.526.254-.44zm41.89-8.252-.221.407c.136-.186.204-.322.221-.407m2.999-2.694-.339-.05c.102.1.203.152.339.05m-12.709-1.559c.017.525-.322 1.491 0 .729l.254-.729c-.152.17-.203.119-.237 0zm22.605-11.828.17-.136s0-.05.017-.067c-.356.203-.678.39-1 .576.39-.204 1.118-.627.813-.39zm.848-.288c-.119.135-.255.271-.407.424.135-.12.271-.255.407-.424m-25.046 27.519.102.712c.457-.423.05-.457-.102-.712M91.215 23.25c.475.067.83.033 1.119-.052-.61-.135-1.17-.457-1.119.051m20.25-4.27s.203.119.373.136c-.051-.085-.17-.136-.373-.136M93.503 22.74c-.085-.033-.17-.033-.254-.05-.254.203-.526.39-.898.491.44.102.915.085 1.152-.44M64.34 46.566s-.051-.067-.068-.101c-.034.067 0 .084.068.101M53.63 35.467c.136.017.356.119.56.186-.086-.084-.238-.152-.56-.186m29.01-8.405c-.287.152-.016.085 0 0m-2.287-1.61a.38.38 0 0 0 0-.305.6.6 0 0 1 0 .305m14.794-7.269h.033c-.135-.085-.101-.068-.033 0m-13.048 8.811c.135.017.288.034.44 0a1.2 1.2 0 0 0-.44 0m.169.238c-.119.017-.203.034-.288.05 0 .102.05.153.288-.05"/><path d="M83.047 26.876a2 2 0 0 1-.508.135c.068 0 .102.034.102.068.084-.034.203-.102.406-.186zm6.287 18.809h-.085c-.067.39 0 .271.085 0M122.92 4.61l-.101.067h.034l.067-.085zm2.508-1.441c-2.186 1.627-2.338 1.593-2.592 1.525-.848.932-1.729 1.88-2.661 2.847a200 200 0 0 1 5.253-4.372"/><path d="m112.77 26.469.949-.153c-.136 1.305-.847 1.56.203 1.593-.576-.711-.034-1.287.509-1.847.152-.152.288-.305.423-.457.221-.238.424-.475.576-.695.288-.458.356-.83 0-1.135l.983-.373c-.203.17-.135.254-.339.406 2.152-.762-.288-1.542 1.407-2.728.678-.423 1.389-.711 1.288-.322q.33-.61.61-1.169c.389-.305.762-.203.356.119l1.626-1.678h.068c-.186-.22-.373-.66-.44-.83.881-.44.118.152.627 0 .067-.255.101-.509.135-.729 1.271-.508 1.305.068.475.746 2.033-.61 2.118-.848 2.101-1.119 0-.288-.153-.576 2.016-1.813l-.576.83c2.728-1.084 2.864-1.711 5.609-3.338-.542.271-2.118 1.136-3.423 1.763-1.322.627-2.389 1-2.321.627.593-.356 1.186-.797.932-1.085 1.474-.458 1.728-.915 2.389-1.559l2.033-.678c.289-.593-.898-.119-1.406-.186.457-.373 1.051-.729 1.728-1.102.729-.373 1.678-.796 2.525-1.169.136-.288-.508.05-1.288.44-.779.39-1.711.814-1.796.577.983-.78.136-.712-.525-.898.745-.577 1-.356 1.525-.678l-1.169.237c.068-.085.44-.22.627-.288-.356-.05-1.559.61-1.644.339-.746.254.051-.22.712-.695.694-.474 1.186-.932.728-.932.356-.254.577-.203 1-.407-.271-.152-.288-.254-.373-.322-.067-.067-.186-.118-.288-.27.288-.238.543-.475.763-.695-.678.559-.847.305-.458-.136-1.304.847-2.44 1.576-3.05 1.966a23 23 0 0 0-1.254.525c.729-.474 2.017-1.237 3.491-2.101-.271.152-.542.305-.78.423.509-.339.949-.61 1.39-.898.237-.152.474-.305.729-.457l.152-.085s-.017.068-.051.119c-.152.118-.305.254-.474.372-.034.119.102.153.373 0a.3.3 0 0 1 .067-.186q.025.026.102 0c.051-.034.017-.068.034-.152l.407-.305h-.085l.254-.34c-.169 0-.339-.016-.474-.05-.882.17-2.491 1.067-4.66 2.084 1.033-.678 1.084-.881 1.847-1.542-.221.305.135.17.559 0s.864-.322 1.118-.305c-.271 0 .051-.22.187-.271a12 12 0 0 0-1.559.525c.576-.474.203-.339.22-.559-1.034 1.05-1.678.847-2.66 1.373.525-.492 1.203-.983 1.575-.916.272-.474-.305-.101-1.033.39-.695.475-1.525 1.05-1.271.61.169-.05.152.017.508-.254-.898.56-1.305.339-.474-.254l.152-.034c-.61-.102-2.372.17-4.914 2.237a4 4 0 0 0-.39.305 14 14 0 0 1 .678-.576c.932-.797 2.559-2.203 2.966-2.542l-.78.593c-3.575 2.66-6.676 5.134-9.269 7.405.932-.898 2.254-2.304 3.525-3.626 1.287-1.339 2.592-2.627 3.931-3.44-.203-.068-.576-.102-2.152.881.135.102-1.542 2.135-2.067 2.423.372-.728.372-.898.338-1.016-.05-.12-.118-.204-.254-.661.187.152-2.389 2.813-2.864 2.948.373-.39 1.763-2.321 2.237-2.677a86 86 0 0 0-3.406 2.948c.661-.542 1.39-1.915 1.339-2.355-.068.339-1.661.61-2.288 1.017.187.05.373.101.543.17-.966.253-1.831 1.168-2.542 2.033-.729.88-1.305 1.711-2.034 1.948.22-.423 1.068-2.49.034-2.287a31 31 0 0 0-1.423 2.948c-.492 1.17-.746 2.237-1.017 2.66l-.39-.321-.779.847c.101-.66.305-1.728.644-2.813.372-1.101 1.186-2.338 1.914-3.118-.813-.068-.237-.474-1.508.068-.542-.237.627-.932 1.051-1.119l-3.22.95c.407.813-1.101 1.406-.762 2.084l.847-.83c.153-.136.254-.272.441-.424l.745-.543c.204.407-.186 1.254-.474 1.915s-.797 1.271-1.491 1.44c-.475-.203-.339-1.61-.475-1.88-.051.356-1.034 1.05-1.237.88l.39-.677c-.864-.034-.763 1.593-1.966 1.118-.322.068-1.339-.745-1.186-.22.881.78 2.135 3.745 2.084 4.592-.135-.017-1.965-.305-2.49-.644-.797-.559.05-2.1-.628-2.592.068.237-.102.627-.17.762-.389-.067-.152-.762-.796-.39.22.916-1.44.475-.05.865-.594.508-.797.101-1.576.457.474.458 0 2.17-.577 2.678-.05-.238-.305-.458-.44-.56-1.424.458-2.339.356-3.643.865-.204-.17-.933-.17-.797-.644-.135.22-.186.576-.576.762-1.068-.44.847-.457-.085-1.135.136.525-.78 1.101-1.22 1.627.475.712 1.39-.356 1.83-.898.407 1.067-.152 2.575-1.322 3.592-.982.678-.728-.508-.864-.288-2.101.593-1.017 2.542-3 2.423-.931-.423-.558-1.338-.897-1.779.78-.593 1.525-.085 2.118-.356l-.864-.034c.186-.339.712-.728 1.118-.66-.796-.39-3.49 1.22-5.27 1.253-.186.34-.576.763-.254.95l.457-.289c.661.373-.644 1.119.085 1.136-.525.643-1.033 1.542-2.084 1.592l-.475-.711c.102.22.797.22.966-.119-.254.491-1.847-.491-1.88.695l.864.288c-.526.644-1.034 1.796-1.95 1.864.679.627.153-.17 1.102.508-.949-.915 2.152-.78.864-1.626 1 .813 1.22.033 2.356.61-.119-.255-.475-.373.271-.526a.9.9 0 0 1 .068-.288h.05-.05s0-.068-.017-.017c-.204-.05-.39-.135-.508-.254.118-.729 1.237-1.135 1.49-1.576.458-.034-.067.356.272.542l.39-.677c.27.542 1.457.525.61 1.22l.88-.322c.645.118 1.407-.034 1.746-.44.458-.035.797-1.035.61-.458l1.237-.882.068.136c1.39-.458 2.44-2.017 4.389-1.593.407-.322.813-.678 1.627-.813l.339.44c.525-.406 1.948-.186 2.016-.796 1.153 1.084 2.966-.814 4.084-.983l-.203-.66c.728-.238 1.338-.679 2.118-1.289l-.271-.542c.576-.763 2.118-.356 3.287-.881 0 .254-.322.305-.593.254.492.186.898.136 1.254 0 .186-.085.356-.186.525-.305s.356-.271.356-.356c.17-.39.593-.915.864-.474.153-.305.272-.271.339-.119 0 0-.034.017-.034.05h.051c.034.102.051.221.085.323 0-.153-.017-.288-.051-.322.102-.051.288-.203.526-.458l-.238.797.034-.034c0 .271.288-.44.441-1.034.152-.17.305-.373.491-.61-.237.661-.085.508.102.34.186-.153.407-.323 0 .44.593-.814 1.237-.915 2.864-2.78-.187.238-.204.323-.339.39.118.102.169.22.915-.423l-1.136 1.338a65 65 0 0 1 2.373-2.118c-.441.712-.949 1.22-2.322 2.44 1.102-.915 1.508-1.203 1.813-1.406.322-.22.543-.373 1.644-1.203.119-.085.271-.22.458-.356l-1.186 1.034c.254-.119 2.372-1.712 1.508-.899-.915.899-.407.746.254.509.627-.22 1.508-.542.322.424 2.779-1.915 2.287-1.543 1.644-1.051-.644.491-1.509 1.101.915-.492-1.373.932-2.085 1.44-3.525 2.339.966-.576.576-.254.441-.136-.119.119.05.034 2.524-1.474-1.694 1.068-2.389 1.491-3.44 2.152.373-.237 1.576-.966.627-.356-.881.543-1.406.864-2.236 1.373.254-.136 1.423-.83 3.118-1.864 2.186-1.339 4.88-2.982 7.54-4.61-2.66 1.746-2.406 1.594.424-.016-1.678 1.05-3.406 2.135-3.626 2.152-.475.373-3.254 2.27.169.322-.949.559-.542.407-.22.254-.695.56-1.017.746-1.203 1.034l.644-.39c3.558-1.83.372-.017.406.118l-.356.17c-1.762 1.085-1.525 1-1.372.983.152-.034.22 0-1.542 1.017l2.016-.966c2.085-.95 1.17-.407-.034.27-1.22.696-2.677 1.441-2.219 1.39l1.203-.593c.271-.068-.068.136-.678.44-1.695.848-5.185 2.288-5.575 2.458-.322.135-.424.119-.593.152-2.339 1.017 2.033-.694 2.084-.474-1.101.39-2.61.796-2.965 1-.441.152.271 0 .711.017.458 0 .61.186-.322.44.678-.135 1.441-.356 1.678-.22-.068.152-.864.424-1.373.61-.525.186-.779.305-.169.508-.17.017-.305.017-.424 0 .17.238-.186.814.221 1.271-1.254-.372-1.271 0-1.475.593-.389.763-.813 1.576-1.491.797l-1.322 1.355-.101-.186c-.983.712-.966 1.356-.932 2.017-.305.084-.288-.204-.339-.288-1.576.88-1.644 1.05-2.051 2.813l-.559-.39c-.034.559-2.593.932-3.338 2.677-.034-.068-.102-.186-.068-.356-.898 1.898-4.694 1.746-3.558 4.033l-.543 1.305c1.356-.983.525.95 1.305.797-.39.542-1.745.593-1.237-.051h.17c-.645-1.136-1.83 1.05-2.373.39-2.372 2.236-5.185 3.863-7.473 5.88l.932.491-.83.678c-.356.017-.797-.322-.204-.797-.677-.152-.627 1.204-.491 1.373-1.373.712-.356-1.254-.695-.949l-.407.474h.187c-.102.627.152.983-.542 1.56-.56.237-.627-.255-.83-.136-.052-.05-.12-.034-.272.22l-1.05.848.932.22c-.187.678-.966.813.101 1.05-.559-.067-.983.034-1.322.22-.355.204-.694.526-1 .831-.457-.17-.847-.322-.931-.525-.526.39-1 .17-2-.34.17.255-.05 1.12-.813.679 1.017-1.542-1.17-1.356-1.288-2.847.237 1.05-2.373-.797-1.949.728-.61-.423.237-.643-.118-1.254-1.881-.05-3.356-1.948-5.423-2.592-.119.203.068.678-.508.83l-.577-1.542c-.44-.068-.898 1.102-1.287.034.017.22.05.576-.238.525-3.423-2.745-8.303-2.559-11.37-6.27.356.661-.017.543-.44.39.22.22-.238.543-.323.864l-1.288-1.542c-.66.695-1.796-.711-2.304 0l.576.085c-1.102.627.085 2.491-.542 3.627 1.237-.712 1.372 2.457 3.304 1.49.17.373-.407.289-.373.628.543-.373.983-.305 1.61.237l-.135.085c2.084.762 2.745 1.643 4.88 2.965l.085-.66c.457.287.474.525.644.762.949-.644-1.356-.644-.424-1.407.136 1.475 3.457 1.509 3.304 3.067.746.34.068-.779.83-.44l.034.457.39-.39c.458.289.509.865.39 1.187-.102-.085-.373-.068-.525-.085.457.712 1.88.627 2.033.864l-.627-.542c2.203.542 4.508 2.118 6.83 2.237l-.035-.339c1.746.136 1.085.83 2.864 1.322l-.085.034a1.86 1.86 0 0 1 1.407.152c-.56.136.525.983-.186 1.102.49.033.796.05 1.016.067.288.034.44 0 .56-.034.237-.101.44-.27 1.253-.542l.255.661c.542-.254.593-.508 1.576-.22-.848.102.796 1.186-.204 1.372.373.34.746.594 1.068.78.813-.576 1.355-1.457 1.78-2.05.44-.61.779-.932 1.626-.78.05-1.915-2.152.915-1.796.203-.56-.101.17-1.559.728-1.898.542-.457 1.983.593 3.118-.457-.118.102-.05.186-.17.288.662-.119.51-1.118 1.407-1.152-.27-.882.712-.577.068-1.44l-.864 1.135c.406-.746.102-2.17 1.491-2.61.068.237-.034.695-.119 1 .492-.017.407-.661.915-.678.644.864-1.101 1.322-1.186 2.508.61.05.661-1.66 1.136-.508-.543-1.509 1.237-.882 1.254-2.407l.39.526c.05-.187.101-.644.338-.83l.153.982c.135-1.084 1.61-.627 1.948-1.457-1.236 1.152-.796-.322-1.643-.187.949-2.033 2.016.441 3.525-1.355-.17.27-1.136.508-.966-.034.423-.203 1.016-.407 1.44-.339 1.05-1.135-.627-.322-.407-1.068.915.22.34-.745.678-1.39l.44.475c1.577-.88-.576-1.321.933-2.016l.118 1.118.458-.728.373.66c.288-1.016.593-1.101 1.389-1.542-.457-.203-.712-.949-.152-1.49.661-.069.203.66.949-.153.084.474.237 1.033-.526.915.102.186.102.474.204.66.728-.05 1.135-.898 1.423-1.169-.135.085-.288.187-.424.187l.577-1.746c.355 0 .338.288.322.577.186-.272.152-.644.474-1 .271.474.661.864.322 1.508l.729-1.457c.237.101.999-.051.999.22.831-.339.831-2.152 1.949-2.61-.034-.118 0-.27.119-.491.864-.627 1.982-.763 2.423-2.152l1.169.22c.576-.813-1.525-.237-.559-1.61.644-1 .864.305 1.339.237.101-.745.169-2.135 1.474-2.27-.136.372-.441.457-.627.728zM125.598 14.2c.034.153.305.475-.661.848-1.169.05-.254-.288.661-.848m6.914-10.472c.118-.034.22-.068.338-.085-.05.051-.118.119-.186.204.051-.051.102-.119.153-.17-.102.034-.204.051-.305.068zM85.742 25.3v-.034c.593.05.373.017 0 .034m-1.119.118c-.067.119-.034.204.051.271 0-.186.237-.288.509-.338-.136-.136-.305-.187-.56.067m-.78 19.301h.272c-.22.44-.237.22-.271 0"/><path d="M132.427 4.423s-.136.102-.203.135c0 .034.084 0 .203-.135m-24.961 27.35h-.034s.034.102.051.136v-.136zm-9.218-17.556a.88.88 0 0 1 .525.153c-.05-.153-.186-.237-.525-.153M79.675 28.536l.593-.406c-.305.152-.457.067-.66.017.067.135.27.288.067.39m-7.083-1.61c-.068.118-.203.084-.254.203l.136.271c.39-.17.593-.508.118-.474m5.694-.187c-.254-.491-.593-.17-1 .102.034 0 .05-.034.085-.034.135.762.542.339.915-.085zm-1.102.17a1 1 0 0 1-.406.169c.05.305.186 0 .406-.17m6.287-.643c-.271-.051.119.711-.085.542 0 .745 1.119-1.339.085-.542m-6.202-1.068.407.56.05-.61zm3.745-.932-.796.102c.05.101 0 .203-.102.288.457-.153.983-.22.898-.39m-.898.407c-.237.085-.458.17-.542.322.118-.051.39-.187.542-.322m-1.932-.051.254.05.543-.152zm10.659-3.237.712-.491c0-.254-.272-.305-.526-.102-.135.22-.39.424-.186.576zm-3.05-.813c.27.05.339.186.542.339l-.271-.797-.254.441zm2.22-1.068c0-.254.898-1.067-.085-.627 0 .255-.712.73.085.627m12.285-3.609-.203.085.542 1.287zm12.336-8.303c-1.474.203-.711 1.186-1.931 1.22-.424.508.982-.017.542.457.983-.745 1.389-.694 1.389-1.677m-1.406 1.678a5 5 0 0 0-.491.423 2.3 2.3 0 0 0 .491-.424M51.749 33.84l-.474-.508.203.593zm-1.542.458.203-.864-.677.576c.152.017.44.068.457.288zm81.61-23.368-.424.102c-.678.305-.915.508-1.406.898zm-13.048 11.015.22-.187-1.237.05zm-6.507 7.303c.237-.17.389-.542.627-.729-.39.543-1.356.051-.627.73M131.478.678c.39-.051.119-.56.152-.678-.61.288-.101.813-.152.678m-6.05 2.897.051-.254-.779.797zm-5.948 1.543c.814.796 2.119-.712 3.271-.661l.237.17.288-.882c-1.254.458-2.796 1.39-3.779 1.356zm-3.694-1.204c.288.322-.61.492.763-.084-.085-.017-.102-.034-.153-.051a5 5 0 0 1-.61.135m.61-.135c-.491-.203.627-.186 0 0m-2.847.966.746-.542c-.22-.17-.983-.034-.746-.255-.796.39-.576.56 0 .797m-.61.881.39-.254c-.102-.068-.22-.068-.39.254m1.237-.78-.83.526c.153.118.254.423.39-.22 0 .304.102 0 .44-.306m.543.017c.508.085 1.152.051.406.594 1.542-.543 1.136-1.136-.406-.594m4.711 1.305.694.119.458-.458c-.22.22-1.254.051-1.152.34m-11.151-.577c0 .22.424.458.543.695l.542-.39c-.356-.05-.983-.034-1.102-.305zm.543.695-.831.576c.831-.17.932-.373.831-.576m4.253.423 1.305-1.118-1.593 1.203zm-8.286-.237.406-.593-.745.932zm-2.288.678c.288-.474-.695-.508-.356-.847-.61.237-1.067.694-1.474 1.118.474-.305 1.034-.39 1.813-.271zm-2.525.899c.237-.153.458-.39.695-.645a2.25 2.25 0 0 0-.695.644m6.439-.881c-.101-.102-.322-.39-.864-.39l.509.475c.118-.034.237-.051.355-.085m-.339.102h-.016c-.39.067-.661.135-.78.152.102-.017.339-.068.796-.152m.441-.119s-.051 0-.085.017c.051.05.068.05.085-.017m4.033-.339c-.457.458-1.491 1.085-.271 1.271.288-.491-.407-.593.271-1.27m-3.406.914 1-.118c-.051-.136-.288-.322-.068-.543zm-.441.305.441-.305-.373.051zm-4.931.118c-.356.357-.813.492-1.321.662a8.2 8.2 0 0 0 1.711-.271c.034-.204.186-.577-.407-.407zm2.102-.372-.085.05s.118.035.085-.05m-8.507 2.355.118.085-.016-.101zm6.931-1.508c.44 0 .66-.203.847-.44a7 7 0 0 1-.966.356c0 .084 0 .135.119.084m-3.661.068c.255.068.526.102.797.119-.254-.119-.763-.288-.797-.119m4.982-.983.051-.034c-.169-.084-.135-.034-.051.034"/><path d="M103.619 7.71c-.186.136-.322.322-.457.492.237-.102.457-.238.644-.373-.068-.034-.136-.068-.187-.119m-8.862 6.423c-.068-.543.915-1.305 2-1 .83-.627-.22-2.186-1.288-2.932.033.237.084.44-.797 1 .407.203 2.305.119 1.61.796-1.203.594-1.085.085-1.78-.034.695.509-1.372 1.356-.847 2.237l1.034-.627c.05.136-.288.492.068.543zm2.559-4.339.372-.169c-.474.034-.847-.102-1.542-.356-.593.424-.677.644-.677.83l1.965-.423zm2.152-.626c-.153.643-1.05 1.135-.305 1.592 1.152-.338.694-.677 1.321-1.101-1.83.627.458-.458-.982-.424.339-.186.66-.305.965-.406-.355.017-.694.017-1.033 0h.05v.017c.102.05.136.101.035.084l-.034.017c0 .085 0 .153-.034.237-.576.017-.119-.118.034-.237v-.084l-1.797.796c.424-.017.915-.17 1.763-.458zm10.116.406s-.085-.068-.101-.118c-.102.101-.136.152.101.118m-.864-.152c.119-.119.169-.373.627-.424.424.068.068.271.136.458.22-.22.83-.644-.085-.712l-.119.119c-.796 0-1.949-.458-1.847-.56.356.458.644.763 1.271 1.136zm-4.643.034-1.491.677.915.289-.119-.289c.915-.118.627-.423.678-.677zm-8.964.44.067-.644-.694 1.068zm-2 .594-.05-.526-.458.44zm-73.561 1.118.695-.22c-.339.084-.559.152-.695.22m-5.541.508.17.254c.084-.152.068-.254-.17-.254m29.435 11.337c-.797-.305-1.729-.864-1.491-.305l.355.508c.44-.22.814-.254 1.153-.203zm-32.722-2.949-.237.119.745.017 1 .034-.593-.068zm-5.829.237c.152-.135.27-.27.372-.423a.9.9 0 0 0-.372.423M39.413 9.032l.491-.644c-.864.085-.458.356-.491.644m33.044 7.049c-.627-.067-1.119-.05-1.526.034.78.153 1.458.492 1.526-.034m-50.295 1.542a.36.36 0 0 0-.085-.355c-.084.101-.067.22.085.355m47.108-1.084c.12.034.221.034.34.05.39-.203.796-.389 1.321-.49-.576-.12-1.203-.102-1.66.44m37.653-13.607s.118.033.152.05c0-.084-.068-.084-.152-.05m20.216 3.982c-.187.05-.509.085-.797.118.153.034.39 0 .797-.118m-42.229 5.439c.051-.084.424-.152 0 0m2.678 1.712a.41.41 0 0 0-.102.322c0-.153.034-.254.102-.322m-21.673 7.134h-.034c.152.085.135.068.033 0m19.708-8.744c-.186-.034-.373-.034-.593-.034.102.017.288.034.593.034m-.153-.255c.153 0 .272-.033.39-.033.034-.102-.034-.153-.39.034m-1.152.339c.238-.068.475-.102.712-.119-.102 0-.136-.034-.118-.068-.12.034-.306.102-.594.187M70.931 8.032s.068.017.102.051c.424-.288.237-.22-.102-.05M32.295 31.298h.085c-.034-.017-.068-.033-.085-.05z"/><path d="M30.584 31.129c.915-.44 1.17-.254 1.711.119-.084-.627.034-1.187.034-1.797z"/><path d="m29.025 10.506-1.17-.423c1.255-1 2.255-.797 1.136-1.424.017 1.847-4.304.61-4.287 2.457l-.78-.322c.204 0 .238-.118.441-.118-.763-.373-.983 0-1.271.423-.373.458-.898.983-2.27 1-1-.05-1.882-.22-1.289-.508l-1.948.644c-.661.034-.78-.288-.085-.305l-3.287.474-.034-.05c-.17.304-.61.796-.814 1.016-1.169-.152.119-.203-.406-.39-.39.187-.73.373-1.051.543-1.525-.34-.78-.865.66-.932-2.185-.712-2.541-.56-2.863-.322-.39.254-.644.576-3.728.338l1.474-.372c-2.643-.61-3.812-.39-6.27-.44-.169.033-.39.067-.644.067.204.017.661.068 1.204.118 2.541.289 5.337.746 4.558 1.153a7.3 7.3 0 0 0-1.22 0c-.102.085-.068.237.152.491-1.372-.474-1.304-.135-1.592.17l-1.56-.56c.204.492.95.712 1.34 1.102-.628.254-1.61.034-2.39-.119-.254.305.102.288.56.322.457.034 1.016.136.677.458-.966.305-.847.796-1.508 1.288-.61.254-.136-.102-.407-.017a.55.55 0 0 1-.17.305c-.016 0-.033 0-.05.017.034.05-.034.017-.051 0 .373.305.203.05.949.491.305.068.56.271.695.56.17.287.118.66 1.101.897-.118.153-.712-.034-1.034.034.763.373 1.17.526 1.576.661.424.136.848.237 2.186.492a1.8 1.8 0 0 1-.305.593c.746-.475 2.898-.085 5.457.186.39-.186.864-.305 1.034-.373l1.83.322.711.119c-.17.085-.949.119-2.067.085.271.017.542.05.762.067-.169.271-1.508.322-3.134.22.101-.084.237-.169.39-.253l.22-.102c-1.627-.068-3.17-.119-4.22 0 .288.034.61.102.881.186a8 8 0 0 0-.898 0c-.17.034.322.068.983.136h.085c-.593.135-1.17.254-1.729.406l1.017-.033c.593.44 1.271.898 2.017 1.39 4.304.558 7.998.406 10.76.999-1.27.288-1.17.796-1.898 1.423-.085-.508-.762-.66-1.745-.83-.966-.152-2.254-.356-3.05-.746.83.407.084.56-.39.526q2.364.457 4.372.762c-.746.458.22.627.915 1.186.186-.66 1-.593 1.864-.39.847.204 2.033.645 2.457.594-.05.22-.17.424-.424.508-.186.102-.745 0-1.559-.373.34.39.729.577 1.102.627.305.017.542-.101.83-.22.542-.237 1.102-.508 1.56.136-.289-.085-.408-.22-.594-.034.796-.136 2.27.745 1.745.983l-.288-.102c1.797.83 5.61 2.101 6.287 1.118-.034.153-.729 1.22-.915 1.39l2.322-1.203c.762-.407 1.61-.78 2.118-1.288-.22.457-.203 1.356-.254 2.169-.068.813-.272 1.508-1.526 1.339.475.305 1.102.66 2.068.898.254-.102.542-.238.847-.39-.525 0-1.033-1.203-.508-1.44.712.39 1.05.44 1.39.491.169.017.39.017.626.068.204.05.492.118.915.254-.525-.085-.39-1.729.356-1.864-.05.254.44 1.474.22 1.694l1.44-1.948c-.389.39.238 1.27.764 1.576-.272-.238 1.592-.39 2.033-.661l-.864-.136c2.118-.305 1.49-2.61 3.558-3.05-.17.373-.118 2.034.966 1.949.288-.881 1.17-4.186 2.83-5.236l.458.338 1.254-.847c-.577 1.356-2.373 4.39-3.457 5.66.864.136.339.458 1.49.119.51.305-.474.78-.796.88l2.763-.44c-.356-.847 1.83-1.423 1.525-2.135l-2.678 1.678c-.339-.848 1.034-2.949 2.983-3.288.576.22.05 1.661.17 1.95.169-.374 1.66-1.052 1.88-.882l-.678.678c1.153.05 1.424-1.627 2.915-1.102.458-.05 1.61.797 1.542.254-.983-.813-1.932-3.897-1.644-4.778.17.034 2.559.356 3.186.728.932.594-.593 2.17.186 2.678-.034-.254.288-.644.424-.78.508.085 0 .797.983.424-.068-.932 2.067-.457.271-.881.915-.509 1.085-.085 2.237-.424-.526-.474.525-2.237 1.44-2.745 0 .237.305.474.44.593 2.034-.44 3.22-.322 5.101-.796.238.17 1.204.203.915.677.22-.22.39-.593.966-.762 1.322.474-1.254.457-.17 1.17-.067-.543 1.306-1.102 2.051-1.645-.457-.728-1.948.34-2.694.882-.288-1.102.847-2.644 2.677-3.66 1.492-.678.865.542 1.085.304 2.982-.559 2-2.575 4.626-2.406 1.152.458.407 1.39.746 1.847-1.204.593-2.068.051-2.915.305l1.152.051c-.339.339-1.152.746-1.66.66.966.425 4.982-1.168 7.388-1.168.339-.34.966-.763.56-.966l-.696.288c-.796-.407 1.136-1.136.17-1.17.847-.643 1.762-1.558 3.203-1.592l.457.745c-.085-.22-1-.254-1.322.102.475-.508 2.356.56 2.695-.66l-1.085-.306c.864-.66 1.83-1.813 3.084-1.88-.745-.662-.254.169-1.339-.543 1.034.966-3.067.745-1.575 1.66-1.153-.847-1.627-.067-3-.694.102.254.542.406-.508.525a1 1 0 0 1-.153.288h-.067.067s-.034.085.017.017c.271.051.492.136.61.271-.339.746-1.948 1.136-2.406 1.593-.627.034.17-.373-.22-.56l-.678.679c-.237-.576-1.83-.576-.525-1.271l-1.271.305c-.83-.136-1.881 0-2.457.407-.627.034-1.34 1.05-.932.44l-1.881.881-.051-.135c-1.966.44-3.78 2.016-6.287 1.542-.627.322-1.254.678-2.39.796l-.338-.457c-.797.39-2.678.152-2.898.78-1.27-1.136-4.186.762-5.727.914l.118.678c-1.034.22-1.966.678-3.169 1.271l.237.576c-.965.763-2.931.305-4.643.83.068-.254.509-.304.865-.254-2.407-.796-4.118 2.101-6.236 1.627-.407.339-.763.356-1.136.288a.12.12 0 0 0 .102-.068.44.44 0 0 0-.186.051c-.238-.05-.475-.118-.73-.152.238.084.459.17.628.17a7 7 0 0 0-1.39.61l-.39-.577s-.067.034-.118.05c-.593-.1-.339.408.05.814-.236.17-.457.356-.61.56-.694-.916-1.32.711-2.185-.22-.22.626-2.593 1.1-2.593 2.287-.05-.136-.237-.17.051-.254-.627.034-1.322.067-1.542.457a6 6 0 0 1-.254-.796 5.4 5.4 0 0 1-.44.796 2.7 2.7 0 0 1-.407.34c-.509-.73-.458-1.018.067-1.51-.254.17-.491.238-.83.204-.288 0-.474-.034-.66-.05-.374-.035-.713-.068-1.662.101l.271-.474c-.559-.187-1.711.152-1.897-.39-.441-.712-1.983-1.322-3.762-2.017a52 52 0 0 1-2.762-1.118c-.644-.305-.966-.56-1.187-.898-.474.66-.559.457-.61.186-.067-.254 0-.525-.745-.135.305-.288.39-.475.983-.61-.56 0-.644-.204-.746-.305-.119-.119-.288-.153-1.491-.051.61-.17 1.152-.153 1.474-.271-.186.017-.796.05-.424-.051s.695-.085 1.051-.119c-.491-.118-3.118.136-5.609.356.22-.136.305-.22.186-.288-.169-.085-.83-.119-2.203-.186.678-.119 1.407-.255 2.339-.034-.305-.17-.424-.712-3.27-.848.593 0-.306-.186-.763-.237-.695-.322-.458-.305-1.61-.644l-.305.034c-4.44-.542-1.728-.39-2.965-.729l.474.068c.203-.034.322-.067.39-.084 1.05.033.644-.051.593-.102-.068-.051.254-.068 2.406.085l-2.626-.39c-2.66-.44-1.322-.373.39-.22 1.728.152 3.694.372 3.32.152l-1.592-.22c-.475-.187 1.542.084 3.558.44 1.78.34 3.627.695 4.457.848.39.084.44.152.61.22 2.898.542-2.288-.627-2.016-.864 1.254.339 2.796.898 3.304.932.203.05.22.034.136-.017-.17-.119-.627-.39-.712-.593-.102-.204.17-.305.932-.034-.644-.288-1.424-.576-1.407-.848.238-.084 1.136.153 1.729.323.61.152.915.203.78-.34.152.085.237.17.304.255.22-.305 1.136-.593 1.576-1.237 1 2.152 5.152-1.593 5.321.457l2.593-.356-.051.22c1.678-.033 2.22-.575 2.745-1.135.39.102.136.322.119.44 2.474.187 2.694.069 4.626-1.151l.271.643c.509-.44 3.61.712 5.914-.304 0 .084-.05.22-.237.322 2.593-1.051 6.592 1.236 7.337-1.305l1.712-.78c-2.305.034.237-1.084-.746-1.406.881-.238 2.39.508 1.305.745l-.186-.101c-.288 1.304 2.88.17 2.914 1.05 4.49-.508 8.947-.22 13.167-.593l-.576-.932 1.474-.085c.407.187.593.73-.457.78.61.508 1.711-.644 1.728-.864 2.084.203-.695 1.237-.05 1.186l.846-.153-.203-.101c.661-.475.678-.898 1.932-.983.813.118.474.576.78.576 0 .068.118.085.49-.017l1.865-.102-.814-.711c.78-.458 1.746-.136.797-.932 1.39 1.237 6.948-.187 7.76.17 1.102-.679 2.238-.78 3.644-.848-.373-.136-.66-.983.56-1-.272 1.847 2.287.576 3.406 1.78-.966-.78 3.422-.543 1.931-1.644 1.034.05.136.677.932 1.016 2.339-.932 5.355-.067 8.304-.593.017-.237-.509-.559.084-.966l1.695 1.034c.576-.17.407-1.423 1.559-.712-.17-.186-.424-.457-.034-.576 5.948.593 11.811-2.118 17.945-.508-.847-.39-.322-.475.288-.56-.406-.067-.05-.592-.152-.898l2.559.644c.356-.932 2.643-.322 2.83-1.203l-.763.238c.949-1.102-1.678-2.102-1.661-3.407-1.05 1.254-3.253-1.39-4.999.424-.44-.22.322-.457.068-.729-.423.594-1 .78-2.118.627l.102-.152c-3.051.44-4.406 0-7.88 0l.322.61c-.746 0-.915-.203-1.288-.322-.745 1.05 2.084-.153 1.407 1-1.102-1.203-5.203.491-6.016-.932-1.135.101.407.711-.729.813l-.339-.373-.237.543c-.745 0-1.169-.475-1.237-.814.186.017.508-.152.695-.186-1.017-.373-2.711.423-3.05.305l1.118.135c-3.067.678-6.897.526-9.811 1.627l.254.288c-2.237.78-1.864-.152-4.338.356l.084-.085c-.474.356-1.135.56-1.813.593.593-.406-1.254-.576-.474-1.033-2.423.847-1.186.593-2.712 1.864l-.423-.458c-.508.509-.542.746-1.78 1 .983-.525-.88-.678.22-1.373-2.727-.83-3.795 1.492-5.15 0-1.068 1.509 2.355.543 1.694.916.61.39-.898 1.135-1.728 1.067-.848.051-1.593-1.627-3.712-1.406.204 0 .22-.119.424-.136-.83-.271-1.508.627-2.525.153-.457.898-1.27.067-1.322 1.152l1.915-.44c-1.067.39-1.982 1.728-3.846 1.304.118-.237.627-.56.982-.762-.559-.272-1 .305-1.576.033.051-1.084 2.339-.457 3.424-1.39-.61-.389-2.153 1-1.678-.22-.712 1.56-2.101.018-3.423 1.288l.034-.643c-.22.118-.661.474-1.068.491l.678-.898c-1.084.813-2.288-.407-3.372.085 2.322-.255.593.728 1.627 1.084-2.78 1.135-1.814-1.508-5-.898.424-.136 1.678.22 1.017.593-.626-.068-1.457-.237-1.864-.542-2.118.339.39.627-.474 1.101-.797-.711-1.017.424-1.915.763l-.068-.644c-2.457-.187-.508 1.423-2.745 1.135l.83-1-1.118.34.17-.763c-1.187.678-1.576.559-2.813.474.322.424-.051 1.203-1.119 1.322-.762-.322.356-.66-1.17-.424.306-.44.628-.982 1.357-.457.05-.22.305-.44.355-.661-.83-.373-2 .085-2.541.153.22 0 .474 0 .61.101l-2.118 1.119c-.373-.204-.12-.441.135-.661-.44.118-.729.44-1.373.559.119-.542.017-1.085.932-1.423l-2.05.796c-.17-.22-1.135-.525-.881-.746-1.203-.203-2.762 1.305-4.338 1.051-.068.119-.22.22-.543.339-1.457.017-2.812-.508-4.473.39l-1.068-.848c-1.321.34 1.44 1.068-.762 1.644-1.56.458-.678-.746-1.254-.966-.746.56-2.017 1.66-3.559 1.034.458-.22.864-.119 1.305-.237zM6.403 13.133c.186-.153.423-.61 1.542-.322.847.678-.22.406-1.542.322m4.134 8.642c-.728-.034-.982-.254-.915-.491.475.118.814.27.915.491m69.8-7.693-.035.034c-.762-.068-.491-.034.034-.034m1.524-.102c.119-.119.085-.203 0-.288-.068.186-.39.288-.762.339.152.135.356.203.762-.05m-5.795-2.05-.305-.136c.644-.254.474-.068.305.136"/><path d="M5.555 20.725c.204-.051.458-.085.712-.12-.322-.033-.576 0-.712.12M39.328 9.15h.05s.035-.084.035-.118zm21.436 16.048c-.322 0-.525-.085-.66-.17.016.153.185.255.66.17M89.283 10.93l-.88.407c.44-.153.643-.051.897 0-.05-.136-.288-.305 0-.39zm9.083 1.813c.119-.119.288-.085.407-.203l-.119-.288c-.576.169-.915.508-.288.474zm-7.676.051c.22.508.746.186 1.373-.085-.034 0-.068.034-.12.034 0-.796-.626-.373-1.253.05m1.508-.135c.187-.084.39-.152.593-.17 0-.321-.254 0-.593.17m-8.574.509c.339.05.017-.729.254-.56.17-.762-1.847 1.356-.254.56m8.049 1.253-.407-.592-.237.627zm-5.27.848 1.084-.085c-.05-.101.068-.203.22-.305-.643.153-1.39.204-1.304.39m1.305-.373c.338-.068.643-.17.813-.322-.187.051-.56.17-.814.322m2.593.085-.339-.05-.762.135zm-15.115 3.067-1.085.491c-.05.255.288.305.695.119.237-.22.627-.424.407-.593zm3.897.915c-.339-.05-.406-.203-.627-.373l.17.83zm-3.27 1.051c-.051.254-1.475 1.084-.051.644.05-.255 1.152-.746.05-.644m-17.368 3.406.288-.085-.39-1.322zm-14.269 7.117c1.424-.034.102-.915 1.424-.83.237-.39-1.085-.068-.83-.424-.73.542-1.204.474-.594 1.254m.61-1.254q.179-.127.356-.305c-.22.152-.305.237-.356.305m85.694-21.945.915.204-.61-.407zm1.61-1.186.288.848.457-.848c-.203.051-.576.17-.745 0M1.116 12.608l.39.169c.457.102.542.034.711-.102L1.1 12.607zm19.995-2.018h-.372c.322.255.627.492.898.73zm10.846-2.083c-.424 0-.882.237-1.305.237.881-.237 1.508.746 1.305-.237m15.64 30.756c-.118-.102-.288.44-.355.525.27 0 .406-.66.355-.525m2.779-.203-.135.186.559-.373zm2.102.915c.186-.983-.83-.187-1.068-.661l.034-.238-.475.644c.509.085 1.305-.135 1.526.255zm.288 2.405c.084-.372.373-.186-.22-.22v.102c.05 0 .101.034.203.119zm-.204-.1c-.237-.069.017.355 0 0m1.118.236-.423.187c-.034.237.22.39.051.491.373-.034.407-.27.373-.678m.559-.525-.203.068c0 .102 0 .152.203-.068m-.66.203.44-.135c.017-.17.135-.458-.187.034.136-.255-.034-.034-.254.101m-.119-.22c-.084-.271-.237-.474.187-.66-.61-.12-.797.541-.186.66m-.475-2.864-.102-.355-.322.22c.153-.102.322.423.424.135m2.322 4.66c.101-.186.118-.542.203-.796l-.305.119c.05.169.22.39.101.677m.203-.796.459-.186c-.272-.17-.39-.034-.458.186m-.796-1.949-.83.458.931-.424zm1.813 3.305-.373.355.61-.525zm.847.27c-.288.306-.085.695-.322.848.254.034.576-.203.864-.407-.254.085-.424-.05-.542-.457zm1.017.17c-.136.051-.288.17-.458.288.136-.034.288-.118.458-.288m-1.915-1.644c-.017.12-.102.441.017.644l.101-.593s-.084-.034-.118-.068zm.135.034c.136.102.22.153.255.17-.034-.017-.102-.068-.255-.17"/><path d="M56.443 43.11h.034s0-.068-.034 0m-1.085-1.237c.322-.22.848-.356.661-.983-.288.305-.186.66-.66.983m1.22.491-.289-.271c-.05.135-.084.373-.237.474z"/><path d="m56.816 42.28-.238.084.102.102zm1.203 1.745c.254-.17.424-.12.627-.068-.153-.187-.322-.34-.526-.424-.101.153-.322.424-.101.492m-.661-.475h.05s0-.085-.05 0m3.084 1.186v-.101l-.05.084h.033zm-2.322-1.321c-.101-.17-.254-.068-.406.05.135 0 .27 0 .39.068.05-.068.067-.119 0-.119zm.882 1.321a1.6 1.6 0 0 0-.136-.406c0 .203.034.525.136.406m-1.61-1.033h-.034c0 .152.017.084.034 0"/><path d="M57.392 43.703c.101-.051.22-.153.339-.238a.7.7 0 0 0-.322.068v.17zm5.067-2.153c-.238.475-.83.763-.932.102-.492.22-.983 1.949-1.085 2.966.102-.204.187-.407.661-.56 0-.322-.474-.949 0-1.27.56-.068.288.339.407.694.084-.694.949-.644 1.254-1.593l-.526.153c.051-.136.288-.305.237-.474zm-2.627 2.746h-.17c.12.152.153.406.187.88.339-.135.458-.304.542-.457l-.66-.373.084-.05zm-.796-.271c.338-.492.78-.577.813-1.237-.424-.136-.474.322-.83.457.711.153-.322.22.034.729-.17.034-.305 0-.424 0 .085.118.17.254.237.39v-.034c0-.085 0-.136.017-.085h.017s.085-.136.119-.187c.135.187-.034.153-.119.187l-.05.068h.796c-.102-.136-.288-.204-.627-.272zm-2.169-4.135s-.017.102-.034.136c.067-.051.101-.085.034-.136m.135.44s-.22.255-.339.136c-.068-.22.119-.254.187-.44-.153.101-.492.237-.305.626l.084-.05c.187.305.238 1.118.17 1.169.135-.509.203-.881.237-1.44zm1.102 1.729h.66l-.084-.61-.102.288c-.271-.237-.339.136-.474.322m2.287 2.965-.322.543.661-.661zm.746.238-.237.474c.101-.068.237-.136.27-.237.035-.068 0-.153-.033-.254zM40.09 70.73l-.372.424c.152-.152.27-.305.372-.423m1.695-1.085.22-.457c-.17.288-.27.491-.22.457m19.809-21.182c-.152-.203-.44-.39-.627-.474-.186-.102-.254-.102-.084.152l.39.44c.101-.203.237-.203.321-.118m-8.896 10.168.17.101c-.068-.203-.12-.39-.17-.559zm1.203 2.118-.491-.136c.135.068.305.119.491.136M29.466 78.56l-.356.423-.797.864c-.05.136-.05.17 0 .153.356-.356.695-.847 1.17-1.44zm34.636-32.248c-.339.102-.457.153-.474.187.559-.119 1.372-.322.474-.187M45.58 59.564a6 6 0 0 0-.338.66c.119-.203.237-.406.339-.66m18.25-12.981c.102-.017.153-.033.237-.05-.254 0-.44 0-.423-.034-.407.101-.678.152.186.084m-21.419-2.575s.05-.017.085-.034c-.068-.034-.085 0-.085.034m8.083-4.932s-.034.187-.068.305c.051-.034.085-.118.068-.305m13.082 4.983s.17-.102.271-.187c-.118.102-.203.17-.271.187m7.1 2.541c.22-.017.254-.034 0 0m-8.557-.915s-.085.119-.102.153a.6.6 0 0 0 .102-.153m-.238.204v-.051c-.084.068-.135.118 0 .05m.17.018s-.034-.034-.017-.068l-.068.068zM38.803 58.649s.05-.034.084-.068c-.22-.119-.203-.034-.084.067m22.69-2.762v-.034h-.034zm-.254.695c-.187-.745-.017-.762.22-.729l-1.102-1.304z"/><path d="M35.736 73.832a5 5 0 0 0-.102.695c-1.864 2.287-2.102 2.084-2.474 3.22 1.305-1.966 1.965-2.475 2.626-2.983.661-.509 1.339-1 2.356-2.796l-.034.491c-.085.034-.22.254-.322.288-.136 1.153 1.915-2.88 2.49-2.948.17.05.17.373-.236.898l1.067-1.254c.17-.068-.118.508-.288.576l1.17-.966-.051.102c.355-.576.931-1.491 1.186-1.898.101.254-.238.39-.305.712l.78-1.051c0 .576-.712 1.593-1.085 1.78-.255 1.27-.017.982.305.508.339-.475.728-1.102 1.152-.746l-.695.746c-.034 1.287.627.39 1.203.78-.05-.17-.322-.475-.423-.933-.102-.44-.034-1.017.356-1.559.135.085.372 0 .813-.728-.17.898.237.44.678.101l-.17 1.152c.56-.677.56-1.203.865-1.88.508-.238.61.508.762 1.084.915-.457-.627-.881.39-1.745.712-.085 1.22-.848 1.847-1.881.56 0 .085.576.322.711.068-.322.136-.644.186-.966.102-.05.153.17.17.289.237-.492-.288-.848.101-1.39-.355-.915 1.78.492 1.56-.66.237.135.237.474.457.728.203-1 .237-.78.203-1.898l.746.186c-.678-.339-.695-1.237-.712-2-.288-.186-.525-.355-.66-.423l.287-.763c.153.068.255.356.373.73v-.238c.373.136.542.627.678 1.118a12 12 0 0 0-.491-.305c.152.526.355 1.102.66 1.508a.54.54 0 0 1 .051-.321c.051.135.085.27.153.322.068.067.017-.136 0-.373l.66.728-.186-.338h1.068c-.017-1.136-.356-2.627.237-3.508.187.728.593 1 1.05 1.694-.711-.593-.423.746-.948.881.27-.067.44.288.474.458l.305-1.186c.356.576.44.322.797.423-.898-1.033.068-1.135.152-1.677.271.373.458.796.017.966.983.576-.339-1.695.542-1.237-.084.068-.169.05-.084.27 0-.474.694-.558.796-.152l-.085.068c.695-.271 1.864-1.237 1.322-2.254.085.119.695 1.203.78 1.424l-1.051-3.965c.458.88 2.135 2.61 1.932 3.406.22.017.491.033.61-.458-.17-.05-1.034-1.034-.95-1.186.984.66.594.322 1.56.796-.271-.085-.966-1.474-.695-1.593.085.22.864 1.271.881 1.458l-.254-1.661c0 .322.695 1.085 1.068 1.356-.22-.204.525-.322.593-.543l-.44-.135c.796-.254-.56-2.203.186-2.61.135.288.932 1.712 1.542 1.525-.136-.373-.543-1.237-1-2.033-.44-.797-.983-1.525-1.085-1.813l.475.22a4 4 0 0 0-.187-.491c.509.372 1.203 1 1.661 1.762.475.745.729 1.61.746 2.169.644 0 .491.305 1.05-.119.56.136.17.644 0 .797l1.729-.83c-.881-.509.237-1.255-.61-1.61-.136.457-.322.965-.56 1.508-.423-.271-.745-.83-.931-1.322-.17-.491-.22-.932.22-1.118.593.034 1.593.88 1.915 1.05-.204-.254.203-.847.542-.813.068.152.118.305.17.474.965-.237-.628-1.033 1.067-1.118.271-.102 2.254-.085 1.559-.271-1.847-.017-6.134-1.034-7.117-1.322.102.017 1.932-.085 2.914-.136 1.543-.05 2.576.627 3.864.594-.356-.051-.66-.238-.746-.288.526-.102 1.119.186 1.407-.136-1.407-.17 1.034-.593-1.05-.237-.035-.288.745-.271 1.185-.61-1.169.067-3.22-.305-3.473-.44.423 0 1.067-.069 1.372-.103.475-.254 1.068-.457 1.644-.694-.05-.119-.153-.255-.458-.39.373-.085.509-.322 1.424-.356-.44 0-1.136.034-1.407-.068.95-.457.797.22 2.186-.237-1.033.136-2.067-.085-2.982-.119-1.305.34.457.373 1.491.458-2.186.305-4.914.424-6.219.44-.83-.05 1.017-.372.695-.338-.593-.475-3.49.66-2.847.05.695-.491 1.78-.813 2.39-1.118.796.034.033.525.321.61l.153-.305c.457-.068 1.034-.017.881.152.339-.203-.068-.423-.56-.66-.49-.238-1.05-.492-1.185-.898-.407.084-.882.169-1.034.406l.339.034c-.39.475-1.186.373-1.186.678-.678.153-1.407.542-1.44.17l.525-.678c-.153.203-.136.474.152.338-.373.238.203-1.135-.678-.338-.034.186-.084.39-.135.576-.526.22-1.17.915-1.203.61-.305.762.101-.051-.272.83.543-1.068.34.203.966-.898-.61.949-.068.491-.711 1.254.22-.203.39-.407.39-.254.084-.051.169-.119.237-.153h.016c.034-.034.051-.034 0 0 .068-.101.17-.22.289-.322.61-.423.915-.27 1.355-.423 0 .135-.373.186-.61.406l.678-.237c-.61.39-.881.712-1.457.864l.118.085c-.322.237-.423.339-.017.237-.135.085 1.102-.254.373-.05.254-.034.526-.051.814-.068l-.238.068s.593.033.983.05c.373.017.576.119-.356.305.288 0 .627 0 .695.051a.8.8 0 0 1-.237.068l-1.102.102c.272.05-1.22.17-.22.17-1.355.05-1.508.067-1.44.1.067.035.339.12.101.12l1.034.135c-.152.05.034.152.237.356l.797.203c.423.305-.983.136-1.119.305-.22-.135-.101-.135.085-.101-.864-.255-.678-.085-.56.203.136.271.187.644-.287.356.084.203-.017.186-.153.101v-.034H61.9c-.084-.067-.186-.135-.27-.203.1.102.203.187.254.22-.051.051 0 .119-.153.39l-.44-.491-.035.034c-.305-.085.034.355.39.694a1.1 1.1 0 0 0 0 .475c-.728-.78-.254.593-1.067-.22.186.525-.644.915-.085 1.948-.085-.118-.187-.152-.085-.22-.27.017-.525.034-.525.424l-.542-.644.203 1.203c-.542-.254-.796-.424-.898-1.119-.068 1.22-.288.644-.271 1.797l-.271-.458c-.17.136-.068.932-.424.644-.983-.576-2.135 1.254-3.728 1.17 1.084 1.169-.881-.255-.254.796-.271-.271-.542-.34-.542-.729-.34.661-1.153.051-.95 1.17-.27-.272-.186-.543-.372-.678 0 .101 0 .39-.17.237-.186-.153-.101-.322-.101-.509-.526.424.067 1.424.627 2.339-.56-.237-.661-.085-.475.644-.288-.237-.66-.424-.39-.763-.22.085-1.474.356-1.016 1.102-.187-.136-.305.135-.305.237-.441.237-.593.237-.882.525l.153.068c.44.966-.153.373-.322.644l-.034-.102c-.813-.356-.17.543-.915 0l.17.678c.118.763-.085.644-.306.424s-.406-.61-.559-.187l.119.356c-.085.356-.237-.118-.305-.745s-.068-1.39-.085-1.475c0-.152.068-.27.102-.406-.068-.95-.153 1.118-.424 1.542.068-.593.305-1.61.237-1.66.034-.238-.135.304-.355.83-.22.508-.509 1-.373.372-.153.525-.271 1.034-.543 1.525-.135.17-.084-.27-.05-.542.017-.271 0-.373-.509.644a5 5 0 0 1 .187-.457c-.356.576-.848 1.152-1.576 2.355 1.017-2.034.593-1.407 0-.678-.56.729-1.237 1.56.118-.593l-.576.525.322-.474c-.034-.136-.898 1.033-1.83 2.254.153-.272.525-.746.712-1 .254-.661.203-.542-2.186 2.287l1.237-1.643c-.22.27-.237.254-.17.118.526-.813 1.864-2.626.882-1.626.135-.153.355-.39.542-.61-.644.627.322-.678.83-1.34.526-.694.644-.846-1.373 1.12-.287.22-.576.423-.847.592-.525.898-1.711 1.61-2.474 2.525-.118-.118 1.474-1.88 1.542-1.745l-.22.237c2.033-1.864 1-1.423 2.338-2.61.12-.423.526-1.084.915-1.643.39-.56.763-1.034.916-1.373l-1.271.576.186-.356c.305-.186.966-.39.864-.203.712-.305-.457-.119-.695-.085.61-.508 1.305-.203 1.39-.355l-.05-.102-.153.068c-.44 0-.915.084-.763-.187.271-.186.712-.152.763-.22.084 0 .118-.034.05-.085l.187-.288c-.288.017-.576.068-.864.102-.34-.17.186-.373-.814-.237.78-.136 1.017-.441 1.153-.78.22-.576.322-1.186.559-1.254-.39-.593-.237-1 0-1.474-.203.068-1.05-.153-.797-.542 1.644.779 1.017-.509 2.373-.424-.932 0 .237-1.288-1.102-1.22.271-.305.644.203 1.153.084-.356-1.084 1.101-1.71 1.27-2.846-.22-.102-.626-.051-.88-.39l1.321-.153c-.034-.254-1.22-.66-.305-.762-.203 0-.525-.034-.542-.203 1.83-1.661.627-4.525 3.44-5.88-.542.118-.509-.085-.458-.306-.152.102-.559-.203-.864-.288l1.152-.576c-.78-.457.288-.966-.491-1.338l.05.322c-.813-.712-2.304-.255-3.507-.746.932.796-2 .508-.695 1.745-.305.068-.339-.27-.66-.288.457.356.49.61.118.915l-.119-.084c-.254 1.118-.949 1.406-1.728 2.49l.644.136c-.17.237-.39.22-.576.288.813.627.322-.712 1.22-.068-1.356-.101-.678 1.83-2.17 1.56-.152.406.746.135.594.525l-.424-.034.458.27c-.17.238-.695.204-1.017.086.068-.051-.017-.22-.034-.288-.576.186-.203 1.016-.39 1.084l.373-.305c-.034 1.22-1.017 2.372-.627 3.711h.322c.237 1.017-.542.56-.627 1.525l-.05-.05c.22.288.27.575.152.796-.254-.34-.797.186-1.068-.237.254 1.084.288.593 1.136 1.559l-.526-.034c.356.355.577.457.543.932-.272-.509-.83.017-1.22-.576-.695.288-.526.66-.492 1.203.05.474.102.78-.813.982 1.186.797 1.186-1 1.355-.61.526-.118.864.678.61.983-.152.305-2.067.475-2.457 1.661.051-.119-.067-.102-.017-.22-.559.491.237.745-.593 1.372.864.068-.305.695.932.424l.051-.864c.102.525 1.457.491.44 1.49-.254.052-.508-.067-.643-.185-.475.39.084.39-.407.796-1.305.457.136-1.034-.61-1.407-.66.475.491.932-.797 1.051.797-.05.661.22.424.593-.22.356-.542.83.051.848l-.813.355s.39.119.288.356c-.322.051-.627.102-.932.136.694.17-1.305 1.779-1.034 2.169.474-1.373 1.17-.95 2-1.864.66.728-2.627 2.321-2.915 4.033-.034-.187.915-1.39 1.186-1.288-.322.474-.847 1.22-1.423 1.847-.271 1.135 1.05-.966 1.457-.898-1.322 1.356.271.203.492.322l-1.017.864c-1.136 1.915 2.016-1.559.813.254q-.66.457-1.27.865l.152.27-1.153 1c.627-.118.34.272-.27 1.322.83-.932 1.965-1.932 1.812-1.457-.796 1.067-.982.898-1.118 1.525-.644.593-1.44 1.288-.288-.17-.356.34-.627.526-.966.865-.932 1.254-.61 1.372-.712 1.677.085-.17.204-.39.39-.644a6.4 6.4 0 0 0 1.152-.542c-.508.678-.813.95-1.101 1.17.034.118.508-.323.491-.102-.932 1.016-1.948 2.203-2.186 2.135q.28.05.61.05c-.457.577-1.423 2.068-1.728 2.322-.847 1.457 1.135-.44.322 1.068 0 0 .017.017.017.034.237-.288.525-.593.847-.898.492-.187.085.864 2.237-1.44l-1.017 1.83c1.068-.967 1.254-2.271 2.949-3.83 1.237-1.187-.932 1.593-1.034 1.982 1.186-1.372 3.135-3.846 2.847-2.728-.474.525-.492.373-.813.678zm8.71-6.32c-.204.304-.695 1.135-.661.643.491-1.22.457-.78.66-.644m9.692-8.355c.051.237-.135.22-.39.102.068-.102.187-.153.39-.102m8.948-13.336h.05c-.22.186-.135.118-.05 0m.118-.254c-.135.05-.22.101-.322.152.204-.085.271-.085.271-.034.187-.102.288-.186.051-.135zm-18.81 10.455-.203.068c-.152-.102 0-.085.204-.068"/><path d="M53.766 60.496a1.2 1.2 0 0 1-.238-.272c.017.12.085.22.238.272M29.737 78.238l-.271.322zm43.041-29.943a3 3 0 0 1-.796.118c.237.034.508.017.796-.118M61.306 45.94l.204-.102s0-.119.05-.204c-.101.119-.22.305-.254.305m-.339-4.541s-.101-.034-.186.017l-.102.288c.22.068.458-.085.288-.305m1.509 2.677c.305-.474.033-.39-.17-.356h.034c-.407.661-.153.492.152.356zm-.221-.355s-.118 0-.152-.051c-.153.27.034.084.152.05m.305 1.949c.102-.118-.728.44-.525.288-.763.424 1.118-.44.525-.288m.763-3.202-.288.627.423-.424zm1.372 1.152-.186-.288a.5.5 0 0 1-.271.135c.186.102.288.288.457.153m-.457-.153a.42.42 0 0 0-.356-.034c.068.017.203.051.356.034m-.288-.949.017.17.237.152zm4.118 2.694.694.085c.44-.067.576-.152.272-.186-.373.017-.645 0-.966.102m1.559-1.356c-.068.119-.272.203-.526.339l1.237-.39zm1.762.559c.424-.068 1.898.102 1.118-.186-.44.05-1.27-.085-1.118.186m-2.796 3.881.085-.068-2.034-.305zm-3.338 6.202c.288 0 .237-.22.17-.407-.086-.186-.17-.356.27-.407-.05-.355-.695.068-.695-.27-.152.508-.338.406.272 1.084zm-.271-1.101c.033-.085.05-.187.067-.306a.9.9 0 0 0-.067.305M51.613 38.178l.39-.203-.508.034zm-.745-.948.847.22-.678-.458s.034.254-.17.237m-5.54 31.841.084-.305c-.034-.254-.152-.203-.372-.085.084.136.186.271.288.39m-6.592 3.593.102-.034.525-1.305zm-7.185 6.015c.203-.102.762-.678.966-.78-.78.696.474-1.372-.966.78"/></g><defs><clipPath id="a"><path fill="#fff" d="M.116 0h133.768v80H.116z"/></clipPath></defs></svg>