<svg xmlns="http://www.w3.org/2000/svg" width="24" height="24" fill="none"><path stroke="#fff" stroke-linecap="round" stroke-linejoin="round" stroke-width="2" d="m11.5 5.39 2.942-3.646A2 2 0 0 1 16 1h3.09c1.631 0 2.576 1.848 1.62 3.171l-3.32 4.598a2 2 0 0 1-2.313.706l-.473-.175a2 2 0 0 1-.964-.754zm0 0L9.085 1.869A2 2 0 0 0 7.435 1H4.738C3.14 1 2.187 2.78 3.073 4.11L7 10"/><path stroke="#fff" stroke-width="2" d="m4.99 1.149 5.277 8.062"/><circle cx="12" cy="16" r="7" stroke="#fff" stroke-width="2"/><circle cx="12" cy="16" r="3.267" stroke="#fff" stroke-width="2"/></svg>