<svg xmlns="http://www.w3.org/2000/svg" width="100" height="35" fill="none"><path stroke="#004125" d="M78.888 34.393c-9.6.093-19.193.18-28.783.01-3.61-.053-7.22-.067-10.827-.082-7.775-.031-15.537-.062-23.262-.475q-.876-.05-1.754-.095c-2.935-.151-5.856-.303-8.446-.976-2.14-.655-3.565-1.527-4.392-2.486-.813-.943-1.07-1.99-.848-3.09l.008-.039.001-.039c.07-1.63.211-3.261.36-4.903l.045-.498c.134-1.475.27-2.958.356-4.443l.002-.032-.002-.03c-.072-1.078-.064-2.158-.05-3.26v-.016c-.014-.672-.089-1.347-.16-1.996q-.029-.244-.053-.483c-.085-.804-.141-1.572-.072-2.332.054-.428.07-.854.08-1.262l.004-.193c.008-.346.016-.676.042-1.006.06-.77.217-1.48.676-2.157l.019-.027.014-.029q.375-.74 1.402-1.323c.681-.387 1.544-.7 2.527-.95 1.968-.5 4.344-.725 6.543-.802h.003c1.703-.07 3.41-.176 5.112-.282 1.207-.075 2.411-.15 3.609-.212 2.287-.104 4.593-.104 6.913-.104h.016c2.32 0 4.654-.001 6.974-.108C47.58.356 60.18.486 72.815.974c2.543.102 5.067.12 7.581.137l.69.005c2.744.02 5.479.048 8.235.195.494.036.986.06 1.473.085 1.422.072 2.799.142 4.025.469 1.946.542 3.343 1.504 3.882 2.448.78 1.698.89 3.45.743 5.25l-.002.032.001.033c.085 1.735-.221 3.451-.539 5.235q-.098.547-.193 1.102l-.007.04v.042a75 75 0 0 1-.28 6.02l-.001.012c-.062 1.078.073 2.148.201 3.164l.016.123c.135 1.07.254 2.083.17 3.09v.001c-.018.212-.026.425-.034.626l-.003.086c-.01.23-.02.447-.043.658-.045.405-.137.77-.344 1.115-.707.793-1.573 1.574-2.978 2.058-4.274 1.198-9.29 1.276-14.203 1.352q-1.165.018-2.317.041Z"/></svg>