<svg xmlns="http://www.w3.org/2000/svg" width="127" height="120" fill="none"><g fill="#EE4D4D" clip-path="url(#a)"><path d="M.034 118.717c-.27.067.741 1.08.876 1.283.1-.506-1.112-1.553-.876-1.283m1.011-5.132.303.506-.472-1.486zm2.898-2.499c-1.854-1.587-.81 1.216-1.888 1.013l-.438-.338 1.045 1.655c.438-.777.404-2.465 1.28-2.33m4.954 2.6c-.708-.642-.202-.912-.54.101.102.034.136.068.237.135.067-.067.134-.135.337-.202z"/><path d="M8.593 113.889c-.27.303.707.405 0 0m1.044-1.621.135.979c.438.338.876.135 1.011.54.101-.709-.337-1.046-1.18-1.519zm-.775-1.688v.439c.202.135.337.168 0-.439"/><path d="M8.93 111.998v-.946c-.371-.236-.876-.81-.068.372-.438-.574-.067 0 .068.574m-.472-.068c-.573-.202-1.078-.202-1.213-1.182-.54.912.674 2.094 1.213 1.182m-5.998-2.836-.775-.27.27.844c-.135-.405 1.01 0 .505-.574m10.48 1.925c-.304-.406-1.045-.912-1.483-1.385l.101.709c.37.135.876.135 1.415.676zm-1.483-1.385-.135-1.046c-.472.27-.27.641.135 1.046m-4.28-1.114.472 2.026-.337-2.161zm7.515 1.047.505 1.114-.707-1.722zm.978-1.115c.47.912 1.347 1.047 1.55 1.655.201-.405-.102-1.249-.371-2.026 0 .54-.304.675-1.18.371m.843-1.553c0 .27.168.709.336 1.182 0-.27-.1-.641-.336-1.182m-4.28 1.216c.236.202.842.743 1.314.81l-1.112-.945s-.135.101-.202.135m.168-.169h.034c.202-.101.37-.203.438-.236-.067 0-.202.101-.472.236m-.202.202.033-.034c-.1-.1-.133-.134-.033.034m-2.998.338c-.27-.844-.304-1.958-1.618-2.431.472.912 1.213 1.182 1.617 2.431m1.618-1.519-.674.169c.27.27.707.607.842 1.046zm-.101-.54.1.54.236-.068zm4.111.135c-.203-.642 0-.878.168-1.182-.472 0-.842.135-1.112.371.27.372.674 1.081.944.811m-1.247.574v-.102c-.101-.067-.169-.067 0 .102m3.909-3.883s-.135-.102-.203-.169c.068.067.102.135.169.202h.067z"/><path d="M13.68 105.616c-.37 0-.269.338-.1.777a1.35 1.35 0 0 1 .337-.608c-.101-.169-.202-.27-.236-.169m3.1.169a5.5 5.5 0 0 0-.876-.304c.404.27 1.078.608.876.304m-2.898 1.486v.067c.27.169.169.068 0-.067"/><path d="M13.883 107.271c0-.237-.168-.574-.303-.912-.034.203-.068.405 0 .642.1.067.236.135.337.236zm-1.718-11.683c.842 1.047 1.112 2.431-.27 1.756.202 1.148 3.37 4.22 5.392 5.706-.371-.439-.708-.844-.775-1.857-.64-.405-2.157-.371-2.562-1.654.169-1.047.81-.068 1.584.202-1.348-1.046-.808-2.498-2.56-4.254V96.6c-.237-.27-.439-.912-.81-1.047zm4.111 8.171-.068.304c.37 0 .876.236 1.854.777-.102-.777-.371-1.216-.64-1.554l-1.079.676z"/><path d="M15.366 104.806c-.809-1.216-.742-2.094-2.056-3.039-.505.574.405 1.249.472 2.026.674-1.081.27.844 1.483.878 0 .337-.135.54-.236.709.27 0 .573 0 .91.101 0 0-.068 0-.068-.034-.168-.101-.236-.168-.135-.135v-.033a2.6 2.6 0 0 1-.303-.439c.472 0 .303.236.303.439a.6.6 0 0 0 .135.168l.37-1.384c-.336 0-.538.27-.841.743zm-9.368-1.52s.169.136.236.237c-.067-.203-.101-.304-.236-.237m.944.304c.067.203.404.709.067.777-.472-.169-.472-.54-.775-.878.135.405.236 1.182 1.112 1.351l-.068-.203c.708.068 2.36 1.013 2.427 1.216-.978-.878-1.685-1.52-2.763-2.263m4.009.304.304-1.215-1.213-.608.505.54c-.64.169.067.777.404 1.249zm7.077-.169.91 1.216-.978-1.992zm.876-1.013.842 1.047-.27-.844zm44.648-60.945v-.473c-.067.17-.033.338 0 .473m-1.651 1.351.405.54c-.169-.338-.304-.574-.405-.54m-18.937 38.39c1.145.642 2.763 1.79 1.752.71l-1.045-1.014c-.067.405-.337.44-.674.304zM53.78 60.473s-.27-.17-.37-.237c.235.44.471.878.707 1.25a35 35 0 0 1-.303-.98zm-3.74-4.761 1.044.338c-.303-.17-.64-.27-1.044-.338M71.336 32.92l-.707-1.35c-.405.372.27.777.707 1.35M28.642 93.528c.64.203 1.045.17 1.28.068-.875-.338-1.987-1.047-1.28-.068m44.48-39.471a1.42 1.42 0 0 0-.404-.844c0 .304.135.608.404.844M30.698 92.853s-.236-.067-.37-.135c-.034.371-.136.675-.439.844.674.27 1.213.304.809-.709M104.022 6.01s.101 0 .203.068c-.135-.17-.169-.135-.203-.068m19.005 3.039s-.168.27-.303.405c.135 0 .236-.101.303-.405M23.285 99.741c-.135.27.067.135 0 0m-4.819-3.478s-.169-.337-.37-.607c.201.27.336.472.37.607m8.357-12.087c-.236-.17-.203-.136 0 0m-4.28 15.329c.202.067.37.101.54.101a4 4 0 0 0-.54-.101m.472.506s-.202.034-.27.068c.135.202.27.304.27-.068m.505-.574s-.27.17-.438.17c.101.033.169.1.203.134.033-.067.1-.169.235-.304m65.979-75.565s.067 0 .135.067c-.202-.641-.202-.472-.135-.067M38.414 65.3v.068h.067l-.1-.1zm.034-1.485c.876 1.655.54 1.655.068 1.554l3.032 2.97-3.066-4.524z"/><path d="m67.124 38.087-1.381-.54c-.775-2.195.168-2.026-1.55-3.006 2.931 3.512-1.753 2.128 1.179 5.673l-.977-.44s0-.27.1-.337c-2.122-1.08 1.686 2.938.371 3.208-.539 0-1.179-.304-1.347-.912l.067 1.452c-.27.101-.741-.54-.472-.641l-.775 1.181-.067-.1c.337.674.708 1.789.876 2.295-.708-.27-.202-.473-.64-.844l.168 1.35c-1.01-.709-1.28-1.958-.775-2.194-3.538-3.005.27 1.283-2.628.27l.168-.912c-2.055-1.654-1.853-.574-3.538-1.283.708.507 3.909 2.026 4.044 3.41-.405-.1-.742 0-.472.946-1.078-1.216-1.146-.642-1.483-.203l-1.381-1.654c0 .844.707 1.654 1.112 2.6-.64.27-1.82-.912-2.864-1.857-1.011.439 2.29 1.553 1.65 2.667-1.179-.067-1.078 1.013-1.01 2.667-.944-.168-.775-1.08-1.348-1.384l.707 1.655s-.437-.372-.606-.574c.101.81 1.381 1.654 1.247 2.566 1.415 1.924-3.37-1.655-2.292.945-.572-.304-.775-1.08-1.381-1.654.236 2.127.067 1.654.876 4.119l-1.584-.506c1.517.81 2.19 2.768 2.696 4.423.674.439 1.28.844 1.584 1.013l-.068 1.62c-.337-.168-.741-.81-1.18-1.62.068.169.136.371.203.54-.809-.338-1.483-1.418-2.055-2.499.37.237.775.473 1.179.743-.64-1.182-1.415-2.43-2.291-3.343.1.237.134.473.1.676-.168-.304-.336-.574-.505-.743-.168-.135.034.304.27.81l-1.753-1.654.573.776-2.089-.169c.809 2.5 2.46 5.808 1.854 7.631-.843-1.587-1.82-2.228-3.168-3.815 1.786 1.384.337-1.553 1.28-1.79-.505.136-1.078-.709-1.213-1.046l.169 2.532c-1.112-1.317-1.078-.743-1.854-1.013 2.46 2.364.607 2.431.843 3.647-.775-.844-1.415-1.79-.674-2.094-2.291-1.384 1.786 3.714-.236 2.6.135-.135.303-.067 0-.574.337 1.047-.977 1.148-1.449.237l.135-.136c-1.18.507-2.83 2.432-1.078 4.728-.236-.27-2.157-2.702-2.46-3.208l4.684 8.745c-1.483-1.992-5.864-5.943-6.032-7.665-.438-.067-.977-.135-.876.912.37.135 2.696 2.364 2.662 2.701-2.359-1.587-1.348-.776-3.572-1.924.573.202 2.864 3.342 2.426 3.545-.337-.473-2.527-2.87-2.662-3.275l1.617 3.646c-.235-.709-2.055-2.465-2.965-3.106.573.473-.809.608-.809 1.114l.944.338c-1.382.439 2.494 4.896 1.382 5.605-.405-.71-2.865-3.883-3.673-3.816 1.044 1.655 5.088 7.935 5.223 9.86l-.91-.676.168 1.554c-1.482-2.566-4.347-8.239-5.29-10.602-.944-.338-.977-.912-1.45-.338-.875-.608-.74-1.452-.606-1.655l-1.752.642c1.55 1.654.506 2.6 1.786 3.984l-.135-3.005c1.55 1.654 3.404 5.571 2.224 6.078-.842-.473-2.46-3.208-2.999-3.748.405.709.101 1.89-.337 1.553l-.404-1.25c-1.078-.202 1.146 3.006-.91 1.925-.303.068-2.56-1.654-1.718-.608 2.055 1.655 7.38 7.631 8.424 9.286-.202-.068-2.73-.878-3.842-1.655-1.684-1.215-2.628-4.119-4.077-5.166.404.473.708 1.216.775 1.486-.573-.203-1.18-1.52-1.483-.878 1.416 1.823-1.112.71 1.045 1.655-.034.911-.809.1-1.314.641 1.145.98 2.83 4.255 2.763 5.166-.37-.473-.977-.945-1.247-1.148-1.112.71-2.325.372-3.235 1.148-.438-.338-1.348-.473-1.786-1.384.135.405.54 1.114.27 1.418-1.853-1.013.438-.777-1.55-2.229.842 1.047.472 2.026.64 3.005 1.483 1.452 1.18-.506 1.045-1.485 1.853 2.16 3.134 4.997 3.032 6.82-.303 1.182-1.55-1.114-1.415-.675-1.752.878 2.056 4.795-.472 4.288-1.65-.945-2.392-2.701-3.336-3.613.169-1.046 1.719.034 2.09-.371l-1.079-.203c-.202-.641-.1-1.317.472-1.148-1.449-.878-2.595 1.857-4.684 1.689.202.641.27 1.384.91 1.823l.168-.507c1.281.81.674 2.094 1.55 2.229.203 1.182.742 2.87-.437 2.802l-1.483-1.452c.404.44 1.247.54 1.01-.067.338.945-2.83-1.25-1.38 1.08l1.414.676c.203 1.181 1.079 3.342.068 3.376 1.617 1.317 0-.304 1.954 1.148-2.325-1.924 1.584-1.215-1.044-3.072 2.257 1.722 1.516.236 3.605 1.553-.472-.507-1.044-.811-.337-.979-.1-.17-.236-.406-.303-.54h.067s-.067 0-.067-.034c-.067-.102-.034-.102 0 0-.303-.136-.64-.304-.944-.574-.775-1.385 0-2.026-.235-2.87.505 0 .404.709 1.044 1.114l-.404-1.25c1.044 1.115 2.426 1.216 2.325 2.5l.674-.474c.91.338 1.651.136 1.516-.607.506 0-.37-1.891.169-.777l.337-1.553.27.27c1.078-.675.303-3.613 3.2-2.499.068-.574.102-1.215.91-1.35l.977.911c.102-.709 2.09-.1 1.382-1.283 2.763 2.263 2.494-1.148 3.64-1.316l-1.113-1.317c.573-.372.708-1.148.876-2.195l-1.044-1.114c-.27-1.418 2.089-.372 2.83-1.25.337.473 0 .575-.37.44 3.235 1.688.505-3.715 3.032-2.634-.134-.608.169-.608.573-.473v.101c.034 0 .068-.033.101-.067.27.101.573.236.843.337-.337-.202-.64-.337-.809-.37.169-.17.303-.541.303-1.081l1.18 1.114v-.102c.64.237-.304-.776-1.247-1.553a3.6 3.6 0 0 0-.303-1.046c1.92 1.79.1-1.25 2.224.607-.708-1.181.64-1.924-1.112-4.22.27.27.438.338.337.472.505 0 1.01 0 .741-.844l1.483 1.452-1.18-2.633c1.213.607 1.854 1.013 2.527 2.566-.673-2.668.135-1.35-.673-3.85l.842 1.047c.236-.27-.472-2.026.404-1.35 2.292 1.384 3.336-2.465 6.504-2.06-2.898-2.701 1.92.675 0-1.688.708.608 1.28.81 1.55 1.654.236-1.418 2.19 0 1.078-2.397.708.608.708 1.182 1.18 1.52-.068-.203-.27-.845.168-.507s.404.709.54 1.114c.74-.844-1.045-3.106-2.764-5.166 1.247.574 1.348.27.505-1.317.742.54 1.584 1.013 1.247 1.722.371-.168 2.629-.607 1.247-2.262.438.338.506-.236.438-.506.742-.473.944-.372 1.45-1.115l-.405-.1c-1.45-2.196.168-.913.471-1.588l.169.203c2.426.371-.067-1.114 2.527-.54l-1.112-1.182c-2.156-2.735 2.393.641 2.19-.98l-.842-.472c-.404-1.216 4.145 2.667 4.819 2.667.27.17.202.473.236.743 2.325.675-1.247-1.722-.843-2.735.876.743 1.719 2.33 2.36 2.06.841.472-1.012-4.052 1.111-2.972-.741-.54-1.449-1.08-1.55-1.857.303-.709 3.606 1.283 2.258-1.215a1.8 1.8 0 0 1 .539.439c-.068-.878.505-2.026-.236-3.377 4.044 3.883.708-4.22 4.077-.304l1.045-1.283.303.44c1.011-.44.472-1.588-.067-2.77.404.102.606.575.741.811 1.82-.203 1.786-.473 1.078-3.275l1.214 1.182c-.371-.946 3.37.54 3.234-1.925.102.169.304.405.371.675 0-2.6 6.066.844 2.527-4.153l-.135-1.857c-1.381.574-1.583-2.127-2.695-2.498.202-.642 2.291.438 1.988 1.114l-.27-.169c1.887 2.566 2.09-.338 3.471 1.35 2.022-1.958 5.257-2.464 7.346-4.085l-1.853-1.654.775-.507c.573.27 1.516 1.25.943 1.587 1.18.844.068-1.62-.27-2.026 1.618-.101 1.517 2.499 1.854 2.296l.27-.506-.27-.135c-.337-1.047-1.01-1.891-.337-2.296.708.033 1.18.979 1.415.911.101.135.203.135.27-.135l1.011-.608-1.618-1.181c-.236-1.08.876-.642-.977-1.959 2.831 2.06 4.077-1.924 5.122-1.452-.404-1.553.169-1.992.944-2.43-.438-.17-1.955-1.723-1.214-2.027 2.764 3.58 2.326.575 4.92 2.6-1.819-1.283 1.281-1.823-1.381-3.579.707-.135 1.145 1.25 2.19 1.722 0-2.33 3.269-1.316 4.279-3.005-.37-.473-1.213-.945-1.482-1.89l2.696 1.586c.101-.472-1.989-2.802-.135-1.688-.405-.304-1.011-.776-.944-1.08 4.65-.237 4.078-6.72 10.446-5.031-1.145-.54-.943-.844-.707-1.115-.371-.033-.944-1.114-1.517-1.688l2.629.676c-1.247-1.858 1.145-1.216-.135-2.938l-.135.608C122.69 3.883 119.489 2.6 117.434.1c1.314 2.634-4.246-1.924-2.46 1.959-.64-.338-.506-.946-1.112-1.418.674 1.249.606 1.722-.337 1.688l-.169-.304c-1.213 1.52-2.729 1.013-4.953 1.756l1.179 1.114c-.505.135-.876-.169-1.314-.338 1.18 2.195 1.078-.743 2.46 1.587-2.595-2.06-2.494 2.094-5.223-.405-.539.439 1.382 1.25.809 1.722l-.809-.641.708 1.08c-.506.135-1.483-.642-2.056-1.283.169 0 .101-.405.135-.54-1.213-.507-1.011 1.418-1.415 1.283h.909c-.842 1.992-3.504 2.566-3.571 5.335l.606.472c-.168 1.992-1.415.135-2.156 1.655l-.068-.17c.27.777.202 1.351-.202 1.554-.27-.912-1.685-.81-1.92-1.89-.203 2.16.201 1.384 1.246 4.186l-1.01-.776c.47 1.08.841 1.553.47 2.33-.201-1.25-1.617-1.115-2.021-2.668-3.033-.98-.034 3.68-3.235 1.182 1.685 3.106 2.325.506 2.494 1.35 1.01.608 1.213 2.364.606 2.431-.438.304-3.572-2.768-4.549-1.823.101-.067-.067-.27.067-.338-.943-.337.068 1.553-1.347.845 1.112 1.789-.674.438 1.01 2.498l.506-1.283c-.067.98 1.516 3.748-.337 3.377-.303-.473-.505-1.216-.573-1.689-.775-.371-.135.81-.943.44-1.685-2.094.741-1.419-.034-3.445-1.01-.608.202 2.364-1.415-.034 2.022 3.14-1.28.507-.135 3.208l-1.011-1.25c.067.27.337 1.047.101 1.183l-1.01-1.891c.606 1.823-2.056-.237-1.955.945 1.078-1.013 1.516 1.25 2.73 1.722.033 2.803-3.539-2.465-4.55-.574.068-.337 1.415.068 1.584.878-.505 0-1.28-.135-2.022-.608-.775 1.114 1.247 1.114 1.45 2.229-1.618-1.182 0 1.046 0 1.89l-1.08-1.215c-1.819.203 1.921 2.836.068 2.769l-1.044-2.094-.169.912-1.112-1.486c.303 1.553-.101 1.452-1.01 1.553.875.743 1.852 2.296 1.38 2.77-.977-.44-.808-1.351-1.38-.541-.506-.912-1.18-2.026.134-1.182-.303-.439-.505-.911-.809-1.35-1.112-.507-1.112.641-1.348.877a.77.77 0 0 1 .54.034l.438 2.6c-.573-.304-.742-.81-.944-1.283-.101.304.236 1.013 0 1.384-.775-1.08-1.719-2.093-1.685-2.937v1.992c-.472-.371-1.584-.743-1.786-1.215-1.044-.102.337 3.106-1.078 2.97.135.237.202.474.169.744-.877.371-2.562-.304-2.19 1.755l-2.023-1.384c-.27.98 2.595 1.722 2.123 3.309-.27 1.216-1.617-1.283-2.291-1.553.404 1.215 1.348 3.646-.607 2.769-.067-.54.337-.44.438-.743zm-7.177 7.664c-.068-.405-.472-1.452.27-.81 1.044 1.553.336 1.013-.27.81m-9.402 13.405c-.236-.507.101-.473.708-.169-.067.236-.27.338-.708.169M24.666 96.77s0-.034-.034-.068c.742.17.472.102.034.068m-1.18.067c.068.237.237.406.405.54-.236-.337-.067-.506.169-.573-.337-.27-.607-.406-.573.033m75.448-66.651-.404-.203c0-.641.202-.236.404.203"/><path d="M50.478 56.252c.236.169.438.371.64.608-.135-.27-.337-.507-.64-.608m20.993-23.095h.034a.6.6 0 0 0-.169-.236zM25.408 76.882c.303.034.572.203.842.406-.27-.304-.54-.507-.843-.406m-3.807 25.29.168-.709c-.168.236-.472.068-.741-.034.27.27.707.608.573.777zm-10.514-4.187c.068.203-.135.136-.067.338l.505.54c.236-.27.034-.911-.471-.911zm6.538.473c-.944-1.013-.91-.405-1.079.068 0 0 0-.034.068-.034 1.179 1.519 1.078.743 1.01 0zm-1.079.169s-.135.236-.27.27c.472.608.237 0 .27-.27m6.672-.337c-.37-.136 1.045 1.417.607 1.046.977 1.452-.371-2.465-.607-1.047m-8.795-3.005 1.213 1.182-.707-1.182zm3.303-1.249-.81.101a.74.74 0 0 1 .237.54c.337-.236.91-.27.573-.641m-.573.641c-.169.102-.304.27-.236.574.067-.1.236-.303.236-.574m-2.359-.371.37.135.439-.236zm8.593-4.761.236-.844c-.337-.473-.708-.608-.775-.27.134.405.067.777.539 1.114m-4.684-2.059c.37.135.64.405 1.078.742l-1.348-1.587zm1.28-1.756c-.337-.473-.303-1.959-.91-1.25.337.473.102 1.317.91 1.25m10.042-5.268-.101.136 2.258 2.6zm1.954-12.594c-1.179-.034 1.247 1.722 0 1.486.371.743 1.045.202 1.348.878-.168-.98.37-.81-1.314-2.364z"/><path d="M33.293 70.197s.067.338.134.574c0-.27-.067-.439-.135-.574m92.465-61.114.91.169-1.045-.608zm-.843-2.633 1.55 1.552-1.044-1.722s-.101.473-.472.135zM55.903 43.422l.303.439c.438.37.573.303.81.202l-1.146-.642zm6.773-3.748-.135.067 1.483 1.317zm3.134-6.078c-.236.101-.202.642-.438.743.202-.642 2.123 1.08.438-.743"/></g><defs><clipPath id="a"><path fill="#fff" d="M0 0h126.667v120H0z"/></clipPath></defs></svg>