<svg xmlns="http://www.w3.org/2000/svg" xml:space="preserve" viewBox="0 0 165 24"><path d="M7.1 20.1c0-.7-.1-1.5-.1-2.4-.1-1.4-.2-2.8-.3-4.3 0-.7.2-1 .7-1.1.7-.1 1.1.3 1.2.9l.3 4.2c.1 1 .1 1.9.1 2.7h.3c2.9 0 5.4.1 7.3.3.5 0 1 .3 1 .9s-.3.9-.8.9c-4.3-.4-8.9-.3-15.9 0-.5.1-.8-.2-.9-.8 0-.7.4-1 .9-1 2-.2 4.1-.3 6.2-.3zM9.2 7.4c-.8.1-2.5.1-5 0H2.3c-.6 0-.8-.3-.9-.9 0-.9.5-1 1.7-1 2 .1 3.7.1 5 0 1.4-.1 2.9-.1 4.7-.1 2.4.1 3.6 1.1 3.6 4 0 .9-.1 2.2-.2 3.3s-.3 1.9-.4 2.5c-.2.5-.4.9-.5 1.2-.3.5-.7.7-1.1.7-.6 0-.9-.3-.8-.9 0-.4.1-.8.4-1.3.2-.4.5-1.1.7-2.2.1-1.3.2-2.5.1-3.5-.1-1.4-.8-1.9-1.9-1.9-1.6 0-2.7.1-3.5.1zM20.8 18c.1-.8.6-.9 1.1-.9q1.05 0 .9.9c-.1.6-.1 1.1-.2 1.4s-.2.6-.2.9c0 .7.4 1.1 1.2 1 2.7-.1 4.8-.1 6.1-.1s2.9 0 4.8.1c1 0 1.6.2 2.3.5.6.3.7.6.5 1.1s-.9.7-1.9.5-2.1-.4-3.3-.4h-8.6c-1.9 0-3-.6-3.1-2.2 0-.9.2-1.8.4-2.8zm10.3-6.5c-.2 2.1-1.8 3.6-5 3.6-4.3-.1-5.8-1.8-5.6-4.9.1-2.9 2-4.5 5.5-4.6 1.8 0 2.9.5 3.8 1.2.9.8 1.4 1.7 1.5 2.8 0 .7-.1 1-.2 1.9zm-5.3 1.9c2 .2 3.2-.7 3.5-2.2.1-.4.1-.8 0-1.3 0-1.8-1.8-2.6-3.3-2.6-2 0-3.5.7-3.7 3-.1 2.2 1 3 3.5 3.1zm8.4-6.8c.1-.9.3-.9.8-1 .6-.1.9.2 1 .8-.1 4 .2 6.7.5 9.1.1.5-.2.9-.8 1s-1-.2-1.2-1c-.2-2.3-.4-4.5-.3-8.9zm14.3 5.6q4.2-.3 8.4-.3c.5 0 1 .3 1 .9-.1.6-.3.9-.9.9-2.8-.1-5.5-.1-8.1.2.1.5.1 1 .2 1.5.3 0 .6-.1.9-.1 1.2-.1 2.4-.2 3.7-.3 1.2-.2 2.4-.4 2.7 1.2v1.1c-.1 1.4-1 2-3 2.1l-3.5.1q-2.85.15-4.5.3c-1.1.2-1.9.3-2.4.4-.8.2-1.1.3-1.2.8-.1.3 0 .7.1.9.1.3.6.3 1 .2.7-.1 1.7-.3 2.9-.5 1.6-.3 3.1-.5 5.4-.7 1.1 0 2 0 2.6-.1s1.6 0 2.8.2c.5.1.8.4.7 1-.1.7-.4.9-1 .8-.9-.1-1.7-.1-2.5-.1h-2.6c-1 0-2 .1-2.8.3s-1.7.3-2.7.5c-.7.1-1.2.2-1.6.3s-.9.1-1.4.2q-.75.15-1.2 0c-.8-.1-1.3-.4-1.5-1.8 0-.4 0-.9.1-1.4.1-.9 1-2 2.9-2.3 2.5-.3 4.3-.5 7.9-.7.7 0 1.5 0 2.4-.1q1.2-.15 1.2-.6c.2-.4 0-.6-.5-.5-2.4.2-4.3.3-7.3.5-1.2.1-2.1.2-2.7.2s-1.4.1-2.4.2c-.8 0-1.1-.2-1-.8 0-.7.3-.8 1.1-1 .7-.1 1.5-.1 2.4-.1s1.8-.1 2.7-.1h.6c-.1-.5-.1-1-.2-1.4-2.2.2-4.5.2-6.9.2-.6 0-1-.3-1-.9 0-.7.5-.9 1-.9 2.6 0 5.4-.1 8.2-.3zm-6.1-7.6c3.7 0 7.4-.1 11.1-.4 1.7 0 2.3.9 2.3 1.7v1.3c0 .5 0 1-.1 1.5 0 .9-.6 1.7-1.9 1.6h-3.1l-7.1.5c-.2 0-.4 0-.7.1-.3 0-.6.1-1 .1-.9-.1-1.1-.2-1.3-1.5-.1-1.1-.2-2.2-.1-3.2.1-1.6.6-1.7 1.9-1.7zm0 2.5.1 1.5c.1.6.2.6.7.6 1.5-.1 3.2-.2 5-.3 1.9-.1 3.6-.2 5.2-.1.4 0 .6-.1.6-.6q.15-1.2 0-1.8c0-.3-.2-.4-.6-.4-2 0-3.9.1-5.4.2-1.6.1-3.1.1-4.6.1-.9 0-1 .1-1 .8zm33.7-1c1 0 1 .3 1 .9q-.15.9-.9.9l-5.5.3c-1 .1-1 .3-1 1-.1 1-.2 2-.2 2.9 1.5.1 3.1 0 4.9-.1 1 0 1.2.3 1.2.9 0 .5-.3.8-1.1.8-1.7 0-3.4.1-5.2.1v4.8c.1.4.3.7.7.7 1.8-.1 3.9-.3 6.5-.6.5-.1.8.2 1 .7.1.6-.2.9-1 1.1-2.1.2-4.2.4-6.5.6-2.2.1-2.7-.7-2.7-1.8 0-1.7.1-5.2.4-10.5.1-1.8.4-2.3 1.9-2.4zm4.2 7.6h-.5c-.4 0-.9-.1-1.6-.1-.8 0-1.1-.3-1.1-1 .1-.4.4-.7 1.1-.7h2.1q.15-2.1.3-4.5c.1-.9.3-1.4.8-1.5s.9.2 1 .7c-.4 7-.5 10.9-.3 14.4 0 .5-.2.9-.8 1-.6-.1-1-.5-1-1.3-.1-2-.1-4.1-.1-6.2v-.8zm4.6-6.4c.1-1 .3-1.4.8-1.5s.9.2 1.1.7q-.3 5.25-.6 8.7c-.2 2.3-.2 4.4-.1 6.1 0 .5-.2.9-.8 1s-1-.2-1-1c-.2-4.1 0-8.7.6-14zm13.7 12.6h7.9c.6 0 1.2.3 1.2.8-.1.6-.3.9-.8.9-2.8 0-5.5.1-8.1.1-2.6.1-5.2.1-8-.1-.6.1-.9-.2-1-.8 0-.7.4-.9 1-.9 2.8.1 5.4 0 7.8 0zm.6-11.3c-.1.4.1.7.4.8 3.1 1.7 5.2 3.1 7 4.6.4.4.4.8.2 1.2-.3.5-.8.5-1.4.2-1-.7-1.9-1.4-2.9-2.1s-2.1-1.4-3.4-2.1c-.2-.1-.3-.2-.5-.2s-.4.1-.6.2c-.2.2-.8.6-1.6 1.2-1.3.9-2.9 2-4.8 3.2-.6.2-1 .1-1.3-.3-.2-.5-.1-1 .5-1.3 2-1.3 4.2-2.9 6-4.2.3-.2.5-.4.6-1.1V6.5q0-.9.9-.9c.7 0 1 .3 1.1.8-.1.8-.1 1.5-.2 2.2zm19.6 11.2c3.1 0 32.2-.1 34.9-.1.6 0 1.2.3 1.2.9s-.3.9-.8.9c-5.7.1-38.1.3-42.7.5-.6.1-.9-.2-1-.9 0-.7.4-.9 1-.9 1.8-.3 4.3-.4 7.4-.4zm-5.4-10.3c1.9.1 3.7.1 5.3 0 2 0 4.2-.1 6.6-.1.5 0 .9.3.9.8 0 .6-.3.9-.8 1-2.1 0-4.3.1-6.4.1-1.8 0-3.7.1-5.7 0v.9c-.1 1.9.7 1.9 1.6 1.8 1.7-.1 4-.1 4.9-.1 1.3.1 2.4.1 3.1.1s1.9.1 3.6.1c.6 0 .8.3.8.9 0 .5-.1.8-.7.9-2.1 0-3.5 0-4.2-.1s-1.7-.1-3-.1c-1.7 0-3.4.1-4.6.2-2.4 0-3.4-1.1-3.4-3 0-.8 0-1.9.1-3.3 0-1 .1-1.8.1-2.6-.2-.1-.4-.3-.4-.7 0-.7.4-1.1 1-1.1 4.7.1 8.3 0 12.9-.3.5 0 .9.3.9.9s-.3.9-.8 1c-4.2.4-6.8.4-10.5.4h-1.2c0 .6-.1 1.4-.1 2.3z" style="fill:#fff;stroke:#fff;stroke-width:.1;stroke-miterlimit:10"/><path d="M164.8 1.2 161.3 0c-.2-.1-.3 0-.4.2l-6 16.5v.2l.6 2v.1l1 1.6c0 .1.1.1.1.1l.9.3c.2.1.3 0 .4-.2L165 1.7c0-.2 0-.4-.2-.5m-8.9 14.3 3.1-8.2-1.9 7zm1.7 2.8 1.2-2.3-1.3 3.3zm.1 2.3-.2-1 2.4-5.6z" style="fill-rule:evenodd;clip-rule:evenodd;fill:#fff"/></svg>