<svg xmlns="http://www.w3.org/2000/svg" width="120" height="50" preserveAspectRatio="none"><path fill="#fff" d="M60.12 49.86c11.51.25 23.04.12 34.55-.01 6.72-.17 13.96-.01 20-2.02 1.85-.76 2.98-2 3.88-3.2.66-1.26.53-2.61.62-3.92.21-3.05-.61-6.08-.46-9.13.2-2.88.33-5.77.34-8.65.43-3.07 1.01-6.13.88-9.21.18-2.65.05-5.3-.95-7.88-.76-1.6-2.62-3.06-5.04-3.87-2.05-.65-4.47-.62-6.72-.81C100.57.74 94.04 1 87.4.68 72.23-.02 57.09-.21 41.91.25c-5.54.3-11.15 0-16.69.3-3.49.22-6.96.54-10.46.71-5.31.22-11.6 1.29-13.08 4.78C.41 8.26.86 10.66.62 12.96c-.18 2.33.29 4.64.34 6.97-.02 1.57-.03 3.14.06 4.71C.79 29.33.27 34.02.1 38.71c-.6 3.59 1.44 6.88 6.72 8.8 3.8 1.18 8.19 1.26 12.37 1.56 13.58.86 27.28.55 40.93.79" class="layer"/></svg>