<svg xmlns="http://www.w3.org/2000/svg" width="26" height="26" fill="none"><g clip-path="url(#a)"><path stroke="#004125" stroke-miterlimit="10" stroke-width="2" d="M20.687 15.503v7.947c0 .781-.614 1.402-1.386 1.402h-3.156c-.772 0-1.385-.62-1.385-1.402v-7.947"/><path stroke="#004125" stroke-miterlimit="10" stroke-width="2" d="M23.502 6.569h-7.811C10.65 6.477 7.448 4.226 5.29 1.63 4.45.62 2.952 1.309 2.952 2.71v16.766c0 1.401 1.499 2.113 2.339 1.08 2.157-2.596 5.381-4.847 10.4-4.939h7.811c.75 0 1.363-.643 1.363-1.447V7.993c0-.804-.613-1.447-1.363-1.447z"/><path fill="#004125" d="M2.475 14.263C1.113 14.263 0 12.862 0 11.116S1.113 7.97 2.475 7.97z"/><path stroke="#004125" stroke-miterlimit="10" stroke-width="2" d="M20.687 15.503V7.028"/></g><defs><clipPath id="a"><path fill="#fff" d="M0 0h26v26H0z"/></clipPath></defs></svg>