<svg xmlns="http://www.w3.org/2000/svg" width="50" height="50" fill="none"><path fill="url(#a)" d="M50 25c0 13.809-11.191 25-25 25S0 38.809 0 25 11.191 0 25 0s25 11.191 25 25"/><path fill="url(#b)" d="M25 2.78C12.726 2.78 2.78 12.732 2.78 25S12.726 47.221 25 47.221c12.275 0 22.221-9.946 22.221-22.22 0-12.275-9.953-22.221-22.22-22.221"/><path fill="url(#c)" d="M25 46.904c-12.08 0-21.912-9.825-21.912-21.911S12.92 3.088 25 3.088s21.91 9.825 21.91 21.905S37.087 46.904 25 46.904"/><path fill="url(#d)" d="M25 46.608c-11.918 0-21.61-9.69-21.61-21.608S13.081 3.392 25 3.392c11.917 0 21.608 9.69 21.608 21.608S36.918 46.608 25 46.608"/><path fill="url(#e)" d="M24.9 45.047c11.071 0 20.047-8.975 20.047-20.047 0-11.071-8.976-20.047-20.048-20.047S4.852 13.93 4.852 25 13.828 45.047 24.9 45.047"/><path fill="url(#f)" d="M25.02 44.65C14.186 44.65 5.37 35.836 5.37 25S14.186 5.35 25.02 5.35 44.67 14.166 44.67 25c0 10.835-8.816 19.65-19.65 19.65" opacity=".5"/><path fill="url(#g)" d="M25.02 44.65C14.186 44.65 5.37 35.836 5.37 25S14.186 5.35 25.02 5.35 44.67 14.166 44.67 25c0 10.835-8.816 19.65-19.65 19.65"/><path fill="url(#h)" d="M44.946 25.357c0 11.056-8.963 20.02-20.02 20.02-11.056 0-20.02-8.964-20.02-20.02 0-11.057 8.957-20.02 20.02-20.02 11.057 0 20.02 8.963 20.02 20.02"/><path fill="url(#i)" d="M25.012 42.719c-9.77 0-17.718-7.948-17.718-17.719S15.24 7.281 25.012 7.281s17.72 7.948 17.72 17.72c0 9.77-7.948 17.718-17.72 17.718"/><path fill="url(#j)" d="M38.985 29.045c0-.162.127-.297.289-.297s.29.135.29.297a.293.293 0 0 1-.29.296.293.293 0 0 1-.29-.296"/><path fill="url(#k)" d="M37.888 29.045c0-.162.128-.297.29-.297s.29.135.29.297a.293.293 0 0 1-.29.296.293.293 0 0 1-.29-.296"/><path fill="url(#l)" d="M36.791 29.045c0-.162.128-.297.29-.297.16 0 .289.135.289.297a.293.293 0 0 1-.29.296.293.293 0 0 1-.289-.296"/><path fill="url(#m)" d="M35.694 29.045c0-.162.127-.297.289-.297s.29.135.29.297a.293.293 0 0 1-.29.296.293.293 0 0 1-.29-.296"/><path fill="url(#n)" d="M34.597 29.045c0-.162.128-.297.29-.297s.29.135.29.297a.293.293 0 0 1-.29.296.293.293 0 0 1-.29-.296"/><path fill="url(#o)" d="M33.501 29.045c0-.162.128-.297.29-.297s.289.135.289.297a.293.293 0 0 1-.29.296.293.293 0 0 1-.289-.296"/><path fill="url(#p)" d="M32.404 29.045c0-.162.128-.297.29-.297.16 0 .288.135.288.297a.293.293 0 0 1-.289.296.293.293 0 0 1-.29-.296"/><path fill="url(#q)" d="M31.308 29.045c0-.162.128-.297.289-.297.162 0 .29.135.29.297a.293.293 0 0 1-.29.296.293.293 0 0 1-.29-.296"/><path fill="url(#r)" d="M30.209 29.045c0-.162.128-.297.29-.297.16 0 .289.135.289.297a.293.293 0 0 1-.29.296.293.293 0 0 1-.289-.296"/><path fill="url(#s)" d="M29.113 29.045c0-.162.128-.297.29-.297.16 0 .289.135.289.297a.293.293 0 0 1-.29.296.293.293 0 0 1-.29-.296"/><path fill="url(#t)" d="M28.017 29.045c0-.162.128-.297.289-.297.162 0 .29.135.29.297a.293.293 0 0 1-.29.296.293.293 0 0 1-.29-.296"/><path fill="url(#u)" d="M26.92 29.045c0-.162.127-.297.289-.297s.289.135.289.297a.293.293 0 0 1-.29.296.293.293 0 0 1-.289-.296"/><path fill="url(#v)" d="M25.823 29.045c0-.162.128-.297.29-.297.16 0 .289.135.289.297a.293.293 0 0 1-.29.296.293.293 0 0 1-.289-.296"/><path fill="url(#w)" d="M24.727 29.045c0-.162.128-.297.29-.297.16 0 .288.135.288.297a.293.293 0 0 1-.289.296.293.293 0 0 1-.29-.296"/><path fill="url(#x)" d="M23.628 29.045c0-.162.128-.297.29-.297s.289.135.289.297a.293.293 0 0 1-.29.296.293.293 0 0 1-.289-.296"/><path fill="url(#y)" d="M22.53 29.045c0-.162.129-.297.29-.297.162 0 .29.135.29.297a.293.293 0 0 1-.29.296.293.293 0 0 1-.29-.296"/><path fill="url(#z)" d="M21.435 29.045c0-.162.127-.297.289-.297s.29.135.29.297a.293.293 0 0 1-.29.296.293.293 0 0 1-.29-.296"/><path fill="url(#A)" d="M20.338 29.045c0-.162.128-.297.29-.297s.29.135.29.297a.293.293 0 0 1-.29.296.293.293 0 0 1-.29-.296"/><path fill="url(#B)" d="M19.24 29.045c0-.162.128-.297.29-.297.16 0 .288.135.288.297a.293.293 0 0 1-.289.296.293.293 0 0 1-.29-.296"/><path fill="url(#C)" d="M18.144 29.045c0-.162.127-.297.289-.297s.29.135.29.297a.293.293 0 0 1-.29.296.293.293 0 0 1-.29-.296"/><path fill="url(#D)" d="M17.047 29.045c0-.162.128-.297.29-.297s.29.135.29.297a.293.293 0 0 1-.29.296.293.293 0 0 1-.29-.296"/><path fill="url(#E)" d="M15.95 29.045c0-.162.128-.297.29-.297.16 0 .289.135.289.297a.293.293 0 0 1-.29.296.293.293 0 0 1-.289-.296"/><path fill="url(#F)" d="M14.853 29.045c0-.162.127-.297.289-.297s.29.135.29.297a.293.293 0 0 1-.29.296.293.293 0 0 1-.29-.296"/><path fill="url(#G)" d="M13.755 29.045c0-.162.128-.297.29-.297s.289.135.289.297a.293.293 0 0 1-.29.296.293.293 0 0 1-.289-.296"/><path fill="url(#H)" d="M12.659 29.045c0-.162.128-.297.29-.297.16 0 .289.135.289.297a.293.293 0 0 1-.29.296.293.293 0 0 1-.29-.296"/><path fill="url(#I)" d="M11.562 29.045c0-.162.127-.297.289-.297s.29.135.29.297a.293.293 0 0 1-.29.296.293.293 0 0 1-.29-.296"/><path fill="url(#J)" d="M10.465 29.045c0-.162.128-.297.29-.297s.29.135.29.297a.293.293 0 0 1-.29.296.293.293 0 0 1-.29-.296"/><path fill="url(#K)" d="M38.985 21.763a.289.289 0 1 1 .579 0 .29.29 0 0 1-.29.296.293.293 0 0 1-.29-.296"/><path fill="url(#L)" d="M37.888 21.763c0-.162.128-.296.29-.296s.29.127.29.296a.29.29 0 0 1-.29.296.293.293 0 0 1-.29-.296"/><path fill="url(#M)" d="M36.791 21.763c0-.162.128-.296.29-.296.16 0 .289.127.289.296a.29.29 0 0 1-.29.296.293.293 0 0 1-.289-.296"/><path fill="url(#N)" d="M35.694 21.763a.289.289 0 1 1 .579 0 .29.29 0 0 1-.29.296.293.293 0 0 1-.29-.296"/><path fill="url(#O)" d="M34.597 21.763c0-.162.128-.296.29-.296s.29.127.29.296a.29.29 0 0 1-.29.296.293.293 0 0 1-.29-.296"/><path fill="url(#P)" d="M33.501 21.763c0-.162.128-.296.29-.296s.289.127.289.296a.29.29 0 0 1-.29.296.293.293 0 0 1-.289-.296"/><path fill="url(#Q)" d="M32.404 21.763c0-.162.128-.296.29-.296.16 0 .288.127.288.296a.29.29 0 0 1-.289.296.293.293 0 0 1-.29-.296"/><path fill="url(#R)" d="M31.308 21.763a.289.289 0 1 1 .579 0 .29.29 0 0 1-.29.296.293.293 0 0 1-.29-.296"/><path fill="url(#S)" d="M30.209 21.763c0-.162.128-.296.29-.296.16 0 .289.127.289.296a.29.29 0 0 1-.29.296.293.293 0 0 1-.289-.296"/><path fill="url(#T)" d="M29.113 21.763c0-.162.128-.296.29-.296.16 0 .289.127.289.296a.29.29 0 0 1-.29.296.293.293 0 0 1-.29-.296"/><path fill="url(#U)" d="M28.017 21.763a.289.289 0 1 1 .579 0 .29.29 0 0 1-.29.296.293.293 0 0 1-.29-.296"/><path fill="url(#V)" d="M26.92 21.763a.289.289 0 1 1 .579 0 .29.29 0 0 1-.29.296.293.293 0 0 1-.29-.296"/><path fill="url(#W)" d="M25.823 21.763c0-.162.128-.296.29-.296.16 0 .289.127.289.296a.29.29 0 0 1-.29.296.293.293 0 0 1-.289-.296"/><path fill="url(#X)" d="M24.727 21.763c0-.162.128-.296.29-.296.16 0 .288.127.288.296a.29.29 0 0 1-.289.296.293.293 0 0 1-.29-.296"/><path fill="url(#Y)" d="M23.628 21.763c0-.162.128-.296.29-.296s.289.127.289.296a.289.289 0 1 1-.579 0"/><path fill="url(#Z)" d="M22.53 21.763c0-.162.129-.296.29-.296.162 0 .29.127.29.296a.289.289 0 1 1-.58 0"/><path fill="url(#aa)" d="M21.435 21.763a.289.289 0 1 1 .579 0 .289.289 0 1 1-.58 0"/><path fill="url(#ab)" d="M20.338 21.763c0-.162.128-.296.29-.296s.29.127.29.296a.29.29 0 0 1-.29.296.293.293 0 0 1-.29-.296"/><path fill="url(#ac)" d="M19.24 21.763c0-.162.128-.296.29-.296.16 0 .288.127.288.296a.29.29 0 0 1-.289.296.293.293 0 0 1-.29-.296"/><path fill="url(#ad)" d="M18.144 21.763a.289.289 0 1 1 .579 0 .289.289 0 1 1-.58 0"/><path fill="url(#ae)" d="M17.047 21.763c0-.162.128-.296.29-.296s.29.127.29.296a.289.289 0 1 1-.58 0"/><path fill="url(#af)" d="M15.95 21.763c0-.162.128-.296.29-.296.16 0 .289.127.289.296a.289.289 0 1 1-.579 0"/><path fill="url(#ag)" d="M14.853 21.763a.289.289 0 1 1 .579 0 .29.29 0 0 1-.29.296.293.293 0 0 1-.29-.296"/><path fill="url(#ah)" d="M13.755 21.763c0-.162.128-.296.29-.296s.289.127.289.296a.29.29 0 0 1-.29.296.293.293 0 0 1-.289-.296"/><path fill="url(#ai)" d="M12.659 21.763c0-.162.128-.296.29-.296.16 0 .289.127.289.296a.29.29 0 0 1-.29.296.293.293 0 0 1-.29-.296"/><path fill="url(#aj)" d="M11.562 21.763a.289.289 0 1 1 .579 0 .29.29 0 0 1-.29.296.293.293 0 0 1-.29-.296"/><path fill="url(#ak)" d="M10.465 21.763c0-.162.128-.296.29-.296s.29.127.29.296a.29.29 0 0 1-.29.296.293.293 0 0 1-.29-.296"/><path fill="url(#al)" stroke="#FFCF03" stroke-miterlimit="10" stroke-width=".1" d="M14.576 27.369H9.933v-.693h1.723V25.31h.8v1.366h2.127v.693zm-.538-4.099v.707c0 1.063-.262 1.999-.471 2.41h-.8c.403-1.01.463-1.98.416-2.41h-2.799v-.713h3.66z"/><path fill="url(#am)" stroke="#FFCF03" stroke-miterlimit="10" stroke-width=".1" d="M17.746 24.038v.855a.855.855 0 0 1-.841.861h-.815a.88.88 0 0 1-.868-.861v-.855c0-.478.418-.855.868-.855h.815a.85.85 0 0 1 .841.855Zm-1.985 3.984v-1.696h.82v.97h2.713v.726zm1.245-3.816a.354.354 0 0 0-.364-.363h-.282c-.209 0-.39.155-.39.363v.518c0 .216.181.37.39.37h.282a.355.355 0 0 0 .364-.37zm2.288 2.053h-.801v-3.177h.8z"/><path fill="url(#an)" stroke="#FFCF03" stroke-miterlimit="10" stroke-width=".1" d="M24.415 25.687H22.63v.33h1.333v1.319h-2.806v.242h2.866v.518h-3.58v-1.332h2.665v-.276h-2.665v-.478h1.434v-.33H20.08v-.545h4.327v.545zm-.485-2.598v1.716h-3.425V23.09zm-.599.613h-2.214v.49h2.214z"/><path fill="url(#ao)" stroke="#FFCF03" stroke-miterlimit="10" stroke-width=".1" d="M27.303 24.072h-1.286v.74h1.077v.686h-1.077v.801h1.407v.687h-2.275v-3.6h2.154zm.511.646v-1.636h.693v5h-.693v-2.57h-.485v-.794zm1.07-1.636h.707v5h-.707z"/><path fill="url(#ap)" stroke="#FFCF03" stroke-miterlimit="10" stroke-width=".1" d="M34.953 27.49h-4.57v-.706h4.57zm-1.864-4.085c.08.62.888 1.952 1.474 2.706h-.95c-.403-.492-.666-.99-.948-1.494-.236.498-.565 1.07-.909 1.494H30.64c.956-.916 1.46-2.302 1.508-2.706h.942Z"/><path fill="url(#aq)" stroke="#FFCF03" stroke-miterlimit="10" stroke-width=".1" d="M35.56 27.565v-.727h4.528v.726zm3.869-4.28v.672H36.13v-.672zm-2.544 2.288h2.611v.672h-3.358v-1.85h3.297v.673h-2.543v.505z"/><path fill="url(#ar)" d="m18.769 31.635-.666-1.36-.673 1.36-1.5.216 1.083 1.063-.256 1.494 1.346-.707 1.339.707-.256-1.494 1.084-1.063z"/><path fill="url(#as)" d="m18.769 31.635-.666-1.36-.074 2.067-2.1-.491 1.084 1.063-.256 1.494 1.272-2.066.074 1.36 1.339.706-1.413-2.066 2.24-.491z"/><path fill="url(#at)" d="m32.599 31.635-.673-1.36-.673 1.36-1.5.216 1.09 1.063-.256 1.494 1.34-.707 1.345.707-.256-1.494L34.1 31.85z"/><path fill="url(#au)" d="m32.599 31.635-.673-1.36-.067 2.067-2.107-.491 1.09 1.063-.255 1.494 1.272-2.066.067 1.36 1.346.706-1.413-2.066 2.24-.491z"/><path fill="url(#av)" d="m26.36 32.846-1.273-2.584-1.278 2.584-2.853.418 2.066 2.012-.492 2.84 2.557-1.34 2.55 1.34-.49-2.84 2.066-2.012z"/><path fill="url(#aw)" d="m26.36 32.846-1.273-2.584-.134 3.93-3.997-.928 2.066 2.012-.492 2.84 2.423-3.924.134 2.584 2.55 1.34-2.684-3.924 4.26-.928z"/><path fill="url(#ax)" d="m26.64 12.96-1.554-3.155-1.561 3.156-3.48.505 2.524 2.45-.598 3.465 3.115-1.636 3.11 1.636-.593-3.466 2.517-2.45z"/><path fill="url(#ay)" d="m26.64 12.96-1.554-3.155-.168 4.784-4.872-1.123 2.524 2.45-.6 3.465 2.948-4.792.168 3.156 3.11 1.636-3.278-4.792 5.202-1.123z"/><path fill="url(#az)" d="m34.26 17.47-.82-1.662-.822 1.662-1.83.263 1.326 1.292-.31 1.824 1.636-.862 1.635.862-.31-1.824 1.326-1.292z"/><path fill="url(#aA)" d="m34.26 17.47-.82-1.662-.088 2.524-2.564-.6 1.326 1.293-.31 1.824 1.548-2.517.088 1.655 1.635.862-1.723-2.517 2.739-.6z"/><path fill="url(#aB)" d="m17.478 17.47-.821-1.662-.821 1.662-1.83.263 1.325 1.292-.316 1.824 1.642-.862 1.635.862-.31-1.824 1.326-1.292z"/><path fill="url(#aC)" d="m17.478 17.47-.821-1.662-.088 2.524-2.564-.6 1.326 1.293-.316 1.824 1.554-2.517.088 1.655 1.635.862-1.723-2.517 2.74-.6z"/><defs><linearGradient id="a" x1="6.131" x2="43.863" y1="8.594" y2="41.4" gradientUnits="userSpaceOnUse"><stop stop-color="#A67234"/><stop offset=".02" stop-color="#AA7637"/><stop offset=".05" stop-color="#B58540"/><stop offset=".08" stop-color="#C99D50"/><stop offset=".12" stop-color="#E4BE66"/><stop offset=".13" stop-color="#F5D374"/><stop offset=".23" stop-color="#F7DF99"/><stop offset=".46" stop-color="#BD9050"/><stop offset=".56" stop-color="#A67234"/><stop offset=".59" stop-color="#A97638"/><stop offset=".63" stop-color="#B48545"/><stop offset=".68" stop-color="#C69D5C"/><stop offset=".72" stop-color="#DEBE7A"/><stop offset=".76" stop-color="#F7DF99"/><stop offset=".93" stop-color="#BD9050"/><stop offset="1" stop-color="#A67234"/></linearGradient><linearGradient id="b" x1="2.78" x2="47.214" y1="25" y2="25" gradientUnits="userSpaceOnUse"><stop stop-color="#A67234"/><stop offset=".02" stop-color="#AA7637"/><stop offset=".05" stop-color="#B58540"/><stop offset=".08" stop-color="#C99D50"/><stop offset=".12" stop-color="#E4BE66"/><stop offset=".13" stop-color="#F5D374"/><stop offset=".23" stop-color="#F7DF99"/><stop offset=".46" stop-color="#BD9050"/><stop offset=".56" stop-color="#A67234"/><stop offset=".59" stop-color="#A97638"/><stop offset=".63" stop-color="#B48545"/><stop offset=".68" stop-color="#C69D5C"/><stop offset=".72" stop-color="#DEBE7A"/><stop offset=".76" stop-color="#F7DF99"/><stop offset=".93" stop-color="#BD9050"/><stop offset="1" stop-color="#A67234"/></linearGradient><linearGradient id="c" x1="17.866" x2="32.133" y1="45.713" y2="4.279" gradientUnits="userSpaceOnUse"><stop stop-color="#A67234"/><stop offset=".02" stop-color="#AA7637"/><stop offset=".05" stop-color="#B58540"/><stop offset=".08" stop-color="#C99D50"/><stop offset=".12" stop-color="#E4BE66"/><stop offset=".13" stop-color="#F5D374"/><stop offset=".23" stop-color="#F7DF99"/><stop offset=".46" stop-color="#BD9050"/><stop offset=".56" stop-color="#A67234"/><stop offset=".59" stop-color="#A97638"/><stop offset=".63" stop-color="#B48545"/><stop offset=".68" stop-color="#C69D5C"/><stop offset=".72" stop-color="#DEBE7A"/><stop offset=".76" stop-color="#F7DF99"/><stop offset=".93" stop-color="#BD9050"/><stop offset="1" stop-color="#A67234"/></linearGradient><linearGradient id="d" x1="16.904" x2="33.095" y1="45.034" y2="4.96" gradientUnits="userSpaceOnUse"><stop stop-color="#A67234"/><stop offset=".02" stop-color="#AA7637"/><stop offset=".05" stop-color="#B58540"/><stop offset=".08" stop-color="#C99D50"/><stop offset=".12" stop-color="#E4BE66"/><stop offset=".13" stop-color="#F5D374"/><stop offset=".36" stop-color="#F7DF99"/><stop offset=".58" stop-color="#BD9050"/><stop offset=".67" stop-color="#A67234"/><stop offset="1" stop-color="#A67234"/></linearGradient><linearGradient id="e" x1="25.599" x2="24.2" y1="45.027" y2="4.967" gradientUnits="userSpaceOnUse"><stop stop-color="#A67234"/><stop offset=".02" stop-color="#AA7637"/><stop offset=".05" stop-color="#B58540"/><stop offset=".08" stop-color="#C99D50"/><stop offset=".12" stop-color="#E4BE66"/><stop offset=".13" stop-color="#F5D374"/><stop offset=".23" stop-color="#F7DF99"/><stop offset=".46" stop-color="#BD9050"/><stop offset=".56" stop-color="#A67234"/><stop offset=".59" stop-color="#A97638"/><stop offset=".63" stop-color="#B48545"/><stop offset=".68" stop-color="#C69D5C"/><stop offset=".72" stop-color="#DEBE7A"/><stop offset=".76" stop-color="#F7DF99"/><stop offset=".93" stop-color="#BD9050"/><stop offset="1" stop-color="#A67234"/></linearGradient><linearGradient id="f" x1="42.577" x2="5.605" y1="43.365" y2="4.704" gradientUnits="userSpaceOnUse"><stop offset=".03" stop-color="#DDA827"/><stop offset=".41" stop-color="#FFD857"/><stop offset="1" stop-color="#FEE668" stop-opacity="0"/></linearGradient><linearGradient id="g" x1="43.708" x2="6.325" y1="31.07" y2="18.924" gradientUnits="userSpaceOnUse"><stop stop-color="#A67234"/><stop offset=".05" stop-color="#AA7637"/><stop offset=".11" stop-color="#B58540"/><stop offset=".18" stop-color="#C99D50"/><stop offset=".25" stop-color="#E4BE66"/><stop offset=".29" stop-color="#F5D374"/><stop offset=".44" stop-color="#CB9F52"/><stop offset=".56" stop-color="#A67234"/><stop offset=".59" stop-color="#A97638"/><stop offset=".63" stop-color="#B48545"/><stop offset=".68" stop-color="#C69D5C"/><stop offset=".72" stop-color="#DEBE7A"/><stop offset=".76" stop-color="#F7DF99"/><stop offset=".93" stop-color="#BD9050"/><stop offset="1" stop-color="#A67234"/></linearGradient><linearGradient id="h" x1="33.701" x2="16.144" y1="43.358" y2="7.355" gradientUnits="userSpaceOnUse"><stop stop-color="#A67234"/><stop offset=".04" stop-color="#A97638"/><stop offset=".09" stop-color="#B48545"/><stop offset=".14" stop-color="#C69D5C"/><stop offset=".19" stop-color="#DEBE7A"/><stop offset=".23" stop-color="#F7DF99"/><stop offset=".46" stop-color="#BD9050"/><stop offset=".56" stop-color="#A67234"/><stop offset=".59" stop-color="#A97638"/><stop offset=".63" stop-color="#B48545"/><stop offset=".68" stop-color="#C69D5C"/><stop offset=".72" stop-color="#DEBE7A"/><stop offset=".76" stop-color="#F7DF99"/><stop offset=".93" stop-color="#BD9050"/><stop offset="1" stop-color="#A67234"/></linearGradient><linearGradient id="i" x1="13.862" x2="36.156" y1="11.232" y2="38.762" gradientUnits="userSpaceOnUse"><stop stop-color="#A67234"/><stop offset=".15" stop-color="#A97638"/><stop offset=".32" stop-color="#B48545"/><stop offset=".51" stop-color="#C69D5C"/><stop offset=".71" stop-color="#DEBE7A"/><stop offset=".88" stop-color="#F8E09A"/></linearGradient><linearGradient id="j" x1="38.985" x2="39.563" y1="29.038" y2="29.038" gradientUnits="userSpaceOnUse"><stop stop-color="#FEE668"/><stop offset=".24" stop-color="#FFDB5A"/><stop offset=".28" stop-color="#FFD857"/><stop offset=".64" stop-color="#C2882B"/><stop offset="1" stop-color="#DDA827"/></linearGradient><linearGradient id="k" x1="37.888" x2="38.467" y1="-373.303" y2="-373.303" gradientUnits="userSpaceOnUse"><stop stop-color="#FEE668"/><stop offset=".24" stop-color="#FFDB5A"/><stop offset=".28" stop-color="#FFD857"/><stop offset=".64" stop-color="#C2882B"/><stop offset="1" stop-color="#DDA827"/></linearGradient><linearGradient id="l" x1="36.791" x2="37.37" y1="-373.303" y2="-373.303" gradientUnits="userSpaceOnUse"><stop stop-color="#FEE668"/><stop offset=".24" stop-color="#FFDB5A"/><stop offset=".28" stop-color="#FFD857"/><stop offset=".64" stop-color="#C2882B"/><stop offset="1" stop-color="#DDA827"/></linearGradient><linearGradient id="m" x1="35.694" x2="36.272" y1="-373.303" y2="-373.303" gradientUnits="userSpaceOnUse"><stop stop-color="#FEE668"/><stop offset=".24" stop-color="#FFDB5A"/><stop offset=".28" stop-color="#FFD857"/><stop offset=".64" stop-color="#C2882B"/><stop offset="1" stop-color="#DDA827"/></linearGradient><linearGradient id="n" x1="34.597" x2="35.176" y1="-373.303" y2="-373.303" gradientUnits="userSpaceOnUse"><stop stop-color="#FEE668"/><stop offset=".24" stop-color="#FFDB5A"/><stop offset=".28" stop-color="#FFD857"/><stop offset=".64" stop-color="#C2882B"/><stop offset="1" stop-color="#DDA827"/></linearGradient><linearGradient id="o" x1="33.501" x2="34.08" y1="-373.303" y2="-373.303" gradientUnits="userSpaceOnUse"><stop stop-color="#FEE668"/><stop offset=".24" stop-color="#FFDB5A"/><stop offset=".28" stop-color="#FFD857"/><stop offset=".64" stop-color="#C2882B"/><stop offset="1" stop-color="#DDA827"/></linearGradient><linearGradient id="p" x1="32.404" x2="32.983" y1="-373.303" y2="-373.303" gradientUnits="userSpaceOnUse"><stop stop-color="#FEE668"/><stop offset=".24" stop-color="#FFDB5A"/><stop offset=".28" stop-color="#FFD857"/><stop offset=".64" stop-color="#C2882B"/><stop offset="1" stop-color="#DDA827"/></linearGradient><linearGradient id="q" x1="31.308" x2="31.886" y1="-373.303" y2="-373.303" gradientUnits="userSpaceOnUse"><stop stop-color="#FEE668"/><stop offset=".24" stop-color="#FFDB5A"/><stop offset=".28" stop-color="#FFD857"/><stop offset=".64" stop-color="#C2882B"/><stop offset="1" stop-color="#DDA827"/></linearGradient><linearGradient id="r" x1="30.209" x2="30.788" y1="-373.303" y2="-373.303" gradientUnits="userSpaceOnUse"><stop stop-color="#FEE668"/><stop offset=".24" stop-color="#FFDB5A"/><stop offset=".28" stop-color="#FFD857"/><stop offset=".64" stop-color="#C2882B"/><stop offset="1" stop-color="#DDA827"/></linearGradient><linearGradient id="s" x1="29.113" x2="29.692" y1="-373.303" y2="-373.303" gradientUnits="userSpaceOnUse"><stop stop-color="#FEE668"/><stop offset=".24" stop-color="#FFDB5A"/><stop offset=".28" stop-color="#FFD857"/><stop offset=".64" stop-color="#C2882B"/><stop offset="1" stop-color="#DDA827"/></linearGradient><linearGradient id="t" x1="28.017" x2="28.595" y1="-373.303" y2="-373.303" gradientUnits="userSpaceOnUse"><stop stop-color="#FEE668"/><stop offset=".24" stop-color="#FFDB5A"/><stop offset=".28" stop-color="#FFD857"/><stop offset=".64" stop-color="#C2882B"/><stop offset="1" stop-color="#DDA827"/></linearGradient><linearGradient id="u" x1="26.919" x2="27.498" y1="-373.303" y2="-373.303" gradientUnits="userSpaceOnUse"><stop stop-color="#FEE668"/><stop offset=".24" stop-color="#FFDB5A"/><stop offset=".28" stop-color="#FFD857"/><stop offset=".64" stop-color="#C2882B"/><stop offset="1" stop-color="#DDA827"/></linearGradient><linearGradient id="v" x1="25.823" x2="26.402" y1="-373.303" y2="-373.303" gradientUnits="userSpaceOnUse"><stop stop-color="#FEE668"/><stop offset=".24" stop-color="#FFDB5A"/><stop offset=".28" stop-color="#FFD857"/><stop offset=".64" stop-color="#C2882B"/><stop offset="1" stop-color="#DDA827"/></linearGradient><linearGradient id="w" x1="24.727" x2="25.305" y1="-373.303" y2="-373.303" gradientUnits="userSpaceOnUse"><stop stop-color="#FEE668"/><stop offset=".24" stop-color="#FFDB5A"/><stop offset=".28" stop-color="#FFD857"/><stop offset=".64" stop-color="#C2882B"/><stop offset="1" stop-color="#DDA827"/></linearGradient><linearGradient id="x" x1="23.628" x2="24.207" y1="-373.303" y2="-373.303" gradientUnits="userSpaceOnUse"><stop stop-color="#FEE668"/><stop offset=".24" stop-color="#FFDB5A"/><stop offset=".28" stop-color="#FFD857"/><stop offset=".64" stop-color="#C2882B"/><stop offset="1" stop-color="#DDA827"/></linearGradient><linearGradient id="y" x1="22.531" x2="23.11" y1="-373.303" y2="-373.303" gradientUnits="userSpaceOnUse"><stop stop-color="#FEE668"/><stop offset=".24" stop-color="#FFDB5A"/><stop offset=".28" stop-color="#FFD857"/><stop offset=".64" stop-color="#C2882B"/><stop offset="1" stop-color="#DDA827"/></linearGradient><linearGradient id="z" x1="21.435" x2="22.013" y1="-373.303" y2="-373.303" gradientUnits="userSpaceOnUse"><stop stop-color="#FEE668"/><stop offset=".24" stop-color="#FFDB5A"/><stop offset=".28" stop-color="#FFD857"/><stop offset=".64" stop-color="#C2882B"/><stop offset="1" stop-color="#DDA827"/></linearGradient><linearGradient id="A" x1="20.338" x2="20.917" y1="-373.303" y2="-373.303" gradientUnits="userSpaceOnUse"><stop stop-color="#FEE668"/><stop offset=".24" stop-color="#FFDB5A"/><stop offset=".28" stop-color="#FFD857"/><stop offset=".64" stop-color="#C2882B"/><stop offset="1" stop-color="#DDA827"/></linearGradient><linearGradient id="B" x1="19.24" x2="19.819" y1="-373.303" y2="-373.303" gradientUnits="userSpaceOnUse"><stop stop-color="#FEE668"/><stop offset=".24" stop-color="#FFDB5A"/><stop offset=".28" stop-color="#FFD857"/><stop offset=".64" stop-color="#C2882B"/><stop offset="1" stop-color="#DDA827"/></linearGradient><linearGradient id="C" x1="18.144" x2="18.722" y1="-373.303" y2="-373.303" gradientUnits="userSpaceOnUse"><stop stop-color="#FEE668"/><stop offset=".24" stop-color="#FFDB5A"/><stop offset=".28" stop-color="#FFD857"/><stop offset=".64" stop-color="#C2882B"/><stop offset="1" stop-color="#DDA827"/></linearGradient><linearGradient id="D" x1="17.047" x2="17.626" y1="-373.303" y2="-373.303" gradientUnits="userSpaceOnUse"><stop stop-color="#FEE668"/><stop offset=".24" stop-color="#FFDB5A"/><stop offset=".28" stop-color="#FFD857"/><stop offset=".64" stop-color="#C2882B"/><stop offset="1" stop-color="#DDA827"/></linearGradient><linearGradient id="E" x1="15.95" x2="16.529" y1="-373.303" y2="-373.303" gradientUnits="userSpaceOnUse"><stop stop-color="#FEE668"/><stop offset=".24" stop-color="#FFDB5A"/><stop offset=".28" stop-color="#FFD857"/><stop offset=".64" stop-color="#C2882B"/><stop offset="1" stop-color="#DDA827"/></linearGradient><linearGradient id="F" x1="14.852" x2="15.431" y1="-373.303" y2="-373.303" gradientUnits="userSpaceOnUse"><stop stop-color="#FEE668"/><stop offset=".24" stop-color="#FFDB5A"/><stop offset=".28" stop-color="#FFD857"/><stop offset=".64" stop-color="#C2882B"/><stop offset="1" stop-color="#DDA827"/></linearGradient><linearGradient id="G" x1="13.755" x2="14.334" y1="-373.303" y2="-373.303" gradientUnits="userSpaceOnUse"><stop stop-color="#FEE668"/><stop offset=".24" stop-color="#FFDB5A"/><stop offset=".28" stop-color="#FFD857"/><stop offset=".64" stop-color="#C2882B"/><stop offset="1" stop-color="#DDA827"/></linearGradient><linearGradient id="H" x1="12.659" x2="13.238" y1="-373.303" y2="-373.303" gradientUnits="userSpaceOnUse"><stop stop-color="#FEE668"/><stop offset=".24" stop-color="#FFDB5A"/><stop offset=".28" stop-color="#FFD857"/><stop offset=".64" stop-color="#C2882B"/><stop offset="1" stop-color="#DDA827"/></linearGradient><linearGradient id="I" x1="11.562" x2="12.14" y1="-373.303" y2="-373.303" gradientUnits="userSpaceOnUse"><stop stop-color="#FEE668"/><stop offset=".24" stop-color="#FFDB5A"/><stop offset=".28" stop-color="#FFD857"/><stop offset=".64" stop-color="#C2882B"/><stop offset="1" stop-color="#DDA827"/></linearGradient><linearGradient id="J" x1="10.465" x2="11.044" y1="-373.303" y2="-373.303" gradientUnits="userSpaceOnUse"><stop stop-color="#FEE668"/><stop offset=".24" stop-color="#FFDB5A"/><stop offset=".28" stop-color="#FFD857"/><stop offset=".64" stop-color="#C2882B"/><stop offset="1" stop-color="#DDA827"/></linearGradient><linearGradient id="K" x1="38.985" x2="39.563" y1="21.756" y2="21.756" gradientUnits="userSpaceOnUse"><stop stop-color="#FEE668"/><stop offset=".24" stop-color="#FFDB5A"/><stop offset=".28" stop-color="#FFD857"/><stop offset=".64" stop-color="#C2882B"/><stop offset="1" stop-color="#DDA827"/></linearGradient><linearGradient id="L" x1="37.888" x2="38.467" y1="21.756" y2="21.756" gradientUnits="userSpaceOnUse"><stop stop-color="#FEE668"/><stop offset=".24" stop-color="#FFDB5A"/><stop offset=".28" stop-color="#FFD857"/><stop offset=".64" stop-color="#C2882B"/><stop offset="1" stop-color="#DDA827"/></linearGradient><linearGradient id="M" x1="36.791" x2="37.37" y1="21.756" y2="21.756" gradientUnits="userSpaceOnUse"><stop stop-color="#FEE668"/><stop offset=".24" stop-color="#FFDB5A"/><stop offset=".28" stop-color="#FFD857"/><stop offset=".64" stop-color="#C2882B"/><stop offset="1" stop-color="#DDA827"/></linearGradient><linearGradient id="N" x1="35.694" x2="36.272" y1="21.756" y2="21.756" gradientUnits="userSpaceOnUse"><stop stop-color="#FEE668"/><stop offset=".24" stop-color="#FFDB5A"/><stop offset=".28" stop-color="#FFD857"/><stop offset=".64" stop-color="#C2882B"/><stop offset="1" stop-color="#DDA827"/></linearGradient><linearGradient id="O" x1="34.597" x2="35.176" y1="21.756" y2="21.756" gradientUnits="userSpaceOnUse"><stop stop-color="#FEE668"/><stop offset=".24" stop-color="#FFDB5A"/><stop offset=".28" stop-color="#FFD857"/><stop offset=".64" stop-color="#C2882B"/><stop offset="1" stop-color="#DDA827"/></linearGradient><linearGradient id="P" x1="33.501" x2="34.08" y1="21.756" y2="21.756" gradientUnits="userSpaceOnUse"><stop stop-color="#FEE668"/><stop offset=".24" stop-color="#FFDB5A"/><stop offset=".28" stop-color="#FFD857"/><stop offset=".64" stop-color="#C2882B"/><stop offset="1" stop-color="#DDA827"/></linearGradient><linearGradient id="Q" x1="32.404" x2="32.983" y1="21.756" y2="21.756" gradientUnits="userSpaceOnUse"><stop stop-color="#FEE668"/><stop offset=".24" stop-color="#FFDB5A"/><stop offset=".28" stop-color="#FFD857"/><stop offset=".64" stop-color="#C2882B"/><stop offset="1" stop-color="#DDA827"/></linearGradient><linearGradient id="R" x1="31.308" x2="31.886" y1="21.756" y2="21.756" gradientUnits="userSpaceOnUse"><stop stop-color="#FEE668"/><stop offset=".24" stop-color="#FFDB5A"/><stop offset=".28" stop-color="#FFD857"/><stop offset=".64" stop-color="#C2882B"/><stop offset="1" stop-color="#DDA827"/></linearGradient><linearGradient id="S" x1="30.209" x2="30.788" y1="21.756" y2="21.756" gradientUnits="userSpaceOnUse"><stop stop-color="#FEE668"/><stop offset=".24" stop-color="#FFDB5A"/><stop offset=".28" stop-color="#FFD857"/><stop offset=".64" stop-color="#C2882B"/><stop offset="1" stop-color="#DDA827"/></linearGradient><linearGradient id="T" x1="29.113" x2="29.692" y1="21.756" y2="21.756" gradientUnits="userSpaceOnUse"><stop stop-color="#FEE668"/><stop offset=".24" stop-color="#FFDB5A"/><stop offset=".28" stop-color="#FFD857"/><stop offset=".64" stop-color="#C2882B"/><stop offset="1" stop-color="#DDA827"/></linearGradient><linearGradient id="U" x1="28.017" x2="28.595" y1="21.756" y2="21.756" gradientUnits="userSpaceOnUse"><stop stop-color="#FEE668"/><stop offset=".24" stop-color="#FFDB5A"/><stop offset=".28" stop-color="#FFD857"/><stop offset=".64" stop-color="#C2882B"/><stop offset="1" stop-color="#DDA827"/></linearGradient><linearGradient id="V" x1="26.919" x2="27.498" y1="21.756" y2="21.756" gradientUnits="userSpaceOnUse"><stop stop-color="#FEE668"/><stop offset=".24" stop-color="#FFDB5A"/><stop offset=".28" stop-color="#FFD857"/><stop offset=".64" stop-color="#C2882B"/><stop offset="1" stop-color="#DDA827"/></linearGradient><linearGradient id="W" x1="25.823" x2="26.402" y1="21.756" y2="21.756" gradientUnits="userSpaceOnUse"><stop stop-color="#FEE668"/><stop offset=".24" stop-color="#FFDB5A"/><stop offset=".28" stop-color="#FFD857"/><stop offset=".64" stop-color="#C2882B"/><stop offset="1" stop-color="#DDA827"/></linearGradient><linearGradient id="X" x1="24.727" x2="25.305" y1="21.756" y2="21.756" gradientUnits="userSpaceOnUse"><stop stop-color="#FEE668"/><stop offset=".24" stop-color="#FFDB5A"/><stop offset=".28" stop-color="#FFD857"/><stop offset=".64" stop-color="#C2882B"/><stop offset="1" stop-color="#DDA827"/></linearGradient><linearGradient id="Y" x1="23.628" x2="24.207" y1="21.756" y2="21.756" gradientUnits="userSpaceOnUse"><stop stop-color="#FEE668"/><stop offset=".24" stop-color="#FFDB5A"/><stop offset=".28" stop-color="#FFD857"/><stop offset=".64" stop-color="#C2882B"/><stop offset="1" stop-color="#DDA827"/></linearGradient><linearGradient id="Z" x1="22.531" x2="23.11" y1="21.756" y2="21.756" gradientUnits="userSpaceOnUse"><stop stop-color="#FEE668"/><stop offset=".24" stop-color="#FFDB5A"/><stop offset=".28" stop-color="#FFD857"/><stop offset=".64" stop-color="#C2882B"/><stop offset="1" stop-color="#DDA827"/></linearGradient><linearGradient id="aa" x1="21.435" x2="22.013" y1="21.756" y2="21.756" gradientUnits="userSpaceOnUse"><stop stop-color="#FEE668"/><stop offset=".24" stop-color="#FFDB5A"/><stop offset=".28" stop-color="#FFD857"/><stop offset=".64" stop-color="#C2882B"/><stop offset="1" stop-color="#DDA827"/></linearGradient><linearGradient id="ab" x1="20.338" x2="20.917" y1="21.756" y2="21.756" gradientUnits="userSpaceOnUse"><stop stop-color="#FEE668"/><stop offset=".24" stop-color="#FFDB5A"/><stop offset=".28" stop-color="#FFD857"/><stop offset=".64" stop-color="#C2882B"/><stop offset="1" stop-color="#DDA827"/></linearGradient><linearGradient id="ac" x1="19.24" x2="19.819" y1="21.756" y2="21.756" gradientUnits="userSpaceOnUse"><stop stop-color="#FEE668"/><stop offset=".24" stop-color="#FFDB5A"/><stop offset=".28" stop-color="#FFD857"/><stop offset=".64" stop-color="#C2882B"/><stop offset="1" stop-color="#DDA827"/></linearGradient><linearGradient id="ad" x1="18.144" x2="18.722" y1="21.756" y2="21.756" gradientUnits="userSpaceOnUse"><stop stop-color="#FEE668"/><stop offset=".24" stop-color="#FFDB5A"/><stop offset=".28" stop-color="#FFD857"/><stop offset=".64" stop-color="#C2882B"/><stop offset="1" stop-color="#DDA827"/></linearGradient><linearGradient id="ae" x1="17.047" x2="17.626" y1="21.756" y2="21.756" gradientUnits="userSpaceOnUse"><stop stop-color="#FEE668"/><stop offset=".24" stop-color="#FFDB5A"/><stop offset=".28" stop-color="#FFD857"/><stop offset=".64" stop-color="#C2882B"/><stop offset="1" stop-color="#DDA827"/></linearGradient><linearGradient id="af" x1="15.95" x2="16.529" y1="21.756" y2="21.756" gradientUnits="userSpaceOnUse"><stop stop-color="#FEE668"/><stop offset=".24" stop-color="#FFDB5A"/><stop offset=".28" stop-color="#FFD857"/><stop offset=".64" stop-color="#C2882B"/><stop offset="1" stop-color="#DDA827"/></linearGradient><linearGradient id="ag" x1="14.852" x2="15.431" y1="21.756" y2="21.756" gradientUnits="userSpaceOnUse"><stop stop-color="#FEE668"/><stop offset=".24" stop-color="#FFDB5A"/><stop offset=".28" stop-color="#FFD857"/><stop offset=".64" stop-color="#C2882B"/><stop offset="1" stop-color="#DDA827"/></linearGradient><linearGradient id="ah" x1="13.755" x2="14.334" y1="21.756" y2="21.756" gradientUnits="userSpaceOnUse"><stop stop-color="#FEE668"/><stop offset=".24" stop-color="#FFDB5A"/><stop offset=".28" stop-color="#FFD857"/><stop offset=".64" stop-color="#C2882B"/><stop offset="1" stop-color="#DDA827"/></linearGradient><linearGradient id="ai" x1="12.659" x2="13.238" y1="21.756" y2="21.756" gradientUnits="userSpaceOnUse"><stop stop-color="#FEE668"/><stop offset=".24" stop-color="#FFDB5A"/><stop offset=".28" stop-color="#FFD857"/><stop offset=".64" stop-color="#C2882B"/><stop offset="1" stop-color="#DDA827"/></linearGradient><linearGradient id="aj" x1="11.562" x2="12.14" y1="21.756" y2="21.756" gradientUnits="userSpaceOnUse"><stop stop-color="#FEE668"/><stop offset=".24" stop-color="#FFDB5A"/><stop offset=".28" stop-color="#FFD857"/><stop offset=".64" stop-color="#C2882B"/><stop offset="1" stop-color="#DDA827"/></linearGradient><linearGradient id="ak" x1="10.465" x2="11.044" y1="21.756" y2="21.756" gradientUnits="userSpaceOnUse"><stop stop-color="#FEE668"/><stop offset=".24" stop-color="#FFDB5A"/><stop offset=".28" stop-color="#FFD857"/><stop offset=".64" stop-color="#C2882B"/><stop offset="1" stop-color="#DDA827"/></linearGradient><linearGradient id="al" x1="9.119" x2="50.357" y1="25.323" y2="25.323" gradientUnits="userSpaceOnUse"><stop stop-color="#DDA827"/><stop offset=".36" stop-color="#C2882B"/><stop offset=".72" stop-color="#FFD857"/><stop offset=".76" stop-color="#FFDB5A"/><stop offset="1" stop-color="#FEE668"/></linearGradient><linearGradient id="am" x1="9.119" x2="50.357" y1="25.552" y2="25.552" gradientUnits="userSpaceOnUse"><stop stop-color="#DDA827"/><stop offset=".36" stop-color="#C2882B"/><stop offset=".72" stop-color="#FFD857"/><stop offset=".76" stop-color="#FFDB5A"/><stop offset="1" stop-color="#FEE668"/></linearGradient><linearGradient id="an" x1="-1.406" x2="50.357" y1="25.593" y2="25.593" gradientUnits="userSpaceOnUse"><stop stop-color="#DDA827"/><stop offset=".36" stop-color="#C2882B"/><stop offset=".72" stop-color="#FFD857"/><stop offset=".76" stop-color="#FFDB5A"/><stop offset="1" stop-color="#FEE668"/></linearGradient><linearGradient id="ao" x1="9.12" x2="50.358" y1="25.586" y2="25.586" gradientUnits="userSpaceOnUse"><stop stop-color="#DDA827"/><stop offset=".36" stop-color="#C2882B"/><stop offset=".72" stop-color="#FFD857"/><stop offset=".76" stop-color="#FFDB5A"/><stop offset="1" stop-color="#FEE668"/></linearGradient><linearGradient id="ap" x1="9.118" x2="50.357" y1="25.451" y2="25.451" gradientUnits="userSpaceOnUse"><stop stop-color="#DDA827"/><stop offset=".36" stop-color="#C2882B"/><stop offset=".72" stop-color="#FFD857"/><stop offset=".76" stop-color="#FFDB5A"/><stop offset="1" stop-color="#FEE668"/></linearGradient><linearGradient id="aq" x1="-1.406" x2="50.357" y1="25.424" y2="25.424" gradientUnits="userSpaceOnUse"><stop stop-color="#DDA827"/><stop offset=".36" stop-color="#C2882B"/><stop offset=".72" stop-color="#FFD857"/><stop offset=".76" stop-color="#FFDB5A"/><stop offset="1" stop-color="#FEE668"/></linearGradient><linearGradient id="ar" x1="15.929" x2="20.27" y1="32.335" y2="32.335" gradientUnits="userSpaceOnUse"><stop stop-color="#FEE668"/><stop offset=".24" stop-color="#FFDB5A"/><stop offset=".28" stop-color="#FFD857"/><stop offset=".64" stop-color="#C2882B"/><stop offset="1" stop-color="#DDA827"/></linearGradient><linearGradient id="as" x1="15.929" x2="20.27" y1="32.335" y2="32.335" gradientUnits="userSpaceOnUse"><stop stop-color="#DDA827"/><stop offset=".36" stop-color="#C2882B"/><stop offset=".72" stop-color="#FFD857"/><stop offset=".76" stop-color="#FFDB5A"/><stop offset="1" stop-color="#FEE668"/></linearGradient><linearGradient id="at" x1="29.752" x2="34.1" y1="32.335" y2="32.335" gradientUnits="userSpaceOnUse"><stop stop-color="#FEE668"/><stop offset=".24" stop-color="#FFDB5A"/><stop offset=".28" stop-color="#FFD857"/><stop offset=".64" stop-color="#C2882B"/><stop offset="1" stop-color="#DDA827"/></linearGradient><linearGradient id="au" x1="29.752" x2="34.1" y1="32.335" y2="32.335" gradientUnits="userSpaceOnUse"><stop stop-color="#DDA827"/><stop offset=".36" stop-color="#C2882B"/><stop offset=".72" stop-color="#FFD857"/><stop offset=".76" stop-color="#FFDB5A"/><stop offset="1" stop-color="#FEE668"/></linearGradient><linearGradient id="av" x1="20.956" x2="29.213" y1="34.185" y2="34.185" gradientUnits="userSpaceOnUse"><stop stop-color="#FEE668"/><stop offset=".24" stop-color="#FFDB5A"/><stop offset=".28" stop-color="#FFD857"/><stop offset=".64" stop-color="#C2882B"/><stop offset="1" stop-color="#DDA827"/></linearGradient><linearGradient id="aw" x1="20.956" x2="29.213" y1="34.185" y2="34.185" gradientUnits="userSpaceOnUse"><stop stop-color="#DDA827"/><stop offset=".36" stop-color="#C2882B"/><stop offset=".72" stop-color="#FFD857"/><stop offset=".76" stop-color="#FFDB5A"/><stop offset="1" stop-color="#FEE668"/></linearGradient><linearGradient id="ax" x1="20.046" x2="30.12" y1="14.589" y2="14.589" gradientUnits="userSpaceOnUse"><stop stop-color="#FEE668"/><stop offset=".24" stop-color="#FFDB5A"/><stop offset=".28" stop-color="#FFD857"/><stop offset=".64" stop-color="#C2882B"/><stop offset="1" stop-color="#DDA827"/></linearGradient><linearGradient id="ay" x1="20.046" x2="30.12" y1="14.589" y2="14.589" gradientUnits="userSpaceOnUse"><stop stop-color="#DDA827"/><stop offset=".36" stop-color="#C2882B"/><stop offset=".72" stop-color="#FFD857"/><stop offset=".76" stop-color="#FFDB5A"/><stop offset="1" stop-color="#FEE668"/></linearGradient><linearGradient id="az" x1="30.788" x2="36.091" y1="18.325" y2="18.325" gradientUnits="userSpaceOnUse"><stop stop-color="#FEE668"/><stop offset=".24" stop-color="#FFDB5A"/><stop offset=".28" stop-color="#FFD857"/><stop offset=".64" stop-color="#C2882B"/><stop offset="1" stop-color="#DDA827"/></linearGradient><linearGradient id="aA" x1="30.788" x2="36.091" y1="18.325" y2="18.325" gradientUnits="userSpaceOnUse"><stop stop-color="#DDA827"/><stop offset=".36" stop-color="#C2882B"/><stop offset=".72" stop-color="#FFD857"/><stop offset=".76" stop-color="#FFDB5A"/><stop offset="1" stop-color="#FEE668"/></linearGradient><linearGradient id="aB" x1="14.005" x2="19.308" y1="18.325" y2="18.325" gradientUnits="userSpaceOnUse"><stop stop-color="#FEE668"/><stop offset=".24" stop-color="#FFDB5A"/><stop offset=".28" stop-color="#FFD857"/><stop offset=".64" stop-color="#C2882B"/><stop offset="1" stop-color="#DDA827"/></linearGradient><linearGradient id="aC" x1="14.005" x2="19.308" y1="18.325" y2="18.325" gradientUnits="userSpaceOnUse"><stop stop-color="#DDA827"/><stop offset=".36" stop-color="#C2882B"/><stop offset=".72" stop-color="#FFD857"/><stop offset=".76" stop-color="#FFDB5A"/><stop offset="1" stop-color="#FEE668"/></linearGradient></defs></svg>