<svg xmlns="http://www.w3.org/2000/svg" xml:space="preserve" viewBox="0 0 96 50"><path d="M85.2 15.6c-.6-.8-1.2-1.6-1.9-2.4-1.3-1.5-1.9-3.5-2.2-5.4-.1-.7-.8-1.2-1.5-1-1.4.5-3.3.9-5.5 1.5-3.8.8-7.4 1.2-10.6 1.2-3.3 0-6.2-.5-8.8-1.3-4.6-1.4-9.4-3.1-14-5.7q-.6-.3-1.2 0c-.8.4-1.6 1-2.1 1.2-.6.4-.8.5-1 .6-2.3 1.1-4.7 1.6-7.1 2-.4.1-.7.1-1.1.2-2.6.5-4.9.7-7 .7-3.6 0-7-.7-10.7-2.2l-1.1-.4c-.3-.1-.5-.2-.7-.3-.3-.1-.5 0-.7 0h-.1c-.1 0-.1.1 0 .2 0 .1.1.2.1.2-.1.3 0 .5 0 .7.1.5.2.9.3 1.4s.2.8.2 1c1.6 6.9 3 19-3.9 28.2h.1c.4 0 1 .1 1.2.1 3.1 0 6.1.5 10 1.6 4.6 1.3 9.6 5 13 9.2.3.4.8.6 1.3.4 5.8-2 12-3.3 18.8-3.9 3.2-.3 6.1-.4 8.7-.4 6.6 0 12.7.8 19.7 2.7.7.2 1.5-.3 1.5-1 .1-.9.2-2 .4-3.2.6-3.2 1.8-6.8 2.6-8.2 1.9-3.7 5-7 8.9-9.6.6-.4.7-1.4.1-1.9-2.2-1.9-3.9-4-5.7-6.2" style="fill:#0a4129"/><path d="M84.9 11.9c-1.5-1.8-2-4.4-1.9-6.8 0-.9-.9-1.5-1.7-1.1-2.6 1.2-6.7 2.2-7.6 2.4-3.2.6-6.7 1.1-10.2 1.1-2.8 0-5.6-.3-8.2-1.2-5.1-1.6-9.9-3.2-14.5-6-.3-.2-.8-.2-1.1-.1-1.3.6-3.7 2.1-4.1 2.3-2.4 1.2-5.1 1.6-7.7 2.1-2.3.5-4.5.7-6.6.7-3.3 0-6.5-.6-10-2.1C9.8 2.6 8.4 2 7 1.4c-1-.4-1.9.5-1.7 1.4.6 2.1 1 4.6 1.2 5.4q1.05 4.35 1.2 9c.1 3-.1 6.1-.8 9S5 31.9 3.3 34.3c-.3.4-.6.9-1 1.3-.3.4-.8.7-.9 1.2-.1.2-.1.4 0 .5l.2.2c.7.3 1.5.3 2.3.4.7.1 1.3.2 2 .2 3.2 0 6.2.6 9.3 1.5C19.9 41 25 45.1 28 49.2c.3.5.9.6 1.4.4 6.4-2.5 12.9-3.8 19.7-4.3 3-.3 5.8-.4 8.6-.4 6.8 0 13.3.9 21.6 3.4.8.3 1.7-.5 1.5-1.3-.5-3.8 1.8-11 2.8-12.8 2.3-4.3 6.2-7.9 10.5-10.2.8-.4.9-1.5.1-2-3.8-2.8-6.2-6.3-9.3-10.1m-5.6 29.6c-.2 1.2-.3 2.2-.4 3.2-.1.7-.8 1.2-1.5 1-7-1.9-13.1-2.7-19.7-2.7-2.6 0-5.5.1-8.7.4-6.8.6-13 1.9-18.8 3.9-.5.2-1 0-1.3-.4-3.4-4.2-8.4-7.9-13-9.2-.4-.1-.8-.2-1.3-.3-1.6-.4-3.3-.8-4.9-1-.8-.1-1.5-.2-2.3-.2-.7 0-1.5.1-2.1-.2 0 0-.1 0-.1-.1 0 0 0-.1-.1-.1-.1-.6.4-1.1.7-1.6.3-.6.7-1.1 1-1.7 1.4-2.8 2.3-5.8 2.7-8.9.4-2.9.4-5.8.2-8.7-.1-1.3-.3-2.6-.5-3.9-.1-.5-.2-1.1-.4-1.6-.1-.5-.3-1.1-.3-1.6 0-1-.5-2-.3-3.1.1-.7.7-.3 1.2-.1l1.1.4c3.7 1.5 7.1 2.2 10.7 2.2 2.1 0 4.4-.2 7-.7.4-.1.7-.1 1.1-.2 2.4-.4 4.8-.9 7.1-2 .2-.1.4-.2 1-.6.5-.2 1.4-.8 2.1-1.2q.6-.3 1.2 0c4.6 2.6 9.4 4.2 14 5.7 2.6.8 5.5 1.3 8.8 1.3 3.2 0 6.8-.4 10.6-1.2 2.2-.5 4-1 5.5-1.5.7-.2 1.5.2 1.5 1 .3 1.9.9 3.9 2.2 5.4.7.8 1.3 1.6 1.9 2.4 1.8 2.2 3.5 4.3 5.6 6.2.6.5.5 1.4-.1 1.9-3.8 2.6-7 6-8.9 9.6-.7 1.4-1.9 5-2.5 8.2" style="fill:#fff"/></svg>