<svg xmlns="http://www.w3.org/2000/svg" width="24" height="24" fill="none"><path fill="#fff" d="M10.363 1.598a2.54 2.54 0 0 1 3.274 0l7.617 6.424a2.54 2.54 0 0 1 .903 1.94v11.063c0 1.09-.885 1.975-1.975 1.975h-3.95a1.975 1.975 0 0 1-1.975-1.975v-6.207a.28.28 0 0 0-.282-.282h-3.95a.28.28 0 0 0-.282.282v6.207c0 1.09-.884 1.975-1.975 1.975h-3.95a1.975 1.975 0 0 1-1.974-1.975V9.963c0-.749.33-1.459.902-1.941zm2.183 1.294a.846.846 0 0 0-1.092 0L3.837 9.316c-.19.16-.3.397-.3.647v11.062c0 .156.126.282.281.282h3.95a.28.28 0 0 0 .282-.282v-6.207c0-1.09.884-1.974 1.975-1.974h3.95c1.09 0 1.975.884 1.975 1.974v6.207c0 .156.126.282.282.282h3.95a.28.28 0 0 0 .282-.282V9.963c0-.25-.11-.487-.3-.647z"/></svg>