<svg xmlns="http://www.w3.org/2000/svg" width="120" height="120" fill="none"><g fill="#EE4D4D" clip-path="url(#a)"><path d="M118.166 61.2c-.088.55 1.133.348 1.336.435-.32-.926-1.656-.405-1.336-.434m-3.516-8.594.494.087-1.395-1.071zm-1.801-7.9c-1.773 1.331 1.075 2.749.726 4.34l-.407.319 1.802.29c-.698-1.68-2.325-3.589-2.092-4.949zm2.673-5.729c-.64.578-.988-.695.145 1.1.058-.117.087-.175.116-.261-.087-.174-.174-.405-.261-.868zm.261.868c.378.839.436-.81 0 0m-2.063-3.733 1.191.81c.32-.434-.058-1.447.436-1.244-.9-.984-1.22-.521-1.627.434m-1.859-.376.552.405c.145-.174.116-.347-.552-.405m1.685 1.331-1.162-.897c-.233.29-.843.607.465.434-.611.173.029.145.668.463zm.029.81c-.116.781-.087 1.678-1.191.868 1.046 1.968 2.353 1.129 1.191-.868m-2.906 7.089c-.087.319-.203.637-.319.955l.842.492c-.406-.231.117-1.678-.523-1.418zm.349-16.001c-.407.173-.784.983-1.22 1.33l.901.493c0-.55-.204-1.418.319-1.823m-1.22 1.331-1.337-.724c.523 1.042.959 1.042 1.337.724m-.116 6.279 2.353 1.186-2.528-1.533zm-1.54-11.893h1.278l-2.063-.174zm-2.267-2.604c1.046-.116.552-1.505 1.366-1.39-.756-.607-1.86-.752-2.818-.838.784.318 1.278 1.012 1.452 2.228m-2.934-2.46c.407.145.93.174 1.511.232-.407-.174-.901-.26-1.511-.232m4.474 8.016c.146-.232.61-.782.407-1.563l-.697 1.128s.203.26.29.434m-.29-.404c-.32-.493-.523-.84-.61-.956.087.116.261.406.581.955z"/><path d="m107.503 27.722-.088-.117s-.087.146.088.117m1.656 5.41c-.988-.318-2.412-1.215-2.557.58 1.017 0 1.075-1.014 2.557-.58m-2.557-4.022c.203.405.319.868.494 1.302.261-.202.523-.665 1.017-.55a24 24 0 0 0-1.511-.752m-.727-.318.727.318-.233-.463zm-2.179-6.598c-.813-.086-1.278-.55-1.83-1.012a7.5 7.5 0 0 0 1.336 1.996c.378-.174 1.133-.376.523-.984zm1.656 2.46-.145-.058s0 .203.145.058m-8.745-8.507s-.03.173-.058.26l.145-.145zm6.479 7.263c.203.578.668.665 1.191.665a6.6 6.6 0 0 1-1.104-.897c-.174.087-.261.145-.087.26zm-2.005-4.89c.059.405.146.78.262 1.215.087-.521.058-1.36-.262-1.216m4.271 5.701s.059 0 .088.029c.087-.319 0-.232-.088-.03m0 .001c-.319-.145-.697-.145-1.075-.145.291.232.61.405.93.521 0-.116.087-.26.145-.376"/><path d="M89.983 21.095c.726-.84 2.614-.897 2.672.897 1.424.144 3.4-3.183 3.894-5.585-.349.376-.64.666-2.121.405.029.723 1.278 2.98-.203 3.067-1.628-.665-.814-1.157-1.076-2.17-.348 1.534-2.992.376-3.922 2.286l1.569.232c-.174.26-.9.376-.785.839zm8.397-2.865.522.26c-.348-.578-.377-1.215-.406-2.46-1.075-.23-1.482 0-1.802.232l1.947 1.968zm2.353 1.968c-1.163.52-2.528.087-2.877 1.562 1.192 1.013 1.511.058 2.557.377-1.976-1.708 1.017.086.233-1.823.494.231.871.55 1.22.839a12 12 0 0 1-.523-1.418v.087c-.029.202-.087.289-.087.144h-.058c-.146.116-.291.174-.407.232-.349-.753.145-.319.407-.232.058-.029.116-.058.145-.116-.756-.52-1.627-.926-2.412-1.36.29.521.872.926 1.831 1.708zm2.876 13.774s.145-.174.204-.232c-.204-.058-.32-.058-.204.232m.116-1.245c.233.058.727-.087.93.463-.058.608-.523.319-.842.55.464.116 1.394.579 1.336-.694l-.232-.058c-.146-1.042.464-3.039.697-2.98-.785.867-1.308 1.533-1.889 2.69zm-1.365-6.077c-.552-.433-1.191-.81-1.831-1.186l-.116 1.476.465-.463c.552 1.042.988.376 1.482.174M96.81 15.51l1.075-.81c-.726.173-1.481.405-2.208.636zm-2.44-1.62.784-.869-1.046.087zM19.292 84.784l.552.26c-.203-.144-.377-.23-.552-.26m-1.656-3.212-.552.174c.349 0 .581 0 .552-.174m9.472-70.518c-1.366-.405-3.254-1.216-2.44-.203l.958.897c.436-.55.96-.694 1.482-.694M7.293 51.42s.261-.116.407-.173q-.567-.434-1.046-.782c.203.29.377.608.639.955m5.055 1.534-.959.84c.32-.174.64-.464.96-.84M33.5 98.066l1.191-.752c-.726-.463-.755.26-1.19.752M67 3.096c-.755-.608-1.365-.897-1.947-1.042.93.869 1.54 2.055 1.947 1.042M6.828 90.022q.61.346.959.087c-.407-.232-.727-.319-.96-.087M62.671 1.88s.29.203.407.32c.61-.174 1.25-.348 1.975-.146-.668-.636-1.51-.983-2.382-.144zm33.5 85.046s.116-.058.203-.058c-.145-.116-.174-.058-.203.058m19.903-17.565c.029.26 0 .694-.058 1.1.116-.174.145-.521.058-1.1M84.607 7.35c.146-.087.61.202 0 0m.349 5.672c-.174.057-.349.202-.494.434.174-.26.349-.377.494-.434M56.744 9.578h-.058c.174.232.145.203.058 0m28.444-1.302a3 3 0 0 0-.552-.666c.088.145.233.348.552.666m.146-.608c.174.145.32.232.436.347.174-.144.174-.289-.436-.347m-1.54-.636c.32.144.61.347.842.55-.087-.116-.087-.203-.029-.232-.174-.058-.406-.174-.813-.318M64.937 109.727s.087.058.117.087c.435-.578.232-.463-.117-.087m-40.589-79.69v-.088h-.087zm-.436 1.909c-.697-1.563-.261-1.765.378-1.939l-3.08-1.996a95 95 0 0 0 2.702 3.964z"/><path d="m26.897 25.813 1.592.058c.202 2.353-.897 2.47.897 2.992-1.244-1.481-.55-2.382.26-3.108.81-.727 1.62-1.482.55-3.138l1.1.203c-.203.087-.087.32-.29.407 2.228.639-.723-3.022 1.331-3.603.753-.116 1.447.145 1.302.784l.84-1.656c.434-.145.636.494.231.669.608-.494 1.302-.872 1.939-1.308v.116c.058-.697.347-1.917.55-2.44.78.232-.116.523.231.9.26-.464.521-.987.84-1.452.896.726.26 2.063-.58 2.353 2.634 3.08.58-1.424 3.878-.174l-.926.871c1.505 1.83 2.055.756 3.675 1.657-.434-.61-3.588-2.412-2.633-3.807.463.146.984.088 1.476-.9.434 1.336 1.012.842 1.88.523l.434 1.801c.782-.755.492-1.656.869-2.615 1.128-.116 1.62 1.25 2.112 2.412 1.736.058-1.62-2.092.347-2.731 1.592.522 2.43-.523 4.138-1.715 1.1.581-.087 1.133.318 1.656l.81-1.51c.232 0 .174.494.145.726.753-.61-.029-1.86 1.216-2.44.144-1.018.839-.35 1.65.377.81.755 1.706 1.482 2.545.349.348.552-.26 1.133-.173 1.86 2.199-1.424 1.852-1.076 3.877-2.82l1.331 1.425c-.897-1.54.753-2.964 2.402-4.097-.29-.726-.55-1.366-.752-1.685A17 17 0 0 1 68.71 6.2c.202.377-.174.93-.666 1.598.174-.117.347-.233.492-.32.608.872-.029 1.801-.781 2.673a24 24 0 0 1-.492-1.307c-.753 1.017-1.447 2.179-1.534 3.283.174-.203.463-.349.752-.407-.202.29-.318.552-.289.726 0 .204.318-.203.724-.552v2.15l.289-.784 2.141 1.889c1.158-.814 2.373-1.773 3.704-2.47s2.865-1.25 4.514-1.017c-1.302 1.046-1.128 2.208-1.88 3.835 0-2.092-2.46-.058-3.705-.93.666.465.232 1.22-.058 1.424l3.126-.697c-.608 1.336.115 1.191.492 2.092.694-2.906 2.604-.872 4.022-1.192-.405.901-1.1 1.657-2.17.872.289 2.586 3.327-2.266 3.732.203-.289-.145-.376-.377-.723 0 1.1-.348 2.402 1.25 1.563 1.744l-.29-.145c1.765 1.307 5.353 3.835 7.263 2.15-.202.261-2.112 2.092-2.546 2.411a69 69 0 0 1 8.594-3.428c-1.707 1.307-4.254 5.81-6.395 5.491.145.581.434 1.191 1.678 1.453 0-.465 1.563-2.819 2.055-2.586-.752 2.673-.232 1.598-.637 4.184 0-.698 2.836-2.499 3.357-1.744-.463.233-2.43 2.18-2.894 2.209a44 44 0 0 1 3.878-.465c-.782-.058-2.2 1.656-2.662 2.586.376-.552 1.012 1.452 1.591 1.685l.087-1.133c1.013 2.12 5.122-.669 6.337 1.627-.752.058-3.906 1.54-3.646 2.73 1.736-.464 8.247-1.713 10.475.059l-.666.813c.608.407 1.216.814 1.737 1.279-2.749-.262-8.913-.697-11.314-.959-.29 1.133-.898.755-.261 1.86-.608.813-1.505 0-1.707-.29l.723 2.817c.868-.465 1.534-.174 2.2.175.607.348 1.186.755 1.909.407-.955-.814-2.112-1.482-3.154-2.18 1.62-.988 5.961-.639 6.395 1.773-.521.813-3.386.813-3.964 1.133.723 0 1.91 1.482 1.533 1.83l-1.302-.523c-.289 1.308 3.154 1.046 1.708 2.993 0 .523-2.055 2.034-.926 1.83 1.967-1.249 8.565-3.225 10.33-2.992-.058.261-1.302 3.486-2.373 4.3-1.591 1.162-4.283-.581-5.643.465.521-.058 1.245.261 1.476.436-.376.61-1.649.058-1.244 1.162 1.968-.117.203 2.382 1.736.29.695 1.075-.145 1.279 0 2.615 1.244-.58 4.399.872 5.006 2.18-.492-.059-1.157.26-1.447.406.029 2.557-1.157 3.864-1.215 6.16-.492.174-1.129 1.22-1.939.668.319.349.926.726.868 1.424-1.881 1.104-.029-1.57-2.228-.785 1.129.203 1.302 1.947 1.852 3.05 1.794 0 .695-2.265.116-3.311 2.431.232 4.717 2.324 5.411 5.2.203 2.209-1.736.552-1.447.988-1.418 3.574 3.444 4.417.608 7.09-1.91.726-2.952-.96-4.109-1.075.029-1.686 1.765-2.063 1.968-3.196l-1.042 1.133c-.376-.668-.492-1.802.116-2.237-1.505.639-2.026 5.985-4.457 7.99.261.668.377 1.685 1.1 1.598l.203-.901c1.504-.262.81 2.324 1.851 1.482.203 1.481.926 3.573-.694 4.765l-1.707-.61c.463.232 1.533-.494 1.302-1.192.289 1.075-3.472 1.104-1.91 3.022l1.707-.436c.087 1.54.868 4.097-.665 5.114 1.881.378.058-.407 2.459-.262-2.662-.523 2.373-3.719-.781-3.69 2.662.146 2.026-1.249 4.543-1.801-.55-.232-1.244 0-.347-1.162a2.5 2.5 0 0 1-.318-.523c.029-.03.057-.03.086-.058h-.086s-.058-.058-.029.058c-.376.203-.782.29-1.1.261-.897-1.25.116-3.225-.202-4.184.607-.639.463.581 1.244.436a14 14 0 0 0-.521-1.424c1.244.407 2.778-1.307 2.778.872l.694-1.685c1.042-.755 1.852-2.092 1.621-3.138.492-.784-.839-2.499-.029-1.51l-.087-2.964.318.058c.492-1.337.116-2.877.087-4.388-.058-1.51.261-2.963 1.447-4.474-.289-.988-.637-1.947-.174-3.516l1.129-.29c-.318-1.22.984-3.748-.174-4.213 1.447-.755 1.65-2.324 1.216-3.922-.377-1.598-1.1-3.254-1.013-4.388l-1.447.204c-.174-1.482-1.013-2.76-1.997-4.358l-1.215.464c-1.331-1.19-.289-4.01-1.273-6.334.521 0 .608.61.492 1.134.897-1.918-.203-3.225-1.476-4.3-1.273-1.105-2.46-2.093-2.199-3.749-.753-.348-.868-.813-.81-1.394.029.058.086.087.144.116 0-.058-.058-.145-.115-.232.028-.378.115-.756.115-1.163-.115.407-.202.785-.202 1.046-.29-.435-.839-1.017-1.505-1.481l.984-1.046s-.058-.088-.116-.117c.029-.93-.868-.145-1.534.785a2.7 2.7 0 0 0-1.244-.32c1.476-1.772-1.765-1.104-.318-3.196-.608.146-1.36-.465-2.199-.959-.897-.435-1.91-.755-2.98-.087.23-.232.202-.494.462-.203-.318-.785-.665-1.57-1.65-1.627l1.043-1.482a26 26 0 0 0-2.923.436c0-1.482.029-2.295 1.794-2.528-3.386-.232-2.141-.9-5.122-.755l.81-.814c-.665-.436-2.604 0-2.401-1.017-.058-2.992-6.945-5.142-10.33-8.745-.29 1.743-.58 1.162-1.013.465-.434-.669-1.013-1.482-1.563-.29.029-.844-.405-1.483.55-1.89-2.518-.058-3.01-2.527-5.267-.784-.058-.843.81-.988.724-1.51-.232.115-.926.464-1.042-.059s.52-.552.984-.784c-2.489-.523-3.299 1.83-3.964 4.038-.897-1.394-1.563-1.365-2.663.03-.26-.814-.839-1.686.666-1.744-.781-.232-4.89-1.889-5.15 0-.203-.494-1.13-.203-1.36 0-1.824-.203-1.968-.378-3.791-.29l.491.319c-.723 2.18-1.475.494-2.893.843V4.34c-3.357-1.394-1.302.727-4.717-.726l.347 1.365c.116 3.022-3.067-1.336-4.774.117l.81.668c-.752 1.133-3.675-3.312-4.89-3.4-.29-.203.26-.493.55-.784-3.3-.959.086 1.86-1.823 2.79-.666-.814-.232-2.558-1.679-2.296-1.013-.465-2.893 4.387-5.353 3.428.695.494 1.36 1.017.723 1.976-1.157.872-4.948-.843-4.977 1.947-.26-.087-.434-.233-.52-.378-.695 1.133-2.634 2.818-2.49 4.242-1.764-1.743-2.864-.145-3.79 1.308-.955 1.423-1.533 2.934-2.98 1.249l-2.43 2.528-.261-.378c-1.852 1.366-1.534 2.76-1.274 4.01-.55.174-.636-.378-.752-.553-2.894 1.773-2.894 2.354-2.72 5.782l-1.331-.61c.203.959-4.543 2.731-4.63 6.45-.145-.116-.347-.29-.405-.61 0 2.034-1.939 3.516-3.154 5.114-1.186 1.598-1.852 3.167.405 4.59.116.872.376 1.773.579 2.615 1.128-2.76 2.083 1.046 3.212.117 0 1.133-2.257 2.411-2.17.987l.318-.145c-2.489-1.22-1.881 3.312-3.617 2.877C.102 54.519-1.52 60.388-1.113 66.228l2.025-.872c0 .64.087 1.308.145 1.947-.405.58-1.534.93-1.65-.523-1.07.9 1.36 2.237 1.823 2.179-.434 2.876-2.604-.668-2.517.174l.347 1.133.203-.32c1.041.785 1.823.698 2.17 2.354-.145 1.133-1.129.843-1.1 1.279-.144.029-.173.203.116.668l.463 2.528 1.36-1.453c1.042.843.521 2.266 2.026.61-1.187 1.191-.608 3.457.144 5.578.869 2.063 2.055 3.865 1.852 4.533 1.679.843 2.547 2.034 3.357 3.72.058-.582 1.505-1.802 2.112-.35-3.617 1.686.203 3.313-1.186 6.044.376-1.046 1.157-.174 1.968.552s1.736 1.191 2.141-.32c.637 1.192-1.042.988-1.042 2.354 3.212 1.394 4.254 5.927 7.871 8.048.347-.378.318-1.395 1.447-1.482a67 67 0 0 0 .173 3.341c.81.262 2.2-1.946 2.46.291.058-.465.174-1.162.695-1.017 2.575 3.138 6.452 4.649 10.243 5.811 1.91.581 3.762 1.278 5.643 1.976 1.852.784 3.646 1.859 5.498 3.254-.926-1.133-.174-1.133.636-1.046-.492-.32.203-1.25.203-1.947.984.785 1.968 1.627 3.038 2.383.782-1.889 3.588.058 3.993-1.773l-1.041.291c1.389-2.092-1.62-4.91-1.129-7.671-.781 1.221-1.591.233-2.46-.726-.867-.93-1.765-1.714-3.154-.145-.376-.639.58-.814.434-1.482-.752 1.133-1.475 1.162-2.517.349l.203-.262c-3.386-.523-4.457-2.208-7.524-4.329l-.318 1.366c-.666-.523-.637-.988-.81-1.453-1.737 1.482 1.996 1.104.289 2.818.058-1.54-1.215-2.15-2.46-2.818-1.215-.668-2.286-1.569-1.765-3.08-1.041-.64-.52 1.54-1.591.872l.173-.901-.868.755c-.608-.58-.29-1.772.087-2.353.116.174.55.174.752.232-.231-1.452-2.488-1.452-2.604-1.946l.608 1.104c-3.27-1.279-5.325-5.027-8.797-6.305l-.318.61c-2.576-1.22-.695-2.063-2.836-3.951h.174c-.898-.058-1.534-.552-1.881-1.279 1.012.204.578-1.917 1.765-1.569-2.489-1.656-1.592-.58-4.572-1.046l.752-.9c-1.128-.117-1.62.058-2.517-1.163 1.36.669 1.1-1.51 2.749-.871.405-1.802-.55-2.499-1.245-3.196-.723-.669-1.273-1.22.116-2.412-3.27-.32-.694 2.935-1.533 2.44-.666.96-2.489-.319-2.547-1.336-.318-.959 3.154-2.73 2.518-4.91.057.232.26.174.318.407.55-1.017-1.505-1.395-.405-2.702-1.852-.262-.087-1.366-2.402-1.192l.84 2.092c-.753-1.075-3.589-1.888-2.634-4.183.492.116 1.186.668 1.591 1.045.608-.668-.665-1.104 0-1.8 2.229-.059.898 2.585 2.778 3.573.869-.756-1.996-2.15.55-1.86-1.62-.232-1.62-.813-1.533-1.482.144-.668.405-1.394-.84-2.12h1.39c-.232-.204-.898-.698-.898-1.134l1.823.727c-1.562-1.191 1.158-2.383.434-3.516-.057 2.44-1.707.523-2.69 1.598-1.737-3.225 3.645-1.743 3.153-5.055.145.465-.897 1.627-1.504.871.289-.639.926-1.423 1.707-1.714.058-2.237-1.447.145-2.141-.9 1.765-.524-.492-1.221-.869-2.354l1.36.261c1.36-2.382-2.72-1.307-1.1-3.428l1.621 1.453-.173-1.308 1.475.64c-.78-1.57-.491-1.947.406-3.022-1.042 0-2.344-.96-1.968-2.121 1.07-.494 1.1.871 1.476-.756.694.669 1.591 1.424.115 1.656.406.233.695.64 1.1.843 1.186-.465.926-1.86 1.1-2.412-.116.204-.29.407-.521.465a18.6 18.6 0 0 1-.84-2.934c.637-.116.898.32 1.13.755.057-.494-.377-1.075-.175-1.772.926.668 1.997 1.162 2.084 2.237l-.203-2.528c.492.087 1.679-.348 1.94.087 1.186-.61-.406-3.66 1.243-4.532-.144-.203-.202-.436-.115-.814 1.186-1.075 2.893-1.336 2.98-3.631l2.2.61c.607-1.366-2.837-.698-1.795-2.993.695-1.743 1.65.755 2.46.726-.145-1.249-.405-3.835 1.823-3.631-.145.639-.608.697-.868 1.133zm14.729-9.734c-.232.407-.55 1.482-1.07.785-.203-1.627.375-1.017 1.07-.785m27.634-4.358c-.376.378-.723.058-1.07-.581.376 0 .752.116 1.07.581m43.376 67.29-.058-.057c.869-.756.521-.494.058.058m-1.273 1.744c.116.262.289.32.521.32-.289-.262-.145-.698.116-1.163-.405 0-.724.175-.637.843M.593 73.608l.261-.465c.608.755.203.61-.26.465"/><path d="M11.767 52.78c-.261.058-.523.03-.784 0 .203.174.464.232.784 0m21.501 45.402.029.058c.058-.058.145-.116.174-.174l-.232.145zm17.2-82.44a1.73 1.73 0 0 1-.784-.608c.058.347.261.607.784.607m40.125-5.845-1.366-.405c.61.29.64.666.814 1.013.145-.29.174-.84.552-.637zm3.544 13.456c.233 0 .29.231.523.202l.407-.492c-.581-.463-1.307-.434-.93.29M89.14 14.44c-.581 1.07.349 1.07 1.162 1.417-.058 0-.087-.058-.116-.087 1.162-1.215.087-1.33-1.046-1.33m1.366 1.504c.261.116.493.26.668.463.465-.463-.175-.318-.669-.463M82.37 7.35c.262.463.872-1.244.9-.695 1.047-1.186-3.428.406-.9.695m5.23 10.678.552-1.36-1.046.752zm-5.172-4.168 1.017.927c.087-.232.32-.29.552-.29-.726-.405-1.424-1.041-1.569-.665zm1.598.666c.378.232.727.434 1.046.347-.203-.115-.668-.347-1.046-.347m1.802 2.952-.146-.463-.755-.579zM68.889 8.97l-1.511.174c-.233.463.116.84.668.723.407-.289.988-.405.843-.897m3.225 4.862c-.262-.377-.204-.695-.29-1.216l-.495 1.736.814-.52zm-3.922-.55c-.233.463-2.18 1.128-.494 1.244.232-.492 1.627-.636.494-1.244m-20.746-1.997.349-.116-.668-2.864zM34.11 24.394c1.627-.145-.668-1.708.93-1.65-.058-.781-1.307-.058-1.337-.752-.377 1.1-1.016.984.407 2.402m-.406-2.402c.058-.174.116-.376.174-.637-.145.29-.175.492-.175.637m84.375 43.058.669-1.216-1.046.752zm-2.092-2.402 1.889-.26-1.685-.724c.058.26.203.81-.233.984zM17.81 73.268l-.464.057c-.436.26-.436.492-.407.926l.843-.984zm3.661 11.574-.058-.203-1.25 1.245zm8.019 6.482c-.26-.29-.842-.376-1.074-.752.784.462-.32 2.314 1.075.752"/></g><defs><clipPath id="a"><path fill="#fff" d="M0 0h119.502v120H0z"/></clipPath></defs></svg>