<svg width="12" height="10" viewBox="0 0 12 10" fill="none" xmlns="http://www.w3.org/2000/svg">
<path d="M6.70781 9.72786L6.76641 9.67526L10.8727 5.95452C11.5922 5.30276 12 4.38801 12 3.42981V3.35435C12 1.74439 10.8281 0.363117 9.20625 0.0612501C8.28281 -0.112552 7.33828 0.0955531 6.58594 0.612386C6.375 0.758746 6.17812 0.927975 6 1.12236C5.90156 1.01259 5.79609 0.911967 5.68359 0.818205C5.59687 0.745025 5.50781 0.676419 5.41406 0.612386C4.66172 0.0955531 3.71719 -0.112552 2.79375 0.0589632C1.17188 0.36083 0 1.74439 0 3.35435V3.42981C0 4.38801 0.407813 5.30276 1.12734 5.95452L5.23359 9.67526L5.29219 9.72786C5.48437 9.90166 5.7375 10 6 10C6.2625 10 6.51562 9.90395 6.70781 9.72786ZM6.39609 2.33669C6.40547 2.32983 6.4125 2.32068 6.41953 2.31153L6.83672 1.85416L6.83906 1.85187C7.38047 1.25957 8.19844 0.98972 8.99531 1.13837C10.0875 1.3419 10.875 2.27037 10.875 3.35435V3.42981C10.875 4.08157 10.5961 4.70589 10.1062 5.14954L6 8.87028L1.89375 5.14954C1.40391 4.70589 1.125 4.08157 1.125 3.42981V3.35435C1.125 2.27266 1.9125 1.3419 3.00234 1.13837C3.79922 0.98972 4.61953 1.26186 5.15859 1.85187C5.15859 1.85187 5.15859 1.85187 5.16094 1.85416C5.16328 1.85645 5.16094 1.85416 5.16328 1.85645L5.58047 2.31382C5.5875 2.32297 5.59688 2.32983 5.60391 2.33898C5.70938 2.44188 5.85234 2.49906 6 2.49906C6.14766 2.49906 6.29062 2.44188 6.39609 2.33898V2.33669Z" fill="white"/>
</svg>
