<svg width="14" height="12" viewBox="0 0 14 12" fill="none" xmlns="http://www.w3.org/2000/svg">
<path d="M7.82578 11.6734L7.89414 11.6103L12.6848 7.14543C13.5242 6.36332 14 5.26562 14 4.11578V4.02522C14 2.09327 12.6328 0.435741 10.7406 0.0735001C9.66328 -0.135063 8.56133 0.114664 7.68359 0.734864C7.4375 0.910496 7.20781 1.11357 7 1.34683C6.88516 1.21511 6.76211 1.09436 6.63086 0.981846C6.52969 0.89403 6.42578 0.811703 6.31641 0.734864C5.43867 0.114664 4.33672 -0.135063 3.25938 0.0707559C1.36719 0.432997 4.76837e-07 2.09327 4.76837e-07 4.02522V4.11578C4.76837e-07 5.26562 0.475782 6.36332 1.31524 7.14543L6.10586 11.6103L6.17422 11.6734C6.39844 11.882 6.69375 12 7 12C7.30625 12 7.60156 11.8847 7.82578 11.6734Z" fill="white"/>
</svg>
