<svg width="120" height="120" viewBox="0 0 120 120" fill="none" xmlns="http://www.w3.org/2000/svg">
<g clip-path="url(#clip0_319_13351)">
<path d="M118.166 61.2008C118.078 61.7506 119.299 61.5481 119.502 61.6349C119.182 60.7089 117.846 61.2298 118.166 61.2008Z" fill="#EE4D4D"/>
<path d="M114.65 52.6066L115.144 52.6935L113.749 51.6228L114.65 52.6066Z" fill="#EE4D4D"/>
<path d="M112.849 44.707C111.076 46.0381 113.924 47.456 113.575 49.0475L113.168 49.3658L114.97 49.6552C114.272 47.9769 112.645 46.0671 112.878 44.707H112.849Z" fill="#EE4D4D"/>
<path d="M115.522 38.9775C114.882 39.5563 114.534 38.2831 115.667 40.0771C115.725 39.9614 115.754 39.9035 115.783 39.8167C115.696 39.6431 115.609 39.4116 115.522 38.9486V38.9775Z" fill="#EE4D4D"/>
<path d="M115.783 39.8456C116.161 40.6848 116.219 39.0354 115.783 39.8456V39.8456Z" fill="#EE4D4D"/>
<path d="M113.72 36.1128L114.911 36.9231C115.231 36.489 114.853 35.4762 115.347 35.6788C114.447 34.6949 114.127 35.1579 113.72 36.1128Z" fill="#EE4D4D"/>
<path d="M111.861 35.7367L112.413 36.1418C112.558 35.9682 112.529 35.7946 111.861 35.7367Z" fill="#EE4D4D"/>
<path d="M113.546 37.0678L112.384 36.1708C112.151 36.4601 111.541 36.7784 112.849 36.6048C112.238 36.7784 112.878 36.7495 113.517 37.0678H113.546Z" fill="#EE4D4D"/>
<path d="M113.575 37.8779C113.459 38.6592 113.488 39.5563 112.384 38.746C113.43 40.7137 114.737 39.8746 113.575 37.8779Z" fill="#EE4D4D"/>
<path d="M110.669 44.9674C110.582 45.2857 110.466 45.604 110.35 45.9223L111.192 46.4142C110.786 46.1827 111.309 44.7359 110.669 44.9963V44.9674Z" fill="#EE4D4D"/>
<path d="M111.018 28.9656C110.611 29.1392 110.234 29.9494 109.798 30.2967L110.699 30.7886C110.699 30.2388 110.495 29.3707 111.018 28.9656Z" fill="#EE4D4D"/>
<path d="M109.798 30.2967L108.461 29.5732C108.984 30.615 109.42 30.615 109.798 30.2967Z" fill="#EE4D4D"/>
<path d="M109.682 36.5759L112.035 37.7623L109.507 36.2286L109.682 36.5759Z" fill="#EE4D4D"/>
<path d="M108.142 24.6829H109.42L107.357 24.5093L108.142 24.6829Z" fill="#EE4D4D"/>
<path d="M105.875 22.0786C106.921 21.9628 106.427 20.5739 107.241 20.6896C106.485 20.082 105.381 19.9373 104.423 19.8505C105.207 20.1688 105.701 20.8632 105.875 22.0786Z" fill="#EE4D4D"/>
<path d="M102.941 19.619C103.348 19.7637 103.871 19.7926 104.452 19.8505C104.045 19.6769 103.551 19.5901 102.941 19.619Z" fill="#EE4D4D"/>
<path d="M107.415 27.6345C107.561 27.403 108.025 26.8532 107.822 26.0719L107.125 27.2004C107.125 27.2004 107.328 27.4609 107.415 27.6345Z" fill="#EE4D4D"/>
<path d="M107.125 27.2293C106.805 26.7374 106.602 26.3902 106.515 26.2744C106.602 26.3902 106.776 26.6795 107.096 27.2293H107.125Z" fill="#EE4D4D"/>
<path d="M107.503 27.7217L107.415 27.6055C107.415 27.6055 107.328 27.7508 107.503 27.7217Z" fill="#EE4D4D"/>
<path d="M109.159 33.1324C108.171 32.8141 106.747 31.917 106.602 33.7111C107.619 33.7111 107.677 32.6983 109.159 33.1324Z" fill="#EE4D4D"/>
<path d="M106.602 29.1102C106.805 29.5153 106.921 29.9783 107.096 30.4124C107.357 30.2098 107.619 29.7468 108.113 29.8626C107.619 29.6021 107.125 29.3417 106.602 29.1102Z" fill="#EE4D4D"/>
<path d="M105.875 28.7919L106.602 29.1102L106.369 28.6472L105.875 28.7919Z" fill="#EE4D4D"/>
<path d="M103.696 22.1943C102.883 22.1075 102.418 21.6445 101.866 21.1815C102.215 21.9339 102.679 22.6283 103.202 23.1781C103.58 23.0045 104.335 22.802 103.725 22.1943H103.696Z" fill="#EE4D4D"/>
<path d="M105.352 24.6539L105.207 24.5961C105.207 24.5961 105.207 24.7986 105.352 24.6539Z" fill="#EE4D4D"/>
<path d="M96.6069 16.1466C96.6069 16.1466 96.5779 16.3202 96.5488 16.407L96.6941 16.2624L96.6069 16.1466Z" fill="#EE4D4D"/>
<path d="M103.086 23.4097C103.289 23.9884 103.754 24.0753 104.277 24.0753C103.871 23.8148 103.522 23.5255 103.173 23.1782C102.999 23.265 102.912 23.3229 103.086 23.4387V23.4097Z" fill="#EE4D4D"/>
<path d="M101.081 18.5194C101.14 18.9246 101.227 19.3007 101.343 19.7348C101.43 19.2139 101.401 18.3748 101.081 18.5194Z" fill="#EE4D4D"/>
<path d="M105.352 24.2199C105.352 24.2199 105.411 24.2199 105.44 24.2488C105.527 23.9305 105.44 24.0173 105.352 24.2199Z" fill="#EE4D4D"/>
<path d="M105.352 24.2199C105.033 24.0752 104.655 24.0752 104.277 24.0752C104.568 24.3067 104.887 24.4803 105.207 24.5961C105.207 24.4803 105.294 24.3356 105.352 24.2199Z" fill="#EE4D4D"/>
<path d="M89.9825 21.0947C90.7088 20.2555 92.5974 20.1977 92.6555 21.9917C94.0792 22.1364 96.0549 18.8087 96.5488 16.407C96.2002 16.7832 95.9096 17.0725 94.4278 16.8121C94.4569 17.5355 95.7063 19.7926 94.2245 19.8794C92.5974 19.2138 93.4109 18.7219 93.1494 17.7091C92.8008 19.2428 90.1568 18.0853 89.2271 19.9951L90.796 20.2266C90.6217 20.487 89.8953 20.6028 90.0115 21.0658L89.9825 21.0947Z" fill="#EE4D4D"/>
<path d="M98.3793 18.23L98.9023 18.4904C98.5536 17.9117 98.5245 17.2751 98.4955 16.0308C97.4205 15.7993 97.0137 16.0308 96.6941 16.2623L98.6408 18.23H98.3793Z" fill="#EE4D4D"/>
<path d="M100.733 20.1977C99.5705 20.7186 98.205 20.2845 97.8563 21.7603C99.0476 22.7731 99.3672 21.8182 100.413 22.1365C98.4374 20.4292 101.43 22.2233 100.646 20.3135C101.14 20.545 101.517 20.8633 101.866 21.1526C101.662 20.6897 101.488 20.2267 101.343 19.7348V19.8216C101.314 20.0241 101.256 20.1109 101.256 19.9662C101.256 19.9662 101.227 19.9662 101.198 19.9662C101.052 20.082 100.907 20.1399 100.791 20.1977C100.442 19.4454 100.936 19.8794 101.198 19.9662C101.256 19.9373 101.314 19.9084 101.343 19.8505C100.587 19.3296 99.7158 18.9245 98.9313 18.4905C99.2219 19.0113 99.803 19.4164 100.762 20.1977H100.733Z" fill="#EE4D4D"/>
<path d="M103.609 33.9716C103.609 33.9716 103.754 33.798 103.813 33.7401C103.609 33.6822 103.493 33.6822 103.609 33.9716Z" fill="#EE4D4D"/>
<path d="M103.725 32.7273C103.958 32.7851 104.452 32.6404 104.655 33.1902C104.597 33.7979 104.132 33.5085 103.813 33.74C104.277 33.8558 105.207 34.3188 105.149 33.0456L104.917 32.9877C104.771 31.946 105.381 29.9493 105.614 30.0072C104.829 30.8753 104.306 31.5409 103.725 32.6983V32.7273Z" fill="#EE4D4D"/>
<path d="M102.36 26.6506C101.808 26.2166 101.169 25.8404 100.529 25.4642L100.413 26.94L100.878 26.477C101.43 27.5187 101.866 26.8532 102.36 26.6506Z" fill="#EE4D4D"/>
<path d="M96.8104 15.5101L97.8854 14.6998C97.159 14.8734 96.4036 15.1049 95.6772 15.3364L96.8104 15.5101Z" fill="#EE4D4D"/>
<path d="M94.3698 13.8896L95.1542 13.0215L94.1083 13.1083L94.3698 13.8896Z" fill="#EE4D4D"/>
<path d="M19.2924 84.7842L19.8444 85.0446C19.641 84.8999 19.4667 84.8131 19.2924 84.7842Z" fill="#EE4D4D"/>
<path d="M17.6363 81.5723L17.0842 81.7459C17.4329 81.7459 17.6653 81.7459 17.6363 81.5723Z" fill="#EE4D4D"/>
<path d="M27.1081 11.0538C25.7425 10.6487 23.8539 9.83846 24.6675 10.8512L25.6263 11.7483C26.0621 11.1985 26.5851 11.0538 27.1081 11.0538Z" fill="#EE4D4D"/>
<path d="M7.29277 51.4202C7.29277 51.4202 7.55426 51.3045 7.69953 51.2466C7.32182 50.9572 6.97317 50.6968 6.65356 50.4653C6.85695 50.7547 7.03128 51.073 7.29277 51.4202Z" fill="#EE4D4D"/>
<path d="M12.3482 52.954L11.3894 53.7931C11.709 53.6195 12.0286 53.3302 12.3482 52.954Z" fill="#EE4D4D"/>
<path d="M33.5001 98.0661L34.6914 97.3138C33.965 96.8508 33.9359 97.5742 33.5001 98.0661Z" fill="#EE4D4D"/>
<path d="M67.0001 3.09616C66.2447 2.48849 65.6346 2.19913 65.0535 2.05444C65.9832 2.92254 66.5934 4.10894 67.0001 3.09616Z" fill="#EE4D4D"/>
<path d="M6.82788 90.0217C7.23465 90.2532 7.55425 90.2821 7.78669 90.1085C7.37992 89.877 7.06032 89.7902 6.82788 90.0217Z" fill="#EE4D4D"/>
<path d="M62.671 1.88084C62.671 1.88084 62.9616 2.0834 63.0778 2.19914C63.6879 2.02552 64.3271 1.85191 65.0535 2.05446C64.3852 1.41786 63.5427 1.07062 62.671 1.90978V1.88084Z" fill="#EE4D4D"/>
<path d="M96.1711 86.9255C96.1711 86.9255 96.2874 86.8677 96.3745 86.8677C96.2293 86.7519 96.2002 86.8098 96.1711 86.9255Z" fill="#EE4D4D"/>
<path d="M116.074 69.361C116.103 69.6214 116.074 70.0554 116.016 70.4606C116.132 70.2869 116.161 69.9397 116.074 69.361Z" fill="#EE4D4D"/>
<path d="M84.6073 7.34986C84.7526 7.26305 85.2174 7.55242 84.6073 7.34986V7.34986Z" fill="#EE4D4D"/>
<path d="M84.956 13.0215C84.7816 13.0794 84.6073 13.224 84.462 13.4555C84.6364 13.1951 84.8107 13.0794 84.956 13.0215Z" fill="#EE4D4D"/>
<path d="M56.7439 9.578H56.6858C56.8601 9.8095 56.8311 9.78056 56.7439 9.578Z" fill="#EE4D4D"/>
<path d="M85.1884 8.27589C85.0431 8.0444 84.8688 7.81291 84.6364 7.61035C84.7235 7.75503 84.8688 7.95759 85.1884 8.27589Z" fill="#EE4D4D"/>
<path d="M85.3337 7.66821C85.5081 7.8129 85.6533 7.89971 85.7696 8.01545C85.9439 7.87077 85.9439 7.72609 85.3337 7.66821Z" fill="#EE4D4D"/>
<path d="M83.7938 7.03162C84.1134 7.1763 84.404 7.37885 84.6364 7.58141C84.5492 7.46566 84.5492 7.37885 84.6074 7.34992C84.433 7.29205 84.2006 7.1763 83.7938 7.03162Z" fill="#EE4D4D"/>
<path d="M64.9373 109.727C64.9373 109.727 65.0244 109.785 65.0535 109.814C65.4893 109.236 65.2859 109.351 64.9373 109.727Z" fill="#EE4D4D"/>
<path d="M24.3483 30.0365C24.3483 30.0365 24.3483 29.9784 24.3483 29.9493H24.2607L24.3483 30.0365Z" fill="#EE4D4D"/>
<path d="M23.912 31.946C23.2147 30.3834 23.6506 30.1809 24.2898 30.0072L21.21 28.0106C22.0816 29.3706 22.9823 30.6728 23.912 31.9749V31.946Z" fill="#EE4D4D"/>
<path d="M26.8972 25.8126L28.4887 25.8707C28.6913 28.2242 27.5917 28.3404 29.3857 28.8634C28.1415 27.3816 28.836 26.4809 29.6462 25.7545C30.4564 25.0281 31.2666 24.2727 30.196 22.6166L31.2956 22.82C31.093 22.9071 31.2088 23.1396 31.0062 23.2267C33.2343 23.866 30.2828 20.2051 32.3373 19.624C33.0896 19.5077 33.7841 19.7692 33.6394 20.4084L34.4786 18.7523C34.9126 18.607 35.1152 19.2463 34.7101 19.4206C35.3177 18.9266 36.0122 18.5489 36.6488 18.1131L36.6488 18.2293C36.7067 17.532 36.9961 16.3117 37.1986 15.7887C37.9799 16.0212 37.0829 16.3117 37.4301 16.6894C37.6906 16.2246 37.951 15.7016 38.2693 15.2367C39.1663 15.9631 38.5297 17.2996 37.6906 17.5901C40.3238 20.6699 38.2693 16.1665 41.5681 17.4158L40.6421 18.2874C42.1468 20.1179 42.6966 19.0429 44.317 19.9436C43.883 19.3334 40.7289 17.532 41.6838 16.1374C42.1468 16.2827 42.6676 16.2246 43.1596 15.2367C43.5936 16.5732 44.1723 16.0793 45.0404 15.7597L45.4745 17.5611C46.2558 16.8057 45.9664 15.905 46.3426 14.9462C47.4711 14.8299 47.963 16.1955 48.455 17.3577C50.1912 17.4158 46.8345 15.2658 48.8022 14.6266C50.3937 15.1495 51.2329 14.1036 52.9401 12.9123C54.0397 13.4934 52.8533 14.0455 53.2584 14.5684L54.0687 13.0576C54.3001 13.0576 54.2423 13.5515 54.2133 13.784C54.9657 13.1738 54.1844 11.9245 55.4287 11.3434C55.5734 10.3265 56.2678 10.9947 57.0781 11.7211C57.8883 12.4765 58.7853 13.2029 59.6245 12.0697C59.9717 12.6218 59.3641 13.2029 59.4509 13.9292C61.65 12.5056 61.3028 12.8542 63.3284 11.1109L64.6594 12.5346C63.7624 10.9947 65.4118 9.57103 67.0612 8.43789C66.7718 7.71153 66.5114 7.07232 66.3088 6.75272C67.0901 6.52028 67.9003 6.3169 68.7106 6.20068C68.9131 6.57839 68.5369 7.13043 68.045 7.79869C68.2186 7.68247 68.3923 7.56625 68.5369 7.47909C69.1446 8.35073 68.508 9.28048 67.7557 10.1521C67.582 9.7163 67.4084 9.28048 67.2637 8.84466C66.5114 9.86158 65.8169 11.0238 65.7301 12.1278C65.9037 11.9245 66.1931 11.7792 66.4825 11.7211C66.2799 12.0116 66.1641 12.2731 66.1931 12.4474C66.1931 12.6508 66.5114 12.2441 66.9165 11.8954L66.9165 14.0455L67.2059 13.261L69.3472 15.1495C70.5046 14.336 71.72 13.3772 73.0511 12.6799C74.3821 11.9826 75.9158 11.4305 77.5652 11.663C76.263 12.7089 76.4366 13.8711 75.6843 15.4982C75.6843 13.4063 73.2247 15.4401 71.9804 14.5684C72.6459 15.0333 72.2119 15.7887 71.9225 15.9921L75.0477 15.2948C74.44 16.6313 75.1634 16.4861 75.5396 17.3868C76.2341 14.4813 78.1439 16.5151 79.5618 16.1955C79.1567 17.0962 78.4622 17.8516 77.3915 17.0671C77.6809 19.653 80.7193 14.8009 81.1244 17.2705C80.835 17.1253 80.7482 16.8928 80.401 17.2705C81.5005 16.9219 82.8027 18.5199 81.9635 19.0138L81.6742 18.8685C83.4393 20.176 87.0274 22.7038 88.9372 21.0186C88.7347 21.2801 86.8249 23.1105 86.3908 23.4301C89.1109 22.1227 91.9466 20.9895 94.985 20.0017C93.2777 21.3091 90.7313 25.8126 88.59 25.493C88.7347 26.0741 89.0241 26.6843 90.2683 26.9458C90.2683 26.4809 91.8309 24.1274 92.3228 24.3599C91.5705 27.0329 92.0913 25.9579 91.6862 28.5438C91.6862 27.8464 94.522 26.0451 95.0429 26.8005C94.5799 27.0329 92.6122 28.9796 92.1492 29.0086C93.4224 28.8053 94.7535 28.6309 96.0267 28.5438C95.2454 28.4857 93.8275 30.1999 93.3645 31.1296C93.7407 30.5776 94.3773 32.5824 94.956 32.8148L95.0429 31.6817C96.0556 33.8027 100.165 31.0134 101.38 33.3087C100.628 33.3668 97.4735 34.8486 97.734 36.0399C99.4702 35.575 105.981 34.3257 108.209 36.098L107.543 36.9115C108.151 37.3183 108.759 37.7251 109.28 38.1899C106.531 37.9284 100.367 37.4926 97.9655 37.2311C97.6761 38.3643 97.0684 37.9865 97.705 39.0906C97.0974 39.9042 96.2003 39.0906 95.9978 38.8001L96.7212 41.6184C97.5893 41.1535 98.2548 41.4441 98.9204 41.7927C99.528 42.1414 100.107 42.5481 100.83 42.1995C99.8753 41.386 98.7178 40.7177 97.6761 40.0204C99.2965 39.0325 103.637 39.3812 104.071 41.7927C103.55 42.6063 100.685 42.6062 100.107 42.9259C100.83 42.9259 102.017 44.4076 101.64 44.7563L100.338 44.2333C100.049 45.5408 103.492 45.2793 102.046 47.226C102.046 47.7489 99.991 49.2598 101.12 49.0564C103.087 47.807 109.685 45.8313 111.45 46.0638C111.392 46.3253 110.148 49.5503 109.077 50.3639C107.486 51.5261 104.794 49.7828 103.434 50.8287C103.955 50.7706 104.679 51.0902 104.91 51.2646C104.534 51.8747 103.261 51.3227 103.666 52.4267C105.634 52.3105 103.869 54.8092 105.402 52.7173C106.097 53.7923 105.257 53.9957 105.402 55.3322C106.646 54.7511 109.801 56.2039 110.408 57.5113C109.916 57.4532 109.251 57.7728 108.961 57.9181C108.99 60.4749 107.804 61.7824 107.746 64.0777C107.254 64.252 106.617 65.298 105.807 64.7459C106.126 65.0946 106.733 65.4723 106.675 66.1696C104.794 67.2737 106.646 64.6007 104.447 65.3852C105.576 65.5885 105.749 67.3318 106.299 68.4359C108.093 68.4359 106.994 66.1696 106.415 65.1237C108.846 65.3561 111.132 67.448 111.826 70.3245C112.029 72.5326 110.09 70.8765 110.379 71.3123C108.961 74.886 113.823 75.7286 110.987 78.4017C109.077 79.128 108.035 77.4429 106.878 77.3266C106.907 75.6415 108.643 75.2638 108.846 74.1306L107.804 75.2638C107.428 74.5955 107.312 73.4624 107.92 73.0265C106.415 73.6657 105.894 79.0118 103.463 81.0166C103.724 81.6849 103.84 82.7018 104.563 82.6146L104.766 81.7139C106.27 81.4524 105.576 84.0383 106.617 83.1957C106.82 84.6775 107.543 86.7694 105.923 87.9607L104.216 87.3505C104.679 87.583 105.749 86.8566 105.518 86.1593C105.807 87.2343 102.046 87.2634 103.608 89.181L105.315 88.7451C105.402 90.285 106.183 92.8419 104.65 93.8588C106.531 94.2365 104.708 93.452 107.109 93.5973C104.447 93.0743 109.482 89.8783 106.328 89.9073C108.99 90.0526 108.354 88.658 110.871 88.1059C110.321 87.8735 109.627 88.1059 110.524 86.9438C110.408 86.7985 110.263 86.566 110.206 86.4208C110.235 86.3917 110.263 86.3917 110.292 86.3627L110.206 86.3627C110.206 86.3627 110.148 86.3046 110.177 86.4208C109.801 86.6242 109.395 86.7113 109.077 86.6823C108.18 85.4329 109.193 83.4572 108.875 82.4984C109.482 81.8592 109.338 83.0795 110.119 82.9342C109.974 82.4693 109.801 81.9754 109.598 81.5105C110.842 81.9173 112.376 80.2031 112.376 82.3822L113.07 80.697C114.112 79.9416 114.922 78.605 114.691 77.5591C115.183 76.7746 113.852 75.0604 114.662 76.0482L114.575 73.0847L114.893 73.1428C115.385 71.8063 115.009 70.2663 114.98 68.7555C114.922 67.2447 115.241 65.7919 116.427 64.2811C116.138 63.2932 115.79 62.3344 116.253 60.7655L117.382 60.4749C117.064 59.2546 118.366 56.7268 117.208 56.262C118.655 55.5065 118.858 53.9376 118.424 52.3396C118.047 50.7416 117.324 49.0855 117.411 47.9523L115.964 48.1557C115.79 46.6739 114.951 45.3955 113.967 43.7975L112.752 44.2624C111.421 43.0711 112.463 40.2528 111.479 37.9284C112 37.9284 112.087 38.5386 111.971 39.0616C112.868 37.144 111.768 35.8365 110.495 34.7615C109.222 33.6574 108.035 32.6695 108.296 31.0134C107.543 30.6648 107.428 30.1999 107.486 29.6188C107.515 29.6769 107.572 29.706 107.63 29.735C107.63 29.6769 107.572 29.5897 107.515 29.5026C107.543 29.1249 107.63 28.7471 107.63 28.3404C107.515 28.7471 107.428 29.1249 107.428 29.3864C107.138 28.9505 106.589 28.3694 105.923 27.9046L106.907 26.8586C106.907 26.8586 106.849 26.7714 106.791 26.7424C106.82 25.8126 105.923 26.5971 105.257 27.5268C104.881 27.3235 104.418 27.2072 104.013 27.2072C105.489 25.4349 102.248 26.1032 103.695 24.0112C103.087 24.1565 102.335 23.5464 101.496 23.0524C100.599 22.6166 99.5859 22.297 98.5152 22.9653C98.7467 22.7328 98.7178 22.4713 98.9782 22.7619C98.6599 21.9774 98.3127 21.1929 97.3288 21.1348L98.3706 19.653C97.4157 19.7402 96.4318 19.8855 95.448 20.0888C95.448 18.6071 95.4769 17.7935 97.242 17.5611C93.8565 17.3286 95.1007 16.6604 92.1203 16.8057L92.9305 15.9921C92.2649 15.5563 90.3262 15.9921 90.5288 14.9752C90.4709 11.9826 83.584 9.83252 80.1984 6.22974C79.909 7.97302 79.6197 7.39193 79.1856 6.69461C78.7516 6.02635 78.1728 5.21282 77.623 6.40406C77.652 5.56148 77.2179 4.92227 78.1728 4.51551C75.6553 4.4574 75.1634 1.98775 72.9064 3.73103C72.8485 2.88844 73.7166 2.74317 73.6298 2.22018C73.3983 2.3364 72.7038 2.68506 72.5881 2.16207C72.4723 1.63909 73.1089 1.61004 73.5719 1.3776C71.0834 0.854612 70.2731 3.20804 69.6076 5.4162C68.7106 4.02158 68.045 4.05063 66.9454 5.44526C66.685 4.63173 66.1063 3.76008 67.611 3.70198C66.8297 3.46954 62.7207 1.81342 62.4603 3.70197C62.2577 3.20804 61.3317 3.49859 61.1002 3.70197C59.2772 3.49859 59.1326 3.32426 57.3096 3.41143L57.8015 3.73103C57.0781 5.91013 56.3257 4.22496 54.9078 4.57362L54.9078 4.34118C51.5512 2.94655 53.6057 5.06755 50.1912 3.61481L50.5384 4.98038C50.6541 8.00207 47.4711 3.64386 45.7639 5.0966L46.5741 5.76486C45.8217 6.89799 42.8991 2.45262 41.6838 2.36546C41.3944 2.16207 41.9442 1.87153 42.2336 1.58098C38.9348 0.622173 42.3204 3.44048 40.4106 4.37023C39.745 3.5567 40.1791 1.81342 38.7323 2.07491C37.7195 1.61003 35.8386 6.46217 33.379 5.50337C34.0735 5.9973 34.739 6.52028 34.1024 7.47909C32.945 8.35073 29.1543 6.6365 29.1253 9.42575C28.8649 9.33859 28.6913 9.19332 28.6045 9.04804C27.91 10.1812 25.9712 11.8664 26.1159 13.29C24.3508 11.5467 23.2512 13.1448 22.3252 14.5975C21.3703 16.0212 20.7916 17.532 19.3448 15.8468L16.9141 18.3746L16.6537 17.9969C14.8017 19.3625 15.12 20.7571 15.3804 22.0064C14.8307 22.1808 14.7438 21.6287 14.6281 21.4544C11.7344 23.2267 11.7344 23.8078 11.9081 27.2363L10.577 26.6261C10.7795 27.585 6.03393 29.3573 5.94712 33.0763C5.80244 32.9601 5.59988 32.7857 5.54201 32.4661C5.54201 34.5 3.60325 35.9818 2.38792 37.5798C1.20152 39.1778 0.535979 40.7467 2.79303 42.1704C2.90877 43.0421 3.16921 43.9428 3.37176 44.7853C4.50029 42.0251 5.4552 45.8313 6.58372 44.9016C6.58372 46.0347 4.32667 47.3131 4.41348 45.8894L4.73179 45.7442C2.24324 44.5239 2.85091 49.0564 1.11471 48.6206C0.101934 54.5187 -1.51852 60.3877 -1.11341 66.2277L0.91216 65.3561C0.91216 65.9953 0.998967 66.6636 1.05684 67.3028C0.651723 67.8839 -0.476802 68.2325 -0.592547 66.7798C-1.6632 67.6805 0.767476 69.017 1.23046 68.9589C0.796414 71.8353 -1.37384 68.2906 -1.28703 69.1332L-0.939784 70.2663L-0.737224 69.9467C0.304494 70.7312 1.08577 70.6441 1.43302 72.3002C1.28833 73.4333 0.304486 73.1428 0.333424 73.5786C0.18874 73.6076 0.15981 73.782 0.44917 74.2468L0.912159 76.7746L2.27217 75.3219C3.31389 76.1645 2.79303 77.5881 4.29773 75.932C3.11133 77.1233 3.69006 79.3895 4.44241 81.5105C5.31051 83.5734 6.49692 85.3748 6.29436 86.0431C7.97268 86.8856 8.84078 88.0769 9.651 89.7621C9.70888 89.181 11.1557 87.9607 11.7634 89.4134C8.1463 91.0986 11.9659 92.7256 10.577 95.4568C10.9532 94.4108 11.7344 95.2825 12.5447 96.0088C13.3549 96.7352 14.2808 97.2001 14.686 95.6892C15.3226 96.8805 13.6442 96.6771 13.6442 98.0427C16.8562 99.4373 17.8979 103.97 21.515 106.091C21.8622 105.713 21.8333 104.696 22.9618 104.609C22.9908 105.713 23.0486 106.817 23.1354 107.95C23.9457 108.212 25.3346 106.004 25.5951 108.241C25.6529 107.776 25.7687 107.079 26.2895 107.224C28.8649 110.362 32.7424 111.873 36.5331 113.035C38.4429 113.616 40.2948 114.313 42.1757 115.011C44.0277 115.795 45.8217 116.87 47.6737 118.265C46.7477 117.132 47.5 117.132 48.3103 117.219C47.8184 116.899 48.5128 115.969 48.5128 115.272C49.4967 116.057 50.4805 116.899 51.5512 117.655C52.3325 115.766 55.1393 117.713 55.5444 115.882L54.5027 116.173C55.8917 114.081 52.8823 111.263 53.3742 108.502C52.5929 109.723 51.7827 108.735 50.9146 107.776C50.0465 106.846 49.1494 106.062 47.7605 107.631C47.3843 106.992 48.3392 106.817 48.1945 106.149C47.4422 107.282 46.7188 107.311 45.677 106.498L45.8796 106.236C42.494 105.713 41.4234 104.028 38.3561 101.907L38.0378 103.273C37.3722 102.75 37.4012 102.285 37.2276 101.82C35.4914 103.302 39.2242 102.924 37.5169 104.638C37.5748 103.098 36.3016 102.488 35.0573 101.82C33.842 101.152 32.7713 100.251 33.2922 98.74C32.2505 98.1008 32.7713 100.28 31.7007 99.6116L31.8743 98.7109L31.0062 99.4663C30.3985 98.8852 30.7168 97.694 31.093 97.1129C31.2088 97.2872 31.6428 97.2872 31.8454 97.3453C31.6139 95.8926 29.3568 95.8926 29.2411 95.3987L29.8487 96.5028C26.5789 95.2244 24.5244 91.4763 21.052 90.1979L20.7337 90.808C18.1584 89.5877 20.0392 88.7451 17.8979 86.8566L18.0716 86.8566C17.1745 86.7985 16.5379 86.3045 16.1907 85.5782C17.2034 85.7816 16.7694 83.6606 17.9558 84.0092C15.4673 82.3531 16.3643 83.4281 13.3838 82.9633L14.1362 82.0626C13.0076 81.9463 12.5157 82.1207 11.6187 80.9004C12.9787 81.5686 12.7183 79.3895 14.3677 80.0287C14.7728 78.2273 13.8179 77.53 13.1234 76.8327C12.4 76.1644 11.8502 75.6124 13.2391 74.4212C9.9693 74.1016 12.5447 77.3557 11.7055 76.8618C11.04 77.8206 9.21695 76.5422 9.15908 75.5252C8.84078 74.5664 12.3132 72.7941 11.6766 70.615C11.7344 70.8474 11.937 70.7893 11.9949 71.0218C12.5447 70.0048 10.4902 69.6271 11.5897 68.3197C9.73781 68.0582 11.5029 66.9541 9.18802 67.1284L10.0272 69.2204C9.27482 68.1454 6.43904 67.3318 7.39395 65.0365C7.88587 65.1527 8.58034 65.7048 8.98546 66.0825C9.59312 65.4142 8.31991 64.9784 8.98546 64.2811C11.2136 64.223 9.8825 66.8669 11.7634 67.8548C12.6315 67.0994 9.76675 65.7048 12.3132 65.9953C10.6927 65.7629 10.6927 65.1818 10.7795 64.5135C10.9242 63.8452 11.1846 63.1189 9.94037 62.3925L11.3293 62.3925C11.0978 62.1891 10.4323 61.6952 10.4323 61.2594L12.2553 61.9857C10.6927 60.7945 13.4128 59.6033 12.6893 58.4701C12.6315 60.9107 10.9821 58.9931 9.99824 60.0681C8.26204 56.8431 13.6443 58.3248 13.1523 55.0126C13.297 55.4775 12.2553 56.6397 11.6476 55.8843C11.937 55.2451 12.5736 54.4606 13.3549 54.17C13.4128 51.9328 11.908 54.3153 11.2136 53.2693C12.9787 52.7463 10.7217 52.049 10.3455 50.9159L11.7055 51.1774C13.0655 48.7949 8.98546 49.8699 10.6059 47.7489L12.2264 49.2017L12.0527 47.8942L13.5285 48.5334C12.7472 46.9645 13.0366 46.5867 13.9336 45.5117C12.8919 45.5117 11.5898 44.5529 11.9659 43.3907C13.0366 42.8968 13.0655 44.2624 13.4417 42.6353C14.1362 43.3036 15.0332 44.059 13.5574 44.2914C13.9626 44.5239 14.2519 44.9306 14.657 45.134C15.8434 44.6691 15.583 43.2745 15.7566 42.7225C15.6409 42.9258 15.4673 43.1292 15.2358 43.1873C14.8596 42.1995 14.5992 41.2407 14.3966 40.2528C15.0332 40.1366 15.2936 40.5724 15.5251 41.0082C15.583 40.5143 15.1489 39.9332 15.3515 39.2359C16.2775 39.9042 17.3481 40.3981 17.4349 41.4731L17.2324 38.9454C17.7243 39.0325 18.9107 38.5967 19.1711 39.0325C20.3575 38.4224 18.766 35.3716 20.4154 34.5C20.2707 34.2966 20.2129 34.0642 20.2997 33.6864C21.4861 32.6114 23.1933 32.3499 23.2801 30.0546L25.4793 30.6648C26.087 29.2992 22.6435 29.9674 23.6852 27.6721C24.3797 25.9288 25.3346 28.4275 26.1449 28.3985C26.0002 27.1491 25.7397 24.5633 27.9679 24.7666C27.8232 25.4059 27.3602 25.464 27.0998 25.8998L26.8972 25.8126ZM41.6259 16.0793C41.3944 16.4861 41.0761 17.5611 40.5553 16.8638C40.3527 15.2367 40.9314 15.8468 41.6259 16.0793ZM69.2604 11.7211C68.8842 12.0988 68.5369 11.7792 68.1897 11.14C68.5659 11.14 68.9421 11.2562 69.2604 11.7211ZM112.636 79.0118L112.578 78.9537C113.447 78.1983 113.099 78.4598 112.636 79.0118ZM111.363 80.7551C111.479 81.0166 111.652 81.0747 111.884 81.0747C111.595 80.8132 111.739 80.3774 112 79.9125C111.595 79.9125 111.276 80.0868 111.363 80.7551ZM0.593854 73.6076L0.854283 73.1428C1.46195 73.8982 1.05684 73.7529 0.593854 73.6076Z" fill="#EE4D4D"/>
<path d="M11.7671 52.7803C11.5057 52.8381 11.2442 52.8092 10.9827 52.7803C11.186 52.9539 11.4475 53.0118 11.7671 52.7803Z" fill="#EE4D4D"/>
<path d="M33.2677 98.1818C33.2677 98.1818 33.2677 98.1818 33.2968 98.2397C33.3549 98.1818 33.442 98.1239 33.4711 98.066L33.2386 98.2107L33.2677 98.1818Z" fill="#EE4D4D"/>
<path d="M50.4681 15.7415C50.0904 15.5968 49.8579 15.3653 49.6836 15.1338C49.7417 15.481 49.9451 15.7415 50.4681 15.7415Z" fill="#EE4D4D"/>
<path d="M90.5926 9.89632L89.2271 9.49121C89.8372 9.78058 89.8663 10.1568 90.0406 10.504C90.1859 10.2146 90.2149 9.66483 90.5926 9.86739V9.89632Z" fill="#EE4D4D"/>
<path d="M94.1373 23.3518C94.3697 23.3518 94.4278 23.5833 94.6602 23.5544L95.067 23.0624C94.4859 22.5995 93.7595 22.6284 94.1373 23.3518Z" fill="#EE4D4D"/>
<path d="M89.1399 14.4393C88.5588 15.51 89.4885 15.51 90.3021 15.8572C90.2439 15.8572 90.2149 15.7994 90.1858 15.7704C91.348 14.5551 90.273 14.4393 89.1399 14.4393Z" fill="#EE4D4D"/>
<path d="M90.5055 15.9441C90.767 16.0598 90.9994 16.2045 91.1738 16.4071C91.6386 15.9441 90.9994 16.0888 90.5055 15.9441Z" fill="#EE4D4D"/>
<path d="M82.3702 7.34992C82.6317 7.8129 83.2418 6.10564 83.2709 6.65544C84.3168 5.46904 79.8424 7.06055 82.3702 7.34992Z" fill="#EE4D4D"/>
<path d="M87.6 18.0275L88.1521 16.6675L87.1061 17.4198L87.6 18.0275Z" fill="#EE4D4D"/>
<path d="M82.4282 13.8607L83.4451 14.7866C83.5323 14.5551 83.7647 14.4973 83.9972 14.4973C83.2708 14.0921 82.5735 13.4555 82.4282 13.8317V13.8607Z" fill="#EE4D4D"/>
<path d="M84.0262 14.5261C84.404 14.7576 84.7526 14.9602 85.0722 14.8734C84.8688 14.7576 84.404 14.5261 84.0262 14.5261Z" fill="#EE4D4D"/>
<path d="M85.8277 17.4778L85.6824 17.0148L84.927 16.436L85.8277 17.4778Z" fill="#EE4D4D"/>
<path d="M68.8887 8.97034L67.3779 9.14396C67.1455 9.60694 67.4941 9.98312 68.0462 9.86737C68.4529 9.57801 69.034 9.46226 68.8887 8.97034Z" fill="#EE4D4D"/>
<path d="M72.1138 13.8317C71.8523 13.4555 71.9104 13.1372 71.8233 12.6163L71.3293 14.3525L72.1429 13.8317H72.1138Z" fill="#EE4D4D"/>
<path d="M68.1915 13.2819C67.959 13.7448 66.0124 14.4104 67.6976 14.5261C67.93 14.0342 69.3246 13.8895 68.1915 13.2819Z" fill="#EE4D4D"/>
<path d="M47.4463 11.2853L47.795 11.1695L47.1267 8.30481L47.4463 11.2853Z" fill="#EE4D4D"/>
<path d="M34.1103 24.3936C35.7373 24.2489 33.442 22.6863 35.04 22.7442C34.9819 21.9629 33.7326 22.6863 33.7035 21.9918C33.3258 23.0914 32.6866 22.9757 34.1103 24.3936Z" fill="#EE4D4D"/>
<path d="M33.7035 21.9918C33.7616 21.8182 33.8197 21.6157 33.8778 21.3552C33.7325 21.6446 33.7035 21.8471 33.7035 21.9918Z" fill="#EE4D4D"/>
<path d="M118.078 65.0494L118.747 63.8341L117.701 64.5865L118.078 65.0494Z" fill="#EE4D4D"/>
<path d="M115.986 62.6477L117.875 62.3872L116.19 61.6638C116.248 61.9242 116.393 62.474 115.957 62.6477H115.986Z" fill="#EE4D4D"/>
<path d="M17.8106 73.2675L17.3457 73.3253C16.9099 73.5858 16.9099 73.8173 16.9389 74.2513L17.7815 73.2675H17.8106Z" fill="#EE4D4D"/>
<path d="M21.4714 84.8421L21.4133 84.6395L20.1639 85.8838L21.4714 84.8421Z" fill="#EE4D4D"/>
<path d="M29.4906 91.3239C29.2291 91.0345 28.648 90.9477 28.4155 90.5715C29.2 91.0345 28.0959 92.8865 29.4906 91.3239Z" fill="#EE4D4D"/>
</g>
<defs>
<clipPath id="clip0_319_13351">
<rect width="119.502" height="120" fill="white"/>
</clipPath>
</defs>
</svg>
