<svg width="127" height="120" viewBox="0 0 127 120" fill="none" xmlns="http://www.w3.org/2000/svg">
<g clip-path="url(#clip0_319_14193)">
<path d="M0.0336488 118.717C-0.235926 118.784 0.774981 119.797 0.909768 120C1.01086 119.494 -0.20223 118.447 0.0336488 118.717Z" fill="#EE4D4D"/>
<path d="M1.04458 113.585L1.34786 114.091L0.876099 112.605L1.04458 113.585Z" fill="#EE4D4D"/>
<path d="M3.94252 111.086C2.08919 109.499 3.13379 112.302 2.05549 112.099L1.61743 111.761L2.66204 113.416C3.1001 112.639 3.0664 110.951 3.94252 111.086Z" fill="#EE4D4D"/>
<path d="M8.89596 113.686C8.18833 113.044 8.69378 112.774 8.35681 113.787C8.4579 113.821 8.4916 113.855 8.59269 113.922C8.66008 113.855 8.72748 113.787 8.92966 113.72L8.89596 113.686Z" fill="#EE4D4D"/>
<path d="M8.5927 113.889C8.32312 114.192 9.30033 114.294 8.5927 113.889V113.889Z" fill="#EE4D4D"/>
<path d="M9.63733 112.268L9.77212 113.247C10.2102 113.585 10.6482 113.382 10.783 113.787C10.8841 113.078 10.4461 112.741 9.60364 112.268H9.63733Z" fill="#EE4D4D"/>
<path d="M8.8623 110.58V111.019C9.06449 111.154 9.19927 111.187 8.8623 110.58Z" fill="#EE4D4D"/>
<path d="M8.92972 111.998V111.052C8.55905 110.816 8.0536 110.242 8.86233 111.424C8.42427 110.85 8.79493 111.424 8.92972 111.998Z" fill="#EE4D4D"/>
<path d="M8.4579 111.93C7.88505 111.728 7.3796 111.728 7.24481 110.748C6.70566 111.66 7.91875 112.842 8.4579 111.93Z" fill="#EE4D4D"/>
<path d="M2.45984 109.094L1.68481 108.824L1.95439 109.668C1.8196 109.263 2.9653 109.668 2.45984 109.094Z" fill="#EE4D4D"/>
<path d="M12.9396 111.019C12.6363 110.613 11.895 110.107 11.4569 109.634L11.558 110.343C11.9287 110.478 12.4341 110.478 12.9733 111.019H12.9396Z" fill="#EE4D4D"/>
<path d="M11.4569 109.634L11.3221 108.588C10.8503 108.858 11.0525 109.229 11.4569 109.634Z" fill="#EE4D4D"/>
<path d="M7.17749 108.52L7.64925 110.546L7.31228 108.385L7.17749 108.52Z" fill="#EE4D4D"/>
<path d="M14.6918 109.567L15.1973 110.681L14.4896 108.959L14.6918 109.567Z" fill="#EE4D4D"/>
<path d="M15.6691 108.452C16.1408 109.364 17.0169 109.499 17.2191 110.107C17.4213 109.702 17.118 108.858 16.8485 108.081C16.8485 108.621 16.5452 108.756 15.6691 108.452Z" fill="#EE4D4D"/>
<path d="M16.5115 106.899C16.5115 107.169 16.68 107.608 16.8484 108.081C16.8484 107.811 16.7474 107.44 16.5115 106.899Z" fill="#EE4D4D"/>
<path d="M12.2319 108.115C12.4678 108.317 13.0744 108.858 13.5461 108.925L12.4341 107.98C12.4341 107.98 12.2993 108.081 12.2319 108.115Z" fill="#EE4D4D"/>
<path d="M12.4005 107.946H12.4342C12.6364 107.845 12.8049 107.743 12.8723 107.71C12.8049 107.71 12.6701 107.811 12.4005 107.946Z" fill="#EE4D4D"/>
<path d="M12.1978 108.148C12.1978 108.148 12.1978 108.148 12.2312 108.114C12.1309 108.014 12.0975 107.98 12.1978 108.148Z" fill="#EE4D4D"/>
<path d="M9.19924 108.486C8.92966 107.642 8.89597 106.528 7.58179 106.055C8.05354 106.967 8.79488 107.237 9.19924 108.486Z" fill="#EE4D4D"/>
<path d="M10.8168 106.967L10.1428 107.136C10.4124 107.406 10.8505 107.743 10.9852 108.182L10.8168 106.967Z" fill="#EE4D4D"/>
<path d="M10.7156 106.427L10.8167 106.967L11.0525 106.899L10.7156 106.427Z" fill="#EE4D4D"/>
<path d="M14.8267 106.562C14.6245 105.92 14.8267 105.684 14.9952 105.38C14.5234 105.38 14.1528 105.515 13.8832 105.751C14.1528 106.123 14.5571 106.832 14.8267 106.562Z" fill="#EE4D4D"/>
<path d="M13.5798 107.136C13.5798 107.136 13.5798 107.068 13.5798 107.034C13.4787 106.967 13.4113 106.967 13.5798 107.136Z" fill="#EE4D4D"/>
<path d="M17.4887 103.253C17.4887 103.253 17.3539 103.151 17.2865 103.084C17.3539 103.151 17.3876 103.219 17.455 103.286H17.5224L17.4887 103.253Z" fill="#EE4D4D"/>
<path d="M13.6809 105.616C13.3103 105.616 13.4114 105.954 13.5799 106.393C13.6473 106.156 13.7483 105.954 13.9168 105.785C13.8157 105.616 13.7146 105.515 13.6809 105.616Z" fill="#EE4D4D"/>
<path d="M16.781 105.785C16.4778 105.65 16.1745 105.549 15.9049 105.481C16.3093 105.751 16.9832 106.089 16.781 105.785Z" fill="#EE4D4D"/>
<path d="M13.8832 107.271V107.338C14.1528 107.507 14.0517 107.406 13.8832 107.271Z" fill="#EE4D4D"/>
<path d="M13.8831 107.271C13.8831 107.034 13.7146 106.697 13.5798 106.359C13.5461 106.562 13.5124 106.764 13.5798 107.001C13.6809 107.068 13.8157 107.136 13.9168 107.237L13.8831 107.271Z" fill="#EE4D4D"/>
<path d="M12.1646 95.5881C13.007 96.6348 13.2766 98.0192 11.895 97.3439C12.0972 98.4919 15.2647 101.564 17.2865 103.05C16.9159 102.611 16.5789 102.206 16.5115 101.193C15.8713 100.788 14.3549 100.822 13.9505 99.5386C14.119 98.4919 14.7593 99.4711 15.5343 99.7412C14.1864 98.6945 14.7256 97.2426 12.9733 95.4868V96.6011C12.7374 96.3309 12.5353 95.6894 12.1646 95.5543V95.5881Z" fill="#EE4D4D"/>
<path d="M16.2756 103.759L16.2083 104.063C16.5789 104.063 17.0844 104.299 18.0616 104.84C17.9605 104.063 17.6909 103.624 17.4213 103.286L16.343 103.962L16.2756 103.759Z" fill="#EE4D4D"/>
<path d="M15.3658 104.806C14.5571 103.59 14.6245 102.712 13.3103 101.767C12.8048 102.341 13.7146 103.016 13.782 103.793C14.456 102.712 14.0516 104.637 15.2647 104.671C15.2647 105.008 15.1299 105.211 15.0288 105.38C15.2984 105.38 15.6017 105.38 15.9386 105.481C15.9386 105.481 15.8712 105.481 15.8712 105.447C15.7028 105.346 15.6354 105.279 15.7365 105.312C15.7365 105.312 15.7365 105.312 15.7365 105.279C15.6017 105.11 15.5006 104.975 15.4332 104.84C15.9049 104.84 15.7365 105.076 15.7365 105.279C15.7701 105.346 15.8038 105.38 15.8712 105.447L16.2419 104.063C15.9049 104.063 15.7028 104.333 15.3995 104.806H15.3658Z" fill="#EE4D4D"/>
<path d="M5.99805 103.286C5.99805 103.286 6.16653 103.422 6.23393 103.523C6.16653 103.32 6.13283 103.219 5.99805 103.286Z" fill="#EE4D4D"/>
<path d="M6.94152 103.59C7.00892 103.793 7.34588 104.299 7.00892 104.367C6.53716 104.198 6.53716 103.827 6.23389 103.489C6.36867 103.894 6.46977 104.671 7.34588 104.84L7.27849 104.637C7.98613 104.705 9.63727 105.65 9.70467 105.853C8.72746 104.975 8.01982 104.333 6.94152 103.59Z" fill="#EE4D4D"/>
<path d="M10.9514 103.894L11.2547 102.679L10.0416 102.071L10.5471 102.611C9.90684 102.78 10.6145 103.388 10.9514 103.86V103.894Z" fill="#EE4D4D"/>
<path d="M18.0278 103.725L18.9377 104.941L17.9604 102.949L18.0278 103.725Z" fill="#EE4D4D"/>
<path d="M18.9039 102.712L19.7464 103.759L19.4768 102.915L18.9039 102.712Z" fill="#EE4D4D"/>
<path d="M63.5523 41.767V41.2943C63.4849 41.4631 63.5186 41.632 63.5523 41.767Z" fill="#EE4D4D"/>
<path d="M61.9012 43.1176L62.3056 43.6578C62.1371 43.3202 62.0023 43.0838 61.9012 43.1176Z" fill="#EE4D4D"/>
<path d="M42.9635 81.5081C44.1092 82.1496 45.7266 83.2976 44.7157 82.2172L43.6711 81.2042C43.6037 81.6094 43.3342 81.6432 42.9972 81.5081H42.9635Z" fill="#EE4D4D"/>
<path d="M53.7802 60.4727C53.7802 60.4727 53.5106 60.3039 53.4095 60.2363C53.6454 60.6753 53.8813 61.1142 54.1172 61.4856C54.0161 61.1817 53.915 60.8441 53.8139 60.5064L53.7802 60.4727Z" fill="#EE4D4D"/>
<path d="M50.0399 55.7119L51.0845 56.0496C50.7812 55.8807 50.4443 55.7794 50.0399 55.7119Z" fill="#EE4D4D"/>
<path d="M71.3364 32.9207L70.6287 31.5701C70.2244 31.9415 70.8983 32.3467 71.3364 32.9207Z" fill="#EE4D4D"/>
<path d="M28.6423 93.5284C29.2826 93.731 29.6869 93.6972 29.9228 93.5959C29.0467 93.2582 27.9347 92.5492 28.6423 93.5284Z" fill="#EE4D4D"/>
<path d="M73.1223 54.0574C73.0886 53.7535 72.9538 53.4496 72.7179 53.2133C72.7179 53.5171 72.8527 53.821 73.1223 54.0574Z" fill="#EE4D4D"/>
<path d="M30.6979 92.8531C30.6979 92.8531 30.462 92.7855 30.3272 92.718C30.2935 93.0894 30.1924 93.3933 29.8892 93.5621C30.5631 93.8323 31.1022 93.866 30.6979 92.8531Z" fill="#EE4D4D"/>
<path d="M104.022 6.01016C104.022 6.01016 104.123 6.01016 104.225 6.07769C104.09 5.90887 104.056 5.94263 104.022 6.01016Z" fill="#EE4D4D"/>
<path d="M123.027 9.04895C123.027 9.04895 122.859 9.31907 122.724 9.45413C122.859 9.45413 122.96 9.35283 123.027 9.04895Z" fill="#EE4D4D"/>
<path d="M23.2845 99.7411C23.1497 100.011 23.3519 99.8761 23.2845 99.7411V99.7411Z" fill="#EE4D4D"/>
<path d="M18.4659 96.2634C18.4659 96.2634 18.2974 95.9258 18.0952 95.6556C18.2974 95.9258 18.4322 96.1283 18.4659 96.2634Z" fill="#EE4D4D"/>
<path d="M26.8227 84.1756C26.5868 84.0068 26.6205 84.0405 26.8227 84.1756V84.1756Z" fill="#EE4D4D"/>
<path d="M22.5432 99.5048C22.7454 99.5723 22.9139 99.6061 23.0824 99.6061C22.9813 99.5723 22.7791 99.5385 22.5432 99.5048Z" fill="#EE4D4D"/>
<path d="M23.0149 100.011C23.0149 100.011 22.8128 100.045 22.7454 100.079C22.8801 100.281 23.0149 100.383 23.0149 100.011Z" fill="#EE4D4D"/>
<path d="M23.5205 99.4373C23.5205 99.4373 23.2509 99.6061 23.0824 99.6061C23.1835 99.6398 23.2509 99.7074 23.2846 99.7411C23.3183 99.6736 23.3857 99.5723 23.5205 99.4373Z" fill="#EE4D4D"/>
<path d="M89.499 23.8717C89.499 23.8717 89.5664 23.8717 89.6338 23.9393C89.4317 23.2977 89.4317 23.4666 89.499 23.8717Z" fill="#EE4D4D"/>
<path d="M38.4142 65.3008V65.3678C38.4142 65.3678 38.4476 65.3678 38.481 65.3678L38.3807 65.2673L38.4142 65.3008Z" fill="#EE4D4D"/>
<path d="M38.4481 63.8154C39.3242 65.4699 38.9873 65.4699 38.5155 65.3686L41.5482 68.3399L38.4818 63.8154H38.4481Z" fill="#EE4D4D"/>
<path d="M67.1242 38.0867L65.7426 37.5465C64.9676 35.3517 65.9111 35.5206 64.1926 34.5414C67.1242 38.0529 62.4403 36.6686 65.3719 40.2139L64.3947 39.7749C64.3947 39.7749 64.3947 39.5048 64.4958 39.4373C62.3729 38.3568 66.1807 42.3748 64.8665 42.6449C64.3273 42.6449 63.6871 42.341 63.5186 41.7333L63.586 43.1852C63.3164 43.2865 62.8447 42.6449 63.1143 42.5436L62.3392 43.7254L62.2718 43.6241C62.6088 44.2994 62.9795 45.4136 63.148 45.9201C62.4403 45.65 62.9458 45.4474 62.5077 45.076L62.6762 46.4266C61.6653 45.7175 61.3957 44.4682 61.9012 44.2319C58.363 41.2268 62.1707 45.5149 59.2728 44.502L59.4413 43.5903C57.3858 41.9359 57.588 43.0163 55.9031 42.3073C56.6108 42.8138 59.812 44.3332 59.9468 45.7175C59.5424 45.6162 59.2054 45.7175 59.475 46.6629C58.3967 45.4474 58.3293 46.0214 57.9923 46.4604L56.6107 44.8059C56.6107 45.65 57.3184 46.4604 57.7227 47.4058C57.0825 47.6759 55.9031 46.4941 54.8585 45.5487C53.8476 45.9876 57.1499 47.1019 56.5097 48.2161C55.3303 48.1486 55.4314 49.2291 55.4988 50.8835C54.5552 50.7147 54.7237 49.8031 54.1509 49.4992L54.8585 51.1537C54.8585 51.1537 54.4205 50.7822 54.252 50.5797C54.3531 51.39 55.6335 52.2341 55.4988 53.1458C56.914 55.0704 52.1291 51.4913 53.2074 54.0912C52.6345 53.7873 52.4323 53.0107 51.8258 52.4367C52.0617 54.5639 51.8932 54.0912 52.7019 56.556L51.1182 56.0495C52.6345 56.8599 53.3085 58.8183 53.8139 60.4727C54.4879 60.9117 55.0944 61.3168 55.3977 61.4857L55.3303 63.1064C54.9933 62.9376 54.5889 62.296 54.1509 61.4857C54.2183 61.6545 54.2857 61.8571 54.3531 62.0259C53.5443 61.6883 52.8704 60.6078 52.2976 59.5273C52.6682 59.7637 53.0726 60 53.4769 60.2701C52.8367 59.0884 52.0617 57.8391 51.1856 56.9274C51.2866 57.1638 51.3203 57.4001 51.2866 57.6027C51.1182 57.2988 50.9497 57.0287 50.7812 56.8599C50.6127 56.7248 50.8149 57.1638 51.0508 57.6703L49.2985 56.0158L49.8714 56.7924L47.7822 56.6235C48.5909 59.1221 50.242 62.4311 49.6355 64.2544C48.7931 62.6674 47.8159 62.0259 46.468 60.439C48.2539 61.8233 46.805 58.8858 47.7485 58.6494C47.243 58.7845 46.6702 57.9404 46.5354 57.6027L46.7039 60.1351C45.5919 58.8183 45.6256 59.3923 44.8505 59.1221C47.3104 61.4857 45.4571 61.5532 45.693 62.7687C44.9179 61.9246 44.2777 60.9792 45.019 60.6753C42.7276 59.291 46.805 64.3894 44.7831 63.2752C44.9179 63.1401 45.0864 63.2077 44.7831 62.7012C45.1201 63.7479 43.8059 63.8492 43.3342 62.9376L43.469 62.8025C42.2896 63.309 40.6384 65.2336 42.3907 67.5296C42.1548 67.2594 40.2341 64.8284 39.9308 64.3219L44.6147 73.067C43.132 71.0749 38.7514 67.1244 38.5829 65.4024C38.1448 65.3349 37.6057 65.2673 37.7068 66.314C38.0775 66.4491 40.4025 68.6776 40.3688 69.0152C38.0101 67.4283 39.021 68.2386 36.797 67.0906C37.3698 67.2932 39.6612 70.4333 39.2232 70.6359C38.8862 70.1632 36.6959 67.7659 36.5611 67.3607L38.1785 71.0073C37.9427 70.2983 36.123 68.5425 35.2132 67.901C35.7861 68.3737 34.4045 68.5087 34.4045 69.0152L35.348 69.3529C33.9664 69.7918 37.8416 74.2488 36.7296 74.9578C36.3252 74.2488 33.8653 71.0749 33.0566 71.1424C34.1012 72.7969 38.1448 79.0771 38.2796 81.0017L37.3698 80.3264L37.5383 81.8796C36.0556 79.3135 33.1914 73.641 32.2479 71.2775C31.3044 70.9398 31.2707 70.3658 30.7989 70.9398C29.9228 70.332 30.0576 69.4879 30.1924 69.2853L28.4401 69.9269C29.9902 71.5813 28.9456 72.5267 30.2261 73.9111L30.0913 70.906C31.6413 72.5605 33.4947 76.4772 32.3153 76.9837C31.4729 76.511 29.8554 73.7761 29.3163 73.2358C29.7206 73.9449 29.4174 75.1266 28.9793 74.789L28.5749 73.5397C27.4966 73.3371 29.7206 76.5448 27.6651 75.4643C27.3618 75.5318 25.1041 73.8098 25.9466 74.8565C28.0021 76.511 33.3262 82.4874 34.3708 84.1418C34.1686 84.0743 31.6413 83.264 30.5294 82.4874C28.8445 81.2718 27.901 78.3681 26.452 77.3214C26.8564 77.7941 27.1597 78.5369 27.2271 78.807C26.6542 78.6044 26.0477 77.2876 25.7444 77.9291C27.1597 79.7524 24.6324 78.6382 26.789 79.5836C26.7553 80.4952 25.9803 79.6849 25.4748 80.2251C26.6205 81.2043 28.3054 84.4795 28.238 85.3911C27.8673 84.9184 27.2607 84.4457 26.9912 84.2431C25.8792 84.9522 24.6661 84.6145 23.7563 85.3911C23.3182 85.0535 22.4084 84.9184 21.9703 84.0068C22.1051 84.4119 22.5095 85.121 22.2399 85.4249C20.3866 84.4119 22.678 84.6483 20.6899 83.1964C21.5323 84.2431 21.1616 85.2223 21.3301 86.2015C22.8128 87.6534 22.5095 85.695 22.3747 84.7158C24.228 86.8768 25.5085 89.713 25.4074 91.5363C25.1041 92.7181 23.8574 90.4221 23.9921 90.861C22.2399 91.7389 26.0477 95.6556 23.5204 95.1492C21.8692 94.2037 21.1279 92.448 20.1844 91.5363C20.3529 90.4896 21.9029 91.5701 22.2736 91.1649L21.1953 90.9623C20.9931 90.3208 21.0942 89.6455 21.6671 89.8143C20.2181 88.9364 19.0724 91.6714 16.9832 91.5026C17.1854 92.1441 17.2528 92.8869 17.893 93.3259L18.0615 92.8194C19.342 93.6297 18.7354 94.9128 19.6116 95.0479C19.8137 96.2296 20.3529 97.9179 19.1735 97.8503L17.6908 96.3984C18.0952 96.8374 18.9376 96.9387 18.7017 96.3309C19.0387 97.2763 15.8712 95.0816 17.3202 97.4114L18.7354 98.0867C18.9376 99.2684 19.8137 101.429 18.8028 101.463C20.4203 102.78 18.8028 101.159 20.7572 102.611C18.4322 100.687 22.341 101.396 19.7126 99.5386C21.9703 101.261 21.229 99.7749 23.3182 101.092C22.8465 100.585 22.2736 100.281 22.9812 100.113C22.8802 99.9437 22.7454 99.7074 22.678 99.5723C22.678 99.5723 22.7117 99.5723 22.7454 99.5723C22.7454 99.5723 22.678 99.5723 22.678 99.5386C22.6106 99.4373 22.6443 99.4373 22.678 99.5386C22.3747 99.4035 22.0377 99.2347 21.7345 98.9646C20.9594 97.5802 21.7345 96.9387 21.4986 96.0946C22.004 96.0946 21.9029 96.8036 22.5432 97.2088L22.1388 95.9595C23.1834 97.0737 24.565 97.175 24.4639 98.4581L25.1378 97.9854C26.0477 98.323 26.789 98.1205 26.6542 97.3776C27.1597 97.3776 26.2835 95.4868 26.8227 96.601L27.1597 95.0479L27.4292 95.318C28.5075 94.6427 27.7325 91.7051 30.6304 92.8194C30.6978 92.2454 30.7315 91.6039 31.5403 91.4688L32.5175 92.3804C32.6186 91.6714 34.6067 92.2791 33.899 91.0974C36.6622 93.3596 36.3926 89.9494 37.5383 89.7806L36.4263 88.4637C36.9992 88.0923 37.1339 87.3157 37.3024 86.269L36.2578 85.1548C35.9882 83.7367 38.347 84.7834 39.0884 83.9055C39.4253 84.3782 39.0884 84.4795 38.7177 84.3444C41.9526 86.0327 39.2232 80.6303 41.7504 81.7108C41.6156 81.103 41.9189 81.103 42.3233 81.2381C42.3233 81.2381 42.3233 81.3056 42.3233 81.3394C42.357 81.3394 42.3907 81.3056 42.4244 81.2718C42.6939 81.3731 42.9972 81.5082 43.2668 81.6095C42.9298 81.4069 42.6265 81.2718 42.4581 81.2381C42.6265 81.0692 42.7613 80.6978 42.7613 80.1576L43.9407 81.2718C43.9407 81.2718 43.9407 81.2381 43.9407 81.1705C44.581 81.4069 43.6374 80.3939 42.6939 79.6174C42.6602 79.3135 42.5591 78.9421 42.3907 78.5706C44.3114 80.3602 42.4917 77.3214 44.6147 79.1784C43.907 77.9967 45.2549 77.2538 43.5027 74.9578C43.7722 75.2279 43.9407 75.2955 43.8396 75.4305C44.3451 75.4305 44.8505 75.4305 44.581 74.5864L46.0636 76.0383L44.8842 73.4046C46.0973 74.0124 46.7376 74.4176 47.4115 75.9708C46.7376 73.3033 47.5463 74.6202 46.7376 72.1216L47.58 73.1683C47.8159 72.8982 47.1082 71.1424 47.9843 71.8177C50.2757 73.202 51.3203 69.3529 54.4878 69.758C51.5899 67.0569 56.4086 70.4333 54.4878 68.0698C55.1955 68.6776 55.7683 68.8802 56.0379 69.7243C56.2738 68.3062 58.2282 69.7243 57.1162 67.327C57.8238 67.9347 57.8238 68.5087 58.2956 68.8464C58.2282 68.6438 58.026 68.0023 58.4641 68.3399C58.9021 68.6776 58.8684 69.049 59.0032 69.4542C59.7446 68.61 57.9586 66.3478 56.2401 64.2882C57.4869 64.8622 57.588 64.5583 56.7455 62.9713C57.4869 63.5116 58.3293 63.9843 57.9923 64.6933C58.363 64.5245 60.6207 64.0856 59.2391 62.4311C59.6772 62.7687 59.7446 62.1947 59.6772 61.9246C60.4185 61.4519 60.6207 61.5532 61.1261 60.8104L60.7218 60.7091C59.2728 58.5144 60.8903 59.7974 61.1935 59.1221L61.362 59.3247C63.7882 59.6961 61.2946 58.2105 63.8893 58.7845L62.7773 57.6027C60.6207 54.8678 65.1698 58.2443 64.9676 56.6235L64.1252 56.1508C63.7208 54.9353 68.2699 58.8183 68.9438 58.8183C69.2134 58.9871 69.146 59.291 69.1797 59.5611C71.5048 60.2364 67.9329 57.8391 68.3373 56.8261C69.2134 57.569 70.0558 59.1559 70.6961 58.8858C71.5385 59.3585 69.6852 54.834 71.8081 55.9145C71.0667 55.3742 70.3591 54.834 70.258 54.0574C70.5613 53.3484 73.8636 55.3405 72.5157 52.8419C72.7516 52.977 72.9201 53.112 73.0548 53.2808C72.9875 52.403 73.5603 51.2549 72.819 49.9044C76.8626 53.7873 73.5266 45.6838 76.8963 49.6005L77.9409 48.3174L78.2442 48.7564C79.2551 48.3174 78.7159 47.1694 78.1768 45.9876C78.5811 46.0889 78.7833 46.5616 78.9181 46.798C80.7377 46.5954 80.704 46.3253 79.9964 43.5228L81.2095 44.7046C80.8388 43.7592 84.5792 45.2448 84.4444 42.78C84.5455 42.9488 84.7477 43.1852 84.8151 43.4553C84.8151 40.8554 90.8805 44.2994 87.3423 39.3022L87.2075 37.4452C85.826 38.0192 85.6238 35.318 84.5118 34.9466C84.714 34.305 86.8032 35.3855 86.4999 36.0608L86.2303 35.892C88.1174 38.4581 88.3195 35.5543 89.7011 37.2426C91.7229 35.2842 94.9578 34.7777 97.047 33.157L95.1937 31.5026L95.9687 30.9961C96.5416 31.2662 97.4851 32.2454 96.9123 32.583C98.0917 33.4271 96.9797 30.9623 96.6427 30.5571C98.2601 30.4559 98.159 33.0557 98.496 32.8531L98.7656 32.3467L98.496 32.2116C98.159 31.1649 97.4851 30.3208 98.159 29.9156C98.8667 29.9494 99.3384 30.8948 99.5743 30.8273C99.6754 30.9623 99.7765 30.9623 99.8439 30.6922L100.855 30.0844L99.2373 28.9027C99.0015 27.8222 100.113 28.2611 98.2601 26.9443C101.091 29.004 102.337 25.0197 103.382 25.4924C102.978 23.9392 103.551 23.5003 104.326 23.0614C103.888 22.8925 102.371 21.3394 103.112 21.0355C105.876 24.6145 105.438 21.6095 108.032 23.6354C106.213 22.3523 109.313 21.8121 106.651 20.0563C107.358 19.9212 107.796 21.3056 108.841 21.7783C108.841 19.4485 112.11 20.4615 113.12 18.7732C112.75 18.3005 111.907 17.8278 111.638 16.8824L114.334 18.4694C114.435 17.9966 112.345 15.6669 114.199 16.7811C113.794 16.4772 113.188 16.0045 113.255 15.7006C117.905 15.4643 117.333 8.98145 123.701 10.6697C122.556 10.1295 122.758 9.82557 122.994 9.55545C122.623 9.52169 122.05 8.44122 121.477 7.86722L124.106 8.54251C122.859 6.68545 125.251 7.32698 123.971 5.60498L123.836 6.21274C122.69 3.88297 119.489 2.59991 117.434 0.101318C118.748 2.73497 113.188 -1.82327 114.974 2.05968C114.334 1.72203 114.468 1.11426 113.862 0.641555C114.536 1.89085 114.468 2.36356 113.525 2.32979L113.356 2.02591C112.143 3.54533 110.627 3.03885 108.403 3.78168L109.582 4.89592C109.077 5.03098 108.706 4.72709 108.268 4.55827C109.448 6.75298 109.346 3.81544 110.728 6.14521C108.133 4.08556 108.234 8.23863 105.505 5.74004C104.966 6.17898 106.887 6.98933 106.314 7.46204L105.505 6.82051L106.213 7.90098C105.707 8.03604 104.73 7.25945 104.157 6.61792C104.326 6.61792 104.258 6.21274 104.292 6.07768C103.079 5.57121 103.281 7.4958 102.877 7.36074H103.786C102.944 9.35287 100.282 9.92687 100.215 12.6956L100.821 13.1683C100.653 15.1604 99.4058 13.3033 98.6645 14.8228L98.5971 14.6539C98.8667 15.4305 98.7993 16.0045 98.3949 16.2071C98.1254 15.2955 96.7101 15.3968 96.4742 14.3163C96.272 16.4772 96.6764 15.7006 97.721 18.5031L96.7101 17.7265C97.1818 18.807 97.5525 19.2797 97.1818 20.0563C96.9797 18.807 95.5644 18.9421 95.16 17.3889C92.1273 16.4097 95.1263 21.0692 91.9251 18.5706C93.61 21.677 94.2502 19.0771 94.4187 19.9212C95.4296 20.529 95.6318 22.2848 95.0252 22.3523C94.5872 22.6562 91.4534 19.5836 90.4762 20.529C90.5772 20.4615 90.4088 20.2589 90.5435 20.1914C89.6 19.8537 90.6109 21.7445 89.1957 21.0355C90.3077 22.825 88.5217 21.4744 90.2066 23.5341L90.712 22.251C90.6446 23.2302 92.2284 25.9989 90.3751 25.6275C90.0718 25.1548 89.8696 24.412 89.8022 23.9392C89.0272 23.5678 89.6674 24.7496 88.8587 24.3782C87.1739 22.2848 89.6 22.9601 88.825 20.9342C87.8141 20.3264 89.0272 23.2977 87.4097 20.9004C89.4315 24.0405 86.1292 21.4069 87.2749 24.1081L86.264 22.8588C86.3314 23.1289 86.601 23.9055 86.3651 24.0405L85.3542 22.1497C85.9608 23.973 83.2987 21.9134 83.3998 23.0951C84.4781 22.0822 84.9162 24.3444 86.1292 24.8171C86.1629 27.6196 82.5911 22.3523 81.5802 24.2431C81.6476 23.9055 82.9954 24.3107 83.1639 25.121C82.6585 25.121 81.8834 24.986 81.1421 24.5132C80.3671 25.6275 82.3889 25.6275 82.5911 26.7417C80.9736 25.56 82.5911 27.7884 82.5911 28.6326L81.5128 27.417C79.6931 27.6196 83.4335 30.2533 81.5802 30.1857L80.5356 28.0923L80.3671 29.004L79.2551 27.5183C79.5583 29.0715 79.154 28.9702 78.2442 29.0715C79.1203 29.8143 80.0975 31.3675 79.6257 31.8402C78.6485 31.4013 78.817 30.4896 78.2442 31.3C77.7387 30.3883 77.0648 29.2741 78.379 30.1182C78.0757 29.6793 77.8735 29.2066 77.5702 28.7676C76.4582 28.2611 76.4582 29.4091 76.2224 29.6455C76.3571 29.6117 76.5256 29.578 76.7615 29.6793L77.1996 32.2791C76.6267 31.9753 76.4582 31.4688 76.2561 30.9961C76.155 31.3 76.4919 32.009 76.2561 32.3804C75.481 31.3 74.5375 30.287 74.5712 29.4429V31.435C74.0994 31.0636 72.9875 30.6922 72.7853 30.2195C71.7407 30.1182 73.1222 33.3259 71.707 33.1908C71.8418 33.4272 71.9092 33.6635 71.8755 33.9336C70.9993 34.305 69.3145 33.6297 69.6852 35.6894L67.6633 34.305C67.3938 35.2842 70.258 36.027 69.7862 37.614C69.5167 38.8295 68.1688 36.3309 67.4949 36.0608C67.8992 37.2763 68.8427 39.7074 66.8883 38.8295C66.8209 38.2893 67.2253 38.3906 67.3264 38.0867H67.1242ZM59.9468 45.7513C59.8794 45.3461 59.475 44.2994 60.2163 44.9409C61.2609 46.4941 60.5533 45.9539 59.9468 45.7513ZM50.5453 59.1559C50.3094 58.6494 50.6464 58.6832 51.2529 58.9871C51.1856 59.2234 50.9834 59.3247 50.5453 59.1559ZM24.6661 96.7699C24.6661 96.7699 24.6661 96.7361 24.6324 96.7023C25.3737 96.8712 25.1041 96.8036 24.6661 96.7699ZM23.4867 96.8374C23.5541 97.0737 23.7226 97.2426 23.8911 97.3776C23.6552 97.04 23.8237 96.8712 24.0595 96.8036C23.7226 96.5335 23.453 96.3984 23.4867 96.8374ZM98.9341 30.1857L98.5297 29.9831C98.5297 29.3416 98.7319 29.7468 98.9341 30.1857Z" fill="#EE4D4D"/>
<path d="M50.4779 56.2521C50.7138 56.4209 50.916 56.6235 51.1181 56.8598C50.9834 56.5897 50.7812 56.3534 50.4779 56.2521Z" fill="#EE4D4D"/>
<path d="M71.4711 33.157C71.4711 33.157 71.4711 33.157 71.5048 33.157C71.4711 33.0557 71.4037 32.9882 71.3363 32.9207L71.4711 33.157Z" fill="#EE4D4D"/>
<path d="M25.4075 76.8824C25.7107 76.9162 25.9803 77.085 26.2499 77.2876C25.9803 76.9837 25.7107 76.7811 25.4075 76.8824Z" fill="#EE4D4D"/>
<path d="M21.5997 102.172L21.7682 101.463C21.5997 101.699 21.2964 101.531 21.0269 101.429C21.2964 101.699 21.7345 102.037 21.5997 102.206V102.172Z" fill="#EE4D4D"/>
<path d="M11.0862 97.9854C11.1536 98.188 10.9514 98.1205 11.0188 98.3231L11.5243 98.8633C11.7602 98.5932 11.558 97.9517 11.0525 97.9517L11.0862 97.9854Z" fill="#EE4D4D"/>
<path d="M17.6235 98.458C16.68 97.4451 16.7137 98.0529 16.5452 98.5256C16.5452 98.5256 16.5452 98.4918 16.6126 98.4918C17.792 100.011 17.6909 99.2346 17.6235 98.4918V98.458Z" fill="#EE4D4D"/>
<path d="M16.5452 98.627C16.5452 98.627 16.4104 98.8633 16.2756 98.8971C16.7474 99.5048 16.5115 98.8971 16.5452 98.627Z" fill="#EE4D4D"/>
<path d="M23.2171 98.2892C22.8465 98.1542 24.2617 99.7074 23.8237 99.3359C24.8009 100.788 23.453 96.8711 23.2171 98.2892Z" fill="#EE4D4D"/>
<path d="M14.4222 95.2842L15.6353 96.4659L14.9277 95.2842H14.4222Z" fill="#EE4D4D"/>
<path d="M17.7246 94.0349L16.9159 94.1362C17.1181 94.3388 17.1518 94.5414 17.1518 94.6764C17.4887 94.4401 18.0616 94.4063 17.7246 94.0349Z" fill="#EE4D4D"/>
<path d="M17.1517 94.6764C16.9832 94.7777 16.8484 94.9465 16.9158 95.2504C16.9832 95.1491 17.1517 94.9465 17.1517 94.6764Z" fill="#EE4D4D"/>
<path d="M14.793 94.305L15.1636 94.4401L15.6017 94.2037L14.793 94.305Z" fill="#EE4D4D"/>
<path d="M23.3857 89.5442L23.6216 88.7001C23.2846 88.2274 22.914 88.0923 22.8466 88.43C22.9813 88.8352 22.914 89.2066 23.3857 89.5442Z" fill="#EE4D4D"/>
<path d="M18.7018 87.4845C19.0725 87.6196 19.3421 87.8897 19.7801 88.2273L18.4323 86.6404L18.7018 87.4845Z" fill="#EE4D4D"/>
<path d="M19.9822 85.7287C19.6452 85.256 19.6789 83.7704 19.0724 84.4794C19.4094 84.9521 19.1735 85.7962 19.9822 85.7287Z" fill="#EE4D4D"/>
<path d="M30.0239 80.4614L29.9229 80.5965L32.1805 83.1964L30.0239 80.4614Z" fill="#EE4D4D"/>
<path d="M31.9784 67.8672C30.799 67.8334 33.2252 69.5892 31.9784 69.3528C32.349 70.0957 33.023 69.5554 33.3263 70.2307C33.1578 69.2515 33.6969 69.4204 32.0121 67.8672H31.9784Z" fill="#EE4D4D"/>
<path d="M33.2925 70.197C33.2925 70.197 33.3599 70.5347 33.4273 70.771C33.4273 70.5009 33.3599 70.3321 33.2925 70.197Z" fill="#EE4D4D"/>
<path d="M125.757 9.08274L126.667 9.25156L125.622 8.6438L125.757 9.08274Z" fill="#EE4D4D"/>
<path d="M124.914 6.4491L126.464 8.00228L125.42 6.28027C125.42 6.28027 125.319 6.75298 124.948 6.41533L124.914 6.4491Z" fill="#EE4D4D"/>
<path d="M55.9032 43.4215L56.2065 43.8605C56.6445 44.2319 56.7793 44.1643 57.0152 44.063L55.8695 43.4215H55.9032Z" fill="#EE4D4D"/>
<path d="M62.6763 39.6736L62.5415 39.7411L64.0242 41.0579L62.6763 39.6736Z" fill="#EE4D4D"/>
<path d="M65.81 33.5959C65.5741 33.6972 65.6078 34.2375 65.3719 34.3388C65.5741 33.6972 67.4949 35.4192 65.81 33.5959Z" fill="#EE4D4D"/>
</g>
<defs>
<clipPath id="clip0_319_14193">
<rect width="126.667" height="120" fill="white"/>
</clipPath>
</defs>
</svg>
