<svg width="63" height="72" viewBox="0 0 63 72" fill="none" xmlns="http://www.w3.org/2000/svg">
<path d="M4.1799 1.6748H5.50699C6.19031 1.6748 6.82634 2.02367 7.19359 2.59992L23.7267 28.5422C24.4234 29.6354 23.912 31.0923 22.6849 31.5102L20.6853 32.1913C19.7911 32.4958 18.8058 32.1332 18.3223 31.3217L2.46169 4.69841C1.66748 3.36527 2.62811 1.6748 4.1799 1.6748Z" fill="#FFA800"/>
<path d="M16.9504 2.34961H17.8308H20.07C20.7345 2.34961 21.3557 2.67971 21.7275 3.2305L37.7048 26.8955C38.6016 28.2239 37.6499 30.0147 36.0472 30.0147H32.768C32.1001 30.0147 31.4763 29.6813 31.1052 29.126L15.2876 5.461C14.3994 4.13205 15.3519 2.34961 16.9504 2.34961Z" fill="#FFA800"/>
<path d="M59.9637 4.79628L41.105 32.6436C41.4977 32.0636 41.7283 31.3749 41.1207 31.0264C40.9402 30.9229 40.4247 30.5983 40.3093 30.4251L31.0388 16.5195L39.0464 2.67352C39.4039 2.05544 40.0638 1.6748 40.7778 1.6748H58.3078C59.9117 1.6748 60.8632 3.46819 59.9637 4.79628Z" fill="#898B8A"/>
<path d="M31.0388 16.5195L39.0464 2.67352C39.4039 2.05544 40.0638 1.6748 40.7778 1.6748H58.3078C59.9117 1.6748 60.8632 3.46819 59.9637 4.79628L40.9722 32.8397L41.105 32.6436C41.4977 32.0636 41.7283 31.3749 41.1207 31.0264V31.0264C40.9402 30.9229 40.4247 30.5983 40.3093 30.4251L31.0388 16.5195ZM31.0388 16.5195L21.7266 2.56466C21.3556 2.00869 20.7314 1.6748 20.063 1.6748H3.61733C2.0446 1.6748 1.08723 3.40637 1.92353 4.73832L19.568 32.8397" stroke="#14171A" stroke-width="2" stroke-linecap="round" stroke-linejoin="round"/>
<path d="M25.6407 30.0146L7.1496 1" stroke="#14171A" stroke-width="2"/>
<path d="M31.9863 30.0146L13.4951 1.6748" stroke="#14171A" stroke-width="2"/>
<circle cx="31.7136" cy="49.5825" r="20.9175" fill="#FFDA00" stroke="#14171A" stroke-width="2"/>
</svg>
