<svg width="46" height="54" viewBox="0 0 46 54" fill="none" xmlns="http://www.w3.org/2000/svg">
<path d="M13.3622 23.108L2.20785 4.38459C1.45016 3.11274 2.36661 1.5 3.84705 1.5C4.49896 1.5 5.10575 1.83283 5.45611 2.38258L17.2273 20.8528C17.924 21.946 17.4126 23.403 16.1855 23.8209L15.7252 23.9776C14.831 24.2822 13.8457 23.9196 13.3622 23.108Z" fill="#FFA800"/>
<path d="M22.8954 21.6114L11.6908 4.84794C10.8777 3.63152 11.7496 2 13.2128 2H14.5967C15.2613 2 15.8824 2.3301 16.2543 2.88089L27.3942 19.3809C28.2909 20.7092 27.3393 22.5 25.7366 22.5H24.5581C23.8903 22.5 23.2665 22.1666 22.8954 21.6114Z" fill="#FFA800"/>
<path d="M43.8861 4.62147L30.46 24.4467C30.7505 24.0173 30.9205 23.5077 30.4707 23.2498C30.337 23.173 29.955 22.9325 29.8694 22.8042L23 12.5L28.7841 2.49872C29.1416 1.88064 29.8014 1.5 30.5154 1.5H42.2301C43.8341 1.5 44.7855 3.29338 43.8861 4.62147Z" fill="#898B8A"/>
<path d="M23 12.5L28.7841 2.49872C29.1416 1.88064 29.8014 1.5 30.5154 1.5H42.2301C43.8341 1.5 44.7855 3.29338 43.8861 4.62147L30.3607 24.5934L30.4591 24.4481C30.7501 24.0183 30.921 23.508 30.4707 23.2498V23.2498C30.3369 23.173 29.955 22.9325 29.8694 22.8042L23 12.5ZM23 12.5L16.2534 2.38986C15.8824 1.83389 15.2582 1.5 14.5898 1.5H3.61733C2.0446 1.5 1.08723 3.23157 1.92353 4.56351L14.5 24.5934" stroke="#14171A" stroke-width="2" stroke-linecap="round" stroke-linejoin="round"/>
<path d="M19 22.5L5.29793 1" stroke="#14171A" stroke-width="2"/>
<path d="M23.7021 22.5L10 1.5" stroke="#14171A" stroke-width="2"/>
<circle cx="23.5" cy="37" r="15.5" fill="#DFDFDF" stroke="#14171A" stroke-width="2"/>
</svg>
